<?xml version="1.0" encoding="UTF-8" standalone="no"?>
<!DOCTYPE svg PUBLIC "-//W3C//DTD SVG 1.1//EN" "http://www.w3.org/Graphics/SVG/1.1/DTD/svg11.dtd">
<svg width="100%" height="100%" viewBox="0 0 1080 600" version="1.1" xmlns="http://www.w3.org/2000/svg" xmlns:xlink="http://www.w3.org/1999/xlink" xml:space="preserve" xmlns:serif="http://www.serif.com/" style="fill-rule:evenodd;clip-rule:evenodd;stroke-linejoin:round;stroke-miterlimit:2;">
    <g transform="matrix(1.10087,0,0,1.10087,59.191,-1476.77)">
        <g transform="matrix(1,0,0,1,0,18.8583)">
            <g>
                <g transform="matrix(0.283572,0,0,0.283572,-33.9052,1601.37)">
                    <path d="M2368.1,844C2304.5,837.8 2256.7,805.9 2240,758.5C2234.4,742.4 2232.9,733.4 2232.3,711.7C2231.7,691 2232,684.7 2237.5,594C2243.4,497 2246,440.4 2246,407.8L2246,393L2365.3,393L2364.7,425.8C2363.9,461.9 2362.5,494.2 2358,573C2351.3,691.2 2351.1,696.6 2353.1,707.5C2355.3,719.5 2362.3,728.4 2371.8,731.1C2378.2,733 2389.4,732.8 2395.7,730.6C2398.8,729.6 2402.6,727.2 2405,724.8C2413.7,716.4 2416.3,705.5 2418,669.5C2418.6,656.9 2420.6,617.9 2422.5,583C2427.5,491.1 2429,459.4 2429.7,424.4L2430.3,393.3L2451.3,392.7C2462.9,392.3 2489.8,392 2511.2,392L2550,392L2550,397.8C2550,417.1 2546.8,493.2 2541.5,602C2540.2,629.8 2538.4,668.7 2537.5,688.5C2536.7,708.3 2535.5,727.8 2534.9,731.9C2530.2,764.7 2515.9,789.3 2488.6,811.4C2467.6,828.5 2443.2,839 2415.4,843C2404.4,844.5 2379.4,845 2368.1,844Z" style="fill:rgb(28,2,36);fill-rule:nonzero;"/>
                </g>
                <g transform="matrix(0.283572,0,0,0.283572,-33.9052,1601.37)">
                    <path d="M1088,840.9C1047.6,838 1015,824.5 990.3,800.7C975.9,786.8 967.2,772.8 961.2,754C953.9,731.3 952.9,712.5 955.9,660.5C960.6,578.2 961.3,556.7 961.4,490.5C961.5,454.8 961.1,417.5 960.7,407.7L959.9,390L1019.9,390C1052.9,390 1080.1,390.4 1080.4,390.8C1080.6,391.2 1081.4,410.2 1082,433C1083.6,490.9 1082,551.2 1076,650.5C1073.6,689.8 1073.6,696.3 1075.5,705.5C1079.1,722.6 1090.4,730 1109.6,727.8C1117.2,727 1122.5,724.4 1127.3,719.1C1136.4,709 1137.8,701.9 1141,649.5C1146.9,550.7 1148.5,503.7 1147.6,448C1147.3,425.2 1146.7,403 1146.4,398.8L1145.7,391L1265.8,391L1266.6,401.7C1267.8,417.6 1267.5,511.6 1266.1,541C1263.2,603.6 1256.5,706.7 1254.5,721.2C1249.8,754 1239,775.3 1215.9,797.8C1188.2,824.5 1157.9,837.9 1117.9,841C1103.4,842.1 1103.5,842.1 1088,840.9Z" style="fill:rgb(28,2,36);fill-rule:nonzero;"/>
                </g>
                <g transform="matrix(0.283572,0,0,0.283572,-33.9052,1601.37)">
                    <path d="M1461.7,840.9C1443.1,838.8 1424.7,833.4 1408.5,825.4C1358.1,800.5 1325.4,748.4 1315.3,677C1312.9,659.8 1312.9,615.1 1315.3,596.5C1320.7,555.5 1329.7,523.7 1344.5,493.5C1366.6,448.2 1397.1,417.8 1438.4,400.1C1478.1,383.2 1534.8,380.6 1568.5,394.2L1574.5,396.6L1575.3,402.1C1576.2,407.9 1575.4,500.3 1574.4,513.3L1573.7,521L1567.6,515.1C1551.6,499.8 1533.1,493.5 1511.3,496C1474.4,500.1 1450.5,528.3 1440,579.9C1433.6,611.8 1433.6,645.2 1439.9,670.5C1449.3,707.4 1470.9,726 1504.4,726C1523.6,726 1540.6,719.7 1558.8,706.1C1563.8,702.3 1568,699.2 1568,699.4C1568,699.5 1567.1,706.8 1566,715.6C1562.8,741.6 1559.2,775.9 1557,801C1555.9,813.9 1554.8,825 1554.5,825.6C1554,827.3 1534.3,834.8 1523.3,837.6C1518.2,838.9 1510.3,840.4 1505.8,841C1496.4,842.1 1471.9,842.1 1461.7,840.9Z" style="fill:rgb(28,2,36);fill-rule:nonzero;"/>
                </g>
                <g transform="matrix(0.283572,0,0,0.283572,-33.9052,1601.37)">
                    <path d="M225.6,746C226,695.7 226.3,595 226.4,522.2L226.4,389.8L292,390.3C362.6,390.7 366.8,391 391.8,396.6C451,409.8 496.2,445 520.8,497C534.9,526.7 541.5,556.1 542.7,594C544.5,654.1 531.7,709.9 506.6,751C481.3,792.4 448.2,817.7 404.8,828.9C378.8,835.6 358.7,837 281.1,837.3L224.8,837.5L225.6,746ZM366.1,726.4C394.1,717.7 411.5,686.5 416.1,636.7C417.6,620.7 416.8,585.9 414.6,573.5C408.6,538.6 396.2,516.2 377.3,506.2C371.1,502.9 360.4,500.1 354.3,500L351,500L351,531.3C351,566.2 349.4,676.1 348.5,708.7L347.8,729.9L353.2,729.3C356.1,729 361.9,727.7 366.1,726.4Z" style="fill:rgb(28,2,36);fill-rule:nonzero;"/>
                </g>
                <g transform="matrix(0.283572,0,0,0.283572,-33.9052,1601.37)">
                    <path d="M2598.4,827.3C2597.6,814.7 2598.5,730.4 2600,689C2601.1,658.4 2602.6,623.5 2606.5,539.5C2607.8,510.4 2609.4,470.5 2610,451C2610.6,431.5 2611.3,410.5 2611.6,404.4L2612.2,393.3L2718.3,392.7C2776.6,392.3 2824.4,392.1 2824.5,392.2C2824.7,392.6 2823.3,451.7 2822.5,475.8L2821.8,496L2808.6,496C2801.4,496 2780.4,496.3 2761.9,496.7L2728.3,497.3L2727.6,518.4C2727.3,530 2726.7,545.3 2726.3,552.4L2725.7,565.2L2769.4,564.9L2813.1,564.5L2812.5,577.5C2811.8,593 2810,651.3 2810,658.8L2810,664L2722.2,664L2721.4,689.8C2721,703.9 2720.6,743.1 2720.6,776.7L2720.5,838L2599.2,838L2598.4,827.3Z" style="fill:rgb(28,2,36);fill-rule:nonzero;"/>
                </g>
                <g transform="matrix(0.283572,0,0,0.283572,-33.9052,1601.37)">
                    <path d="M2938.3,731.3C2938.6,672.5 2939.6,598.4 2940.4,566.5C2941.3,534.6 2942,506.1 2942,503.2L2942,497.8L2908.3,498.5L2874.7,499.3L2875.3,475.4C2875.7,462.3 2876.3,437.9 2876.6,421.3L2877.3,391L2930.4,391C2959.6,391 3016.9,390.7 3057.8,390.3L3132,389.7L3132,497L3064.3,497L3063.7,509.3C3063.3,516 3062.7,592.7 3062.4,679.8L3061.7,838L2937.7,838L2938.3,731.3Z" style="fill:rgb(28,2,36);fill-rule:nonzero;"/>
                </g>
                <g transform="matrix(0.283572,0,0,0.283572,-33.9052,1601.37)">
                    <path d="M1863.6,836L1814.6,835.5L1809.3,821C1800.1,796.3 1771.8,710.6 1758.4,667C1751.4,644.2 1745.4,625.1 1745,624.7C1743.2,622.6 1737,768.5 1737,814.8L1737,836L1617.8,836L1618.5,815.3C1620.1,763.3 1622,729.6 1630.4,606C1635.8,526.9 1638.5,452.8 1637.3,413.8L1636.7,392L1756,392L1756,415C1756,451.8 1753.5,503.8 1748.9,561.8C1747.8,576.2 1747,588.8 1747.2,589.7C1747.7,592.5 1782.3,508.7 1800,461.5C1804.5,449.4 1812,428.9 1816.5,416L1824.7,392.5L1887.9,392.2C1922.7,392.1 1950.9,392.3 1950.7,392.7C1950.4,393.2 1947.6,399.6 1944.5,407C1928.5,444.6 1902.2,499.9 1870.8,562L1847.8,607.6L1866.4,654.1C1895.1,726.3 1919.4,783.9 1940.4,829.3L1943.9,837L1928.2,836.8C1919.6,836.6 1890.5,836.3 1863.6,836Z" style="fill:rgb(28,2,36);fill-rule:nonzero;"/>
                </g>
                <g transform="matrix(0.283572,0,0,0.283572,-33.9052,1601.37)">
                    <path d="M1980.4,804.3C1981.6,747.3 1982.9,721.2 1989.5,620C1996.9,508 1999,463.3 1999,417.6L1999,391.7L2020.2,392.3C2031.8,392.7 2058.6,393 2079.8,393L2118.3,393L2117.7,431.8C2117.1,467.5 2115.5,505.3 2113,545.5C2112.5,554.3 2110.7,582.4 2109,608C2106.2,653 2103.8,691.9 2102.4,718.1L2101.8,730.7L2113.1,731.3C2119.4,731.7 2139.8,732 2158.4,732L2192.3,732L2191.7,753.2C2191.3,764.8 2191,788.4 2191,805.7L2191,837L1979.7,837L1980.4,804.3Z" style="fill:rgb(28,2,36);fill-rule:nonzero;"/>
                </g>
                <g transform="matrix(0.283572,0,0,0.283572,-33.9052,1601.37)">
                    <path d="M589.4,819.3C590.9,783 596,644.9 597.1,612.5C598.5,571.1 598.8,458.9 597.7,420.2L596.9,392.9L675.7,393.3C760.9,393.7 763,393.8 788.9,399.6C804.4,403.1 813.6,406.2 826.6,412.5C868.6,432.8 896.5,475.4 899.8,524.5C903.7,581.2 881.4,622.6 834.8,645.6C830.5,647.7 827,649.9 827,650.5C827,651.1 829.3,656.7 832.1,663C834.9,669.3 850.6,705.3 867,743C883.4,780.7 899.1,816.6 901.9,822.9C904.7,829.1 907,834.4 907,834.6C907,834.8 877.8,835 842.1,835L777.3,835L715.5,649.6L714.9,682.1C714.5,699.9 713.7,724.2 713.1,736C711.8,760.1 709,825.5 709,831.3L709,835L588.8,835L589.4,819.3ZM739.9,595.9C753.2,592.9 766.9,581.5 773.3,568C780.3,553.3 781.7,536.7 777.1,522C771.6,504.5 754.9,493.8 730.9,492.3L721.3,491.7L720.6,531.6C720.3,553.5 719.7,577.2 719.3,584.3L718.7,597L727.1,597C731.7,597 737.5,596.5 739.9,595.9Z" style="fill:rgb(28,2,36);fill-rule:nonzero;"/>
                </g>
            </g>
        </g>
        <g transform="matrix(1.023,0,0,1.023,0.223898,-31.7583)">
            <g transform="matrix(0.427635,0,0,0.427635,420.06,1696.32)">
                <path d="M56.635,-86.722C59.339,-86.722 60.691,-85.69 60.691,-83.625C60.691,-82.199 60.002,-79.839 58.626,-76.545L46.384,-46.974L59.511,-9.955C60.297,-7.546 60.691,-5.629 60.691,-4.203C60.691,-1.303 59.339,0.147 56.635,0.147L55.16,0L43.656,0C41.64,0 40.079,-0.455 38.973,-1.364C37.867,-2.274 37.068,-4.08 36.577,-6.784L32.447,-27.654L30.677,-27.654L26.105,-5.31C25.613,-2.802 24.692,-1.291 23.34,-0.774C21.988,-0.258 20.009,0 17.403,0L4.646,0C2.335,0 1.18,-1.106 1.18,-3.318C1.18,-4.547 1.745,-6.465 2.876,-9.07L18.731,-46.384L3.466,-79.126C2.876,-80.454 2.581,-81.879 2.581,-83.404C2.581,-84.928 3.036,-85.862 3.945,-86.206C4.855,-86.55 6.317,-86.722 8.333,-86.722L22.344,-86.722C25.146,-86.722 26.769,-85.862 27.211,-84.141L31.562,-62.977L33.111,-62.977L37.462,-82.887C37.855,-84.706 38.531,-85.8 39.489,-86.169C40.448,-86.538 41.64,-86.722 43.066,-86.722L56.635,-86.722Z" style="fill:rgb(28,2,36);fill-rule:nonzero;"/>
            </g>
            <g transform="matrix(1,0,0,1,429.977,5.49033)">
                <path d="M39.121,1676.82C36.248,1676.82 33.916,1674.49 33.916,1671.62C33.916,1668.74 36.248,1666.41 39.121,1666.41L403.439,1666.41C406.312,1666.41 408.644,1668.74 408.644,1671.62C408.644,1674.49 406.312,1676.82 403.439,1676.82L39.121,1676.82Z" style="fill:rgb(28,2,36);"/>
            </g>
            <g transform="matrix(1,0,0,1,-5,6)">
                <path d="M39.121,1676.82C36.248,1676.82 33.916,1674.49 33.916,1671.62C33.916,1668.74 36.248,1666.41 39.121,1666.41L403.439,1666.41C406.312,1666.41 408.644,1668.74 408.644,1671.62C408.644,1674.49 406.312,1676.82 403.439,1676.82L39.121,1676.82Z" style="fill:rgb(28,2,36);"/>
            </g>
        </g>
        <g transform="matrix(0.714936,0,0,0.714936,36.6378,1334.55)">
            <g transform="matrix(4.20278,0,0,4.20278,590.819,269.95)">
                <path d="M0,-21.484C-5.682,-21.276 -10.934,-25.257 -11.149,-31.608C-11.248,-34.441 -10.261,-36.919 -8.604,-38.779C-6.819,-40.784 -4.251,-42.072 -1.414,-42.307C1.21,-42.525 3.554,-41.866 5.446,-40.679C8.49,-38.77 10.359,-35.497 10.315,-32.331C10.603,-26.734 6.238,-21.713 0,-21.484M-2.692,2.72C2.642,1.087 8.061,1.841 12.438,5.092C16.731,8.281 19.034,16.371 17.442,21.006C16.917,21.305 16.656,20.367 15.832,20.588C15.478,20.689 15.149,20.866 14.81,21.009C14.421,21.174 14.038,21.351 13.644,21.499C13.438,21.574 12.149,22.131 11.932,22.181C11.984,21.986 11.546,21.54 11.647,21.374C11.804,21.125 13.149,20.591 13.465,20.405C14.076,20.056 14.502,19.537 14.453,18.858C14.791,18.453 15.108,18.017 15.136,17.768C15.198,17.216 14.258,10.764 13.848,10.438C12.959,9.733 3.033,8.854 3.033,8.854C3.033,8.854 2.747,7.699 1.734,7.576C-0.397,7.318 -1.33,12.984 1.489,12.984C2.378,12.984 3.024,11.768 3.024,11.768C3.079,11.702 5.204,10.966 7.071,10.699C7.5,10.638 11.787,11.204 12.192,11.553C13.036,12.279 13.869,16.01 13.746,16.377C13.623,16.745 13.018,17.225 13.018,17.225L13.018,17.227C12.867,17.175 12.729,17.146 12.617,17.135C11.576,17.088 10.987,17.559 10.099,17.959C6.42,19.607 4.001,20.765 0.336,22.442C-0.816,22.967 -0.973,23.309 -0.915,24.555C-0.906,24.734 -1.126,25.005 -1.312,25.098C-2.467,25.672 -3.639,26.206 -4.809,26.754C-5.093,26.891 -5.447,26.966 -5.65,27.174C-6.221,27.769 -6.755,27.552 -7.345,27.236C-10.592,25.509 -12.212,21.323 -12.71,17.808C-14.019,8.567 -5.35,3.536 -2.692,2.72M28.692,-33.419C28.478,-36.289 27.752,-39.046 26.594,-41.7C25.471,-44.277 24.029,-46.663 22.247,-48.856C20.41,-51.123 18.187,-52.974 15.687,-54.521C12.866,-56.265 9.839,-57.518 6.575,-58.234C4.588,-58.676 2.579,-58.871 0.534,-58.92C-1.416,-58.963 -3.326,-58.734 -5.232,-58.446C-7.069,-58.168 -8.81,-57.553 -10.545,-56.897C-13.018,-55.965 -15.283,-54.7 -17.367,-53.14C-21.807,-49.817 -24.99,-45.566 -26.899,-40.462C-28.922,-35.065 -29.125,-29.551 -27.636,-23.997C-26.879,-21.173 -25.701,-18.525 -24.067,-16.052C-23.092,-14.573 -21.99,-13.2 -20.765,-11.92C-17.95,-8.966 -14.572,-6.79 -10.771,-5.212C-10.258,-5 -10.844,-4.55 -10.934,-4.494C-13.392,-2.94 -15.388,-0.931 -17.074,1.378C-19.604,4.846 -21.084,8.696 -21.612,12.921C-21.952,15.646 -21.792,18.327 -21.11,20.962C-20.005,25.233 -17.771,28.884 -14.37,31.832C-10.095,35.54 -5.093,37.412 2.159,37.447C3.766,37.479 6.77,36.916 9.642,35.747C12.602,34.542 15.364,33.013 17.521,30.654C19.972,27.973 21.443,24.824 22.07,21.293C22.581,18.417 22.287,15.624 21.757,12.733C20.492,5.831 13.336,-0.752 5.23,-1.571C-2.063,-2.307 -6.717,0.436 -9.129,3.003C-7.919,1.523 -7.562,0.949 -6.48,0.142C-4.215,-1.844 -2.254,-3.349 0.828,-3.305L0.834,-3.311C0.834,-3.311 3.269,-3.197 5.317,-3.579C6.529,-3.805 8.295,-4.068 11.067,-5.208C14.166,-6.483 16.98,-8.183 19.5,-10.368C22.105,-12.629 24.122,-15.307 25.651,-18.327C26.794,-20.593 27.633,-22.962 28.181,-25.451C28.764,-28.101 28.892,-30.75 28.692,-33.419" style="fill:rgb(28,2,36);fill-rule:nonzero;"/>
            </g>
            <g transform="matrix(4.20278,0,0,4.20278,-5.40457,280.163)">
                <path d="M0,32.278L0,0L18.019,0L16.831,5.532L6.317,5.532L6.317,13.602L15.447,13.602L14.504,18.951L6.317,18.951L6.317,32.278L0,32.278Z" style="fill:rgb(28,2,36);fill-rule:nonzero;"/>
            </g>
            <g transform="matrix(4.20278,0,0,4.20278,310.167,280.163)">
                <path d="M0,32.278L0,0L16.554,0L16.554,5.532L6.317,5.532L6.317,13.233L15.447,13.233L15.447,18.583L6.317,18.583L6.317,26.928L16.738,26.928L16.738,32.278L0,32.278Z" style="fill:rgb(28,2,36);fill-rule:nonzero;"/>
            </g>
            <g transform="matrix(4.20278,0,0,4.20278,250.008,391.656)">
                <path d="M0,-21.018L-5.473,-21.018L-5.473,-26.5L11.807,-26.5L11.807,-21.018L6.214,-21.018L6.214,5.482L0,5.482L0,-21.018Z" style="fill:rgb(28,2,36);fill-rule:nonzero;"/>
            </g>
            <g transform="matrix(4.20278,0,0,4.20278,166.85,391.656)">
                <path d="M0,-21.018L-5.473,-21.018L-5.473,-26.5L11.807,-26.5L11.807,-21.018L6.214,-21.018L6.214,5.482L0,5.482L0,-21.018Z" style="fill:rgb(28,2,36);fill-rule:nonzero;"/>
            </g>
            <g transform="matrix(-4.20278,0,0,4.20278,202.829,56.2116)">
                <rect x="24.208" y="45.394" width="6.086" height="6.225" style="fill:rgb(28,2,36);"/>
            </g>
            <g transform="matrix(-4.20278,0,0,4.20278,269.88,56.2116)">
                <rect x="32.185" y="45.394" width="6.086" height="6.225" style="fill:rgb(28,2,36);"/>
            </g>
            <g transform="matrix(4.20278,0,0,4.20278,125.797,415.821)">
                <path d="M0,-32.279L-9.545,-32.279L-15.771,0L-9.5,0L-4.98,-26.285L-4.888,-26.285L-1.215,-5.35L-5.677,-5.35L-6.348,0L5.902,0L0,-32.279Z" style="fill:rgb(28,2,36);fill-rule:nonzero;"/>
            </g>
            <g transform="matrix(4.20278,0,0,4.20278,390.555,415.216)">
                <path d="M0,-32.247L0,-20.204L12.374,-11.699L12.375,-5.217L6.097,-5.217L6.098,-12.083L0.034,-12.082L0.034,0.042L18.464,-0.003L18.476,-14.313L5.941,-22.646L5.94,-26.598L12.373,-26.598L12.373,-23.345L18.522,-23.346L18.546,-32.289C16.937,-32.286 0,-32.247 0,-32.247" style="fill:rgb(28,2,36);fill-rule:nonzero;"/>
            </g>
            <g transform="matrix(4.20278,0,0,4.20278,806.912,279.451)">
                <path d="M0,32.278L0,0L6.317,0L6.317,26.929L15.909,26.929L15.909,32.278L0,32.278Z" style="fill:rgb(28,2,36);fill-rule:nonzero;"/>
            </g>
            <g transform="matrix(4.20278,0,0,4.20278,886.949,279.451)">
                <path d="M0,32.278L0,0L16.555,0L16.555,5.533L6.317,5.533L6.317,13.234L15.447,13.234L15.447,18.583L6.317,18.583L6.317,26.929L16.738,26.929L16.738,32.278L0,32.278Z" style="fill:rgb(28,2,36);fill-rule:nonzero;"/>
            </g>
            <g transform="matrix(4.20278,0,0,4.20278,1082.68,279.451)">
                <path d="M0,32.278L-6.317,32.278L-6.317,0L0,0L0,13.004L7.378,13.004L7.378,0L13.695,0L13.695,32.278L7.378,32.278L7.378,18.906L0,18.906L0,32.278Z" style="fill:rgb(28,2,36);fill-rule:nonzero;"/>
            </g>
            <g transform="matrix(4.20278,0,0,4.20278,764.264,337.531)">
                <path d="M0,4.667L-5.702,4.667L-5.702,13.197L0,13.197L0.687,12.561L0.687,5.261L0,4.667ZM0,-0.552L0.687,-1.188L0.687,-7.658L0,-8.294L-5.702,-8.294L-5.702,-0.552L0,-0.552ZM3.882,-13.792L6.929,-11.161L6.929,-0.637L3.882,1.994L6.929,4.625L6.929,15.828L3.882,18.459L-11.992,18.459L-11.992,-13.792L3.882,-13.792Z" style="fill:rgb(28,2,36);fill-rule:nonzero;"/>
            </g>
            <g transform="matrix(4.20278,0,0,4.20278,1007.88,301.99)">
                <path d="M0,21.579L8.116,21.579L8.116,26.929L-3.597,26.929C-5.625,25.023 -7.164,22.61 -8.207,19.689C-9.253,16.769 -9.775,13.763 -9.775,10.675C-9.775,7.585 -9.192,4.61 -8.023,1.751C-6.855,-1.108 -5.119,-3.475 -2.813,-5.35L8.116,-5.35L8.116,0.183L0,0.183C-0.83,1.137 -1.545,2.674 -2.144,4.795C-2.743,6.916 -3.043,8.945 -3.043,10.881C-3.043,12.819 -2.743,14.848 -2.144,16.969C-1.545,19.09 -0.83,20.626 0,21.579" style="fill:rgb(28,2,36);fill-rule:nonzero;"/>
            </g>
        </g>
    </g>
</svg>
