<?xml version="1.0" encoding="UTF-8" standalone="no"?>
<!DOCTYPE svg PUBLIC "-//W3C//DTD SVG 1.1//EN" "http://www.w3.org/Graphics/SVG/1.1/DTD/svg11.dtd">
<svg width="100%" height="100%" viewBox="0 0 1080 1080" version="1.1" xmlns="http://www.w3.org/2000/svg" xmlns:xlink="http://www.w3.org/1999/xlink" xml:space="preserve" xmlns:serif="http://www.serif.com/" style="fill-rule:evenodd;clip-rule:evenodd;stroke-linejoin:round;stroke-miterlimit:2;">
    <g transform="matrix(5.04116,0,0,5.04116,-4933.19,-5045.74)">
        <g transform="matrix(0.0632072,0,0,0.0632072,984.935,1001.48)">
            <path d="M1622.74,1678.8C1677.93,1756.13 1675.96,1775.29 1624.39,1868.38C1661.85,1881.82 1687.81,1908.16 1706.27,1942.54C1709.81,1949.13 1715.66,1952.95 1721.67,1956.92C1792.89,2003.86 1871.12,2033.05 1954.54,2049.15C1956.49,2049.52 1958.67,2048.73 1960.65,2048.49C1962.81,2042.4 1957.57,2041.19 1954.71,2038.68C1762.78,1870.4 1690.21,1660.93 1739.49,1410.36C1769.26,1259.02 1842.98,1132.66 1966.76,1039.77C2090.46,946.925 2231.35,913.539 2384.63,935.669C2639.6,972.482 2826.02,1188.62 2867.32,1429.23C2896.33,1598.22 2868.05,1755.26 2775.6,1899.97C2738.38,1958.22 2690.59,2006.98 2635.55,2048.68C2629.46,2053.3 2623.45,2058.02 2614.61,2064.86C2657.13,2073.35 2696.53,2069.53 2735.55,2065.15C2796.25,2058.34 2853.55,2039.57 2908.35,2012.41C2926.11,2003.6 2939.97,1993.17 2950.73,1975.7C2980.5,1927.37 3043.51,1906.01 3096.7,1923.9C3150.79,1942.09 3184.43,1993.27 3179.53,2051.9C3175.8,2096.53 3149.91,2128.04 3115.21,2153.21C2985.55,2247.24 2842.51,2306.36 2681.58,2318.49C2676.74,2318.85 2671.97,2320.13 2662.28,2321.84C2713.79,2556.93 2696.15,2785.4 2593.93,3008.55C2488.86,2971.87 2381.62,2934.44 2272.67,2896.41C2276.86,2862.19 2292.27,2832.05 2299.06,2797.76C2268.81,2801.28 2240.2,2806.23 2212.02,2805.66C2154.59,2904.73 2077.98,2937.73 1985.52,2902.76C1937.92,2884.76 1909.06,2849.21 1898.6,2799.49C1888.39,2750.94 1905.91,2706.89 1925.35,2662.57C1908.42,2648.28 1894.31,2636.37 1878.24,2622.8C1887.94,2513.57 1912.31,2405.24 1927.95,2294.46C1848.88,2279.11 1774.97,2256.39 1704.69,2222.47C1634.82,2188.74 1572.36,2144.17 1513.66,2093.93C1493.91,2077.03 1480.84,2055.26 1468.95,2030.54C1422.67,2061.34 1377.3,2090.58 1327.94,2113.07C1279.23,2135.27 1228.25,2150.73 1174.4,2165.96C1188.6,2264.46 1202.68,2362.17 1216.6,2458.71C1202.77,2474.33 1184.31,2481.06 1172.33,2497.67C1205.56,2540.41 1250.78,2571.9 1285.09,2615.75C1219.12,2698.54 1150.26,2778.39 1087.44,2866.14C1013.76,2808.7 939.828,2752.67 852.577,2706.6C876.363,2770.69 909.511,2824.72 934.208,2883.79C846.581,2940.44 756.557,2990.72 665.862,3043.48C555.852,2886.88 490.544,2715.42 475.351,2524.64C460.293,2513.96 445.268,2503.31 427.926,2491.01C437.638,2391.12 447.413,2290.59 457.379,2188.08C435.298,2182.87 413.322,2177.9 391.455,2172.49C265.027,2141.22 154.392,2079.9 56.538,1994.92C-1.022,1944.93 -15.446,1878.98 17.015,1821.12C58.385,1747.39 169.869,1734.81 217.215,1804.51C264.733,1874.46 336.156,1897.99 407.623,1924.84C432.997,1934.37 459.952,1940.32 493.621,1943.68C438.624,1901.48 392.436,1859.41 354.325,1809.37C254.675,1678.54 218.102,1530.42 237.342,1368.33C257.251,1200.59 331.13,1060.88 465.348,957.259C589.245,861.604 731.205,826.227 886.169,849.406C1145.81,888.243 1321.44,1098.95 1360.96,1332.88C1387.68,1491.1 1361.97,1639.3 1273.39,1774.72C1241.61,1823.31 1203.5,1866.52 1158.91,1903.88C1151.48,1910.1 1144.39,1916.72 1138.17,1924.52C1241.54,1904.56 1326.9,1852.3 1403.02,1779.49C1407.63,1712.66 1437.28,1664.15 1506.66,1647.39L1622.74,1678.8ZM376.973,1277.39C299.303,1465.34 348.607,1709.28 538.631,1846.44C711.319,1971.08 952.604,1956.11 1108.07,1811.46C1272.71,1658.28 1298.06,1428.35 1221.48,1262.41C1102.7,1249.22 1004.25,1191.75 913.71,1115.74C911.055,1125.6 916.462,1131.19 919.117,1137.37C940.132,1186.3 974.932,1224.54 1013.93,1259.6C1022.41,1267.23 1031.14,1275.89 1025.15,1289.1C1019.66,1301.22 1009.3,1307.15 996.392,1308.25C984.301,1309.29 972.207,1308.95 960.239,1306.27C815.827,1273.91 712.674,1192.17 657.288,1053.24C655.239,1048.1 655.257,1041.82 648.002,1038.49C605.246,1172.44 517.268,1255.56 376.973,1277.39ZM2136.08,1157.06C2062.83,1325.39 2021.8,1363.22 1862.44,1411.4C1861.16,1414.07 1859.1,1417.1 1858.19,1420.44C1817.25,1569.78 1833.78,1711.61 1917.73,1842.79C2049.21,2048.2 2305.59,2116.53 2515.29,2003.69C2684.95,1912.4 2785.61,1714.96 2759.15,1524.67C2753.38,1483.19 2744.74,1442.34 2728.24,1403.28C2587.74,1400.82 2475.88,1337.44 2376.61,1244.36C2373.62,1255.62 2379.63,1262.55 2383.04,1269.99C2405.17,1318.3 2439.9,1356.54 2479.77,1390.71C2487.46,1397.31 2494.18,1405.37 2490.29,1416.71C2486.39,1428.04 2476.81,1433.39 2465.88,1434.96C2457.58,1436.16 2448.66,1436.08 2440.46,1434.41C2332.66,1412.49 2247.95,1355.59 2185.54,1265.17C2163.55,1233.32 2149.96,1197.5 2136.08,1157.06Z" style="fill:rgb(28,2,36);"/>
        </g>
        <g transform="matrix(0.0632072,0,0,0.0632072,984.935,1001.48)">
            <path d="M1512.48,1621.15L1512.48,1060.52C1488.77,1066.01 1468.15,1061.77 1455.48,1039.51C1441.31,1014.64 1448.2,991.342 1462.9,969.282C1472.65,954.66 1482.74,940.272 1493.87,924.046C1447.07,910.872 1404.85,892.545 1365.28,868.117C1150.44,735.472 1074.04,452.146 1194.59,234.648C1293.23,56.705 1493.35,-36.587 1688.39,15.161C1866.73,62.477 1976.25,184.091 2014.62,364.159C2066.15,605.961 1917.9,847.273 1680.18,916.118C1672.86,918.235 1664.52,918.4 1657.43,925.863C1665.58,938.702 1673.94,951.709 1682.12,964.83C1690.9,978.917 1697.93,993.825 1696.63,1010.88C1693.42,1052.99 1658.87,1067.82 1611.92,1045.27L1611.92,1648.06L1512.48,1621.15ZM1926.62,456.062C1925.74,431.806 1922.88,407.774 1917.54,384.104C1885.41,241.601 1794.95,153.268 1659.21,107.98C1620.43,95.041 1585.46,123.005 1592.62,159.526C1597.26,183.244 1613.75,195.057 1635.96,201.513C1672.64,212.172 1706.37,229.295 1734.98,254.587C1797.39,309.753 1830.86,378.781 1831.47,462.909C1831.72,497.16 1852.76,519.835 1882.25,518.634C1912.71,517.395 1927.96,495.867 1926.62,456.062Z" style="fill:rgb(242,149,3);"/>
        </g>
        <g transform="matrix(0.992956,-0.126152,0.0880711,1.04484,374.813,21.9503)">
            <path d="M611.814,1111.02L618.959,1113.78C618.77,1113.47 618.57,1113.15 618.356,1112.81L618.44,1111.86L612.32,1109.5L612.188,1110.99C612.062,1111 611.937,1111.01 611.814,1111.02Z" style="fill:rgb(242,149,3);"/>
        </g>
        <g transform="matrix(0.0632072,0,0,0.0632072,984.935,1001.48)">
            <path d="M2285.33,2993.26C2355.92,3018.24 2427.99,3039.92 2497.8,3068.77C2478.11,3137.34 2460.98,3204.84 2439.12,3270.77C2419,3331.43 2345.6,3362.85 2284.58,3341.11C2219.77,3318.02 2182.33,3249.48 2206.7,3186.62C2230.88,3124.26 2255.29,3061.9 2280.42,2999.86C2281.17,2998 2282.86,2996.52 2285.33,2993.26Z" style="fill:rgb(28,2,36);fill-rule:nonzero;"/>
        </g>
        <g transform="matrix(0.0632072,0,0,0.0632072,984.935,1001.48)">
            <path d="M1180.63,2871.69C1233.61,2807.98 1280.76,2743.4 1335.64,2685.5C1377.79,2641.03 1444.3,2639.38 1488.32,2677.82C1531.34,2715.39 1537.06,2779.23 1500.07,2828.4C1470.96,2867.09 1440.7,2904.99 1409.42,2941.95C1368.92,2989.79 1298.05,2991.18 1251.88,2945.75C1228.05,2922.32 1208.83,2894.51 1180.63,2871.69Z" style="fill:rgb(28,2,36);fill-rule:nonzero;"/>
        </g>
        <g transform="matrix(0.0632072,0,0,0.0632072,984.935,1001.48)">
            <path d="M891.736,2978.9C911.62,3006.21 930.986,3031.7 949.17,3058.01C982.727,3106.56 979.012,3151.29 937.239,3192.3C905.774,3223.19 873.486,3253.52 836.755,3278.12C784.204,3313.32 721.512,3303.38 684.261,3255.51C650.779,3212.48 652.631,3150.16 693.11,3113.87C752.055,3061.04 819.396,3019.41 887.146,2978.77C888.129,2978.18 889.85,2978.82 891.736,2978.9Z" style="fill:rgb(28,2,36);fill-rule:nonzero;"/>
        </g>
        <g transform="matrix(0.0632072,0,0,0.0632072,984.935,1001.48)">
            <path d="M2175.46,2934.04C2169.89,2993.6 2182.48,3050.46 2157.19,3104.36C2128.8,3164.9 2067.64,3198.4 2007.76,3183.82C1945.26,3168.61 1906.84,3115.03 1910.18,3046.36C1912.04,3007.98 1915.27,2969.67 1918.06,2928.81C2002.74,2968.25 2087.05,2969.52 2175.46,2934.04Z" style="fill:rgb(28,2,36);fill-rule:nonzero;"/>
        </g>
        <g transform="matrix(0.0632072,0,0,0.0632072,984.935,1001.48)">
            <path d="M808.215,1826.01C732.504,1822.08 673.977,1794.12 634.738,1731.5C630.984,1725.51 627.589,1719.07 625.338,1712.4C618.936,1693.43 616.447,1674.15 632.827,1658.81C648.908,1643.76 667.695,1644.85 686.457,1653.93C700.53,1660.74 714.241,1668.3 728.343,1675.05C777.295,1698.48 826.943,1700.08 876.792,1678.29C895.011,1670.32 912.481,1660.66 930.49,1652.19C947.78,1644.06 964.081,1646.65 977.831,1659.65C991.544,1672.61 994.616,1688.8 988.526,1706.6C979.291,1733.6 962.201,1755.21 941.244,1773.91C902.355,1808.6 855.878,1823.58 808.215,1826.01Z" style="fill:rgb(28,2,36);fill-rule:nonzero;"/>
        </g>
        <g transform="matrix(0.0632072,0,0,0.0632072,984.935,1001.48)">
            <path d="M591.907,1416.43C640.016,1416.15 683.793,1450.05 695.102,1496.82C696.743,1503.61 697.722,1511.1 696.63,1517.89C694.145,1533.33 684.753,1544.15 669.146,1546.81C653.466,1549.48 643.824,1540.48 637.997,1526.54C633.098,1514.83 630.06,1502.05 618.678,1494.05C592.057,1475.34 558.916,1486.97 548.119,1520.53C541.87,1539.95 530.874,1549.8 510.726,1546.82C494.129,1544.38 485.508,1528.95 486.891,1507.03C489.948,1458.59 538.449,1416.74 591.907,1416.43Z" style="fill:rgb(28,2,36);fill-rule:nonzero;"/>
        </g>
        <g transform="matrix(0.0632072,0,0,0.0632072,984.935,1001.48)">
            <path d="M1123.28,1508.76C1122.44,1528.5 1116.41,1543.27 1096.95,1546.93C1078.42,1550.41 1068.34,1540.12 1061.64,1523.47C1048.67,1491.24 1031.96,1481.27 1005.67,1487.42C988.641,1491.4 979.349,1502.35 973.54,1518.31C964.77,1542.41 952.534,1550.14 934.85,1544.65C918.922,1539.72 910.326,1521.76 913.777,1500.63C924.921,1432.42 1007.48,1395.07 1068.83,1430.79C1099.46,1448.62 1118.65,1474.68 1123.28,1508.76Z" style="fill:rgb(28,2,36);fill-rule:nonzero;"/>
        </g>
        <g transform="matrix(0.0632072,0,0,0.0632072,984.935,1001.48)">
            <path d="M2304.58,1953.7C2233.74,1952.09 2178.02,1926.97 2136.6,1872.75C2126.04,1858.93 2118.43,1843.63 2115.73,1826.48C2110.3,1792.06 2138.74,1768.17 2171.62,1779.9C2185.61,1784.9 2198.74,1792.35 2212.09,1799.03C2272.51,1829.29 2332.41,1828.56 2392.04,1796.67C2403.31,1790.64 2414.82,1784.93 2426.64,1780.12C2444.14,1773 2460.74,1776.06 2473.82,1789.53C2486.85,1802.95 2489.24,1819.5 2482.45,1837.07C2466.54,1878.18 2437.02,1907.33 2399.37,1928.3C2369.05,1945.2 2335.72,1952.55 2304.58,1953.7Z" style="fill:rgb(28,2,36);fill-rule:nonzero;"/>
        </g>
        <g transform="matrix(0.0632072,0,0,0.0632072,984.935,1001.48)">
            <path d="M2082.14,1544.72C2137.95,1544.85 2182.43,1580.94 2192.78,1628.25C2196.79,1646.61 2191.52,1660.81 2173.79,1668.47C2158.43,1675.11 2141.68,1667.68 2132.84,1651.13C2130.5,1646.75 2129.01,1641.91 2126.65,1637.54C2117.79,1621.14 2104.29,1612.07 2085.26,1612.44C2065.86,1612.82 2053.58,1623.64 2046.08,1640.49C2041.77,1650.19 2039.56,1661.07 2029.98,1667.48C2020.29,1673.96 2009.63,1674.25 1999.49,1669.5C1986.2,1663.27 1981.91,1650.96 1982.79,1637.46C1985.05,1602.63 2003.47,1577.58 2032.73,1560.15C2050.13,1549.78 2069.38,1544.94 2082.14,1544.72Z" style="fill:rgb(28,2,36);fill-rule:nonzero;"/>
        </g>
        <g transform="matrix(0.0632072,0,0,0.0632072,984.935,1001.48)">
            <path d="M2511.9,1544.9C2558.84,1544.54 2604.71,1577.98 2617.04,1619.45C2619.91,1629.11 2620.92,1639.17 2618.66,1649.05C2615.09,1664.65 2604.79,1673.96 2588.99,1675.28C2574.64,1676.47 2564.46,1669.6 2559.8,1655.43C2558.25,1650.71 2556.37,1646.08 2554.5,1641.47C2546.94,1622.81 2532.26,1613.76 2512.92,1613.44C2493.97,1613.13 2480.08,1622.84 2473.28,1640.53C2467.75,1654.93 2460.21,1665.53 2443.39,1666.67C2423.62,1668.02 2410.03,1656.65 2410.09,1636.77C2410.19,1607.4 2425.26,1585.57 2447.51,1568.11C2467.27,1552.6 2490.47,1546.57 2511.9,1544.9Z" style="fill:rgb(28,2,36);fill-rule:nonzero;"/>
        </g>
    </g>
</svg>
