<?xml version="1.0" encoding="UTF-8" standalone="no"?>
<!DOCTYPE svg PUBLIC "-//W3C//DTD SVG 1.1//EN" "http://www.w3.org/Graphics/SVG/1.1/DTD/svg11.dtd">
<svg width="100%" height="100%" viewBox="0 0 1080 600" version="1.1" xmlns="http://www.w3.org/2000/svg" xmlns:xlink="http://www.w3.org/1999/xlink" xml:space="preserve" xmlns:serif="http://www.serif.com/" style="fill-rule:evenodd;clip-rule:evenodd;stroke-linejoin:round;stroke-miterlimit:2;">
    <g transform="matrix(2.94875,0,0,2.94875,-1382.39,-4374.64)">
        <g transform="matrix(0.0891156,0,0,0.0891156,499.474,1429.93)">
            <path d="M491.996,2767.51C509.052,2767.51 522.896,2767.37 536.736,2767.57C543.613,2767.66 545.135,2765.47 544.132,2758.28C541.492,2739.34 540.67,2719.5 540.641,2701.1C540.561,2650 548.119,2598.89 552.412,2547.76C556.038,2504.56 559.318,2461.33 562.751,2418.12C559.486,2419.4 558.139,2421.03 557.449,2422.91C523.333,2515.65 485.953,2607.11 449.034,2698.74C443.642,2712.13 446.977,2720.36 457.939,2726.7C467.607,2732.28 478.21,2736.24 487.998,2741.64C499.831,2748.18 502.004,2757.81 491.996,2767.51ZM1150.08,2768.5C1172.89,2768.5 1192.72,2767.52 1212.38,2768.84C1226.46,2769.78 1231.58,2765.44 1231.09,2751.31C1230.46,2732.77 1226.9,2713.78 1227.74,2696.06C1229.9,2650.78 1237.73,2605.75 1243.66,2560.66C1252.15,2496.09 1260.96,2431.56 1269.66,2366.87C1264.64,2367.1 1264.17,2370.83 1262.81,2373.53C1207.72,2482.89 1156.92,2594.3 1104.13,2704.77C1100.41,2712.55 1102.12,2717.27 1107.94,2722.84C1117.61,2732.08 1130.51,2734.8 1141.54,2741.17C1150.95,2746.61 1160.64,2752.51 1150.08,2768.5ZM760.421,2767.82C793.171,2767.82 821.459,2767.88 849.747,2767.75C853.744,2767.73 859.282,2768.6 859.43,2762.29C859.793,2746.8 859.69,2731.3 859.667,2715.8C859.663,2713.48 858.226,2711.59 855.787,2711.65C844.433,2711.92 846.729,2703.59 846.649,2697.08C845.488,2602.41 844.419,2507.74 843.287,2413.07C843.229,2408.26 842.797,2403.47 842.54,2398.66C796.636,2499.21 753.12,2599.68 709.387,2700.07C705.645,2708.66 708.406,2713.84 715.096,2719.23C728.684,2730.17 745.278,2735.09 760.359,2743.02C771.405,2748.82 773.549,2756.08 760.421,2767.82ZM1539.91,2779.02C1139.81,2778.05 739.693,2781.03 339.607,2774.54C339.59,2773.03 339.574,2771.53 339.557,2770.02L417.743,2770.02C405.119,2754.43 394.579,2741.38 383.978,2728.37C382.358,2726.39 380.588,2723.14 377.691,2724.6C357.34,2734.85 350.298,2713.07 336.747,2707.22C329.904,2704.26 335.896,2696.62 338.054,2691.68C363.757,2632.87 389.516,2574.09 415.605,2515.44C433.422,2475.4 448.855,2434.27 469.88,2395.66C472.301,2391.21 472.663,2385.37 473.008,2380.11C475.957,2335.25 478.869,2290.38 481.38,2245.49C482.43,2226.73 471.838,2210.65 467.169,2193.22C465.451,2186.81 453.683,2189.36 446.551,2189.26C437.411,2189.14 434.167,2186.69 436.271,2177.05C439.807,2160.87 442.145,2144.43 445.185,2128.13C446.759,2119.69 450.873,2116.32 460.654,2116.74C491.706,2118.06 520.768,2112.04 546.843,2092.9C565.259,2079.37 586.954,2070.52 604.729,2053.44C609.798,2069.56 610.989,2084.85 612.279,2100.14C614.303,2124.14 616.49,2148.12 618.72,2172.1C619.36,2178.99 619.685,2184.06 609.801,2184.79C599.29,2185.57 605.475,2193.91 606.653,2198.28C618.345,2241.65 627.53,2286.01 643.322,2327.87C664.114,2382.97 657.673,2438.32 653.774,2494.15C653.419,2499.23 650.754,2504.35 648.387,2509.07C619.586,2566.43 592.7,2624.77 561.109,2680.7C557.301,2687.45 557.465,2691.71 562.69,2697.51C576.451,2712.79 593.379,2724.03 609.435,2736.46C617.652,2742.82 633.237,2745.91 623.375,2762.81C621.175,2766.57 627.169,2767.15 629.742,2767.39C641.285,2768.46 652.879,2768.98 668.825,2769.97C651.588,2754.39 642.947,2736.45 629.17,2724.33C619.722,2716.02 605.923,2711.25 594.416,2703.82C580.259,2694.68 581.461,2686.16 587.885,2673.44C619.211,2611.39 650.06,2549.09 680.876,2486.78C700.311,2447.49 716.798,2406.71 740.083,2369.35C745.093,2361.31 745.017,2351.84 745.792,2342.9C749.542,2299.7 751.278,2256.27 756.752,2213.3C760.204,2186.21 748.717,2168.51 728.469,2155.53C714.209,2146.39 710.922,2137.06 713.567,2120.43C721.971,2067.6 727.769,2014.36 735.435,1961.41C737.161,1949.48 735.074,1940.52 725.899,1932.96C723.024,1930.59 721.055,1926.94 717.955,1925.06C692.503,1909.62 690.636,1887.73 695.564,1860.47C703.929,1814.19 710.563,1767.4 714.093,1720.54C715.756,1698.46 724.176,1682.33 737.612,1666.92C737.964,1666.52 738.426,1666.13 738.575,1665.65C748.803,1632.88 771.47,1638.61 795.32,1647.02C800.764,1648.94 806.737,1649.4 812.5,1650.33C813.309,1650.46 814.308,1649.43 817.706,1647.57C800.469,1639.51 783.281,1637.41 766.904,1633.1C760.129,1631.32 754.057,1630.69 756.002,1621.49C758.455,1609.88 765.172,1618.28 769.286,1619.23C794.809,1625.06 820.023,1632.37 845.69,1637.4C854.274,1639.08 857.692,1640.49 856.316,1649.58C854.499,1661.6 856.976,1670.05 868.685,1678.96C884.52,1691 888.54,1712.57 894.227,1731.36C896.555,1739.06 886.738,1742.45 881.581,1746.2C876.061,1750.22 873.52,1743.09 870.829,1739.75C856.762,1722.24 842.617,1704.78 829.22,1686.76C806.569,1656.31 761.094,1654.46 736.439,1683.42C734.407,1685.8 732.3,1688.13 730.072,1690.66C758.309,1701.67 781.316,1692.57 802.745,1672.96C816.536,1702.39 838.903,1724.66 856.632,1750.26C862.636,1758.93 861.302,1764.01 853.826,1769.99C825.458,1792.67 800.707,1819.63 770.858,1840.53C764.373,1845.07 768.864,1847.63 771.385,1850.38C782.557,1862.6 793.628,1874.94 805.387,1886.58C827.433,1908.41 850.966,1928.83 871.867,1951.67C885.362,1966.42 901.031,1971.25 919.51,1972.33C926.407,1972.73 933.236,1974.31 940.096,1975.36C944.48,1976.03 948.769,1976.93 949.143,1982.54C949.454,1987.19 946.012,1989.69 942.501,1990.49C925.08,1994.46 930.94,2004.35 935.98,2014.28C938.875,2019.98 941.658,2025.75 944.334,2031.56C947.013,2037.37 945.088,2044.33 940.203,2045.33C923.228,2048.81 909.929,2068.48 889.086,2054.85C892.678,2069.55 899.32,2075.67 913.061,2073.08C925.298,2070.78 926.099,2075.93 927.193,2085.14C928.895,2099.46 931.455,2113.72 934.543,2127.82C936.358,2136.1 934.406,2138.86 925.742,2140.15C896.059,2144.57 896.412,2144.89 903.504,2174.33C918.029,2234.62 932.227,2294.99 946.483,2355.34C947.585,2360.01 948.619,2364.8 948.785,2369.56C952.478,2474.97 961.734,2580.19 963.587,2685.52C964.225,2721.79 988.137,2724.52 1006.97,2737.6C1016.91,2744.51 1032.43,2745.49 1027.5,2763.93C1026.38,2768.12 1031.28,2768.47 1034.14,2768.57C1043.02,2768.88 1051.92,2768.68 1065.14,2768.68C1050.24,2758.79 1044.96,2745.72 1036.62,2734.88C1031.36,2728.04 1028.44,2722.44 1015.73,2723.28C1001.87,2724.19 989.856,2710.15 979.277,2699.6C976.312,2696.65 979.794,2692.53 981.405,2689.27C1036.21,2578.53 1090.05,2467.29 1150.32,2359.36C1157.54,2346.42 1158.46,2332.93 1160.39,2319.4C1166.73,2274.91 1172.53,2230.33 1178.04,2185.73C1180.86,2162.83 1168.43,2142.18 1166.85,2119.69C1166.44,2113.99 1156.55,2116.48 1151.05,2116.06C1130.24,2114.47 1129.67,2114.63 1132.79,2093.99C1142.23,2031.58 1152.2,1969.25 1161.8,1906.86C1163.12,1898.28 1166.08,1894.3 1176.13,1894.41C1222.17,1894.9 1268.23,1894.51 1314.27,1894.01C1323.68,1893.91 1328.26,1895.46 1329.54,1906.61C1337.01,1971.44 1345.39,2036.17 1353.82,2100.88C1355.05,2110.38 1353.34,2114.08 1342.67,2114.14C1322.48,2114.26 1322.46,2115.01 1327.27,2135.05C1343.09,2201.07 1357.95,2267.35 1375.29,2332.98C1381.46,2356.38 1378.56,2378.57 1376.02,2401.25C1365.06,2499.09 1353.92,2596.91 1342.19,2694.65C1340.71,2706.99 1342.94,2713.76 1354.6,2719.95C1374.18,2730.35 1393.49,2739.84 1416.18,2740.9C1426.79,2741.4 1435.38,2746.52 1434.31,2758.69C1433.45,2768.58 1437.52,2769.85 1445.93,2769.74C1477.46,2769.33 1508.99,2769.58 1540.52,2769.58C1540.32,2772.73 1540.11,2775.87 1539.91,2779.02Z" style="fill:rgb(28,2,36);fill-rule:nonzero;"/>
        </g>
        <g transform="matrix(0.0891156,0,0,0.0891156,499.474,1429.93)">
            <path d="M2082.06,2046.92C2069.24,2043.02 2062.31,2043.14 2055.72,2044.75C2051.32,2045.83 2046.26,2047.59 2044.92,2053.11C2043.91,2057.25 2045.81,2060.25 2049.32,2062.45C2054.72,2065.85 2059.6,2064 2064.11,2060.78C2069.24,2057.12 2074.11,2053.09 2082.06,2046.92ZM2462.79,2421.58C2461.91,2421.32 2461.04,2421.06 2460.17,2420.81C2458.79,2424.75 2457.33,2428.67 2456.06,2432.65C2429.99,2514.04 2403.94,2595.43 2377.89,2676.82C2364.07,2719.98 2364.05,2720.02 2402.46,2742.81C2409.12,2746.76 2415.3,2750.59 2414.23,2759.95C2414,2761.91 2407.52,2765.11 2414.69,2766.32C2418.5,2766.96 2422.48,2766.66 2422.93,2761.36C2423.19,2758.17 2422.76,2754.88 2423.28,2751.75C2426.9,2730.18 2418.65,2708.81 2421.5,2687.52C2427.54,2642.51 2434.79,2597.65 2441.79,2552.77C2448.63,2509.01 2455.78,2465.3 2462.79,2421.58ZM2049.7,2769.1C2060.2,2769.1 2068.81,2768.42 2077.26,2769.26C2089.86,2770.51 2094.14,2765.72 2093.57,2753.07C2092.68,2733.45 2089.09,2712.91 2090.78,2694.46C2096.73,2629.62 2108.07,2565.27 2117.34,2500.74C2121.4,2472.46 2125.43,2444.18 2130.02,2412.11C2126.25,2416.42 2124.92,2417.35 2124.39,2418.62C2084.44,2514.85 2044.63,2611.13 2004.54,2707.29C2001.1,2715.53 2004.28,2720.25 2009.98,2725.24C2019.9,2733.92 2032.76,2736.89 2043.82,2743.34C2054.12,2749.34 2058.57,2756.81 2049.7,2769.1ZM2910.79,2411.58C2907.98,2416.34 2907.08,2417.6 2906.44,2418.99C2864.24,2511.26 2821.25,2603.18 2782.82,2697.15C2777.81,2709.39 2781.37,2716.32 2790.95,2722.62C2802.17,2730 2814.55,2734.97 2826.91,2740.01C2838.82,2744.86 2846.38,2752.15 2838.22,2768.53C2877.5,2768.53 2914.38,2767.75 2951.2,2768.9C2966.93,2769.39 2972.52,2764.56 2969.94,2749.22C2968.88,2742.94 2969.32,2736.41 2968.87,2730.01C2968.65,2726.99 2969.52,2721.93 2965.92,2721.79C2951.97,2721.24 2955.85,2709.93 2954.78,2703C2940.07,2607.46 2928.55,2511.43 2910.79,2411.58ZM2202.98,1812.97C2225.82,1827.8 2231.05,1807.47 2240.7,1796.01C2246.52,1789.09 2252.48,1781.98 2256.73,1774.07C2270.33,1748.74 2258.85,1719.48 2232.36,1710.32C2220.27,1706.13 2208.75,1689.39 2209.91,1677.06C2210.26,1673.4 2211.56,1669.44 2216.43,1669.26C2220.5,1669.1 2222.34,1671.93 2222.25,1675.4C2221.79,1692.12 2233.62,1697.92 2246.22,1703.71C2272.62,1715.83 2283.9,1750.38 2269.6,1775.9C2263.6,1786.61 2256.7,1796.93 2249.17,1806.62C2241.06,1817.04 2239.43,1825.06 2251.52,1834.14C2259.02,1839.78 2264.57,1848.18 2270.47,1855.75C2277.28,1864.49 2278.38,1874.03 2273.44,1884.34C2271.34,1888.71 2266.35,1893.81 2272.96,1898.43C2276.71,1901.03 2280.42,1906.49 2285.37,1903.81C2290.8,1900.87 2288.05,1894.14 2289.03,1889.1C2289.43,1887.07 2289.5,1884.97 2289.97,1880.55C2300.51,1894.33 2307.39,1907.75 2313.2,1921.88C2315.71,1927.96 2312.05,1932.16 2309.66,1936.73C2296.01,1962.8 2281.79,1988.59 2268.72,2014.95C2263.36,2025.77 2257.02,2028.41 2245.87,2024.42C2236.12,2020.93 2227.61,2015.69 2219.22,2009.94C2214.99,2007.04 2210.91,2001.65 2205.17,2005.75C2200.42,2009.13 2200.3,2015.03 2200.72,2020.46C2201.54,2031.13 2202.45,2041.8 2203.53,2052.45C2207.4,2090.79 2211.03,2129.16 2215.48,2167.43C2216.76,2178.45 2214.28,2183.23 2202.5,2182.14C2187.41,2180.74 2184.21,2186.4 2188.28,2201.72C2203.62,2259.59 2217.54,2317.84 2231.51,2376.06C2237.55,2401.29 2228.77,2425.95 2226.23,2450.71C2218.08,2530.01 2209.62,2609.35 2198.25,2688.23C2195.02,2710.65 2202.51,2719.44 2220.17,2727.44C2235.33,2734.32 2250.05,2741.9 2266.91,2743.42C2289.43,2745.45 2290.39,2746.45 2288.04,2768.92L2323.5,2768.92C2312.14,2760.24 2307.47,2750.86 2302.11,2741.89C2296.78,2732.98 2291.68,2723.03 2277.71,2727.81C2274.74,2728.83 2270.52,2726.45 2266.95,2725.39C2245.66,2719.12 2245.07,2718.88 2252.41,2698.33C2284.61,2608.15 2313.93,2516.74 2350.96,2428.57C2370.53,2381.97 2374.11,2334.91 2379.05,2286.86C2380.58,2271.95 2380.48,2256.81 2382.88,2242.07C2385.45,2226.21 2380.79,2212.69 2374.03,2199C2369.55,2189.94 2363.54,2183.97 2353.08,2184.78C2342.82,2185.58 2342.15,2180.36 2343.11,2172.11C2349.34,2118.96 2355.23,2065.78 2361.24,2012.6C2361.6,2009.41 2362.1,2006.23 2362.43,2003.04C2365.73,1970.72 2365.72,1970.83 2399.1,1970.69C2434.97,1970.54 2470.85,1970.28 2506.73,1969.78C2517.99,1969.63 2523,1972.51 2524.42,1985.73C2530.17,2039.44 2537.83,2092.93 2544.76,2146.51C2545.45,2151.81 2545.63,2157.2 2546.6,2162.45C2548.41,2172.34 2544.83,2176.56 2534.69,2174.88C2518.67,2172.22 2518.09,2180.06 2521.36,2192.79C2536.28,2250.77 2550.07,2309.04 2565.37,2366.92C2572.01,2392.04 2564.15,2415.82 2561.52,2439.93C2552.15,2525.55 2542.03,2611.12 2530.46,2696.47C2528.39,2711.74 2532.54,2717.98 2544.59,2724.4C2560.37,2732.8 2576.18,2739.67 2594.29,2741.1C2605.17,2741.95 2614.51,2746.42 2613.53,2759.81C2613.1,2765.6 2615.22,2767.71 2620.44,2767.71C2662.46,2767.73 2704.48,2767.72 2748.98,2767.72C2735.91,2758.95 2727.65,2748.15 2719.26,2737.29C2714.97,2731.74 2712.72,2717.24 2699.13,2729.73C2695,2733.54 2686.85,2725 2681.46,2721.16C2653.73,2701.46 2653.85,2711.69 2668.53,2679.91C2714.29,2580.85 2760.36,2481.9 2812.29,2385.84C2820.11,2371.35 2820.08,2354.82 2822.4,2339.06C2827,2307.83 2830.01,2276.36 2834.85,2245.18C2837.84,2225.97 2826.76,2214.83 2814.06,2204.88C2805.16,2197.91 2801.6,2190.84 2803.2,2179.39C2811.31,2121.1 2818.81,2062.72 2826.32,2004.35C2827.09,1998.34 2829.3,1996.47 2835.52,1996.47C2879.43,1996.54 2923.33,1996.23 2967.24,1995.85C2973.61,1995.8 2976.67,1997.59 2977.6,2004.59C2985.16,2061.87 2993.03,2119.11 3001.07,2176.32C3002.09,2183.57 2998.55,2184.47 2992.97,2184.4C2983.94,2184.29 2974.9,2184.37 2964.24,2184.37C2974.92,2228.07 2983.64,2270.45 2995.77,2311.83C3013.32,2371.68 3019.21,2433.46 3029.7,2494.48C3041.02,2560.35 3053.44,2626.05 3063.25,2692.14C3065.37,2706.45 3071.5,2712.34 3082.29,2718.63C3101.08,2729.59 3120.38,2737.8 3142.41,2738.97C3157.31,2739.76 3166.23,2747.21 3160.92,2762.76C3157.07,2774 3172.78,2765.01 3168.42,2775.94C3161.35,2775.94 3152.56,2775.87 3143.76,2775.95C2819.81,2778.86 2495.84,2779.09 2171.87,2779.07C2095.3,2779.06 2018.72,2779.13 1942.15,2779.16C1938.94,2779.16 1935.71,2779.31 1932.52,2779.06C1927.97,2778.72 1920.93,2780.19 1921.12,2773.67C1921.33,2766.38 1928.59,2769.97 1932.64,2769.77C1943.18,2769.25 1953.77,2769.59 1967.43,2769.59C1953.88,2760.73 1947.8,2748.22 1938.96,2737.97C1933.8,2731.98 1932.38,2721.62 1917.25,2727.76C1908.37,2731.37 1896.03,2715.78 1886.3,2707.66C1879.12,2701.65 1886.67,2694.61 1889.3,2688.93C1932.05,2596.72 1972.69,2503.4 2019.26,2413.14C2040.04,2372.88 2039.32,2330.89 2047.17,2289.42C2049.46,2277.36 2048.67,2264.58 2051.92,2252.86C2058.94,2227.44 2046.46,2211.69 2027.23,2199.44C2018.08,2193.61 2014.33,2187.47 2018.4,2177.24C2018.78,2176.28 2018.62,2175.12 2018.82,2174.07C2023.28,2149.98 2026.61,2130.34 1996.07,2115.49C1967.47,2101.58 1955.92,2070.76 1960.84,2037.07C1961.66,2031.49 1961.76,2025.31 1968.07,2022.02C1974.52,2026.95 1972.3,2033.69 1972.23,2039.78C1971.87,2074.5 1987.96,2101.66 2016.13,2113.61C2045.78,2126.19 2073.77,2119.89 2099.45,2094.8C2133.91,2061.15 2168.4,2027.53 2202.72,1993.73C2208.8,1987.75 2214.66,1981.39 2219.69,1974.51C2231.08,1958.91 2229.66,1939.14 2216.88,1926.06C2202.99,1911.85 2186.61,1909.88 2169.28,1920.53C2165.74,1922.7 2162.97,1926.54 2157.98,1923.52C2145.92,1916.23 2142.51,1925.8 2143.75,1933.48C2145.18,1942.35 2142.13,1945.19 2135.19,1945.4C2125.21,1945.7 2118.73,1951.78 2115.64,1959.28C2112.82,1966.16 2121.73,1969.49 2125.8,1974.02C2131.15,1979.97 2136.91,1985.6 2142.91,1990.89C2145.28,1992.98 2149.15,1993.88 2146.18,1997.87C2144.31,2000.38 2142,2003.44 2139.3,2004.24C2134.2,2005.74 2136.13,2000.38 2134.63,1998.2C2127.46,1987.8 2117.35,1979.82 2111.82,1967.79C2109.09,1961.88 2104.43,1968.47 2102.04,1970.98C2098.53,1974.67 2096.99,1978.83 2103.3,1982.59C2112.46,1988.06 2120.02,1995.32 2126.35,2004.23C2131,2010.77 2130.05,2014.61 2124.04,2018.64C2116.19,2023.9 2115.14,2016.45 2112.7,2012.41C2108.28,2005.12 2103.88,1997.76 2100.29,1990.05C2096.47,1981.86 2092.21,1980.62 2087.34,1988.48C2084.63,1992.86 2080.08,1994.11 2075.57,1997.8C2097.39,1992.58 2099.28,2011.6 2107.6,2022.29C2112.32,2028.36 2108.25,2033.61 2103.35,2037.37C2092.91,2045.37 2083.26,2054.11 2074.46,2063.91C2065.33,2074.08 2054.34,2079.91 2040.16,2075.87C2026.29,2071.91 2019.25,2061.84 2016.1,2048.43C2015.12,2044.26 2013.74,2040.13 2013.35,2035.9C2012.1,2022.55 2007,2019.23 1996.98,2029.52C1992.14,2034.49 1989.11,2032.86 1985.38,2028.37C1981.84,2024.1 1977.17,2019.47 1982.57,2014.64C1998.1,2000.73 2014.19,1987.44 2030.26,1974.16C2034.74,1970.46 2038.28,1972.45 2042.62,1976.28C2058.47,1990.3 2075.81,1988.93 2090.43,1974.08C2118.58,1945.48 2145.44,1915.65 2174.99,1888.38C2186.83,1877.46 2195.67,1879.62 2204.86,1889.88C2215.48,1901.73 2225.58,1914.05 2236.48,1926.83C2239.22,1917.52 2244.76,1908.55 2242.89,1901.59C2241.65,1897 2229.45,1895.81 2222.64,1892.19C2211.81,1886.44 2201.18,1880.25 2190.84,1873.65C2181.62,1867.77 2189.91,1863.14 2193.54,1860.74C2202.67,1854.71 2205.12,1850.04 2193.5,1844.64C2190.05,1843.04 2188.85,1840.04 2189.97,1836.69C2191.07,1833.42 2194.05,1831.73 2197.45,1831.57C2202.21,1831.35 2207,1831.51 2212.1,1831.51C2211.35,1824.78 2202.76,1823.92 2202.98,1812.97Z" style="fill:rgb(28,2,36);fill-rule:nonzero;"/>
        </g>
        <g transform="matrix(0.0891156,0,0,0.0891156,499.474,1429.93)">
            <path d="M1884.28,2808.69C2019.45,2813.56 2153.83,2809.52 2280.81,2813.92C1911.89,2828.57 1535.7,2829.87 1174.64,2814.05C1220.2,2809.28 1281.12,2812.26 1341.96,2812.24C1412.65,2812.21 1483.33,2812.19 1553.94,2808.36C1558.08,2808.14 1565.42,2811.15 1565.34,2803.88C1565.27,2797.48 1558.14,2798.81 1553.68,2798.75C1502.81,2798.01 1451.94,2797.27 1401.07,2796.93C1116.2,2795 831.333,2793.19 546.466,2791.35C536.835,2791.29 527.204,2791.34 517.562,2790.31C574.537,2787.68 631.514,2786.72 688.562,2786.94C932.211,2787.88 1175.86,2788.33 1419.51,2788.78C1463.97,2788.86 1508.44,2788.82 1552.76,2792.44C1564.77,2793.41 1567.63,2789.88 1566.6,2778.92C1565.86,2770.97 1566.79,2762.87 1566.89,2754.84C1567.21,2729.25 1567.24,2728.63 1542.51,2726.8C1529.95,2725.87 1534.08,2717.97 1534.95,2712.06C1541.18,2669.71 1547.49,2627.36 1554.41,2585.12C1573.61,2467.89 1590.71,2350.26 1615.06,2233.98C1624.55,2188.7 1624.02,2143.71 1623.52,2098.32C1622.83,2036.21 1621.36,1974.1 1620.91,1911.98C1620.83,1900.72 1617.43,1896.82 1606.29,1897.8C1595.66,1898.73 1584.75,1897.12 1574.22,1898.53C1559.22,1900.54 1557.6,1893.95 1559.82,1881.5C1569.11,1829.36 1577.94,1777.13 1586.84,1724.92C1594.03,1682.72 1601.47,1640.57 1607.88,1598.25C1609.33,1588.66 1612.68,1585.73 1621.96,1585.75C1691.04,1585.9 1760.12,1585.73 1829.21,1585.45C1837.62,1585.42 1841.33,1588.04 1842.41,1597.13C1853.65,1691.69 1865.18,1786.21 1877.15,1880.68C1878.78,1893.62 1876.39,1900.29 1862.02,1898.01C1844.75,1895.28 1840.53,1903.19 1838.55,1919.98C1823.88,2044.3 1807.7,2168.45 1792.2,2292.68C1777.76,2408.44 1763.56,2524.23 1749.32,2640.02C1746.83,2660.2 1744.82,2680.44 1742.27,2700.62C1741.33,2708.04 1743.74,2712.16 1750.66,2715.65C1768.32,2724.57 1785.87,2733.86 1802.7,2744.23C1817.07,2753.09 1832.87,2754.3 1848.75,2756.21C1858.31,2757.35 1867.93,2758.08 1877.42,2759.68C1898.54,2763.22 1909.47,2776.97 1909.56,2798.45C1909.59,2804 1906.65,2804.26 1902.73,2804.91C1896.54,2805.94 1890.43,2807.41 1884.28,2808.69Z" style="fill:rgb(242,149,3);fill-rule:nonzero;"/>
        </g>
        <g transform="matrix(0.0891156,0,0,0.0891156,499.474,1429.93)">
            <path d="M1932.26,1060.35C1938.67,1075.66 1945.67,1090.77 1951.31,1106.36C1956.45,1120.56 1957.27,1121.05 1968.16,1110.07C1945.21,1101.23 1948.06,1074.52 1932.26,1060.35ZM1953.82,1036.81C1962.18,1057.46 1969.07,1074.42 1975.92,1091.4C1981.02,1104.06 1981,1104.07 1992.84,1094.72C1968.41,1084.67 1972.4,1056.06 1953.82,1036.81ZM2149.58,988.018C2166.5,979.005 2183.38,970.213 2200.06,961.063C2214.06,953.387 2229.44,948.206 2242.08,938.112C2256.55,926.562 2261.9,906.39 2255.79,887.264C2250.42,870.456 2237.3,860.102 2219.74,859.056C2221.57,862.494 2223.33,865.764 2225.06,869.052C2242.11,901.506 2234.37,925.222 2201.65,941.236C2188.25,947.794 2175.31,955.421 2161.55,961.066C2148.7,966.34 2144.98,974.422 2149.58,988.018ZM1832.43,1063.22C1833.28,1079.16 1840.73,1096.31 1858.75,1107.02C1878.01,1118.46 1894.43,1106.95 1911.33,1099.27C1919.21,1095.69 1921.48,1091.12 1918.27,1083.02C1909.04,1059.74 1900.11,1036.34 1891.14,1012.96C1889.8,1009.48 1889.16,1005.8 1884.16,1005.62C1863.07,1004.85 1832.59,1036.07 1832.43,1063.22ZM1656.55,1185.09C1659.65,1200.44 1659.16,1201.7 1665.19,1204.05C1709.62,1221.37 1749.43,1253.04 1802.32,1243.5C1836.29,1237.37 1871.13,1236.13 1905.07,1228.1C1868.4,1223.54 1831.63,1223.43 1794.96,1224.94C1779.88,1225.56 1767.08,1222.59 1753.68,1216.08C1702.33,1191.11 1650.8,1171.34 1590.58,1182.85C1561.96,1188.33 1550.63,1204.19 1539.61,1225.38C1585.34,1232.81 1624.24,1221.62 1656.55,1185.09ZM2208.42,896.414C2208.15,870.856 2178.93,852.601 2156.6,863.903C2110.33,887.316 2063.96,910.527 2017.74,934.034C2006.81,939.591 1991.64,943.533 1986.85,952.649C1981.29,963.221 1993.61,975.831 1997.78,987.653C2006.23,1011.65 2006.81,1011.51 2029.3,1000.3C2040.49,994.727 2051.65,991.063 2054.5,974.873C2060.98,938.013 2096.96,922.204 2130.3,939.84C2134.57,942.099 2137.87,944.881 2143.41,942.053C2160.54,933.309 2178.05,925.317 2195.31,916.83C2203.66,912.728 2208.29,905.936 2208.42,896.414ZM1752.58,946.367C1750.34,952.798 1745.01,952.628 1741.65,953.065C1726.39,955.053 1725.56,961.411 1734.8,971.88C1738.34,975.89 1741.86,979.911 1745.4,983.927C1751.4,990.757 1764.69,997.331 1745.6,1004.72C1742.1,1006.07 1743.74,1010.02 1744.8,1013.23C1746.14,1017.25 1746.91,1021.52 1747.41,1025.74C1749.89,1046.91 1749.85,1046.96 1768.21,1036.87C1801.03,1018.84 1833.74,1000.61 1866.68,982.799C1877.46,976.971 1882.22,970.362 1873.95,958.932C1871.53,955.598 1868.53,951.339 1870.27,947.131C1874.92,935.919 1867.89,933.578 1858.77,933.098C1862.12,923.18 1869.87,921.9 1876.81,919.794C1879.92,918.849 1882.71,919.246 1883.91,923.7C1888.01,938.956 1891.16,944.508 1902.69,956.229C1890.71,946.938 1908.44,927.169 1888.41,920.49C1886.18,919.748 1887.23,916.432 1888.6,914.888C1892.29,910.722 1897.03,908.35 1902.72,908.372C1906.17,908.385 1909.77,909.464 1909.56,913.417C1908.81,927.93 1925.13,931.606 1927.79,943.993C1920.94,932.991 1932.26,915.808 1914.85,908.115C1910.82,906.336 1916.41,900.742 1920.18,899.073C1925.28,896.815 1935.08,893.266 1934.88,899.934C1934.39,916.819 1951.65,920.218 1952.71,928.231C1944.17,924.147 1958.85,904.735 1941.56,898.365C1939.59,897.642 1938.89,895.198 1940.32,892.921C1943.55,887.752 1948.75,886.721 1954.22,886.371C1957.33,886.172 1963.3,886.906 1962.81,887.87C1953.24,906.744 1979.52,907.879 1978.05,923.081C2048.37,879.987 2119.14,840.895 2186.04,795.503C2216.27,774.991 2244.52,752.169 2266.92,722.839C2286.26,697.526 2296.8,669.874 2291.07,637.502C2290.27,632.961 2287.68,627.139 2293.49,624.632C2297.95,622.709 2301.38,627.21 2303.9,630.426C2350.09,689.495 2385.47,754.509 2410.48,825.178C2411.37,827.692 2411.49,830.39 2408.03,834C2346.46,780.717 2282.91,800.896 2217.83,830.163C2225.64,836.765 2234.34,834.261 2241.72,837.302C2267.41,847.888 2279.79,868.141 2282.53,894.175C2285.54,922.832 2276.31,948.442 2250.88,963.203C2218.56,981.96 2184.83,998.492 2150.77,1013.94C2136.25,1020.53 2130.69,1034.14 2119.92,1043.35C2116.71,1046.1 2118.42,1049.25 2121.11,1051.5C2124.79,1054.58 2128.58,1057.56 2132.52,1060.29C2155.2,1076.03 2155.26,1076.03 2139.8,1099.84C2125.82,1121.38 2112.09,1143.06 2096.77,1163.74C2091.24,1171.19 2087.96,1170.74 2082,1165.65C2061.14,1147.83 2037.25,1134.35 2013.7,1120.76C2002.22,1114.14 2005.03,1109.66 2010.15,1101.73C2025.22,1078.37 2039.93,1054.78 2054.62,1031.17C2056.87,1027.55 2062.52,1024.07 2056.96,1018.93C2052.92,1015.19 2049.25,1017.63 2045.34,1019.77C2040.2,1022.59 2034.73,1024.8 2029.4,1027.29C2012.89,1035.02 2012.76,1035.65 2024.89,1050.95C2031.76,1046.83 2033.18,1037.17 2043.35,1033.7C2037.32,1050.72 2026.83,1063.73 2018.72,1077.88C2014.84,1084.65 2010.35,1081.88 2007.5,1075.5C2001.61,1062.33 1995.47,1049.28 1989.33,1036.23C1987.16,1031.64 1984.67,1027.19 1981.28,1023.2C1984.73,1040.65 1993.04,1056.06 2000.68,1071.7C2005.2,1080.94 2005.84,1088.72 1999.57,1098.17C1989.67,1113.12 1980.12,1128.5 1973.39,1145.52C1974.83,1145.65 1976.43,1146.07 1976.58,1145.77C1983.78,1131.08 1993.37,1132.88 2005.43,1140.19C2027.36,1153.47 2049.9,1165.76 2072.26,1178.34C2079.15,1182.22 2082.77,1185.14 2076.53,1194C2048.8,1233.36 2021.85,1273.27 1995.02,1313.26C1989.22,1321.91 1981.75,1326.55 1971.98,1328.95C1925.79,1340.31 1879.73,1352.25 1833.42,1363.09C1822.24,1365.71 1818.75,1369.79 1820.55,1381.38C1824.75,1408.29 1827.55,1435.41 1831.35,1465.9C1820.2,1440.42 1810.39,1417.9 1800.47,1395.42C1797.45,1388.57 1794.25,1381.8 1790.92,1375.09C1785.4,1363.98 1777.88,1372.54 1771.68,1373.84C1763.09,1375.65 1768.84,1380.9 1770.39,1384.75C1788.97,1430.87 1807.33,1477.09 1826.41,1523C1831.75,1535.84 1829.34,1538.95 1815.3,1538.82C1747.84,1538.2 1680.37,1538.54 1612.9,1538.78C1606.5,1538.8 1601.79,1538.29 1598.94,1531.38C1569.4,1459.64 1538.57,1388.32 1523.93,1311.55C1516.08,1270.36 1521.39,1230.61 1539.94,1192.78C1543.47,1185.58 1546.7,1178.2 1549.51,1170.7C1558.51,1146.58 1558.41,1146.55 1584.4,1150.86C1605.72,1154.4 1626.86,1159.71 1650.34,1159.37C1646.99,1150.47 1640.8,1150.87 1635.46,1149.95C1613.34,1146.15 1591.29,1141.78 1569.06,1138.92C1557.25,1137.4 1559.71,1130.07 1559.79,1122.83C1559.92,1112.19 1566.34,1116.25 1571.92,1117.24C1610.86,1124.14 1649.62,1132.83 1688.86,1136.79C1706.31,1138.55 1708.5,1143.8 1707.99,1158.67C1707.13,1183.88 1714.51,1191.61 1739.47,1189.18C1802.3,1183.06 1864.38,1171.61 1926.2,1158.93C1936.31,1156.86 1949.34,1125.47 1944.41,1116.83C1941.53,1111.79 1937.91,1113 1933.59,1115.3C1923.69,1120.55 1913.78,1125.9 1903.44,1130.17C1866.07,1145.59 1831.6,1131.33 1815.37,1093.9C1807.99,1076.89 1804.58,1059.29 1809.74,1039.77C1787.19,1055.22 1757.86,1057.65 1740.92,1081.59C1736.95,1087.2 1729.23,1088.66 1722.69,1091.17C1715.11,1094.09 1703.01,1087.21 1700.32,1100.88C1698.59,1109.68 1696.55,1118.59 1701.19,1127.8C1660.77,1115.64 1620.11,1110.04 1580.01,1101.87C1571.44,1100.12 1567,1096.92 1562.36,1088.83C1538.68,1047.56 1513.66,1007.05 1488.82,966.453C1483.52,957.799 1472.68,959.102 1464.77,955.019C1459.33,952.213 1451.22,952.529 1450.28,944.359C1449.42,936.87 1456.73,935 1461.24,931.949C1521.98,890.878 1582.92,850.113 1643.71,809.139C1655.25,801.364 1666.56,793.231 1677.67,784.853C1685.45,778.979 1687.77,780.015 1688.44,790.15C1689.93,812.549 1692.26,834.922 1695.13,857.191C1697.96,879.104 1703.59,900.29 1717.31,918.332C1721.8,924.245 1721.88,926.739 1713.42,928.324C1692.41,932.26 1671.54,937.012 1650.76,942.027C1645.17,943.374 1636.66,941.668 1639.2,953.966C1641.43,964.753 1646.75,961.203 1652.78,960.693C1681.58,958.257 1710.21,954.839 1738.33,947.878C1742.7,946.798 1747.35,946.889 1752.58,946.367Z" style="fill:rgb(242,149,3);fill-rule:nonzero;"/>
        </g>
        <g transform="matrix(0.0891156,0,0,0.0891156,499.474,1429.93)">
            <path d="M3154,1728.18C3155.58,1735.2 3160.43,1734.21 3164.4,1734.65C3172.87,1735.59 3175.99,1741 3173.22,1748.11C3165.13,1768.87 3178.44,1767.45 3191.59,1766.79C3195.85,1766.57 3200.13,1766.82 3204.4,1766.67C3215.4,1766.3 3226.65,1766.08 3227.64,1750.99C3228.48,1738.24 3219.49,1728.99 3204.2,1728.34C3187.78,1727.63 3171.31,1728.18 3154,1728.18ZM3082.52,1824.24C3104.25,1826.98 3121.77,1840.24 3141.55,1847.87C3147.14,1850.02 3146.56,1853.43 3143.87,1857.89C3123.1,1892.23 3102.53,1926.68 3081.79,1961.04C3077.18,1968.69 3069.17,1968.78 3061.79,1968.3C3036.15,1966.62 3010.56,1964.16 2984.92,1962.48C2976.16,1961.91 2975.02,1956.12 2973.66,1949.6C2970.78,1935.78 2970.12,1921.35 2960.52,1908.94C2963,1925.23 2964.53,1941.76 2968.29,1957.76C2971.04,1969.43 2967.21,1971.61 2956.7,1971.51C2915.48,1971.12 2874.25,1971.1 2833.03,1971.47C2825.44,1971.54 2821.97,1969.41 2818.92,1962.17C2798.8,1914.36 2785.99,1865.06 2784.44,1812.93C2784.21,1805.22 2786.14,1799.8 2790.32,1793.93C2799.02,1781.72 2811.42,1772.5 2818.33,1758.9C2821.4,1752.86 2825.77,1755.18 2830.62,1756.29C2844.57,1759.47 2858.44,1763.58 2875.81,1763.28C2861.28,1753.95 2846.83,1753.01 2833.43,1749.13C2827.76,1747.48 2820.67,1747.4 2822.94,1738.73C2825.26,1729.88 2831.49,1735.29 2835.85,1736.4C2856.58,1741.64 2877.21,1747.32 2897.88,1752.77C2900.82,1753.54 2904.68,1755.24 2906.06,1751.11C2907.41,1747.05 2903.28,1745.51 2900.54,1744.65C2882.68,1739.08 2864.89,1733.07 2846.7,1728.78C2835.72,1726.2 2829.66,1721.67 2825.54,1710.46C2817.05,1687.42 2806.08,1665.31 2796.24,1642.76C2793.64,1636.8 2789.08,1633.65 2782.99,1632.27C2778.5,1631.26 2774.86,1629.06 2774.07,1624.22C2773.18,1618.76 2777.56,1617.17 2781.37,1615.08C2825.94,1590.64 2870.54,1566.25 2914.96,1541.53C2923.42,1536.82 2924.62,1539.88 2924.89,1547.84C2925.76,1573 2927.27,1598.18 2936.92,1621.88C2939.94,1629.31 2936.14,1630.02 2930.66,1630.48C2919.46,1631.42 2908.24,1632.26 2897.07,1633.52C2892.73,1634.02 2886.51,1632.78 2886.8,1640.39C2887.1,1647.98 2892.91,1646.31 2897.47,1646.32C2916.36,1646.39 2935.26,1646.35 2954.16,1646.35C2937.39,1652.16 2937.44,1652.13 2946.76,1668.99C2950.17,1675.17 2956.5,1680.24 2945.95,1687.73C2941.93,1690.57 2944.84,1702.82 2944.11,1710.73C2942.86,1724.36 2937.91,1734.2 2921.49,1733.02C2908.72,1732.1 2906.82,1736.46 2909.21,1750.08C2912.56,1769.23 2918.15,1784.1 2935.17,1795.1C2944.06,1800.84 2945.89,1813.23 2950.63,1823.88C2941.74,1824.52 2935.11,1819.75 2928.53,1816.03C2909.47,1805.24 2890.69,1793.93 2871.94,1782.61C2851.87,1770.5 2818.58,1774.72 2804.3,1790.79C2797.52,1798.43 2799.14,1800.52 2808.6,1802.53C2825.91,1806.2 2840.1,1800.08 2853.62,1790.69C2858.68,1787.18 2860.13,1785.19 2866.26,1792.46C2888.3,1818.62 2917.23,1834.16 2951.82,1838.2C2958.2,1838.94 2963.54,1837.84 2968.16,1833.66C2987.57,1816.17 3008.36,1800.14 3027.05,1778.65C3015.6,1776.36 3007.54,1770.97 3003.05,1761.47C2998.53,1751.89 2997.44,1741.69 3001.01,1731.8C3003.83,1723.98 2999.52,1723.5 2994.28,1723.53C2983.58,1723.58 2972.88,1724.01 2962.18,1724.22C2958.35,1724.3 2954.34,1724.45 2954.35,1718.87C2954.36,1714.43 2956.77,1711.67 2960.98,1711.2C2966.27,1710.61 2971.63,1710.47 2976.96,1710.51C3005.32,1710.72 3033.69,1710.75 3062.04,1711.54C3070.23,1711.77 3073.46,1708.34 3075.29,1701.19C3077.69,1691.87 3080.43,1682.61 3085.88,1674.45C3090.95,1666.87 3099.48,1658.91 3106.63,1663.94C3117.24,1671.41 3099.17,1673.89 3101.08,1682.23C3113.58,1681.07 3125.42,1669.61 3140.53,1674.72C3136.89,1685.36 3125.23,1681.09 3120.73,1688.41C3128.52,1688.41 3136.14,1688.32 3143.75,1688.46C3146.8,1688.51 3151.2,1687.86 3151.91,1691.5C3152.68,1695.45 3149.81,1698.6 3145.48,1699.2C3141.67,1699.73 3138.13,1700.52 3135.68,1703.82C3164.61,1724.82 3254.88,1707.19 3281.36,1671.89C3282.15,1708.2 3282.31,1740.45 3279.6,1776.25C3266.12,1761.61 3254.88,1749.41 3242.34,1735.79C3244.32,1770.66 3232.87,1782.52 3199.6,1782.76C3167.23,1782.99 3167.26,1783 3157.68,1814.51C3155.25,1822.52 3152.88,1830.52 3153.43,1839.67C3138.97,1832.38 3125.6,1825.76 3112.36,1818.88C3107.34,1816.28 3100.94,1814.31 3102.99,1806.28C3114.73,1798.8 3115.41,1790.88 3104.87,1781.34C3093.01,1770.61 3081.8,1759.17 3070.25,1748.1C3067.33,1745.3 3060.7,1743.25 3063.19,1738.88C3071.84,1723.71 3058.87,1727.32 3052.77,1726.89C3043.79,1726.26 3034.66,1727.23 3025.62,1727.87C3015.07,1728.61 3013.52,1737.08 3012.29,1744.95C3010,1759.52 3023.01,1763.68 3031.51,1769.66C3037.68,1773.99 3040.78,1765.54 3043.16,1761.34C3048.24,1752.38 3053.14,1751.8 3060.46,1758.82C3072.01,1769.9 3083.97,1780.54 3095.92,1791.19C3100.14,1794.96 3103.33,1798.82 3101.54,1804.9C3094.54,1810.73 3087.15,1816.19 3082.94,1824.65C3058.55,1844.33 3038.07,1867.89 3012.57,1892.89C3025.37,1890.15 3034.9,1902.17 3041.35,1892.08C3055.6,1869.83 3071.98,1848.77 3082.52,1824.24Z" style="fill:rgb(28,2,36);fill-rule:nonzero;"/>
        </g>
        <g transform="matrix(0.0891156,0,0,0.0891156,499.474,1429.93)">
            <path d="M245.992,1894.63C253.764,1942.8 271.526,1985.82 312.068,2016.94C317.138,2020.83 322.99,2023.72 327.984,2027.69C330.627,2029.8 337.934,2030.24 333.269,2036.55C329.853,2041.17 325.577,2038.91 321.925,2036.51C314.793,2031.82 307.905,2026.76 300.756,2022.1C295.329,2018.56 292.482,2007.85 282.396,2019.36C277.644,2024.78 267.888,2015.16 263.06,2009.32C259.755,2005.31 258.075,1997.81 266.551,1995.36C274.59,1993.04 268.267,1989.37 267.114,1987.52C251.325,1962.31 240.077,1935.36 235.485,1905.87C234.666,1900.61 232.409,1898.76 227.309,1898.24C220.081,1897.49 217.682,1891.76 217.552,1885.58C217.419,1879.23 220.104,1873.45 227.357,1873.27C235.707,1873.07 235.036,1867.38 235.316,1862.23C237.38,1824.32 250.517,1790.37 271.881,1759.34C276.294,1752.93 280.917,1747.86 275.243,1738.35C271.383,1731.88 276.962,1721.55 285.688,1722.64C302.981,1724.8 314.655,1715.92 327.069,1706.98C346.037,1693.32 368.014,1686.37 390.027,1679.66C395.161,1678.1 400.563,1678.28 398.231,1669.75C396.296,1662.67 401.712,1659.06 408.186,1658.06C415.389,1656.95 421.344,1658.78 421.79,1667.37C422.042,1672.23 423.872,1673.69 428.587,1673.59C459.949,1672.98 490.067,1679 518.698,1692.11C521.867,1686.29 518.474,1677.54 527.966,1676.84C533.922,1676.4 538.172,1679.26 541.575,1683.75C543.209,1685.91 545.221,1688.77 542.215,1690.67C527.557,1699.96 540.056,1705.79 545.39,1710.94C565.852,1730.69 585.882,1750.48 595.918,1778.15C598.77,1786.01 598.765,1791.35 590.175,1794.52C561.989,1729.74 511.577,1688.35 463.685,1691.39C506.215,1702.27 542.74,1720.49 563.922,1760.69C565.665,1764 567.685,1767.17 569.311,1770.53C583.515,1799.88 582.38,1802.24 558.099,1824.31C493.584,1882.94 430.609,1943.21 368.288,2004.17C343.686,2028.23 349.314,2028.29 318.132,2009.24C281.36,1986.78 264.649,1950.97 255.089,1910.83C253.977,1906.15 253.245,1901.39 252.127,1896.72C251.817,1895.42 250.756,1894.31 250.04,1893.11C248.69,1893.61 247.341,1894.12 245.992,1894.63Z" style="fill:rgb(28,2,36);fill-rule:nonzero;"/>
        </g>
        <g transform="matrix(0.0891156,0,0,0.0891156,499.474,1429.93)">
            <path d="M2575.86,1874.8C2565.92,1884.26 2555.89,1893.64 2546.09,1903.25C2543.91,1905.39 2538.2,1907.65 2543.35,1911.55C2547.11,1914.4 2552.3,1918.86 2556.61,1911.46C2563.44,1899.71 2572.87,1889.49 2575.86,1874.8ZM2725.64,1853.06C2724.18,1846.42 2721.29,1840.83 2715.96,1836.82C2701.55,1825.97 2686.97,1815.33 2672.63,1804.39C2666.33,1799.58 2662.21,1799.87 2657.09,1806.8C2651.9,1813.84 2653.68,1818.37 2659.25,1822.97C2675.22,1836.16 2691.32,1849.19 2707.29,1862.37C2710.72,1865.2 2714.01,1868 2718.52,1864.78C2722.58,1861.88 2724.98,1857.88 2725.64,1853.06ZM2329.77,1768.75C2359.51,1775.53 2360.2,1775.57 2389.73,1759.47C2395.36,1756.4 2397.12,1754.94 2402.76,1761.8C2426.51,1790.69 2452.76,1817.42 2482.01,1840.94C2484.86,1843.23 2487.93,1848.92 2492.61,1844.74C2497.69,1840.22 2491.68,1836.98 2489.54,1834.21C2468.6,1807.15 2446.53,1781.07 2420.6,1758.52C2394.84,1736.12 2351.71,1740.32 2329.77,1768.75ZM2411.26,1731.08C2404.41,1724.32 2394.91,1724.75 2386.78,1722.08C2378.68,1719.42 2370.36,1717.41 2362.08,1715.33C2356.59,1713.94 2355.95,1710.02 2356.46,1705.44C2357.13,1699.41 2361.19,1701.08 2364.8,1701.96C2391.27,1708.42 2417.67,1715.21 2444.25,1721.21C2452.99,1723.19 2449.95,1729.48 2449.55,1733.71C2448.41,1745.7 2451.59,1753.52 2463.6,1758.76C2479.95,1765.88 2488.41,1780.17 2491.67,1797.43C2494.32,1811.41 2496.62,1825.46 2499.5,1841.9C2526.83,1819.82 2552.87,1798.73 2578.98,1777.72C2583.72,1773.9 2580.88,1771.83 2577.67,1769.19C2554.54,1750.17 2531.64,1730.87 2508.28,1712.14C2504.33,1708.97 2498.59,1707.95 2493.57,1706.24C2489.43,1704.83 2484.67,1703.81 2485.55,1698.16C2486.38,1692.87 2488.18,1687.46 2494.29,1685.9C2498.95,1684.71 2505.04,1683.65 2507.16,1688.89C2515.6,1709.78 2535.7,1718.46 2551.05,1732.05C2560.25,1740.2 2570.17,1747.52 2579.49,1755.54C2587.55,1762.47 2593.16,1762.77 2596.75,1751.27C2598.31,1746.28 2601.31,1741.71 2603.94,1737.11C2604.96,1735.34 2607.66,1732.48 2608.1,1732.73C2624.21,1742.01 2634.55,1722.29 2649.17,1724.66C2653.51,1725.36 2660.15,1721.63 2661.35,1728.19C2662.27,1733.27 2655.76,1733.38 2652.01,1734.9C2648.1,1736.49 2644.05,1737.88 2640.85,1743.1C2654.1,1743.09 2666.36,1737.91 2680.14,1742.89C2673.07,1751.65 2660.14,1748.71 2654.65,1758.05C2660.98,1762.16 2666.43,1758.86 2671.93,1758.11C2676.57,1757.49 2682.76,1755.51 2683.69,1762.21C2684.47,1767.82 2679.48,1770.08 2674.04,1770.46C2670.92,1770.68 2667.56,1770.79 2666,1773.01C2686.61,1793.91 2706.4,1815.28 2729.52,1833.43C2744.12,1844.88 2743.09,1859.89 2731.12,1874.38C2729.21,1876.68 2722.27,1878.21 2728.38,1882.29C2746.22,1894.19 2759.66,1913.63 2784.97,1915.06C2779.02,1925.58 2769.24,1930.84 2759.46,1939.8C2758.4,1917.16 2744.41,1906.45 2728.58,1895.7C2706.5,1880.72 2685.79,1863.69 2665,1846.9C2657.38,1840.75 2653.53,1841.3 2650.56,1850.61C2647.38,1860.61 2637.92,1869.45 2648.29,1881.28C2651.55,1885 2647.89,1895.91 2641.4,1892.06C2625.35,1882.54 2607.63,1874.41 2595.05,1858.78C2594.64,1859.09 2593.1,1860.63 2591.25,1861.59C2579.1,1867.94 2582.15,1872.51 2592.3,1878.01C2605.9,1885.38 2618.6,1894.46 2632.32,1901.59C2638.8,1904.95 2639.73,1906.73 2635.82,1913.12C2620.21,1938.64 2605.24,1964.55 2590.15,1990.39C2587.16,1995.51 2584.42,1998.28 2577.49,1995.75C2561.83,1990.06 2547.02,1982.66 2532.32,1975.04C2522.33,1969.86 2524.29,1959.3 2523.96,1950.66C2523.59,1940.46 2521.66,1936.57 2509.55,1936.89C2463.55,1938.14 2417.5,1937.32 2371.48,1937.93C2360.36,1938.07 2354.05,1935.08 2350.32,1923.8C2336.06,1880.72 2319.67,1838.6 2316.23,1792.26C2315.04,1776.19 2320.1,1767.47 2328.59,1757.06C2336.96,1746.8 2348.41,1738.8 2353.04,1725.71C2355.28,1719.37 2359.59,1721.54 2363.48,1722.55C2375.87,1725.78 2388.2,1729.26 2400.54,1732.7C2403.96,1733.65 2407.41,1736.15 2411.26,1731.08Z" style="fill:rgb(28,2,36);fill-rule:nonzero;"/>
        </g>
        <g transform="matrix(0.0891156,0,0,0.0891156,499.474,1429.93)">
            <path d="M1381.43,1599.45C1387.74,1601.53 1391.37,1606.41 1395.17,1610.72C1430.93,1651.18 1466.45,1691.86 1502.17,1732.35C1515.25,1747.17 1528.44,1761.92 1542.14,1776.16C1547.51,1781.74 1547.61,1785.34 1541.84,1790.4C1496.45,1830.29 1451.48,1870.65 1404.67,1908.91C1398.52,1913.95 1396.08,1911.57 1391.89,1907.23C1341.08,1854.43 1293.25,1798.99 1245.5,1743.45C1237.89,1734.6 1238.57,1728.65 1247.18,1720.95C1290.23,1682.46 1332.88,1643.51 1375.66,1604.71C1377.62,1602.95 1379.55,1601.16 1381.43,1599.45Z" style="fill:rgb(28,2,36);fill-rule:nonzero;"/>
        </g>
        <g transform="matrix(0.0891156,0,0,0.0891156,499.474,1429.93)">
            <path d="M956.34,1846.6C963.874,1847.86 969.6,1853.23 972.182,1859.01C977.197,1870.25 989.118,1873.16 995.953,1881.83C997.403,1883.66 1000,1886.09 1002.59,1883.14C1004.61,1880.84 1004.36,1877.69 1001.85,1876.13C987.158,1867.02 997.989,1862.44 1004.99,1856.96C1032.42,1835.48 1057,1810.83 1082.64,1787.37C1084.77,1785.42 1089.29,1784 1085.95,1780.17C1082.34,1776.02 1079.73,1779.53 1076.94,1782.22C1050.76,1807.43 1020.84,1828.47 995.797,1854.97C985.983,1865.36 981.101,1852.9 975.173,1849.1C967.316,1844.07 971.296,1839.19 977.021,1834.17C1002.32,1811.97 1027.33,1789.42 1052.2,1766.73C1054.62,1764.52 1061.39,1762.46 1055.89,1756.96C1050.83,1751.9 1048.7,1757.6 1045.75,1760.1C1019.69,1782.22 992.918,1803.56 968.784,1827.86C960.164,1836.54 955.396,1827.8 950.402,1823.63C943.899,1818.19 946.334,1813.57 952.442,1808.16C977.655,1785.84 1002.31,1762.89 1027,1739.98C1029.48,1737.67 1036.5,1735.88 1030.73,1730.49C1026.62,1726.63 1023.71,1729.68 1020.11,1732.93C995.487,1755.1 969.777,1776.13 945.997,1799.15C936.784,1808.08 932.814,1803.18 926.604,1797.76C918.029,1790.26 922.763,1786.42 929.417,1780.59C954.761,1758.4 979.399,1735.4 1004.22,1712.61C1007.24,1709.84 1009.79,1706.56 1013.66,1702.29C1003.99,1698.9 999.13,1704.88 994.492,1708.73C968.979,1729.9 943.295,1750.99 920.495,1775.07C912.989,1783 908.878,1778.41 905.679,1773.45C902.471,1768.47 889.216,1766.79 898.305,1756.7C927.704,1724.04 962.615,1697.2 993.819,1666.44C998.782,1661.55 1000.29,1666.44 1002,1669.22C1034.05,1721.43 1080.18,1760.95 1122.72,1803.74C1135.25,1816.34 1150.03,1826 1163.54,1837.3C1168.16,1841.17 1170.47,1843.06 1164.67,1847.83C1094.83,1905.24 1030.05,1968.38 961.721,2027.5C961.344,2027.83 960.727,2027.88 959.336,2028.36C952.533,2015.76 940.686,2004.33 960.978,1991.42C969.988,1985.69 964.726,1971.13 952.012,1964.53C939.89,1958.24 926.213,1958.27 913.025,1956.55C908.067,1955.91 903.037,1955.81 895.392,1955.28C924.98,1927.36 952.208,1901.66 980.085,1875.35C970.703,1869.76 967.381,1875.99 963.376,1879.56C942.232,1898.42 920.546,1916.75 900.397,1936.63C889.343,1947.54 883.894,1941.28 875.783,1933.78C865.058,1923.85 876.293,1921.47 880.691,1917.43C902.34,1897.53 924.293,1877.95 946.246,1858.39C949.861,1855.16 953.679,1852.26 955.379,1847.49L956.34,1846.6Z" style="fill:rgb(28,2,36);fill-rule:nonzero;"/>
        </g>
        <g transform="matrix(0.0891156,0,0,0.0891156,499.474,1429.93)">
            <path d="M2016.85,1928.38C2013.71,1903.18 2008.26,1879.85 1997.38,1857.19C1995.71,1866.7 1976.02,1866.02 1985.48,1880.77C1995.73,1896.77 2006.38,1912.52 2016.85,1928.38ZM1966.22,2007.01C1946.83,1968.34 1924.47,1931.23 1906.43,1891.79C1898.08,1873.54 1898.55,1860.54 1912.3,1844.66C1938.89,1813.96 1963.09,1781.16 1985.73,1747.35C1988.85,1742.7 1991.33,1739.46 1996.91,1741.92C2017.34,1750.9 2035.46,1744.27 2053.31,1734.21C2057.73,1731.72 2061.92,1726.35 2067.41,1735.03C2090.52,1771.62 2114.16,1807.9 2138.43,1843.72C2143.9,1851.8 2142.72,1855.4 2136.15,1861.65C2105.93,1890.4 2079.73,1925 2045.48,1947.38C2017.36,1965.76 1995.19,1991.02 1966.22,2007.01Z" style="fill:rgb(28,2,36);fill-rule:nonzero;"/>
        </g>
        <g transform="matrix(0.0891156,0,0,0.0891156,499.474,1429.93)">
            <path d="M865.372,1383.03C871.371,1420.01 867.583,1456.5 889.692,1489.16C872.245,1491.83 856.699,1493.91 841.292,1496.74C835.46,1497.81 824.735,1493.48 825.921,1504.94C827.067,1516.02 837.1,1510.18 842.863,1510.2C864.688,1510.28 886.55,1510 912.535,1505.43C907.236,1509.4 905.864,1511.13 904.147,1511.6C884.984,1516.81 884.214,1518.97 895.436,1536.95C899.951,1544.18 911.439,1551.81 893.753,1557.63C890.753,1558.62 892.427,1563.42 892.15,1566.54C891.443,1574.49 889.682,1582.4 889.562,1590.35C889.321,1606.27 880.262,1611.6 866.011,1611.8C858.203,1611.91 851.254,1612.48 851.146,1623.55C851.078,1630.53 845.413,1627.62 841.469,1626.52C817.295,1619.76 793.164,1612.85 768.913,1606.38C763.606,1604.97 761.229,1602.1 759.014,1597.3C747.602,1572.58 735.553,1548.16 724.009,1523.51C719.092,1513.01 713.144,1504.57 701.029,1500.85C692.771,1498.32 684.766,1492.21 697.386,1484.52C752.529,1450.89 807.925,1417.68 865.372,1383.03Z" style="fill:rgb(28,2,36);fill-rule:nonzero;"/>
        </g>
        <g transform="matrix(0.0891156,0,0,0.0891156,499.474,1429.93)">
            <path d="M1353.66,1461.63C1334.64,1457.92 1317.49,1454.45 1300.29,1451.29C1295.92,1450.49 1290.39,1448.12 1289.61,1456.23C1288.97,1462.99 1293.16,1463.71 1298.26,1465.03C1321.18,1470.97 1343.98,1477.37 1367.41,1483.76C1366.04,1485.54 1365.54,1486.81 1364.96,1486.85C1340.83,1488.62 1340.86,1488.7 1349.63,1511.55C1352.56,1519.2 1360.42,1528.81 1342.97,1529.88C1337.75,1530.21 1338.7,1536.31 1338.19,1540.49C1334.92,1567.29 1328.34,1572.86 1302.7,1571.36C1297.39,1571.05 1291.05,1568.21 1289.11,1577.59C1288.03,1582.84 1282.85,1579.74 1279.75,1578.44C1257.1,1568.9 1234.7,1558.72 1211.13,1551.56C1203.78,1549.32 1204.01,1543.74 1203.74,1537.55C1202.13,1501.66 1191.72,1466.98 1188.83,1431.24C1188.16,1422.86 1181.07,1420.42 1175.71,1416.27C1172.17,1413.53 1169.73,1409.83 1170.38,1405.22C1171.1,1400.11 1175.82,1401.14 1179.26,1400.34C1237.51,1386.79 1295.78,1373.34 1353.97,1359.56C1362.82,1357.46 1363.94,1359.48 1361.93,1367.96C1358.13,1384.05 1355.47,1400.42 1352.6,1416.71C1350.09,1430.97 1349.66,1445.27 1353.66,1461.63Z" style="fill:rgb(28,2,36);fill-rule:nonzero;"/>
        </g>
        <g transform="matrix(0.0891156,0,0,0.0891156,499.474,1429.93)">
            <path d="M1325.91,1866.15L1173.65,1866.15C1195.96,1848.1 1193,1829.16 1180.89,1809.73C1178.27,1805.53 1178.25,1801.58 1180.92,1797.82C1193.18,1780.48 1186.77,1764.11 1178.02,1748.27C1163.9,1722.68 1143.6,1702.11 1122.4,1682.42C1096.89,1658.74 1098.29,1669.68 1113.78,1635.88C1119.57,1623.23 1124.37,1615.39 1141.91,1623.5C1159.16,1631.47 1177.67,1623.47 1193.12,1612.69C1202.42,1606.2 1205.7,1603.37 1211.46,1618.2C1219.04,1637.71 1233.87,1654.35 1245.17,1672.48C1256.92,1691.31 1256.7,1691.44 1239.41,1704.06C1218.91,1719.01 1216.96,1738.58 1233.79,1757.49C1260.08,1787.03 1286.3,1816.65 1312.32,1846.44C1317.08,1851.89 1323,1856.73 1325.91,1866.15Z" style="fill:rgb(28,2,36);fill-rule:nonzero;"/>
        </g>
        <g transform="matrix(0.0891156,0,0,0.0891156,499.474,1429.93)">
            <path d="M2170.72,1489.53C2172.37,1521.92 2164.42,1553.63 2175.55,1583.37C2159.43,1583.37 2143.13,1583.28 2126.83,1583.44C2122.42,1583.48 2116.45,1581.59 2116.2,1589.33C2115.97,1596.41 2121.16,1596.14 2126.07,1596.75C2146.55,1599.3 2167.01,1602.07 2187.53,1604.76C2187.16,1606.06 2187.05,1607.67 2186.63,1607.76C2166.65,1611.78 2166.62,1611.78 2177.76,1631.52C2179.63,1634.83 2182.53,1640.15 2178.93,1641.36C2164.72,1646.1 2168.4,1658.39 2166.69,1668.02C2164.45,1680.72 2158.97,1688.12 2145.03,1688.97C2139.53,1689.3 2128.62,1684.86 2130.34,1699.02C2130.9,1703.63 2125.23,1700.32 2122.85,1699.45C2100.78,1691.34 2079.28,1681.61 2056.21,1676.46C2049.83,1675.04 2048.51,1670.69 2046.84,1665.19C2038.65,1638.06 2029.86,1611.1 2021.34,1584.07C2018.71,1575.75 2015.43,1568.48 2006.52,1564.38C2000.45,1561.59 1994.37,1554.77 2004.83,1550.79C2059.66,1529.97 2114.84,1510.06 2170.72,1489.53Z" style="fill:rgb(28,2,36);fill-rule:nonzero;"/>
        </g>
        <g transform="matrix(0.0891156,0,0,0.0891156,499.474,1429.93)">
            <path d="M2470.09,1496.92C2470.69,1530.96 2466.45,1563.25 2482.36,1596.51C2464.62,1596.51 2448.85,1596.37 2433.09,1596.6C2428.61,1596.66 2422.35,1595.37 2421.88,1602.38C2421.31,1610.9 2428.28,1609.25 2433.28,1609.41C2454.54,1610.07 2475.57,1613.87 2497.48,1612.42C2495.43,1617.78 2491.46,1616.48 2488.76,1616.96C2478.48,1618.77 2477.22,1623.31 2481.74,1632.35C2486.15,1641.18 2499.79,1650.5 2482.55,1660.7C2480.93,1661.66 2482.39,1667.79 2482.37,1671.52C2482.3,1692.55 2477.72,1697.82 2457.48,1700.3C2454.84,1700.63 2450.4,1700.45 2449.89,1701.73C2442.35,1720.67 2430.38,1706.73 2420.28,1706C2419.23,1705.92 2418.15,1705.61 2417.19,1705.17C2399.71,1697.33 2375.89,1702.01 2363.66,1687.53C2351.84,1673.55 2347.87,1652.9 2340.56,1635.14C2336.49,1625.26 2332.35,1615.39 2328.78,1605.33C2325.94,1597.36 2321.98,1591.19 2313.19,1588.69C2309.19,1587.56 2305.13,1584.86 2305.59,1579.6C2306.01,1574.88 2310.58,1574.57 2313.78,1573.01C2365.08,1548 2416.41,1523.04 2470.09,1496.92Z" style="fill:rgb(28,2,36);fill-rule:nonzero;"/>
        </g>
        <g transform="matrix(0.0891156,0,0,0.0891156,499.474,1429.93)">
            <path d="M450.878,2083.16C460.513,2090.99 505.922,2088.55 512.372,2081.76C515.19,2078.79 512.865,2076.84 511.728,2074.95C510.803,2073.41 507.528,2071.37 507.174,2071.68C491.192,2085.77 470.944,2079.16 450.878,2083.16ZM648.563,1915.76C641.339,1940.3 634.949,1964.65 618.922,1984.78C616.283,1988.09 609.99,1990.84 617.347,1995.87C623.956,2000.38 625.343,1995.11 627.838,1991C638.153,1974.01 646.201,1955.99 651.868,1936.97C653.977,1929.89 656.022,1922.41 648.563,1915.76ZM604.166,2002.71C583.15,2031.55 557.106,2050.99 526.893,2064.99C524.042,2066.31 522.518,2067.9 524.72,2070.85C527.672,2074.81 531.397,2073.45 534.731,2071.73C559.849,2058.76 584.123,2044.63 602.42,2022.28C606.473,2017.33 607.952,2012.16 604.166,2002.71ZM611.541,1873.16C624.077,1883.86 644.032,1885.88 649.115,1905.39C649.739,1907.78 652.315,1907.91 654.51,1907.47C657.012,1906.96 657.55,1905.24 657.555,1902.81C657.622,1872.87 658.217,1843.01 642.909,1815.48C636.091,1803.21 631.67,1789.77 632.795,1774.33C637.847,1788.07 648.629,1795.76 659.001,1804C661.667,1806.12 664.564,1811.76 660.585,1813.68C647.582,1819.95 656.174,1827.18 658.739,1834.12C664.359,1849.33 667.137,1865 667.258,1881.21C667.335,1891.62 666.053,1901.79 674.196,1911.2C678.136,1915.75 680.802,1926.1 668.139,1927.7C660.584,1928.65 661.942,1935.5 660.429,1940.06C653.573,1960.72 646.639,1980.8 633.275,1998.97C607.545,2033.94 597.235,2042.92 559.343,2068.89C535.521,2085.21 511.326,2096.07 482.476,2096.96C473.012,2097.25 463.687,2098.57 454.641,2103.14C447.992,2106.51 439.796,2105.09 434.163,2098.56C429.185,2092.78 433.014,2087.96 439.255,2082.46C411.632,2081.51 387.811,2076.91 366.097,2064.2C362.828,2068.78 365.567,2078.45 357.616,2077.53C348.999,2076.54 346.273,2067.16 341.667,2060.77C337.921,2055.57 339.854,2052.52 344.511,2048.98C347.69,2046.57 349.667,2042.41 351.782,2038.79C355.67,2032.14 358.51,2031.97 366.245,2035.92C386.482,2046.26 408.839,2043.72 430.603,2040.78C439.944,2039.52 447.589,2039.55 450.394,2051.46C422.68,2059.28 395.448,2052.61 368.197,2051.95C401.551,2064.74 434.977,2066.14 469.325,2051.36C461.872,2049.22 455.104,2047.26 452.382,2039.7C450.692,2035 449.781,2029.9 452.876,2025.86C456.473,2021.16 460.689,2024.97 464.237,2026.82C468.292,2028.92 471.548,2029.6 476.006,2026.94C495.276,2015.44 515.088,2004.76 531.659,1989.34C539.619,1981.93 548.012,1975.64 548.323,1962.17C548.604,1950.02 555.057,1949.63 570.219,1959.87L569.797,1959.44C571.45,1965.37 568.406,1970.5 566.97,1975.9C561.447,1976.54 557.005,1979.18 553.406,1983.32C532.573,2007.25 509.266,2027.8 478.403,2037.93C475.132,2039.01 474.793,2041 475.109,2043.98C475.603,2048.64 478.749,2049.9 482.576,2050.95C487.276,2052.24 486.546,2049.12 486.383,2046.56C486.122,2042.45 488.926,2041.15 492.009,2039.9C508.604,2033.16 522.328,2021.96 535.458,2010.32C547.088,2000.01 559.452,1990.03 566.634,1975.58C582.897,1972.93 588.316,1991.62 603.58,1995.47C600.684,1986.78 594.685,1983.64 589.861,1979.99C581.173,1973.41 578.021,1968.53 584.907,1956.9C600.15,1931.15 609.003,1902.63 611.994,1872.58L611.541,1873.16Z" style="fill:rgb(28,2,36);fill-rule:nonzero;"/>
        </g>
        <g transform="matrix(0.0891156,0,0,0.0891156,499.474,1429.93)">
            <path d="M586.043,1863.68C580.843,1879.2 576.084,1894.89 570.365,1910.22C549.114,1967.16 469.297,2037.62 387.298,2030.31C380.335,2029.69 373.663,2028.96 367.218,2026.01C378.114,2008.88 558.377,1836.44 582.968,1819.64C588.918,1834.3 584.303,1849.41 585.755,1864.06L586.043,1863.68Z" style="fill:rgb(28,2,36);fill-rule:nonzero;"/>
        </g>
        <g transform="matrix(0.0891156,0,0,0.0891156,499.474,1429.93)">
            <path d="M624.711,1541.96C625.636,1572.34 617.786,1600.66 627.309,1629.4C611.736,1629.4 597.006,1629.36 582.277,1629.43C578.217,1629.45 573.009,1628.18 572.915,1634.8C572.828,1640.9 577.638,1640.95 581.947,1641.29C600.929,1642.8 619.913,1644.29 641.284,1645.97C634.581,1654.19 626.549,1648.99 621.224,1652.54C621.155,1658.84 625.541,1663.39 627.359,1668.89C629.891,1676.54 637.887,1683.96 623.91,1690.73C617.175,1694 622.369,1705.73 619.572,1713.23C617.954,1717.57 619.296,1723.83 613.81,1725.6C608.336,1727.36 605.432,1721.98 602.054,1718.81C597.77,1714.8 593.821,1710.42 589.686,1706.25C567.397,1683.74 542.507,1666.14 509.527,1663.8C497.505,1662.95 490.525,1658.34 489.002,1644.57C487.349,1629.62 485.919,1613.57 469.137,1604.99C463.45,1602.08 463.774,1596.7 471.778,1594C522.294,1577.02 572.699,1559.7 624.711,1541.96Z" style="fill:rgb(28,2,36);fill-rule:nonzero;"/>
        </g>
        <g transform="matrix(0.0891156,0,0,0.0891156,499.474,1429.93)">
            <path d="M955.379,1847.49C947.443,1845.85 941.372,1848.33 935.242,1853.95C913.966,1873.46 891.548,1891.74 870.68,1911.66C860.192,1921.67 855.143,1914.04 848.403,1908.21C838.551,1899.69 848.37,1897.11 852.903,1893.02C875.51,1872.6 898.163,1852.24 920.795,1831.85C923.493,1829.42 927.112,1827.57 926.66,1822.92C918.396,1818.13 913.836,1824.49 908.817,1828.83C886.988,1847.71 865.243,1866.69 843.489,1885.65C838.358,1890.12 834.023,1892.68 827.2,1886.94C818.893,1879.94 817.462,1875.57 826.62,1867.67C850.494,1847.08 873.537,1825.52 896.708,1804.12C899.294,1801.73 905.82,1799.36 900.871,1794.36C897.102,1790.55 892.913,1793.97 889.662,1796.85C866.436,1817.37 842.653,1837.32 820.338,1858.8C810.506,1868.26 805.649,1863.56 798.202,1856.93C789.013,1848.74 793.673,1843.55 800.346,1837.71C825.286,1815.89 850.206,1794.04 874.983,1772.03C878.818,1768.63 882.076,1764.85 886.894,1770.11C910.165,1795.49 936.351,1818.23 956.339,1846.6C956.34,1846.6 955.379,1847.49 955.379,1847.49Z" style="fill:rgb(28,2,36);fill-rule:nonzero;"/>
        </g>
        <g transform="matrix(0.0891156,0,0,0.0891156,499.474,1429.93)">
            <path d="M1037.26,1654.47C1036.56,1648.61 1029.12,1647.12 1029.73,1639.73C1042.71,1641.68 1053.7,1648.02 1064.12,1654.62C1105.81,1681.01 1140.02,1715.05 1165.3,1757.58C1169.46,1764.58 1175.59,1773.08 1168.9,1781.21C1162.08,1789.49 1152.67,1785.7 1143.58,1783.99C1121.22,1779.78 1105.74,1764.97 1090.06,1750.58C1064.03,1726.7 1039.64,1701.3 1022.47,1669.97C1019.36,1664.31 1012.59,1658.77 1019.21,1651.48C1026.19,1643.79 1031.09,1653.61 1037.26,1654.47Z" style="fill:rgb(28,2,36);fill-rule:nonzero;"/>
        </g>
        <g transform="matrix(0.0891156,0,0,0.0891156,499.474,1429.93)">
            <path d="M2089.3,1710.64C2076.38,1706.43 2063.49,1702.11 2050.52,1698.05C2045,1696.32 2039.6,1694.26 2042.49,1687.2C2045.54,1679.77 2050.73,1685.47 2054.66,1686.53C2079.36,1693.24 2102.49,1705.15 2127.99,1709.08C2135.7,1710.27 2134.99,1715.35 2133.5,1719.55C2129.7,1730.2 2134.39,1736.78 2140.78,1745.06C2156.84,1765.87 2160.87,1791.9 2168.38,1818.78C2184.42,1797.14 2203.86,1780.42 2220.01,1760.75C2230.64,1747.79 2229.13,1738.26 2215.79,1727.97C2208.29,1722.18 2202.13,1715.89 2200.38,1706.41C2198.6,1696.8 2193.79,1689.61 2185.08,1685.14C2178.34,1681.69 2176.06,1676.46 2178.35,1669.19C2179.61,1665.17 2181.87,1662.82 2186.45,1663.13C2193.89,1663.62 2195.45,1668.76 2199.18,1674.45C2209.82,1690.67 2210.47,1712.1 2229.97,1724.25C2245.29,1733.8 2244.11,1753.8 2229.87,1769.4C2213.65,1787.17 2196.02,1803.65 2178.99,1820.67C2176.71,1822.94 2174.27,1825.04 2171.98,1827.29C2154.34,1844.59 2154.49,1844.51 2141.94,1821.51C2127.82,1795.64 2110.25,1771.98 2094.02,1747.45C2081.41,1728.39 2061.72,1722.73 2042.25,1715.87C2038.79,1714.65 2032.13,1716.39 2034.55,1709.15C2036.17,1704.32 2040.47,1704.06 2045.24,1704.8C2059.79,1707.07 2073.26,1714.7 2088.26,1714.67C2088.61,1713.33 2088.96,1711.98 2089.3,1710.64Z" style="fill:rgb(28,2,36);fill-rule:nonzero;"/>
        </g>
        <g transform="matrix(0.0891156,0,0,0.0891156,499.474,1429.93)">
            <path d="M1242.83,1591.21C1226.65,1585.33 1214.3,1580.66 1201.82,1576.39C1195.12,1574.1 1191.58,1570.25 1194.55,1563.26C1197.61,1556.06 1202.53,1560.87 1206.6,1562.24C1232.85,1571.09 1257.81,1583.76 1285.15,1589.26C1292.36,1590.71 1290.07,1595.48 1289.66,1598.88C1287.86,1613.71 1287.01,1627.6 1303.7,1635.56C1309.21,1638.19 1309,1643.05 1304.09,1647.08C1303.67,1647.42 1303.32,1647.83 1302.93,1648.19C1292.8,1657.68 1283.07,1674.16 1272.42,1674.77C1260.56,1675.46 1256.1,1655.45 1248.42,1644.51C1232.7,1622.11 1218.04,1598.82 1187.81,1593.93C1184.63,1593.41 1181.01,1592.54 1181.09,1588.46C1181.19,1583.11 1186.11,1582.74 1189.35,1583.33C1199.82,1585.23 1210.14,1587.94 1220.49,1590.48C1226.62,1592 1232.57,1594.92 1242.83,1591.21Z" style="fill:rgb(28,2,36);fill-rule:nonzero;"/>
        </g>
        <g transform="matrix(0.0891156,0,0,0.0891156,499.474,1429.93)">
            <path d="M1923.86,2797.63C1941.9,2786.21 2838.41,2781.84 2959.32,2790.95C2614.16,2793.18 2269.01,2795.41 1923.86,2797.63Z" style="fill:rgb(28,2,36);fill-rule:nonzero;"/>
        </g>
        <g transform="matrix(0.0891156,0,0,0.0891156,499.474,1429.93)">
            <path d="M1367.19,1541.71C1369.74,1542.94 1374.12,1543.58 1375.1,1545.75C1384.33,1566.25 1405.87,1568.17 1422.51,1576.47C1467.82,1599.07 1514.14,1619.66 1560.02,1641.12C1567.03,1644.4 1574.51,1647.57 1565.88,1657.07C1561.62,1661.76 1558.01,1660.9 1553.34,1658.06C1501.84,1626.66 1445.62,1604.3 1393.2,1574.66C1384.43,1569.7 1375.38,1566.41 1364.81,1566.87C1361.09,1567.04 1352.04,1569.19 1353.59,1560.17C1354.89,1552.59 1357.1,1544.35 1367.19,1541.71Z" style="fill:rgb(28,2,36);fill-rule:nonzero;"/>
        </g>
        <g transform="matrix(0.0891156,0,0,0.0891156,499.474,1429.93)">
            <path d="M585.755,1864.06C595.359,1861.6 597.031,1854.82 596.24,1846.05C595.383,1836.56 596.268,1826.83 594.621,1817.51C593.199,1809.47 595.673,1805.58 603.42,1803.38C611.952,1826.06 604.838,1850.47 611.541,1873.16L611.994,1872.58C605.699,1874.69 605.975,1880.39 604.737,1885.44C599.714,1905.94 594.787,1926.57 585.312,1945.51C582.337,1951.45 581.692,1962.45 569.797,1959.44L570.219,1959.87C567.883,1952.65 567.776,1946.19 571.9,1938.9C577.603,1928.82 581.186,1917.56 585.97,1906.94C592.489,1892.47 595.278,1878.11 586.048,1863.67C586.043,1863.68 585.755,1864.06 585.755,1864.06Z" style="fill:rgb(28,2,36);fill-rule:nonzero;"/>
        </g>
        <g transform="matrix(0.0891156,0,0,0.0891156,499.474,1429.93)">
            <path d="M1546.81,1756.2C1497.17,1699.09 1446.92,1648.04 1399.44,1590.75C1422.78,1598.36 1536.18,1725.58 1546.81,1756.2Z" style="fill:rgb(28,2,36);fill-rule:nonzero;"/>
        </g>
        <g transform="matrix(0.0891156,0,0,0.0891156,499.474,1429.93)">
            <path d="M997.277,1637.07C995.383,1644.06 990.785,1641.78 986.374,1639.48C969.352,1630.59 952.256,1621.84 935.439,1612.57C929.721,1609.42 924.342,1606.94 917.542,1606.73C913.013,1606.59 905.272,1609.49 904.494,1601.68C903.759,1594.31 905.499,1585.89 912.402,1581.94C918.729,1578.31 926.42,1582.08 928.792,1587.89C934.5,1601.88 947.627,1605.69 958.605,1612.39C969.077,1618.79 980.165,1624.16 990.919,1630.1C993.61,1631.59 997.062,1632.54 997.277,1637.07Z" style="fill:rgb(28,2,36);fill-rule:nonzero;"/>
        </g>
        <g transform="matrix(0.0891156,0,0,0.0891156,499.474,1429.93)">
            <path d="M2152.85,1980.87C2147.23,1979.22 2141.69,1977.49 2137.53,1972.95C2134.4,1969.54 2128.39,1967.46 2129.43,1961.99C2130.69,1955.42 2136.42,1959.9 2140.11,1959.18C2144.61,1958.3 2145.8,1954.27 2146.58,1950.88C2148.05,1944.47 2150.73,1939.79 2157.9,1939.58C2163.77,1939.41 2165.92,1944.23 2168.28,1948.35C2172.09,1954.98 2168.68,1960.4 2165.4,1966.15C2162,1972.12 2149.67,1970.22 2152.38,1981.24L2152.85,1980.87Z" style="fill:rgb(28,2,36);fill-rule:nonzero;"/>
        </g>
        <g transform="matrix(0.0891156,0,0,0.0891156,499.474,1429.93)">
            <path d="M550.726,1695.31C579.93,1709.71 595.956,1737.22 617.249,1759.41C619.587,1761.85 622.673,1765.52 618.511,1769.11C616.006,1771.27 613.148,1770.33 611.965,1767.51C599.137,1736.98 570.317,1720.05 550.726,1695.31Z" style="fill:rgb(28,2,36);fill-rule:nonzero;"/>
        </g>
        <g transform="matrix(0.0891156,0,0,0.0891156,499.474,1429.93)">
            <path d="M2152.38,1981.24C2170.41,1977.89 2182.39,1961.92 2179.92,1945.88C2179.31,1941.94 2171.75,1935.16 2181.45,1933.29C2189.13,1931.8 2194.38,1936.91 2196.12,1944.61C2196.96,1948.3 2196.77,1952.31 2193.87,1955.09C2182.41,1966.09 2170.8,1976.94 2159.13,1987.72C2157.26,1989.43 2154.33,1991.4 2152.16,1989.27C2149.75,1986.89 2149.83,1983.52 2152.81,1980.9C2152.85,1980.87 2152.38,1981.24 2152.38,1981.24Z" style="fill:rgb(28,2,36);fill-rule:nonzero;"/>
        </g>
        <g transform="matrix(0.0891156,0,0,0.0891156,499.474,1429.93)">
            <path d="M1172.56,1826.17C1158.47,1820.03 1148.08,1809.39 1134.27,1796.13C1156.31,1799.4 1166.18,1810.68 1172.56,1826.17Z" style="fill:rgb(28,2,36);fill-rule:nonzero;"/>
        </g>
    </g>
</svg>
