<?xml version="1.0" encoding="UTF-8" standalone="no"?>
<!DOCTYPE svg PUBLIC "-//W3C//DTD SVG 1.1//EN" "http://www.w3.org/Graphics/SVG/1.1/DTD/svg11.dtd">
<svg width="100%" height="100%" viewBox="0 0 1080 1080" version="1.1" xmlns="http://www.w3.org/2000/svg" xmlns:xlink="http://www.w3.org/1999/xlink" xml:space="preserve" xmlns:serif="http://www.serif.com/" style="fill-rule:evenodd;clip-rule:evenodd;stroke-linejoin:round;stroke-miterlimit:2;">
    <g transform="matrix(7.84652,0,0,7.84652,-280.336,-1413.99)">
        <path d="M98.115,226.026C98.719,224.432 99.5,222.927 100.458,221.51C101.422,220.099 102.536,218.823 103.802,217.677C105.068,216.531 106.453,215.552 107.953,214.734C109.453,213.922 111.031,213.297 112.682,212.854C127.073,208.745 141.422,216.583 144.292,231.932C145.464,238.146 143.823,244.26 141.25,250.063C137.781,257.891 132.177,263.979 125.875,269.609C118.297,276.333 109.724,281.589 101.026,286.854C100.677,287.12 100.307,287.354 99.917,287.552C96.714,288.797 96.578,291.281 96.875,294.26C97.547,300.813 97.198,307.297 94.167,313.365C93.979,313.75 93.781,314.135 93.557,314.505C91.901,317.214 89.828,317.411 87.094,315.51C81.49,311.635 79.042,305.672 77.151,299.505C75.266,293.344 75.599,287.302 76.036,281.115C76.146,279.625 76.156,278.135 76.245,276.63C76.245,275.688 75.589,275.323 75.005,274.875C70.396,271.896 66.104,268.51 62.13,264.724C58.302,260.859 54.76,256.771 52.948,251.552C50.016,242.927 50.198,234.453 55.281,226.698C56.229,225.156 57.313,223.719 58.542,222.385C59.766,221.052 61.104,219.844 62.563,218.771C64.016,217.693 65.563,216.766 67.198,215.99C68.833,215.214 70.526,214.599 72.281,214.151C74.703,213.641 77.146,213.479 79.615,213.677C80.693,213.677 81.104,213.453 81.156,212.25C81.318,207.911 81.786,203.547 81.74,199.224C81.688,194.901 80.63,191.021 76.766,188.563C73.401,186.375 69.807,186.995 66.266,188.401C65.995,188.51 65.51,188.672 65.594,189.047C65.682,189.422 66.245,189.495 66.651,189.583C70.542,190.375 72.245,192.068 72.74,196.042C72.891,196.807 72.922,197.578 72.844,198.349C72.76,199.125 72.568,199.87 72.266,200.589C71.964,201.307 71.563,201.964 71.063,202.563C70.563,203.156 69.99,203.672 69.339,204.094C66.552,205.932 63.635,205.573 60.813,204.094C56.833,202.047 55.505,197.557 56.573,192.823C56.865,191.589 57.333,190.427 57.984,189.339C58.635,188.25 59.438,187.281 60.391,186.443C61.339,185.599 62.396,184.922 63.552,184.411C64.714,183.896 65.927,183.568 67.188,183.432C69.583,183.01 71.969,183.073 74.344,183.625C76.714,184.177 78.885,185.167 80.854,186.599C82.292,187.682 83.406,189.026 84.203,190.635C85.005,192.245 85.401,193.948 85.391,195.745C85.469,201.599 85.229,207.438 84.672,213.266C84.672,214.047 84.672,214.51 85.479,214.818C86.839,215.229 88.13,215.781 89.37,216.479C90.604,217.172 91.75,217.995 92.802,218.943C93.854,219.891 94.792,220.943 95.615,222.099C96.432,223.255 97.12,224.484 97.667,225.792C97.781,225.865 97.891,225.891 98.115,226.026ZM99.01,237.885C98.813,238.391 98.661,238.693 98.578,239C96.365,247.354 91.307,251.688 82.797,252.536C82.01,252.609 81.74,252.859 81.677,253.651C81.479,256.401 81.203,259.135 80.896,261.865C80.63,264.214 80.896,266.042 83.182,267.646C86.339,269.745 89.01,272.339 91.203,275.432C93.396,278.521 94.958,281.906 95.891,285.578C96.214,286.818 96.75,286.198 97.245,285.813C103.458,280.99 109.672,276.234 115.052,270.568C122.906,262.375 128.995,253.266 130.563,241.672C131.604,234.219 130.875,227.172 126.672,220.724C126.016,219.51 125.099,218.542 123.927,217.813C121.443,216.516 118.823,216.099 116.063,216.573C112.208,217.167 108.469,218.089 105.672,221.109C104.724,222.052 104.078,223.172 103.734,224.464C103.333,226.177 104.146,226.948 105.87,226.516C106.901,226.276 107.948,226.068 108.99,225.917C115.354,224.974 120.089,230.49 117.76,236.255C115.813,241.141 112.443,242.667 106.005,241.958C104.604,241.807 103.297,241.375 102.078,240.667C100.854,239.958 99.833,239.026 99.01,237.885ZM76.953,217.156C73.37,216.995 70.057,217.865 67.01,219.766C62.677,222.401 59.224,225.792 57.891,230.865C57.521,232.297 57.302,233.75 57.245,235.229C57.188,236.708 57.286,238.177 57.542,239.635C57.802,241.089 58.214,242.505 58.776,243.875C59.339,245.24 60.042,246.531 60.885,247.75C63.396,251.349 66.406,254.458 69.922,257.083C71.984,258.75 74.094,260.365 76.135,261.979C76.432,262.214 76.766,262.573 77.167,262.349C77.563,262.13 77.302,261.729 77.328,261.406C77.516,258.807 77.625,256.214 77.901,253.615C77.948,253.37 77.948,253.12 77.901,252.87C77.849,252.625 77.755,252.396 77.609,252.188C77.469,251.979 77.292,251.807 77.078,251.672C76.865,251.536 76.63,251.448 76.38,251.406C73.51,250.339 71.104,248.63 69.151,246.271C68.516,245.557 67.953,244.797 67.464,243.979C66.969,243.161 66.557,242.313 66.219,241.417C65.885,240.526 65.635,239.609 65.469,238.672C65.297,237.734 65.219,236.792 65.224,235.839C65.229,234.885 65.323,233.943 65.505,233.005C65.682,232.068 65.948,231.156 66.297,230.271C66.641,229.385 67.068,228.536 67.568,227.729C68.073,226.917 68.646,226.161 69.286,225.458C70.594,223.995 72.214,223.104 74.146,222.786C74.865,222.661 75.661,222.672 75.984,223.505C76.307,224.339 75.797,224.75 75.151,225.146C75.021,225.219 74.896,225.297 74.781,225.38C71.75,227.484 70.068,230.354 70.792,234.083C70.927,235.01 71.193,235.896 71.589,236.745C71.984,237.594 72.495,238.37 73.115,239.073C73.734,239.771 74.443,240.37 75.24,240.87C76.036,241.365 76.885,241.734 77.786,241.984C78.719,242.271 79.031,241.984 79.031,241.089C79.104,239.401 79.229,237.708 79.354,236.031C79.74,230.938 80.234,225.844 80.458,220.734C80.63,216.781 81.24,217.281 77.354,217.208C77.24,217.146 77.13,217.156 76.953,217.156ZM79.839,278.703C79.745,278.958 79.667,279.214 79.599,279.474C79.359,281.469 79.328,283.469 79.5,285.469C79.667,287.469 80.042,289.432 80.615,291.354C81.193,293.281 81.958,295.125 82.911,296.891C83.865,298.656 84.99,300.307 86.286,301.844C87.042,302.698 87.974,303.286 89.068,303.609C89.276,303.698 89.49,303.766 89.714,303.802C89.932,303.844 90.156,303.854 90.38,303.844C90.604,303.828 90.828,303.792 91.042,303.724C91.255,303.656 91.464,303.568 91.656,303.453C91.849,303.339 92.026,303.203 92.188,303.042C92.349,302.885 92.49,302.714 92.609,302.521C92.729,302.333 92.828,302.13 92.896,301.917C92.969,301.703 93.016,301.484 93.036,301.26C93.292,300.318 93.375,299.359 93.281,298.391C91.891,289.792 86.833,283.724 79.839,278.703ZM92.266,229.818C92.271,228.76 92.141,227.719 91.865,226.698C91.49,224.974 90.745,223.427 89.63,222.057C88.521,220.688 87.161,219.635 85.552,218.906C84.698,218.536 84.313,218.609 84.25,219.714C83.74,226.734 83.203,233.76 82.547,240.755C82.411,242.255 82.818,242.198 83.974,241.896C84.615,241.714 85.229,241.479 85.828,241.188C86.422,240.896 86.99,240.557 87.531,240.172C88.068,239.781 88.568,239.354 89.031,238.88C89.495,238.401 89.917,237.891 90.292,237.344C90.667,236.802 90.995,236.224 91.271,235.62C91.547,235.021 91.771,234.396 91.938,233.755C92.109,233.115 92.219,232.464 92.276,231.802C92.333,231.141 92.333,230.479 92.276,229.818L92.266,229.818ZM158.026,242.245C158.042,241.865 158.021,241.484 157.958,241.104C157.896,240.729 157.792,240.359 157.656,240.005C157.516,239.646 157.344,239.307 157.135,238.99C156.927,238.667 156.682,238.375 156.417,238.104C156.146,237.833 155.849,237.594 155.526,237.385C155.208,237.172 154.87,237 154.51,236.859C154.156,236.724 153.786,236.625 153.411,236.563C153.031,236.5 152.656,236.474 152.271,236.49C151.62,236.547 150.995,236.719 150.401,237C149.807,237.281 149.281,237.656 148.828,238.13C148.37,238.599 148.01,239.135 147.745,239.74C147.484,240.339 147.339,240.969 147.302,241.625C147.302,245.464 149.167,247.401 153.042,247.438C153.385,247.458 153.729,247.438 154.068,247.38C154.406,247.323 154.734,247.229 155.057,247.104C155.375,246.974 155.677,246.813 155.964,246.62C156.245,246.427 156.51,246.208 156.745,245.958C156.984,245.708 157.188,245.438 157.37,245.141C157.547,244.849 157.693,244.536 157.802,244.214C157.917,243.885 157.99,243.552 158.031,243.208C158.068,242.87 158.073,242.526 158.036,242.182L158.026,242.245ZM151.552,227.594C152.224,227.568 152.865,227.417 153.479,227.141C154.094,226.87 154.635,226.495 155.109,226.021C155.583,225.542 155.953,225 156.219,224.38C156.49,223.766 156.635,223.12 156.656,222.448C156.635,221.755 156.484,221.089 156.208,220.453C155.932,219.818 155.547,219.255 155.057,218.76C154.563,218.271 154,217.891 153.359,217.615C152.724,217.339 152.057,217.193 151.365,217.167C151.021,217.141 150.677,217.151 150.333,217.198C149.99,217.25 149.656,217.328 149.333,217.448C149.005,217.568 148.698,217.714 148.406,217.901C148.109,218.083 147.839,218.297 147.594,218.536C147.344,218.776 147.125,219.042 146.932,219.328C146.74,219.615 146.578,219.917 146.448,220.24C146.323,220.563 146.229,220.891 146.172,221.234C146.115,221.573 146.094,221.917 146.109,222.266C146.109,222.62 146.141,222.969 146.214,223.318C146.281,223.667 146.385,224 146.526,224.328C146.661,224.656 146.828,224.969 147.031,225.26C147.229,225.552 147.453,225.823 147.708,226.073C147.964,226.323 148.24,226.542 148.536,226.734C148.833,226.927 149.146,227.089 149.474,227.219C149.807,227.354 150.146,227.448 150.495,227.51C150.844,227.573 151.198,227.604 151.552,227.594Z" style="fill:rgb(242,149,3);fill-rule:nonzero;"/>
    </g>
</svg>
