<?xml version="1.0" encoding="UTF-8" standalone="no"?>
<!DOCTYPE svg PUBLIC "-//W3C//DTD SVG 1.1//EN" "http://www.w3.org/Graphics/SVG/1.1/DTD/svg11.dtd">
<svg width="100%" height="100%" viewBox="0 0 1080 400" version="1.1" xmlns="http://www.w3.org/2000/svg" xmlns:xlink="http://www.w3.org/1999/xlink" xml:space="preserve" xmlns:serif="http://www.serif.com/" style="fill-rule:evenodd;clip-rule:evenodd;stroke-linejoin:round;stroke-miterlimit:2;">
    <g transform="matrix(3.11822,0,0,3.11822,-229.087,-3355.42)">
        <g transform="matrix(0.277229,0,0,0.277229,81.2258,1080.96)">
            <path d="M546.1,419.9C490,417.9 419.3,407.9 368,394.6C305.1,378.4 240.4,351.4 194.6,322.2C190.5,319.6 188.6,319 184,319C177.1,319 159.3,321.2 135,325C74.4,334.4 55.4,336.7 30.4,337.6L11.3,338.3L7.2,334.6C2.3,330.1 0.8,326.1 0.8,317C0.8,306.8 1.8,299.2 5.5,281.5C7.3,272.7 9.1,262.9 9.4,259.7C9.7,256.5 10.4,251.1 10.9,247.7C14.8,222.8 16.3,167.8 13.9,139.4L12.8,126.8L16,123.5C19.5,119.9 28,115 35.2,112.4C40.3,110.5 81.9,106 94,106L102.5,106L109.8,113.2L117.1,120.5L141.5,94.9L161,93.5C171.7,92.7 187.3,91.8 195.5,91.4L210.5,90.7L225,83C280.6,53.3 349.4,30.1 417.5,17.9C452.3,11.7 457.1,11 484,8.1C529.3,3.2 550.7,1.9 597,1.3C651.7,0.6 685.9,2.1 754,8C766.4,9.1 786.2,10.2 798.1,10.6L819.7,11.2L821.4,14.1C825.4,20.8 834.6,25.1 849.5,27C854.5,27.7 861,29.2 864,30.5C867,31.7 873.3,33.7 878,35C888.1,37.7 927.1,50.4 938.5,54.7C952.8,60.1 968.2,67 986.4,76.1L1004.3,85L1020.9,85C1030,85 1040.5,85.5 1044.2,86C1054,87.4 1062.9,91.3 1067.8,96.3C1072.4,101 1073.2,104.3 1074.5,123C1074.8,128.2 1075.8,135.4 1076.6,138.9C1078.1,145.4 1082.4,153.5 1084.8,154.5C1085.4,154.7 1089.3,154.5 1093.3,154C1113.8,151.3 1119.8,150.8 1125.6,151.3C1133.8,151.9 1141.6,155.7 1145.1,160.7C1147.4,164.1 1147.8,165.8 1148.4,176.7C1149,187.6 1148.9,189.4 1147.2,193.3C1146.1,195.8 1144.7,198.1 1144.1,198.4C1141,200.3 1144.6,200.9 1162.8,201.2C1181.9,201.5 1182.7,201.6 1188,204.2C1194.6,207.4 1197.6,210.4 1202.4,218.3C1207.6,227.1 1208.7,234.7 1207.1,253.9C1206.2,265.8 1205.4,270.5 1203.8,273.9C1201.2,279.3 1191.1,290.1 1181.5,297.9C1173.2,304.6 1170.5,305.3 1150,306.9C1131.6,308.4 1065.5,308.5 1060.3,307.1C1056.7,306.1 1055.2,306.3 1049.8,308.1C1046.4,309.2 1042,311.4 1040,312.9C1020.5,328 975.5,353.1 946,365.2C931,371.4 899.8,382.5 885,386.8C868.9,391.6 836.4,399.5 824.8,401.5C820.2,402.3 808.9,404.3 799.5,406C781.1,409.3 733.9,414.9 703.5,417.4C663.6,420.7 597.9,421.7 546.1,419.9ZM651.3,397C691.5,394.6 710.5,392.5 740.8,387C827.5,371.4 886.8,348.6 939.3,310.6L949.1,303.6L945.8,302.4C942.7,301.4 942.2,301.6 935.1,307.3C912.9,324.9 887.4,338.8 849.7,353.9C805.7,371.4 739.5,385.3 671.5,391.2C651,392.9 567.8,392.9 547,391.2C457.8,383.6 378.3,361.2 315.1,325.8C298.2,316.3 292.6,312.4 279.7,300.8C260,283.1 258.7,282.5 263.4,292.5C266.2,298.7 273.7,305.5 285.7,313C290.5,316 297.2,320.4 300.5,322.9C303.8,325.4 313.3,330.9 321.7,335.2C389,370 471.1,391 562,396.8C581.6,398.1 631.3,398.2 651.3,397ZM636,380.8C721.4,377.7 786.1,366 843.1,343.2C871.7,331.7 902.7,314.6 924.8,297.9L931,293.2L921.2,285L916.9,286.9C907.1,291.2 884.3,292 858.3,288.8C849.9,287.8 848,287.3 845.2,284.9C840.1,280.5 833,278.8 824,280C819.9,280.5 812.4,281 807.3,281C799.4,281 798.1,281.2 797.6,282.8C797.4,283.7 795,297.1 792.4,312.5L787.7,340.5L780.1,348.3L772.5,356L766.9,356C763.7,356 755.2,356.9 747.8,358C718.9,362.3 704.2,359.4 696.5,347.8C694.3,344.5 694,343 694,334.8C694,323.3 695.8,292.2 696.6,289.8C697.1,288.2 696.5,288 692.5,288C687.3,288 678.4,290.3 673,293C671.1,294 667,295.1 664,295.5C655.2,296.6 642.9,298.8 622.7,303.1C591.6,309.6 566.8,310.3 550.1,305.1L543.7,303.1L540.9,305.4C534.1,311.2 522.3,314.8 508,315.6C494,316.4 468.9,314.5 460,312C454.5,310.5 447.2,309.7 433,308.9C406,307.5 401.9,306.8 396.9,302.9L392.8,299.7L371.6,299.4C346,299.2 332.1,297.4 328.1,293.8C320.7,287 313.2,285 295.7,285L282.8,285L287.2,288.7C317.7,314.4 362.4,338.5 406,352.8C455.4,369 511.9,378.1 580.5,380.9C604.4,381.9 607.3,381.8 636,380.8ZM753.2,323.2C755.1,321.3 764.7,261.8 767.5,234C768.4,225.5 769.4,208.5 769.7,196.2C770.4,171.4 769.9,172.8 777.8,171.5L782.1,170.8L781.4,161.7C781.1,156.6 780.6,152.2 780.3,151.8C780.1,151.3 777.9,151 775.5,151C773.1,151 770.8,150.6 770.5,150C768.5,146.8 759.5,92.5 758.5,77.7C757.9,69.6 758.1,67.5 759.4,65.5L761,63L807.2,63L806.7,60.8C806.4,59.5 805.3,54.1 804.4,48.8L802.7,39L780.2,39C751.2,39 743.1,40.9 734.6,49.9C728.9,55.9 729.2,68.8 736.2,109.4C739,125.6 740.3,136.8 740.4,143.5L740.5,153.5L736.5,153.8C728.2,154.3 728.1,154.4 727.8,161.3L727.5,167.5L724.1,167.8C721.2,168.1 720,167.5 715.6,163.2C709,156.8 704.8,154.7 698.4,154.7C692.5,154.7 682.8,158.7 675,164.5C670.5,167.8 664,169.4 664,167.2C664,164.5 658.7,123.4 656.9,111.9C655.1,100.6 654.4,98.3 653.1,98.6C652.2,98.8 646.7,99.9 640.9,101.1L630.3,103.2L631.1,108.3C637.4,148.1 638.8,222.6 633.9,257.4C633.4,261.2 633.1,264.4 633.2,264.6C633.6,264.9 657.9,259.4 658.5,258.8C658.8,258.6 660.3,243.3 662,225C665.2,189.6 665,190.5 671.4,183.8C674.8,180.1 675.1,180 682,180C691.5,180 694.6,181.6 695.5,187.2C696.7,194.3 696.2,220.7 694.6,237.4C693.7,246.2 693.2,253.5 693.4,253.8C694,254.4 719.4,249.9 720.3,249C720.8,248.6 722.1,232.3 723.3,212.7C724.6,193.1 725.8,176.9 726,176.7C727.2,175.8 735,174 737.7,174C739.4,174 741.2,174.6 741.8,175.3C743.7,177.5 740.3,238.9 736.5,272.5C734.9,286.2 729.4,320.9 728.3,323.7C727.7,325.2 728.8,325.3 740,324.7C746.8,324.3 752.8,323.6 753.2,323.2ZM59.8,299.4C69.3,297.5 77.3,296 77.6,296C79.5,296 83.4,276.5 84.9,259C87.5,230.3 88.3,224.4 89.3,223.2C89.9,222.4 91.8,222 93.9,222.2C97.2,222.5 99.2,224.5 121.3,250C134.4,265.1 146.4,279 148,280.8L150.8,284.2L177.1,283C191.6,282.4 204.7,281.5 206.2,281.2C208.8,280.5 208.8,280.4 198.4,267.5C185.8,251.8 166.2,229.7 151.1,213.9C141.4,203.6 140,201.8 140,198.8C140,195.6 143,192.1 174,158.6C192.6,138.5 208.2,121.5 208.6,120.9C209.7,119.1 173.2,121.1 159.2,123.6C156.4,124.1 154.5,126.2 146,137.4C131.1,157.2 118.4,172.8 107.4,185C98.7,194.6 97.1,196 94.3,196C91.3,196 91.1,195.8 90.6,191.8C90.3,189.4 89.8,181.2 89.5,173.5C88.9,159.3 87.4,141.4 86.4,137.1C85.9,134.9 85.6,134.8 81.2,135.5C69.1,137.3 43.4,142.3 42.5,143C41.7,143.6 41.7,146.9 42.3,153.2C42.8,158.3 42.9,178.3 42.6,197.5C42.1,233 40.9,249 36,285.5C34.9,293.8 34,301.3 34,302.3C34,304.4 35,304.3 59.8,299.4ZM508.1,280C521,276.1 529.3,268.2 534.7,255C537.3,248.4 537.7,248 540.7,248C543.6,248 544.2,248.6 547.5,254.9C554,267.2 560.1,271.7 573.6,274.1C578.7,275 582,275 587.9,274C595.5,272.8 611.3,267.9 618.3,264.5C621.8,262.9 622,262.5 622,258C622,255.4 622.3,250.5 622.7,247L623.3,240.7L618.9,243.4C607.5,250.5 603,252 593.7,252C583.7,252 580.4,250.8 576.7,245.8C572.9,240.7 571.7,235.7 572.2,226.6C572.8,216.7 575.8,210 583,203C590.6,195.6 595.8,193.5 606,193.7C611.7,193.8 616.4,194.5 620.2,195.8L625.9,197.9L626.6,193.2C627.6,187.1 627.3,179.6 626,175.5C624.9,172.3 624.7,172.2 617.7,171.6C598.3,169.8 576.7,177.5 563,191C557.6,196.3 555.2,199.7 551.7,207.1C547.5,215.8 544.4,226.6 543.8,235C543.5,238.2 543.2,238.5 540.2,238.8C537.7,239.1 536.3,238.5 533.9,236.1C530.1,232.3 524.2,228.8 517,226.1C514,225 507.3,221.9 502.3,219.3C495.2,215.6 492.7,213.8 491.5,211.3C489.1,206.3 489.6,202.5 493.1,199.6C499,194.6 512.5,196.9 518.2,203.9L520.5,206.6L528,202.7C538.9,196.9 538.8,197 534.2,192.4C520.4,178.7 500.1,176.3 480.8,186C473.1,189.8 469.3,189.9 468,186.5C467,183.8 466.9,183.8 459.4,184C454.4,184.1 454.2,184 453.1,180.8C452.5,179 451.5,173.2 450.9,168C450.3,162.8 449.5,156.5 449.2,154L448.5,149.5L422.5,146.5L423.4,160.4C424,169.7 424,174.8 423.3,175.9C422.6,177.1 420.4,177.6 414.9,177.8C408.9,178 406.7,177.7 402.1,175.6C397.4,173.5 384.2,171 378,171C376.6,171 376.4,174.3 376.2,198.2C375.9,226.3 375.4,231.4 372,238.1C369.4,243 367.5,244 360.2,244C355.7,244 353.5,243.5 350.9,241.7C344.7,237.5 344.6,237 344.7,199.9L344.7,166.2L341.5,164.7C338.3,163.2 330.4,161.5 322.3,160.6L318,160.2L318,173.8C318,181.4 317.5,194.3 316.8,202.7C314.9,227.5 317.5,237.9 328.5,249.8C339,261.2 352.5,266.6 368,265.7C386,264.6 396.5,257.7 400.6,244.3C401.5,241.5 402.5,231.8 403,220.5C403.5,210.1 404.2,200.5 404.6,199.3C405.2,197.2 405.9,197 411.1,197C414.6,197 418.4,197.7 420.6,198.8L424.3,200.5L423.6,211.6C423.3,217.7 422.1,232.6 421,244.6C419.9,256.7 419,267.9 419,269.6L419,272.6L431.1,273.9C437.9,274.7 443.5,274.8 444,274.4C444.9,273.4 448.1,248.9 450.8,221L452.5,203.5L457.8,203.2C463.7,202.9 466,204 466,207.4C466,208.6 466.9,212.4 468.1,215.8C471.7,226.6 479.3,233.3 494,238.9C505,243.1 510,248.3 510,255.8C510,261.1 507.6,263 500.2,263.7C492.2,264.4 487.9,262.8 483.2,257.4L479.3,252.8L469.7,257.6C458.8,263 458.9,262.7 466.3,270.7C471.1,275.9 474.2,277.7 482.5,280.1C490.6,282.5 500.3,282.5 508.1,280ZM1096,278.9C1102.9,278.2 1108.7,277.5 1108.9,277.4C1109.4,276.9 1100.4,261.3 1089.8,244.3C1082.7,232.8 1081,229.4 1081,226.3C1081.1,222.9 1082.8,220.4 1097,202.6C1105.8,191.6 1112.8,182.5 1112.5,182.2C1112.3,182 1106.1,182.1 1098.7,182.5L1085.2,183.2L1071.4,199.7C1063.7,208.8 1057.4,216.6 1057.2,217.1C1057,217.6 1055.3,218 1053.5,218L1050.2,218L1049.6,208.8C1049.3,203.7 1048.6,186 1048,169.5C1047.2,144.8 1044.9,118.6 1043.6,117.2C1043.1,116.7 1019,114.7 1018.6,115.1C1018.4,115.3 1018.9,119.8 1019.6,125C1022.9,148.8 1023.9,185.8 1022,218.6C1021,235.7 1017.5,270.7 1016.4,274.2C1015.9,275.9 1015,275.8 1035.3,277.6L1041.6,278.1L1042.9,268.8C1043.5,263.7 1044.8,254.9 1045.7,249.3L1047.3,239L1051,239C1054.8,239 1054.8,239 1062.3,251.5C1066.4,258.3 1071.5,267.5 1073.6,271.9C1078.1,281.3 1076.3,280.7 1096,278.9ZM1157.8,275.3C1169.1,270 1179.3,256.1 1179.4,246C1179.5,240.3 1176.1,235.3 1169.4,231.4C1162.9,227.6 1157.3,228.3 1147.8,234.1C1139,239.5 1133.9,246.3 1131.3,256.1C1129.7,262.5 1129.7,263 1131.4,266.8C1133.7,272 1137.5,275.6 1142.5,277.4C1147.3,279.2 1150.7,278.7 1157.8,275.3ZM1002.8,271.8C1004,270.6 1005.4,268 1006,266.1C1007.4,260.7 1008.4,247 1007.4,247C1006.9,247 1004.5,248.4 1002,250.1C997.5,253.2 997.5,253.2 986.5,252.7C973.5,252.2 969.7,250.8 964.7,245C959.7,239.2 958,233.4 958,222.7C958,212.7 959.3,208.9 964.4,203.9C969.9,198.5 974.6,196.7 984.5,196.2L993.5,195.8L999.8,200.1C1003.3,202.5 1007,205.1 1008.1,205.9C1009.9,207.2 1010,207 1010,202.8C1010,200.3 1010.3,194.9 1010.6,190.8L1011.3,183.3L1002.9,180C980.4,171.4 963.5,170.5 951.5,177.5C945.4,181 938.9,188.6 934.5,197.2C930.8,204.4 930.3,205 927.3,205C924.6,205 924.1,204.6 923.5,201.8C923.1,200 921,193.9 918.8,188.2C915.4,179.5 913.9,176.8 908.9,171.5C895.5,157.2 868.7,149.5 854.5,155.8C845.3,160 839.3,165.4 835.5,173C826.1,191.6 826.5,213.8 836.5,230.5C845.9,246.2 863.6,256.9 880.3,257.1C891.4,257.3 906.3,251.4 913.4,244.1L917,240.4L909.5,234.4C899.1,226.2 897.5,225.7 894,229.6C892.5,231.4 891,233.4 890.8,234.1C890.4,235.2 888,235.5 880.9,235.5C872.7,235.5 870.9,235.2 867.1,233C860.5,229.3 856.1,222.8 856.1,216.4C856,208.4 856.7,208.2 872.3,210.9C879.6,212.1 895.4,215 907.4,217.3L929.4,221.5L932.4,233.1C935.9,246.2 939.2,251.7 948.1,259.1C954.7,264.7 958.8,267.2 966,270C979.2,275.3 998.1,276.2 1002.8,271.8ZM300.3,248.8C301.3,243.1 303,226 303.9,211C305,194.4 303.9,175.7 301.7,171.3C298.4,165 286.4,155.1 277.3,151.3C272,149.1 264.7,150 256.6,153.8C252.8,155.6 248.3,157 246.5,157C243.6,157 243.1,156.6 242.5,154L241.8,151L217,151L217,171.8C217,190.8 216.1,212 214.4,237.3L213.7,247L239.9,247L240.5,243.8C242.2,233.2 243.2,221.1 243.7,202.8L244.3,182L249.4,176.5C254.3,171.2 254.8,171 259.5,171C264.9,171 271.5,173.6 274.2,176.6C276.3,179.1 276.7,192.5 275.6,224.8C275.1,238.1 274.9,249 275.1,249.1C277.6,249.6 294.3,251.8 296.6,251.9C299.4,252 299.8,251.6 300.3,248.8ZM815.2,245.1C816.5,243.8 819,206.1 819,186.2C819,156.4 815.8,121.3 810.8,95.4L808.6,84.2L803.6,83.6C800.8,83.3 795.6,83 792.1,83C785.8,83 785.8,83 786.4,85.6C788,91.7 791,117 792.6,137C793.8,152.7 794.3,170.4 794.3,202.7L794.4,247L804.4,246.4C810,246 814.8,245.5 815.2,245.1ZM552.5,151.4C561.7,144.6 576.9,139.4 590.5,138.2L599.5,137.5L599.2,133C599,130.5 598.2,124.7 597.4,120C596.7,115.3 595.9,106 595.8,99.4C595.5,89.2 595.8,87 597.3,84.6C600.5,79.8 606.8,74.2 611.7,71.6C621.9,66.5 626.1,65.8 649.2,65.3C661.2,65 672,65 673.3,65.4C676.8,66.2 683.8,72.8 686.2,77.3C689.5,83.8 690,86.5 691.5,103C692.2,111.5 693.2,119.3 693.5,120.3C694.3,122.2 701.4,122.8 702.5,121C702.9,120.4 702,114.5 700.6,107.7C696.4,87.2 695.6,80.2 695.6,62.8C695.5,53.5 695.3,46 695,46C694.7,46 690.7,45.5 686,45C633.1,39 599.2,38.7 544,43.6C451.2,51.9 371.1,76.7 312.5,115.3C301.5,122.6 302.2,121.9 304.2,123.4C305.3,124.2 311,125 318.2,125.4C325,125.7 337.3,127.1 345.7,128.3C358.2,130.2 361.3,131 363.3,132.8C366.8,136.1 371.3,137 381.2,136.3L390,135.7L390,130.5C390,126 390.5,124.8 393.7,121C395.7,118.7 399.7,115.7 402.4,114.4C406.9,112.3 409,112 420,112C427.5,112 437.5,112.8 445,114C451.9,115.1 459.4,116 461.6,116C465,116 466.7,116.8 470.5,119.9C479.9,127.7 484,134.5 484,142.4L484,146.8L506.3,146.7C526.8,146.5 529,146.7 535.5,148.7C539.4,150 543.6,151.9 545,152.9C547.6,155 547.8,154.9 552.5,151.4ZM938.6,143.4C941,142 943,140.5 943,140.1C943,139.1 933.2,129.8 927,124.8C918.4,117.9 903.4,108.6 888.5,100.9C873.4,93.1 845.2,80.4 844.6,81.1C844,81.9 848.8,119.2 849.7,120C850.1,120.5 861.1,121 874,121.3C890.5,121.6 899,122.2 902.5,123.2C914.7,126.8 925.5,134.1 930.6,142.2C931.9,144.3 933.3,146 933.6,146C933.9,146 936.1,144.8 938.6,143.4ZM969.6,139.9C970.4,138.6 956.5,124.8 946.1,116.6C932.8,106.1 913.4,93.8 897,85.6C885.6,79.8 844.4,62 842.5,62C842.2,62 842,62.8 842,63.8C842,65.2 844.8,66.8 854.3,70.4C867.8,75.8 899,91.4 914.5,100.7C920,104 926.6,107.9 929.2,109.4C932.1,111 937.6,116.2 943,122.3C953.1,133.8 957.4,137.5 962.8,139.5C967.5,141.2 968.7,141.3 969.6,139.9ZM295.3,110.2C352.2,72.1 425.1,46.5 505,36.6C558.1,30 615.7,28.7 676.5,32.6C698.2,34 699.5,34 700.7,32.4C701.4,31.4 701.7,30.3 701.3,29.9C699.8,28.6 682.7,26.9 661.7,26.1C650,25.6 619.8,25.6 594.5,26C545.3,26.8 547.3,26.7 498.3,34C445.6,41.9 396.7,54.6 360,69.9C334.4,80.6 304.6,97.4 285.3,112C278.8,116.9 278.8,117 281.9,117C284.2,117 288,115 295.3,110.2Z" style="fill:rgb(28,2,36);fill-rule:nonzero;"/>
        </g>
        <g transform="matrix(0.277229,0,0,0.277229,81.2258,1080.96)">
            <path d="M872.5,195.5C864.8,194.2 858.4,193.1 858.3,193.1C858.1,193 858,191.1 858,188.8C858,183.9 860.6,178.9 864.5,176.4C868,174.1 882.2,174.8 886.5,177.5C894.4,182.5 898,187.5 898,194L898,198L892.3,197.9C889.1,197.8 880.2,196.8 872.5,195.5Z" style="fill:rgb(28,2,36);fill-rule:nonzero;"/>
        </g>
        <g transform="matrix(0.277229,0,0,0.277229,81.2258,1080.96)">
            <path d="M559,399.8C468.1,394 386,373 318.7,338.2C310.3,333.9 300.8,328.4 297.5,325.9C294.2,323.4 287.5,319 282.7,316C265,305 258,296.3 258,285.3C258,282.5 258.4,279.9 258.9,279.6C260.2,278.8 269.7,286.1 282.7,297.7C295.6,309.4 301.1,313.3 318.1,322.8C381.3,358.2 460.8,380.6 550,388.2C570.6,389.9 648.1,389.9 668.5,388.2C736.4,382.3 802.7,368.4 846.7,350.9C885,335.6 910.9,321.3 933.1,303.4L941.1,297L947.6,299C958.2,302.2 958.3,301.7 946.3,310.7C893.3,350.2 832.6,374 743.8,390C713.5,395.5 694.5,397.6 654.3,400C634.2,401.2 578.5,401.1 559,399.8Z" style="fill:white;fill-rule:nonzero;"/>
        </g>
        <g transform="matrix(0.277229,0,0,0.277229,81.2258,1080.96)">
            <path d="M724,328C724,327.6 724.9,323 725.9,317.9C732.3,286.6 737.2,240.9 738.5,200.8C738.8,191.8 739.3,183.3 739.5,181.8C740.1,178 738.2,176.8 733.4,178.2C731.3,178.9 729.3,179.5 729,179.7C728.8,179.9 727.6,196.1 726.3,215.7C725.1,235.3 723.8,251.6 723.3,252C722.1,253.1 691.1,258.4 690.3,257.6C689.9,257.2 690.4,247.8 691.4,236.7C693.1,216.4 693.6,195.6 692.4,189.3C691.6,185.2 688,183 682,183C678.6,183 677.3,183.6 674.4,186.8C668,193.5 668.2,192.6 665,228C663.3,246.4 661.5,261.7 661,262C659.5,262.9 629.9,269.3 629.4,268.8C629.2,268.5 629.7,263.6 630.4,257.9C633.2,238 634.3,211.7 633.6,183.5C633.2,168.7 632.7,153.8 632.4,150.5C631.9,144.7 628.7,115.9 627.4,105.4L626.8,100.3L637.6,98.1C657.2,94.1 657.1,94.1 657.5,95.4C658.8,99.7 667,158.9 667,164.2C667,164.7 669.2,163.6 671.9,161.6C674.6,159.6 679.8,156.6 683.6,154.8C689.6,152 691.5,151.5 698.5,151.6C708,151.6 712.1,153.4 718.9,160.4C721.3,162.9 723.7,164.7 724.2,164.4C724.6,164.1 725,161.2 725,158C725,151.4 725.1,151.3 733.5,150.8L737.5,150.5L737.4,143.5C737.3,139.7 735.4,125.6 733.1,112.4C728.2,83.5 726.7,68.3 727.6,58.2C728.2,51.9 728.7,50.2 731.3,47.3C735.3,42.8 741.2,39.5 748.6,37.6C753.4,36.3 760.3,36 780.2,36L805.6,36L808.3,50.3C809.8,58.1 811,64.8 811,65.3C811,65.7 800.4,66 787.5,66C759,66 760.6,65.1 762,80.5C763.4,96.4 772.1,145.5 773.8,147.2C774.2,147.6 776.5,148 779,148.2L783.5,148.5L784.6,160.5C785.2,167.1 785.5,172.8 785.3,173.2C785.1,173.5 783.1,174.1 780.7,174.5C772.9,175.8 773.1,175.4 773.1,190.9C773,214.9 770.8,240 765.4,275.7C761.2,303.9 757.4,325 756.2,326.2C755.8,326.6 749.8,327.2 743,327.5C736.1,327.8 729,328.3 727.3,328.5C725.5,328.7 724,328.5 724,328Z" style="fill:white;fill-rule:nonzero;"/>
        </g>
        <g transform="matrix(0.277229,0,0,0.277229,81.2258,1080.96)">
            <path d="M31.6,292.8C34.7,270.9 37.8,243 39,225C40.2,206.9 40.1,165.9 38.8,151.6C38.1,143.8 38.2,141.4 39.2,140.4C41,138.7 87.6,130.2 88.8,131.4C89.7,132.4 91.8,154.6 92.6,171.5C93,180.8 93.6,189.4 93.9,190.7C94.4,192.7 95.5,191.8 104.4,182C115.4,169.8 128,154.2 143.1,134.3C148.6,127 153.2,121 153.3,121C153.4,121 158.5,120.3 164.5,119.5C170.6,118.7 185.2,117.8 197,117.4L218.5,116.8L213.9,121.6C208.5,127.4 147.6,193.4 144.6,196.8L142.6,199.1L151.1,207.8C162.9,219.7 180,238.8 191.3,252.2C203.4,266.7 216.2,283.1 215.7,283.6C215.2,284.1 187.4,285.8 166.5,286.6C157.2,286.9 149.2,287.3 148.8,287.4C148.5,287.4 140.2,278.3 130.4,267C93.6,224.4 93.9,224.7 92.5,226.2C91.2,227.4 90.7,231.8 87.9,262C86.8,274.8 84,291.5 82.2,296.1C81.3,298.4 80.1,298.9 70.8,300.9C61,303 32.7,308 30.5,308C29.8,308 30.2,302.4 31.6,292.8Z" style="fill:white;fill-rule:nonzero;"/>
        </g>
        <g transform="matrix(0.277229,0,0,0.277229,81.2258,1080.96)">
            <path d="M479.5,283.1C471.5,280.8 468.2,278.9 463.9,274.3C459.7,269.9 455,263.1 455,261.4C455,260.3 479.6,248 481.8,248C482.5,248 483,248.6 483,249.3C483,251.7 490,258.8 493.5,260C497.7,261.4 503.3,260.4 505.6,257.9C509.4,253.7 503.1,246.9 491,242C479.9,237.4 476.5,235.3 471.7,230C467.3,225.1 463,215.5 463,210.4C463,207.6 460.7,205.8 457.8,206.2C455.6,206.5 455.4,207 453.3,228.5C450.6,255.7 448,276.3 447.1,277.9C446.5,278.7 442.7,278.6 431.4,277.4C423.2,276.4 416.2,275.4 415.8,275.1C415.2,274.6 416.5,257.4 419.4,225C419.7,222 420.2,215.9 420.6,211.5L421.2,203.5L417.6,201.7C412.3,199.2 408.4,199.4 407.6,202.3C407.2,203.5 406.5,213.1 406,223.5C405.5,234.8 404.5,244.5 403.6,247.3C399.3,261.6 388.9,267.8 368,268.7C349.1,269.5 336.7,264.9 325.5,252.8C314.7,241.2 312.2,231.5 313.6,207C314.1,198.5 314.5,183.6 314.5,173.8C314.5,164.1 314.7,156.3 315,156.5C315.3,156.6 319.1,157.1 323.5,157.5C333.3,158.3 339.3,159.5 344.2,161.6L347.8,163.2L347.7,196.9C347.6,234.1 347.7,234.5 353.9,238.7C360.1,242.9 365.7,241.5 369,235.1C372.4,228.3 373,222.7 373.1,194.5L373.1,167L376.8,167.5C378.8,167.8 384.8,168.5 390,169C395.3,169.6 401.4,171 404,172.2C409.5,174.7 418.5,175.3 420.1,173.4C421.2,172 421.1,168.9 419.3,149.3C418.7,141.9 416.8,142.3 437.5,144.8L451.4,146.5L452.1,150C452.5,151.9 453.1,157.1 453.4,161.5C454.1,169.9 454.5,172.4 456.2,177.8C457.2,181 457.3,181.1 461.5,180.4C467,179.6 469.9,180.6 471,183.5L471.9,185.9L477.9,182.9C486.7,178.5 496.5,176.7 508.6,177.3C519.7,177.8 524.1,179.3 532.4,185.3C537.4,188.9 543.3,196.5 542.7,198.4C542.1,200.2 518.6,212.4 518.2,211.1C516.6,206.4 507.1,200 501.7,200C500.2,200 497.7,201.2 496,202.8C493.1,205.4 493.1,205.6 494.5,208.5C496.1,211.7 508.3,218.6 521,223.5C528.1,226.3 537.5,232.3 538.4,234.6C539.4,237.1 541,235.1 541,231.4C541,224.8 544.2,213.5 548.7,204.1C552.2,196.7 554.6,193.3 559.9,188.1C574.4,173.8 596.3,166.5 619.2,168.5C627.9,169.2 627.9,169.2 628.9,172.3C630.7,178.1 631.2,186.4 630,193.5C629.4,197.4 628.5,200.9 628,201.4C627.4,202 624,201.3 619.1,199.6C604.7,194.6 596,196.3 586,206C574.5,217.2 571.9,232.3 579.7,242.8C583.1,247.3 586.9,249 593.7,249C600.4,249 605.8,246.8 617.8,239.1C622.1,236.3 626,234 626.5,234C626.9,234 627,235.9 626.6,238.3C626.3,240.6 625.8,247.7 625.4,254C624.9,262.5 624.3,265.8 623.2,266.6C621.2,268 606.1,273.5 598.5,275.5C589.8,277.8 578.4,278.4 570.7,277.1C557.1,274.7 551,270.3 544.5,257.9L540.8,250.8L537.5,258.5C531.6,271.9 524,279.1 511.1,283C503,285.6 488.1,285.6 479.5,283.1Z" style="fill:white;fill-rule:nonzero;"/>
        </g>
        <g transform="matrix(0.277229,0,0,0.277229,81.2258,1080.96)">
            <path d="M1070.6,274.9C1066,265.3 1052.1,242 1051,242C1050.3,242 1048.3,253.4 1045.8,271.9L1044.6,281.2L1034.1,280.6C1028.2,280.2 1021.1,279.7 1018.1,279.3L1012.7,278.7L1013.3,273.6C1013.6,270.8 1014.8,260.9 1015.9,251.5C1021.4,204.5 1021,146.8 1014.9,117.2C1014.3,114.2 1014,111.7 1014.2,111.5C1014.6,111.1 1046.1,113.7 1046.5,114.2C1047.9,115.6 1050.2,141.7 1051,166.5C1051.6,183 1052.3,200.6 1052.6,205.7L1053.2,214.9L1064.2,201.7C1070.3,194.4 1076.9,186.6 1078.7,184.4L1082.2,180.3L1094.3,179.6C1101,179.2 1109.8,178.7 1113.8,178.3C1117.8,178 1121,178.1 1121,178.6C1121,179.1 1112.8,189.6 1102.9,202C1093,214.4 1084.6,225.1 1084.3,225.7C1084,226.4 1086.7,231.6 1090.3,237.2C1093.9,242.9 1101.1,254.8 1106.3,263.7L1115.8,279.9L1111.7,280.4C1100.6,281.9 1087.4,283 1081.3,283L1074.5,283L1070.6,274.9Z" style="fill:white;fill-rule:nonzero;"/>
        </g>
        <g transform="matrix(0.277229,0,0,0.277229,81.2258,1080.96)">
            <path d="M1139.5,280.5C1128.3,276.2 1124.4,265.3 1129,250.9C1131.8,241.9 1136.6,235.9 1144.8,231.1C1157,223.8 1166.3,223.5 1175.1,230.3C1181.4,235.2 1183.2,239.1 1182.7,247.2C1182.1,255.9 1178.3,263.9 1171.4,270.6C1161.8,280.1 1148.9,284 1139.5,280.5Z" style="fill:white;fill-rule:nonzero;"/>
        </g>
        <g transform="matrix(0.277229,0,0,0.277229,81.2258,1080.96)">
            <path d="M975.5,276.6C963.2,274.2 954.6,270.1 945.1,262.1C936.2,254.7 932.9,249.2 929.4,236.1L926.4,224.5L906.4,220.7C857.8,211.5 858.9,211.6 859.1,216.4C859.2,219.8 865.3,227.3 870.1,230C875.4,233 887,233.6 887.8,231C888.1,230.2 889.8,228 891.6,226.3C897,220.8 900.4,221.7 913,231.9C917.1,235.2 921.1,238 921.8,238C924,238 923.1,239.7 917.9,245.4C911.7,252.2 901.9,257.2 890.5,259.5C868.6,263.9 845.4,253.3 833.5,233.5C827.7,223.7 825.8,216.3 825.8,202.5C825.7,182 831.1,166.7 841.3,159.1C850.7,152 855.1,150.5 866.5,150.6C885.2,150.8 901.1,157.1 911.9,168.5C916.9,173.8 918.4,176.5 921.8,185.2C924,190.9 926.1,197 926.5,198.9L927.2,202.2L931.7,193.9C939.8,178.6 948.8,171.9 963.5,170C976.4,168.4 988.7,170.4 1006.4,177.2L1014.3,180.3L1013.6,192.3C1013.3,198.9 1013,206 1013,208.2C1013,213.6 1011,213.2 1001,206C991.5,199.2 989.8,198.5 983,199.3C974.4,200.3 966.1,206.1 962.6,213.4C960.6,217.7 960.5,227.3 962.6,233.2C964.5,238.9 970.3,245.8 974.8,247.7C976.7,248.5 981.9,249.4 986.4,249.6C994.4,250.2 994.6,250.1 1000,246.6C1004.7,243.5 1009.7,242.1 1011.1,243.4C1011.4,243.7 1011.2,248.7 1010.8,254.6C1009.2,275.3 1008,276.9 992.9,277.5C986.4,277.8 979.9,277.4 975.5,276.6ZM895,194C895,192 892.2,187.5 889.3,184.9C884.3,180.4 880.9,178.8 875.1,178.3C870.1,177.8 869.1,178 866.3,180.4C863.1,183.1 860.2,188.6 861.4,189.7C862.1,190.4 887.7,194.7 892.3,194.9C893.8,195 895,194.5 895,194Z" style="fill:white;fill-rule:nonzero;"/>
        </g>
        <g transform="matrix(0.277229,0,0,0.277229,81.2258,1080.96)">
            <path d="M285.5,254C278.4,253 272.3,252.1 272.1,252.1C271.9,252 272,239.7 272.4,224.8C273.4,187.6 273.3,182 271.2,179.6C268.7,176.8 261.2,173.7 258.5,174.4C257.2,174.7 254.2,177.4 251.7,180.2L247.3,185.5L246.7,206C246.2,224.2 245.2,236.2 243.5,246.8L242.9,250L209.9,250L210.5,244.8C212,231.3 213.1,209.8 213.7,180.3L214.3,148L244.8,148L245.5,151C245.9,152.7 246.3,154 246.5,154C246.6,154 249.9,152.5 253.6,150.8C262,146.8 274,145.7 280.3,148.4C289.4,152.1 301.4,162 304.7,168.3C308.4,175.6 308.3,208.4 304.5,242.3C303.7,249.4 303,255.4 303,255.6C303,256.2 299.5,255.9 285.5,254Z" style="fill:white;fill-rule:nonzero;"/>
        </g>
        <g transform="matrix(0.277229,0,0,0.277229,81.2258,1080.96)">
            <path d="M791.3,205.9C791.3,152.2 789.1,118.9 783.5,88.6C782.7,84.3 782,80.6 782,80.4C782,79.8 801,80 806.6,80.6L811.6,81.2L813.8,92.4C819,119.3 822,153.4 822,186.2C822,208.6 819.6,246.7 818.2,248.1C817.8,248.5 811.6,249.1 804.4,249.5L791.3,250.2L791.3,205.9Z" style="fill:white;fill-rule:nonzero;"/>
        </g>
        <g transform="matrix(0.277229,0,0,0.277229,81.2258,1080.96)">
            <path d="M959.8,142.6C954.3,140.5 950,136.7 940,125.3C934.6,119.2 929.1,114 926.2,112.4C923.6,110.9 917,107 911.5,103.7C896,94.4 864.8,78.8 851.3,73.4L839,68.6L839,62.8C839,59.4 839.4,57 840,57C841.6,57 870.5,68.9 884.5,75.3C921.6,92.3 945,107.8 967.4,130.4C976.6,139.6 977.9,141.4 976.5,142.3C973.6,143.9 963.8,144.1 959.8,142.6Z" style="fill:white;fill-rule:nonzero;"/>
        </g>
        <g transform="matrix(0.277229,0,0,0.277229,81.2258,1080.96)">
            <path d="M948.4,140.4C947.2,139.9 934.5,126 935.2,126C935.4,126 938.9,129.4 943,133.5C947.1,137.6 950.2,141 950,140.9C949.7,140.9 949,140.6 948.4,140.4Z" style="fill:white;fill-rule:nonzero;"/>
        </g>
        <g transform="matrix(0.277229,0,0,0.277229,81.2258,1080.96)">
            <path d="M269,119.5C269,119.3 273.5,115.7 279,111.5C326,75.9 380.8,53.1 456,38C479.6,33.3 525.2,26.3 547,24.1C561.1,22.7 640.2,22 666,23.1C683.9,23.8 707.6,26.3 708.9,27.5C709.3,28 707.5,30.7 704.2,34.9L702.2,37.4L674.4,35.7C609.7,31.9 565.6,32.8 512.5,39.1C429.7,48.9 356.5,74.2 298.3,113.2L288.1,120L278.5,120C273.3,120 269,119.8 269,119.5Z" style="fill:white;fill-rule:nonzero;"/>
        </g>
        <g transform="matrix(0.277229,0,0,0.277229,81.2258,1080.96)">
            <path d="M577.5,383.9C464.1,378.8 383.8,357.8 317.2,315.6C302.5,306.3 273.4,284.1 273.1,282C272.9,281.1 310.4,282 315.6,283.1C321.4,284.2 327.3,287.1 331.1,290.7C333.3,292.7 335.7,293.4 343.6,294.6C359.5,296.8 375.6,297.4 385.3,296.1L394,294.9L398.9,299C404.7,303.9 407.6,304.5 436,305.9C450.2,306.7 457.5,307.5 463,309C471.8,311.5 495.6,313.3 507.4,312.4C521.4,311.4 532.1,307.6 539.1,301.3C542.7,298 543,297.9 545.7,299.3C555,304.1 572.3,306.4 589.6,304.9C595.8,304.4 609.4,302.2 619.7,300.1C639.9,295.8 652.3,293.6 661,292.5C664,292.1 668.1,291 670,290C676.3,286.8 684.7,285 692.7,285L700.6,285L699.3,294.8C698.7,300.1 697.9,312.7 697.6,322.8C697,341 697,341.1 699.5,344.9C702.9,349.9 706.5,352.5 713.9,355C721.5,357.5 727.9,357.5 744.8,355C752.2,353.9 760.7,353 763.9,353L769.5,353L777.1,345.3L784.7,337.5L789.5,309.5C792,294.1 794.4,280.5 794.7,279.2C795.2,277.1 795.6,277 801.5,277.6C805,278 813.6,277.7 820.7,277C832.1,275.9 834.1,275.9 839.3,277.4C842.4,278.3 846.5,280.3 848.2,281.9C851.1,284.3 852.9,284.8 861.5,285.8C889.5,289 904.4,288.2 915.7,283L921.8,280.2L929.4,286.3C933.5,289.7 936.9,292.8 937,293.2C937,293.6 933.5,296.6 929.3,299.8C885.4,333 827.2,357.8 763.9,370.4C709.3,381.2 635.5,386.6 577.5,383.9Z" style="fill:rgb(242,149,3);fill-rule:nonzero;"/>
        </g>
        <g transform="matrix(0.277229,0,0,0.277229,81.2258,1080.96)">
            <path d="M543.5,157C541.3,155.4 536.6,153.1 533,151.9C527.2,149.9 524.5,149.7 508.2,149.7C498.2,149.8 487.9,150.1 485.5,150.5L481,151.1L481,146C481,137.5 477.1,130.9 467.5,122.9C463.7,119.8 462,119 458.6,119C456.4,119 448.9,118.1 442,117C435.1,115.9 425.2,115 420,115C408.5,115 402.4,117.4 396.7,124C393.5,127.8 393,129 393,133.6L393,138.8L381.3,139.4C368.4,140.2 364.1,139.4 360.3,135.8C358.4,134 355.1,133.2 342.7,131.3C334.3,130 322.2,128.8 315.7,128.6C305,128.2 303.4,127.9 299.9,125.6C297.8,124.1 296,122.6 296,122.1C296,120.2 323,103.3 341.5,93.7C401.8,62.4 479.6,43.6 570.5,38.3C590.4,37.1 641.9,37.4 657,38.8C673.9,40.4 699.5,43.1 699.6,43.3C699.7,43.4 699.3,47.1 698.8,51.5C697.2,64.8 698.6,79.5 704.1,107.4C706.7,120.6 707,123.4 705.9,124.1C705.1,124.6 701.5,125 697.9,125C692.5,125 691.1,124.7 690.6,123.3C690.2,122.3 689.5,116.6 688.9,110.5C687.1,88.9 686.8,87.4 683.2,80.3C680.8,75.8 673.8,69.2 670.2,68.3C669,68 659.5,68 649.2,68.3C629.4,68.8 624.5,69.7 614.7,74.6C609.8,77.1 603.5,82.8 600.5,87.4C598.3,90.6 598.4,104.6 600.5,117C601.3,121.7 602.1,128.9 602.2,133L602.5,140.5L593.5,141.2C578.7,142.5 564.6,147.7 553.3,156.1C550.4,158.2 548,160 547.8,160C547.6,159.9 545.7,158.6 543.5,157Z" style="fill:rgb(242,149,3);fill-rule:nonzero;"/>
        </g>
        <g transform="matrix(0.277229,0,0,0.277229,81.2258,1080.96)">
            <path d="M927.6,145.2C922.5,137.1 911.7,129.8 899.5,126.2C896.1,125.2 887,124.6 870.5,124.1L846.5,123.5L845.8,120C844.7,115.2 840.1,75.6 840.5,75.2C841.2,74.5 867.5,86.1 885.5,95C903.2,103.7 916.6,111.7 927.8,120.1C934.5,125.2 950,139.9 950,141.2C950,141.7 949.2,142.4 948.3,142.7C947.3,143.1 944.4,144.6 941.9,146.2C939.1,147.9 935.9,149 933.7,149C930.5,149 929.7,148.5 927.6,145.2Z" style="fill:rgb(242,149,3);fill-rule:nonzero;"/>
        </g>
    </g>
</svg>
