<?xml version="1.0" encoding="UTF-8" standalone="no"?>
<!DOCTYPE svg PUBLIC "-//W3C//DTD SVG 1.1//EN" "http://www.w3.org/Graphics/SVG/1.1/DTD/svg11.dtd">
<svg width="100%" height="100%" viewBox="0 0 2613 871" version="1.1" xmlns="http://www.w3.org/2000/svg" xmlns:xlink="http://www.w3.org/1999/xlink" xml:space="preserve" xmlns:serif="http://www.serif.com/" style="fill-rule:evenodd;clip-rule:evenodd;stroke-linejoin:round;stroke-miterlimit:2;">
    <g transform="matrix(1,0,0,1,0.0015623,-0.126746)">
        <g transform="matrix(4.16667,0,0,4.16667,0,0)">
            <rect x="166.764" y="61.586" width="76.72" height="1.948" style="fill:url(#_Linear1);"/>
        </g>
        <g transform="matrix(4.16667,0,0,4.16667,0,0)">
            <rect x="166.764" y="88.515" width="76.72" height="1.949" style="fill:url(#_Linear2);"/>
        </g>
        <g transform="matrix(4.16667,0,0,4.16667,0,0)">
            <rect x="166.764" y="115.444" width="76.72" height="1.949" style="fill:url(#_Linear3);"/>
        </g>
        <g transform="matrix(4.16667,0,0,4.16667,0,0)">
            <rect x="166.764" y="142.372" width="76.72" height="1.95" style="fill:url(#_Linear4);"/>
        </g>
        <g transform="matrix(4.16667,0,0,4.16667,0,0)">
            <rect x="166.764" y="169.302" width="76.72" height="1.947" style="fill:url(#_Linear5);"/>
        </g>
        <g transform="matrix(4.16667,0,0,4.16667,0,0)">
            <path d="M10.986,69.291C19.038,54.019 31.257,41.079 46.025,32.167C53.401,27.706 61.406,24.242 69.734,21.933C78.059,19.615 86.701,18.464 95.268,18.465L95.268,75.158C88.189,75.154 81.346,77.061 75.359,80.682C69.377,84.284 64.363,89.599 61.12,95.764L10.986,69.291Z" style="fill:rgb(245,130,31);fill-rule:nonzero;"/>
        </g>
        <g transform="matrix(4.16667,0,0,4.16667,0,0)">
            <path d="M9.249,72.753C16.672,57.151 28.374,43.733 42.756,34.235C57.101,24.694 74.235,19.182 91.419,18.542L93.682,75.191C86.651,75.464 79.876,77.652 74.035,81.52C68.197,85.369 63.4,90.876 60.419,97.16L9.249,72.753Z" style="fill:rgb(245,131,31);fill-rule:nonzero;"/>
        </g>
        <g transform="matrix(4.16667,0,0,4.16667,0,0)">
            <path d="M7.652,76.283C14.438,60.383 25.596,46.497 39.576,36.433C53.517,26.328 70.389,20.11 87.569,18.774L92.107,75.285C85.127,75.836 78.43,78.306 72.744,82.412C67.057,86.499 62.497,92.192 59.777,98.582L7.652,76.283Z" style="fill:rgb(245,131,31);fill-rule:nonzero;"/>
        </g>
        <g transform="matrix(4.16667,0,0,4.16667,0,0)">
            <path d="M6.2,79.877C12.332,63.704 22.935,49.372 36.488,38.756C50.006,28.104 66.585,21.199 83.725,19.161L90.544,75.443C83.619,76.272 77.009,79.02 71.488,83.356C65.967,87.678 61.647,93.538 59.192,100.027L6.2,79.877Z" style="fill:rgb(245,132,31);fill-rule:nonzero;"/>
        </g>
        <g transform="matrix(4.16667,0,0,4.16667,0,0)">
            <path d="M4.897,83.528C10.36,67.111 20.388,52.35 33.499,41.202C46.571,30.016 62.832,22.446 79.894,19.704L88.994,75.662C82.129,76.77 75.613,79.79 70.272,84.352C64.924,88.897 60.853,94.914 58.669,101.493L4.897,83.528Z" style="fill:rgb(246,133,31);fill-rule:nonzero;"/>
        </g>
        <g transform="matrix(4.16667,0,0,4.16667,0,0)">
            <path d="M3.744,87.231C8.53,70.602 17.96,55.427 30.61,43.766C43.223,32.069 59.134,23.842 76.084,20.402L87.458,75.944C80.656,77.325 74.251,80.623 69.096,85.396C63.931,90.156 60.121,96.32 58.206,102.98L3.744,87.231Z" style="fill:rgb(246,133,31);fill-rule:nonzero;"/>
        </g>
        <g transform="matrix(4.16667,0,0,4.16667,0,0)">
            <path d="M2.743,90.977C6.84,74.167 15.661,58.605 27.828,46.444C39.96,34.249 55.503,25.394 72.304,21.258L85.938,76.288C79.205,77.945 72.919,81.508 67.961,86.487C62.995,91.456 59.444,97.749 57.803,104.485L2.743,90.977Z" style="fill:rgb(246,134,31);fill-rule:nonzero;"/>
        </g>
        <g transform="matrix(4.16667,0,0,4.16667,0,0)">
            <path d="M1.896,94.758C5.298,77.802 13.486,61.87 25.157,49.232C36.79,36.556 51.941,27.091 68.56,22.268L84.434,76.694C77.777,78.623 71.622,82.449 66.874,87.624C62.11,92.788 58.83,99.201 57.463,106.007L1.896,94.758Z" style="fill:rgb(246,135,31);fill-rule:nonzero;"/>
        </g>
        <g transform="matrix(4.16667,0,0,4.16667,0,0)">
            <path d="M1.206,98.57C3.909,81.504 11.444,65.225 22.599,52.126C33.718,38.992 48.455,28.928 64.86,23.429L82.948,77.16C76.373,79.358 70.366,83.445 65.832,88.802C61.283,94.154 58.276,100.675 57.185,107.544L1.206,98.57Z" style="fill:rgb(246,136,31);fill-rule:nonzero;"/>
        </g>
        <g transform="matrix(4.16667,0,0,4.16667,0,0)">
            <path d="M0.671,102.401C2.67,85.259 9.539,68.663 20.161,55.121C30.744,41.542 45.054,30.91 61.212,24.741L81.482,77.687C75,80.157 69.146,84.488 64.839,90.021C60.516,95.55 57.782,102.166 56.969,109.094L0.671,102.401Z" style="fill:rgb(246,136,30);fill-rule:nonzero;"/>
        </g>
        <g transform="matrix(4.16667,0,0,4.16667,0,0)">
            <path d="M0.292,106.246C1.591,89.065 7.769,72.177 17.844,58.215C27.877,44.212 41.736,33.021 57.621,26.201L80.039,78.274C73.653,81.008 67.972,85.583 63.898,91.278C59.804,96.973 57.35,103.675 56.814,110.657L0.292,106.246Z" style="fill:rgb(246,137,30);fill-rule:nonzero;"/>
        </g>
        <g transform="matrix(4.16667,0,0,4.16667,0,0)">
            <path d="M0.069,110.097C0.392,101.516 1.88,92.919 4.518,84.689C7.147,76.456 10.916,68.596 15.653,61.399C25.12,46.995 38.511,35.264 54.094,27.805L78.618,78.92C72.341,81.917 66.845,86.725 63.008,92.57C59.155,98.422 56.983,105.199 56.723,112.233L0.069,110.097Z" style="fill:rgb(246,138,30);fill-rule:nonzero;"/>
        </g>
        <g transform="matrix(4.16667,0,0,4.16667,0,0)">
            <path d="M0.002,113.944C-0.02,105.379 1.115,96.736 3.413,88.406C5.704,80.073 9.146,72.059 13.593,64.674C22.47,49.884 35.383,37.636 50.637,29.551L77.224,79.625C71.066,82.882 65.761,87.907 62.174,93.897C58.566,99.891 56.675,106.739 56.695,113.82L0.002,113.944Z" style="fill:rgb(246,138,30);fill-rule:nonzero;"/>
        </g>
        <g transform="matrix(4.16667,0,0,4.16667,0,0)">
            <path d="M0.087,117.793C-0.276,109.238 0.508,100.584 2.459,92.164C4.409,83.747 7.521,75.594 11.666,68.029C19.943,52.883 32.353,40.126 47.257,31.435L75.857,80.386C69.825,83.895 64.731,89.135 61.395,95.255C58.038,101.376 56.428,108.303 56.731,115.405L0.087,117.793Z" style="fill:rgb(246,139,30);fill-rule:nonzero;"/>
        </g>
        <g transform="matrix(4.16667,0,0,4.16667,0,0)">
            <path d="M0.327,121.642C-0.377,113.077 0.058,104.454 1.663,95.955C3.264,87.471 6.041,79.194 9.875,71.462C17.534,55.98 29.429,42.738 43.956,33.454L74.521,81.203C68.629,84.962 63.752,90.399 60.672,96.64C57.575,102.871 56.243,109.899 56.829,116.979L0.327,121.642Z" style="fill:rgb(246,140,30);fill-rule:nonzero;"/>
        </g>
        <g transform="matrix(4.16667,0,0,4.16667,0,0)">
            <path d="M0.723,125.488C-0.328,116.926 -0.233,108.323 1.021,99.775C2.273,91.241 4.707,82.853 8.227,74.968C15.249,59.174 26.612,45.461 40.743,35.604L73.218,82.076C67.474,86.076 62.824,91.7 60.008,98.053C58.591,101.228 57.617,104.581 57.11,108.03C56.6,111.465 56.561,115.082 56.99,118.542L0.723,125.488Z" style="fill:rgb(247,140,30);fill-rule:nonzero;"/>
        </g>
        <g transform="matrix(4.16667,0,0,4.16667,0,0)">
            <path d="M1.274,129.317C-0.125,120.784 -0.37,112.176 0.536,103.611C1.439,95.045 3.526,86.565 6.721,78.539C13.097,62.465 23.904,48.294 37.62,37.883L71.949,83.001C66.363,87.235 61.956,93.037 59.402,99.489C58.118,102.717 57.281,106.107 56.914,109.585C56.541,113.064 56.648,116.672 57.212,120.091L1.274,129.317Z" style="fill:rgb(247,141,30);fill-rule:nonzero;"/>
        </g>
        <g transform="matrix(4.16667,0,0,4.16667,0,0)">
            <path d="M1.983,133.126C0.229,124.657 -0.351,116.019 0.206,107.459C0.763,98.878 2.497,90.322 5.362,82.17C11.074,65.839 21.318,51.236 34.595,40.281L70.718,83.977C65.306,88.441 61.14,94.401 58.856,100.947C57.706,104.224 57.008,107.647 56.779,111.153C56.549,114.678 56.793,118.233 57.498,121.626L1.983,133.126Z" style="fill:rgb(247,142,30);fill-rule:nonzero;"/>
        </g>
        <g transform="matrix(4.16667,0,0,4.16667,0,0)">
            <path d="M2.847,136.904C0.743,128.521 -0.182,119.865 0.031,111.309C0.246,102.732 1.622,94.117 4.153,85.855C9.19,69.3 18.845,54.277 31.668,42.804L69.526,85.005C64.293,89.686 60.384,95.796 58.371,102.427C57.354,105.747 56.798,109.201 56.707,112.732C56.622,116.282 57,119.779 57.846,123.145L2.847,136.904Z" style="fill:rgb(247,143,30);fill-rule:nonzero;"/>
        </g>
        <g transform="matrix(4.16667,0,0,4.16667,0,0)">
            <path d="M3.864,140.646C-1.019,124.007 -1.272,106.341 3.096,89.585C7.45,72.839 16.498,57.417 28.846,45.439L68.377,86.078C63.335,90.97 59.689,97.217 57.946,103.926C56.182,110.607 56.287,118.045 58.254,124.649L3.864,140.646Z" style="fill:rgb(247,143,30);fill-rule:nonzero;"/>
        </g>
        <g transform="matrix(4.16667,0,0,4.16667,0,0)">
            <path d="M5.034,144.343C2.256,136.16 0.612,127.588 0.146,119.006C-0.325,110.448 0.35,101.801 2.191,93.355C5.851,76.449 14.277,60.652 26.132,48.188L67.271,87.198C62.432,92.292 59.049,98.66 57.582,105.442C56.844,108.829 56.559,112.366 56.755,115.902C56.946,119.414 57.61,122.845 58.724,126.133L5.034,144.343Z" style="fill:rgb(247,144,29);fill-rule:nonzero;"/>
        </g>
        <g transform="matrix(4.16667,0,0,4.16667,0,0)">
            <path d="M6.355,147.989C3.245,139.929 1.248,131.427 0.435,122.855C-0.378,114.289 -0.049,105.675 1.443,97.156C4.406,80.126 12.184,63.972 23.533,51.042L66.212,88.361C61.582,93.644 58.475,100.127 57.281,106.973C56.678,110.384 56.538,113.982 56.873,117.473C57.204,120.958 58.005,124.357 59.255,127.598L6.355,147.989Z" style="fill:rgb(247,145,29);fill-rule:nonzero;"/>
        </g>
        <g transform="matrix(4.16667,0,0,4.16667,0,0)">
            <path d="M7.822,151.575C4.387,143.653 2.042,135.239 0.88,126.696C-0.281,118.139 -0.292,109.538 0.851,100.981C3.111,83.862 10.228,67.382 21.048,54.001L65.2,89.565C60.793,95.031 57.959,101.612 57.042,108.519C56.575,111.966 56.581,115.586 57.053,119.031C57.524,122.488 58.462,125.851 59.845,129.04L7.822,151.575Z" style="fill:rgb(247,145,29);fill-rule:nonzero;"/>
        </g>
        <g transform="matrix(4.16667,0,0,4.16667,0,0)">
            <path d="M9.434,155.099C5.681,147.326 2.993,139.019 1.48,130.521C-0.029,122.003 -0.381,113.389 0.415,104.822C1.972,87.652 8.408,70.869 18.687,57.059L64.24,90.809C60.061,96.444 57.503,103.114 56.865,110.078C56.208,117.145 57.462,124.203 60.494,130.459L9.434,155.099Z" style="fill:rgb(247,146,29);fill-rule:nonzero;"/>
        </g>
        <g transform="matrix(4.16667,0,0,4.16667,0,0)">
            <path d="M11.189,158.551C7.123,150.943 4.097,142.755 2.238,134.319C0.375,125.877 -0.315,117.228 0.134,108.672C0.994,91.486 6.728,74.429 16.449,60.21L63.332,92.089C59.387,97.882 57.111,104.634 56.75,111.649C56.376,118.749 57.911,125.699 61.202,131.852L11.189,158.551Z" style="fill:rgb(247,147,29);fill-rule:nonzero;"/>
        </g>
        <g transform="matrix(4.16667,0,0,4.16667,0,0)">
            <path d="M13.08,161.928C8.713,154.494 5.352,146.444 3.151,138.087C0.939,129.733 -0.098,121.081 0.008,112.521C0.115,103.949 1.378,95.32 3.804,87.026C6.22,78.727 9.786,70.77 14.339,63.452L62.476,93.403C58.777,99.345 56.782,106.168 56.698,113.232C56.606,120.322 58.423,127.188 61.966,133.217L13.08,161.928Z" style="fill:rgb(247,147,29);fill-rule:nonzero;"/>
        </g>
        <g transform="matrix(4.16667,0,0,4.16667,0,0)">
            <path d="M15.107,165.224C10.443,157.977 6.76,150.076 4.216,141.816C1.667,133.558 0.269,124.947 0.038,116.368C-0.198,107.812 0.713,99.156 2.794,90.769C4.871,82.381 8.105,74.277 12.363,66.778L61.677,94.749C58.227,100.825 56.513,107.72 56.71,114.82C56.896,121.865 58.996,128.663 62.787,134.552L15.107,165.224Z" style="fill:rgb(247,148,29);fill-rule:nonzero;"/>
        </g>
        <g transform="matrix(4.16667,0,0,4.16667,0,0)">
            <path d="M17.264,168.431C7.334,154.362 1.336,137.404 0.22,120.218C-0.358,111.657 0.208,103.021 1.938,94.549C3.67,86.088 6.571,77.855 10.522,70.183L60.933,96.124C57.736,102.316 56.306,109.305 56.785,116.398C57.248,123.394 59.63,130.116 63.662,135.853L17.264,168.431Z" style="fill:rgb(248,149,29);fill-rule:nonzero;"/>
        </g>
        <g transform="matrix(4.16667,0,0,4.16667,0,0)">
            <path d="M19.548,171.55C9.067,157.897 2.376,141.222 0.559,124.066C-0.365,115.5 -0.142,106.893 1.24,98.359C2.622,89.841 5.184,81.492 8.82,73.662L60.247,97.527C57.314,103.816 56.161,110.921 56.923,117.965C57.665,124.907 60.326,131.546 64.59,137.12L19.548,171.55Z" style="fill:rgb(248,149,29);fill-rule:nonzero;"/>
        </g>
        <g transform="matrix(4.16667,0,0,4.16667,0,0)">
            <path d="M21.956,174.571C10.936,161.356 3.574,144.991 1.052,127.902C-0.219,119.355 -0.336,110.752 0.697,102.19C1.729,93.634 3.945,85.186 7.261,77.211L59.62,98.955C58.286,102.164 57.398,105.54 56.98,109.008C56.556,112.47 56.607,116.087 57.123,119.519C58.144,126.403 61.077,132.95 65.57,138.349L21.956,174.571Z" style="fill:rgb(248,150,29);fill-rule:nonzero;"/>
        </g>
        <g transform="matrix(4.16667,0,0,4.16667,0,0)">
            <path d="M24.483,177.491C12.945,164.732 4.922,148.708 1.702,131.719C0.081,123.222 -0.377,114.598 0.31,106.033C0.994,97.456 2.861,88.926 5.848,80.819L59.051,100.405C57.852,103.664 57.102,107.075 56.822,110.571C56.537,114.079 56.734,117.658 57.384,121.059C58.679,127.882 61.891,134.323 66.599,139.538L24.483,177.491Z" style="fill:rgb(248,151,28);fill-rule:nonzero;"/>
        </g>
        <g transform="matrix(4.16667,0,0,4.16667,0,0)">
            <path d="M27.125,180.307C15.085,168.021 6.427,152.361 2.509,135.509C0.536,127.094 -0.264,118.44 0.078,109.884C0.418,101.304 1.928,92.71 4.583,84.486L58.543,101.878C57.478,105.182 56.868,108.625 56.727,112.146C56.586,115.693 56.918,119.207 57.71,122.585C59.28,129.34 62.76,135.664 67.675,140.686L27.125,180.307Z" style="fill:rgb(248,152,28);fill-rule:nonzero;"/>
        </g>
        <g transform="matrix(4.16667,0,0,4.16667,0,0)">
            <path d="M29.879,183.013C17.352,171.222 8.078,155.945 3.47,139.265C-1.157,122.566 -1.157,104.9 3.469,88.2L58.096,103.369C56.23,110.011 56.23,117.452 58.096,124.094C59.94,130.775 63.683,136.974 68.798,141.788L29.879,183.013Z" style="fill:rgb(248,152,28);fill-rule:nonzero;"/>
        </g>
        <g transform="matrix(4.16667,0,0,4.16667,0,0)">
            <path d="M32.741,185.608C19.749,174.324 9.871,159.456 4.583,142.98C1.929,134.756 0.418,126.161 0.078,117.58C-0.264,109.026 0.536,100.371 2.508,91.956L57.71,104.879C56.918,108.257 56.586,111.772 56.727,115.318C56.868,118.839 57.478,122.282 58.543,125.586C60.656,132.188 64.664,138.242 69.963,142.845L32.741,185.608Z" style="fill:rgb(248,153,28);fill-rule:nonzero;"/>
        </g>
        <g transform="matrix(4.16667,0,0,4.16667,0,0)">
            <path d="M35.704,188.084C22.262,177.33 11.809,162.883 5.848,146.645C2.861,138.537 0.994,130.008 0.31,121.43C-0.377,112.865 0.081,104.241 1.702,95.745L57.384,106.404C56.734,109.805 56.537,113.384 56.822,116.892C57.102,120.388 57.852,123.799 59.051,127.058C61.437,133.571 65.691,139.474 71.169,143.853L35.704,188.084Z" style="fill:rgb(248,154,28);fill-rule:nonzero;"/>
        </g>
        <g transform="matrix(4.16667,0,0,4.16667,0,0)">
            <path d="M38.768,190.44C24.896,180.232 13.879,166.23 7.262,150.255C3.946,142.28 1.729,133.832 0.697,125.276C-0.336,116.713 -0.219,108.11 1.052,99.564L57.123,107.945C56.607,111.377 56.557,114.994 56.98,118.455C57.398,121.923 58.286,125.3 59.62,128.509C62.271,134.926 66.77,140.662 72.416,144.811L38.768,190.44Z" style="fill:rgb(248,154,28);fill-rule:nonzero;"/>
        </g>
        <g transform="matrix(4.16667,0,0,4.16667,0,0)">
            <path d="M41.924,192.671C27.645,183.024 16.081,169.485 8.821,153.803C5.185,145.973 2.623,137.624 1.24,129.107C-0.142,120.572 -0.365,111.965 0.558,103.399L56.923,109.499C56.161,116.543 57.314,123.648 60.247,129.937C63.161,136.25 67.898,141.804 73.697,145.717L41.924,192.671Z" style="fill:rgb(249,155,28);fill-rule:nonzero;"/>
        </g>
        <g transform="matrix(4.16667,0,0,4.16667,0,0)">
            <path d="M45.17,194.773C30.499,185.709 18.414,172.642 10.523,157.282C6.572,149.611 3.67,141.377 1.939,132.916C0.208,124.444 -0.358,115.807 0.22,107.246L56.785,111.066C56.306,118.159 57.737,125.148 60.933,131.34C64.109,137.535 69.066,142.904 75.013,146.569L45.17,194.773Z" style="fill:rgb(249,156,27);fill-rule:nonzero;"/>
        </g>
        <g transform="matrix(4.16667,0,0,4.16667,0,0)">
            <path d="M48.501,196.741C33.464,188.274 20.865,175.704 12.364,160.688C8.106,153.188 4.871,145.084 2.795,136.697C0.713,128.31 -0.198,119.653 0.038,111.097L56.71,112.644C56.513,119.743 58.227,126.638 61.677,132.715C65.106,138.788 70.281,143.949 76.361,147.365L48.501,196.741Z" style="fill:rgb(249,157,27);fill-rule:nonzero;"/>
        </g>
        <g transform="matrix(4.16667,0,0,4.16667,0,0)">
            <path d="M51.91,198.576C36.531,190.72 23.439,178.662 14.341,164.014C9.787,156.696 6.221,148.738 3.804,140.44C1.379,132.146 0.115,123.516 0.008,114.943L56.698,114.233C56.782,121.296 58.777,128.118 62.477,134.061C66.157,139.999 71.534,144.945 77.737,148.107L51.91,198.576Z" style="fill:rgb(249,157,27);fill-rule:nonzero;"/>
        </g>
        <g transform="matrix(4.16667,0,0,4.16667,0,0)">
            <path d="M55.393,200.269C39.694,193.045 26.128,181.512 16.45,167.254C6.729,153.035 0.994,135.98 0.134,118.793L56.75,115.815C57.111,122.829 59.387,129.582 63.332,135.375C67.257,141.166 72.823,145.89 79.142,148.788L55.393,200.269Z" style="fill:rgb(249,158,27);fill-rule:nonzero;"/>
        </g>
        <g transform="matrix(4.16667,0,0,4.16667,0,0)">
            <path d="M58.945,201.821C42.956,195.238 28.926,184.255 18.689,170.406C8.409,156.597 1.972,139.814 0.415,122.642L56.865,117.386C57.503,124.349 60.062,131.021 64.241,136.655C68.401,142.292 74.149,146.776 80.571,149.413L58.945,201.821Z" style="fill:rgb(249,159,27);fill-rule:nonzero;"/>
        </g>
        <g transform="matrix(4.16667,0,0,4.16667,0,0)">
            <path d="M62.558,203.226C46.304,197.304 31.836,186.879 21.05,173.464C10.229,160.083 3.111,143.603 0.852,126.484L57.042,118.945C57.959,125.852 60.793,132.433 65.201,137.899C69.595,143.365 75.504,147.609 82.023,149.979L62.558,203.226Z" style="fill:rgb(249,159,27);fill-rule:nonzero;"/>
        </g>
        <g transform="matrix(4.16667,0,0,4.16667,0,0)">
            <path d="M66.226,204.482C49.738,199.232 34.845,189.389 23.534,176.421C12.184,163.491 4.406,147.338 1.443,130.308L57.281,120.49C58.475,127.336 61.582,133.819 66.212,139.102C70.826,144.394 76.89,148.384 83.497,150.483L66.226,204.482Z" style="fill:rgb(249,160,27);fill-rule:nonzero;"/>
        </g>
        <g transform="matrix(4.16667,0,0,4.16667,0,0)">
            <path d="M69.943,205.587C53.254,201.017 37.954,191.777 26.134,179.277C14.278,166.814 5.852,151.017 2.191,134.11L57.582,122.022C59.05,128.803 62.433,135.172 67.272,140.266C72.098,145.369 78.304,149.098 84.989,150.926L69.943,205.587Z" style="fill:rgb(249,161,26);fill-rule:nonzero;"/>
        </g>
        <g transform="matrix(4.16667,0,0,4.16667,0,0)">
            <path d="M73.701,206.54C56.841,202.661 41.16,194.036 28.847,182.025C16.499,170.048 7.45,154.626 3.096,137.879L57.946,123.537C59.689,130.246 63.335,136.493 68.377,141.385C73.409,146.288 79.74,149.755 86.499,151.31L73.701,206.54Z" style="fill:rgb(250,162,26);fill-rule:nonzero;"/>
        </g>
        <g transform="matrix(4.16667,0,0,4.16667,0,0)">
            <path d="M77.493,207.337C60.498,204.155 44.454,196.171 31.669,184.66C18.846,173.188 9.191,158.164 4.154,141.61L58.371,125.035C60.385,131.667 64.293,137.778 69.527,142.459C74.752,147.156 81.2,150.351 88.026,151.63L77.493,207.337Z" style="fill:rgb(250,162,26);fill-rule:nonzero;"/>
        </g>
        <g transform="matrix(4.16667,0,0,4.16667,0,0)">
            <path d="M81.312,207.979C64.217,205.497 47.836,198.17 34.595,187.182C21.319,176.228 11.074,161.625 5.362,145.294L58.856,126.515C61.14,133.063 65.306,139.022 70.718,143.486C76.128,147.964 82.679,150.885 89.567,151.889L81.312,207.979Z" style="fill:rgb(250,163,26);fill-rule:nonzero;"/>
        </g>
        <g transform="matrix(4.16667,0,0,4.16667,0,0)">
            <path d="M85.149,208.464C67.989,206.687 51.298,200.033 37.622,189.582C23.906,179.171 13.098,164.999 6.721,148.925L59.402,127.974C61.957,134.427 66.363,140.229 71.95,144.462C77.532,148.714 84.176,151.36 91.122,152.085L85.149,208.464Z" style="fill:rgb(250,164,26);fill-rule:nonzero;"/>
        </g>
        <g transform="matrix(4.16667,0,0,4.16667,0,0)">
            <path d="M88.996,208.794C71.81,207.715 54.836,201.758 40.744,191.86C26.613,182.003 15.25,168.29 8.227,152.496L60.008,129.411C62.825,135.763 67.474,141.387 73.218,145.387C78.962,149.407 85.69,151.772 92.689,152.22L88.996,208.794Z" style="fill:rgb(250,164,26);fill-rule:nonzero;"/>
        </g>
        <g transform="matrix(4.16667,0,0,4.16667,0,0)">
            <path d="M92.847,208.968C84.269,208.754 75.654,207.378 67.392,204.846C59.125,202.323 51.216,198.655 43.958,194.01C29.43,184.727 17.535,171.485 9.876,156.002L60.672,130.823C63.752,137.064 68.629,142.501 74.522,146.26C80.419,150.036 87.22,152.12 94.268,152.292L92.847,208.968Z" style="fill:rgb(250,165,25);fill-rule:nonzero;"/>
        </g>
        <g transform="matrix(4.16667,0,0,4.16667,0,0)">
            <path d="M96.693,208.988C88.133,209.117 79.481,208.093 71.122,205.904C62.761,203.72 54.7,200.381 47.257,196.028C32.353,187.338 19.943,174.581 11.666,159.435L61.395,132.208C64.731,138.328 69.826,143.569 75.858,147.076C81.895,150.607 88.765,152.408 95.856,152.3L96.693,208.988Z" style="fill:rgb(250,166,25);fill-rule:nonzero;"/>
        </g>
        <g transform="matrix(4.16667,0,0,4.16667,0,0)">
            <path d="M100.544,208.853C91.987,209.324 83.339,208.65 74.892,206.808C66.452,204.968 58.258,201.961 50.639,197.912C35.385,189.828 22.471,177.58 13.594,162.791L62.174,133.566C65.761,139.556 71.066,144.582 77.225,147.839C83.383,151.115 90.339,152.636 97.439,152.244L100.544,208.853Z" style="fill:rgb(250,167,25);fill-rule:nonzero;"/>
        </g>
        <g transform="matrix(4.16667,0,0,4.16667,0,0)">
            <path d="M104.392,208.564C95.826,209.378 87.212,209.05 78.693,207.556C70.191,206.065 61.877,203.394 54.095,199.658C38.512,192.199 25.121,180.469 15.653,166.065L63.008,134.893C66.845,140.738 72.341,145.546 78.619,148.543C84.88,151.558 91.945,152.8 99.009,152.126L104.392,208.564Z" style="fill:rgb(250,167,25);fill-rule:nonzero;"/>
        </g>
        <g transform="matrix(4.16667,0,0,4.16667,0,0)">
            <path d="M108.233,208.119C99.677,209.28 91.075,209.292 82.518,208.148C73.972,207.006 65.553,204.681 57.623,201.263C41.737,194.443 27.878,183.253 17.845,169.25L63.898,136.185C67.973,141.88 73.654,146.455 80.039,149.189C83.232,150.564 86.597,151.495 90.055,151.957C93.502,152.424 97.122,152.418 100.568,151.946L108.233,208.119Z" style="fill:rgb(250,168,25);fill-rule:nonzero;"/>
        </g>
        <g transform="matrix(4.16667,0,0,4.16667,0,0)">
            <path d="M112.057,207.519C103.541,209.03 94.926,209.381 86.359,208.584C77.786,207.79 69.28,205.814 61.213,202.723C45.055,196.554 30.745,185.922 20.161,172.343L64.84,137.442C69.147,142.975 75,147.306 81.483,149.776C84.727,151.017 88.127,151.811 91.614,152.135C95.107,152.463 98.703,152.312 102.113,151.704L112.057,207.519Z" style="fill:rgb(251,169,24);fill-rule:nonzero;"/>
        </g>
        <g transform="matrix(4.16667,0,0,4.16667,0,0)">
            <path d="M115.856,206.761C107.415,208.624 98.765,209.315 90.209,208.865C81.627,208.417 73.05,206.794 64.861,204.034C48.456,198.534 33.72,188.472 22.6,175.338L65.832,138.661C70.366,144.018 76.373,148.105 82.949,150.303C86.239,151.41 89.672,152.065 93.185,152.249C96.723,152.435 100.257,152.147 103.643,151.399L115.856,206.761Z" style="fill:rgb(251,169,24);fill-rule:nonzero;"/>
        </g>
        <g transform="matrix(4.16667,0,0,4.16667,0,0)">
            <path d="M119.625,205.848C102.877,210.258 85.21,210.041 68.562,205.196C51.943,200.372 36.791,190.907 25.158,178.232L66.874,139.839C71.623,145.015 77.778,148.84 84.435,150.769C91.043,152.721 98.482,152.812 105.158,151.031L119.625,205.848Z" style="fill:rgb(251,170,24);fill-rule:nonzero;"/>
        </g>
        <g transform="matrix(4.16667,0,0,4.16667,0,0)">
            <path d="M123.353,204.782C115.096,207.331 106.484,208.73 97.905,208.962C89.349,209.198 80.693,208.286 72.305,206.205C55.504,202.07 39.962,193.215 27.829,181.02L67.962,140.976C72.919,145.954 79.206,149.519 85.939,151.175C89.307,152.01 92.806,152.386 96.356,152.289C99.885,152.192 103.338,151.626 106.656,150.604L123.353,204.782Z" style="fill:rgb(251,171,24);fill-rule:nonzero;"/>
        </g>
        <g transform="matrix(4.16667,0,0,4.16667,0,0)">
            <path d="M127.034,203.566C118.888,206.448 110.336,208.203 101.756,208.779C93.195,209.359 84.558,208.792 76.085,207.061C59.136,203.62 43.225,195.395 30.612,183.698L69.096,142.067C74.252,146.84 80.656,150.139 87.459,151.52C90.853,152.214 94.411,152.454 97.935,152.214C101.439,151.979 104.86,151.271 108.134,150.114L127.034,203.566Z" style="fill:rgb(251,172,24);fill-rule:nonzero;"/>
        </g>
        <g transform="matrix(4.16667,0,0,4.16667,0,0)">
            <path d="M130.66,202.198C122.644,205.411 114.168,207.518 105.603,208.441C97.037,209.364 88.43,209.143 79.896,207.759C62.834,205.018 46.573,197.447 33.501,186.262L70.273,143.112C75.614,147.673 82.13,150.694 88.995,151.801C92.415,152.36 96.025,152.455 99.501,152.076C102.979,151.701 106.366,150.857 109.592,149.565L130.66,202.198Z" style="fill:rgb(251,172,23);fill-rule:nonzero;"/>
        </g>
        <g transform="matrix(4.16667,0,0,4.16667,0,0)">
            <path d="M134.229,200.685C126.352,204.221 117.971,206.675 109.439,207.947C100.892,209.219 92.289,209.336 83.727,208.302C66.587,206.264 50.008,199.36 36.49,188.708L71.489,144.107C77.009,148.443 83.62,151.191 90.545,152.02C94.006,152.443 97.624,152.392 101.056,151.876C104.503,151.362 107.854,150.379 111.027,148.956L134.229,200.685Z" style="fill:rgb(251,173,23);fill-rule:nonzero;"/>
        </g>
        <g transform="matrix(4.16667,0,0,4.16667,0,0)">
            <path d="M137.731,199.028C130.009,202.88 121.738,205.675 113.257,207.297C104.761,208.918 96.136,209.377 87.572,208.69C70.391,207.354 53.519,201.136 39.578,191.03L72.745,145.051C78.431,149.156 85.128,151.627 92.108,152.177C99.19,152.745 106.213,151.403 112.438,148.288L137.731,199.028Z" style="fill:rgb(251,174,23);fill-rule:nonzero;"/>
        </g>
        <g transform="matrix(4.16667,0,0,4.16667,0,0)">
            <path d="M141.161,197.23C133.606,201.392 125.459,204.523 117.047,206.49C108.632,208.463 99.977,209.264 91.422,208.921C74.237,208.28 57.103,202.77 42.758,193.229L74.035,145.944C79.877,149.812 86.652,151.999 93.683,152.273C100.785,152.558 107.707,150.933 113.823,147.563L141.161,197.23Z" style="fill:rgb(252,175,22);fill-rule:nonzero;"/>
        </g>
        <g transform="matrix(4.16667,0,0,4.16667,0,0)">
            <path d="M144.512,195.295C137.136,199.756 129.131,203.22 120.803,205.53C112.478,207.848 103.836,208.999 95.269,208.998C86.703,208.999 78.061,207.848 69.736,205.53C61.407,203.221 53.402,199.757 46.026,195.296L75.359,146.78C81.346,150.403 88.19,152.309 95.268,152.305C102.347,152.309 109.191,150.402 115.178,146.78L144.512,195.295Z" style="fill:rgb(252,175,22);fill-rule:nonzero;"/>
        </g>
        <g transform="matrix(4.16667,0,0,4.16667,0,0)">
            <path d="M147.781,193.228C133.437,202.769 116.302,208.28 99.118,208.921C90.563,209.265 81.908,208.463 73.492,206.491C65.08,204.524 56.933,201.393 49.378,197.231L76.715,147.563C82.831,150.934 89.752,152.558 96.855,152.273C103.885,151.998 110.661,149.811 116.503,145.943L147.781,193.228Z" style="fill:rgb(252,176,22);fill-rule:nonzero;"/>
        </g>
        <g transform="matrix(4.16667,0,0,4.16667,0,0)">
            <path d="M150.961,191.03C137.021,201.134 120.148,207.353 102.968,208.689C94.403,209.377 85.779,208.919 77.283,207.298C68.802,205.676 60.53,202.881 52.807,199.029L78.099,148.289C84.325,151.404 91.347,152.745 98.429,152.177C105.41,151.626 112.107,149.156 117.793,145.05L150.961,191.03Z" style="fill:rgb(252,177,22);fill-rule:nonzero;"/>
        </g>
        <g transform="matrix(4.16667,0,0,4.16667,0,0)">
            <path d="M154.049,188.706C140.532,199.358 123.953,206.263 106.813,208.302C98.251,209.336 89.647,209.22 81.1,207.947C72.568,206.675 64.186,204.222 56.309,200.686L79.51,148.956C82.684,150.38 86.034,151.362 89.481,151.876C92.914,152.392 96.531,152.443 99.992,152.02C106.918,151.191 113.529,148.443 119.049,144.106L154.049,188.706Z" style="fill:rgb(252,178,21);fill-rule:nonzero;"/>
        </g>
        <g transform="matrix(4.16667,0,0,4.16667,0,0)">
            <path d="M157.039,186.26C143.966,197.446 127.706,205.017 110.644,207.759C102.109,209.142 93.502,209.365 84.937,208.441C76.371,207.519 67.895,205.412 59.877,202.198L80.946,149.566C84.171,150.857 87.559,151.701 91.036,152.076C94.512,152.455 98.122,152.36 101.543,151.8C108.408,150.693 114.924,147.672 120.266,143.11L157.039,186.26Z" style="fill:rgb(252,178,21);fill-rule:nonzero;"/>
        </g>
        <g transform="matrix(4.16667,0,0,4.16667,0,0)">
            <path d="M159.927,183.697C147.314,195.394 131.403,203.619 114.454,207.06C105.981,208.791 97.344,209.359 88.783,208.779C80.202,208.204 71.65,206.448 63.504,203.567L82.403,150.115C85.677,151.272 89.098,151.979 92.602,152.214C96.126,152.454 99.684,152.213 103.079,151.519C109.882,150.138 116.287,146.839 121.442,142.066L159.927,183.697Z" style="fill:rgb(252,179,21);fill-rule:nonzero;"/>
        </g>
        <g transform="matrix(4.16667,0,0,4.16667,0,0)">
            <path d="M162.709,181.019C150.577,193.213 135.035,202.068 118.234,206.204C109.847,208.285 101.191,209.198 92.635,208.962C84.057,208.731 75.445,207.332 67.188,204.783L83.882,150.604C87.2,151.626 90.652,152.193 94.181,152.289C97.731,152.386 101.23,152.009 104.6,151.174C111.332,149.518 117.619,145.953 122.576,140.975L162.709,181.019Z" style="fill:rgb(252,180,20);fill-rule:nonzero;"/>
        </g>
        <g transform="matrix(4.16667,0,0,4.16667,0,0)">
            <path d="M165.38,178.231C153.747,190.906 138.596,200.371 121.978,205.195C105.331,210.04 87.664,210.258 70.916,205.849L85.38,151.031C92.055,152.812 99.494,152.721 106.103,150.769C112.76,148.84 118.916,145.014 123.664,139.839L165.38,178.231Z" style="fill:rgb(252,180,20);fill-rule:nonzero;"/>
        </g>
        <g transform="matrix(4.16667,0,0,4.16667,0,0)">
            <path d="M167.938,175.337C156.819,188.471 142.083,198.533 125.678,204.033C117.489,206.793 108.913,208.416 100.331,208.864C91.774,209.316 83.126,208.624 74.683,206.762L86.895,151.399C90.28,152.147 93.814,152.435 97.352,152.249C100.866,152.064 104.299,151.41 107.589,150.303C114.165,148.104 120.172,144.017 124.706,138.66L167.938,175.337Z" style="fill:rgb(253,181,20);fill-rule:nonzero;"/>
        </g>
        <g transform="matrix(4.16667,0,0,4.16667,0,0)">
            <path d="M170.376,172.342C159.793,185.921 145.483,196.553 129.325,202.722C121.258,205.813 112.752,207.79 104.18,208.584C95.613,209.381 86.998,209.03 78.482,207.52L88.424,151.704C91.834,152.312 95.429,152.463 98.922,152.134C102.411,151.811 105.811,151.017 109.055,149.776C115.538,147.305 121.392,142.974 125.698,137.442L170.376,172.342Z" style="fill:rgb(253,182,20);fill-rule:nonzero;"/>
        </g>
        <g transform="matrix(4.16667,0,0,4.16667,0,0)">
            <path d="M172.693,169.249C162.66,183.251 148.801,194.442 132.917,201.261C124.986,204.68 116.567,207.005 108.021,208.148C99.464,209.292 90.863,209.281 82.307,208.12L89.97,151.947C93.415,152.418 97.034,152.424 100.482,151.957C103.941,151.494 107.306,150.564 110.499,149.188C116.884,146.454 122.565,141.879 126.64,136.184L172.693,169.249Z" style="fill:rgb(253,183,19);fill-rule:nonzero;"/>
        </g>
        <g transform="matrix(4.16667,0,0,4.16667,0,0)">
            <path d="M174.885,166.064C165.418,180.467 152.027,192.197 136.444,199.657C128.662,203.393 120.349,206.064 111.847,207.556C103.328,209.049 94.714,209.379 86.147,208.565L91.528,152.126C98.592,152.8 105.658,151.558 111.919,148.542C118.197,145.545 123.693,140.738 127.53,134.892L174.885,166.064Z" style="fill:rgb(253,183,19);fill-rule:nonzero;"/>
        </g>
        <g transform="matrix(4.16667,0,0,4.16667,0,0)">
            <path d="M176.945,162.789C168.067,177.578 155.154,189.826 139.9,197.911C132.282,201.96 124.088,204.967 115.648,206.808C107.201,208.649 98.554,209.324 89.997,208.853L93.099,152.244C100.199,152.635 107.155,151.114 113.313,147.838C119.472,144.581 124.777,139.555 128.364,133.565L176.945,162.789Z" style="fill:rgb(253,184,18);fill-rule:nonzero;"/>
        </g>
        <g transform="matrix(4.16667,0,0,4.16667,0,0)">
            <path d="M178.872,159.434C170.594,174.58 158.185,187.337 143.281,196.027C135.838,200.38 127.778,203.719 119.417,205.903C111.058,208.093 102.405,209.116 93.845,208.988L94.68,152.3C101.772,152.408 108.643,150.606 114.68,147.076C120.712,143.568 125.806,138.327 129.143,132.208L178.872,159.434Z" style="fill:rgb(253,185,18);fill-rule:nonzero;"/>
        </g>
        <g transform="matrix(4.16667,0,0,4.16667,0,0)">
            <path d="M180.662,156C173.004,171.483 161.108,184.725 146.581,194.008C139.323,198.655 131.415,202.322 123.148,204.845C114.885,207.377 106.271,208.753 97.693,208.968L96.269,152.292C103.318,152.12 110.119,150.035 116.017,146.259C121.909,142.5 126.787,137.063 129.866,130.823L180.662,156Z" style="fill:rgb(253,186,18);fill-rule:nonzero;"/>
        </g>
        <g transform="matrix(4.16667,0,0,4.16667,0,0)">
            <path d="M182.311,152.494C175.288,168.288 163.925,182.001 149.794,191.858C135.703,201.757 118.729,207.714 101.543,208.793L97.848,152.22C104.847,151.771 111.575,149.406 117.32,145.386C123.064,141.386 127.713,135.762 130.53,129.409L182.311,152.494Z" style="fill:rgb(253,186,17);fill-rule:nonzero;"/>
        </g>
        <g transform="matrix(4.16667,0,0,4.16667,0,0)">
            <path d="M183.817,148.923C177.44,164.998 166.633,179.169 152.917,189.58C139.241,200.031 122.55,206.685 105.391,208.463L99.415,152.085C106.362,151.36 113.005,148.713 118.588,144.461C124.175,140.228 128.582,134.425 131.136,127.973L183.817,148.923Z" style="fill:rgb(254,187,17);fill-rule:nonzero;"/>
        </g>
        <g transform="matrix(4.16667,0,0,4.16667,0,0)">
            <path d="M185.176,145.292C179.464,161.623 169.219,176.227 155.944,187.18C142.703,198.169 126.323,205.496 109.228,207.978L100.971,151.889C107.859,150.884 114.41,147.963 119.82,143.485C125.232,139.021 129.397,133.062 131.682,126.514L185.176,145.292Z" style="fill:rgb(254,188,16);fill-rule:nonzero;"/>
        </g>
        <g transform="matrix(4.16667,0,0,4.16667,0,0)">
            <path d="M186.384,141.608C181.347,158.163 171.692,173.187 158.87,184.659C146.085,196.17 130.041,204.154 113.046,207.336L102.512,151.63C109.338,150.35 115.787,147.155 121.011,142.458C126.245,137.777 130.153,131.666 132.167,125.034L186.384,141.608Z" style="fill:rgb(254,189,16);fill-rule:nonzero;"/>
        </g>
        <g transform="matrix(4.16667,0,0,4.16667,0,0)">
            <path d="M187.441,137.878C183.088,154.625 174.04,170.047 161.691,182.024C149.378,194.035 133.698,202.66 116.838,206.539L104.039,151.31C110.798,149.755 117.129,146.287 122.161,141.384C127.203,136.492 130.849,130.245 132.592,123.536L187.441,137.878Z" style="fill:rgb(254,189,15);fill-rule:nonzero;"/>
        </g>
        <g transform="matrix(4.16667,0,0,4.16667,0,0)">
            <path d="M188.347,134.108C184.687,151.015 176.26,166.812 164.404,179.276C152.585,191.776 137.285,201.016 120.597,205.586L105.548,150.926C112.234,149.097 118.44,145.368 123.267,140.265C128.104,135.17 131.488,128.802 132.956,122.021L188.347,134.108Z" style="fill:rgb(254,190,15);fill-rule:nonzero;"/>
        </g>
        <g transform="matrix(4.16667,0,0,4.16667,0,0)">
            <path d="M189.094,130.307C186.132,147.337 178.354,163.49 167.004,176.42C155.694,189.388 140.801,199.23 124.313,204.481L107.041,150.482C113.647,148.383 119.712,144.393 124.326,139.101C128.955,133.818 132.063,127.335 133.257,120.489L189.094,130.307Z" style="fill:rgb(254,191,15);fill-rule:nonzero;"/>
        </g>
        <g transform="matrix(4.16667,0,0,4.16667,0,0)">
            <path d="M189.687,126.482C187.427,143.601 180.309,160.082 169.488,173.463C158.702,186.878 144.234,197.303 127.981,203.226L108.515,149.979C115.033,147.609 120.943,143.364 125.337,137.898C129.744,132.432 132.579,125.851 133.496,118.944L189.687,126.482Z" style="fill:rgb(254,191,14);fill-rule:nonzero;"/>
        </g>
        <g transform="matrix(4.16667,0,0,4.16667,0,0)">
            <path d="M190.123,122.64C188.566,139.812 182.129,156.595 171.85,170.405C161.612,184.253 147.583,195.238 131.594,201.82L109.967,149.412C116.389,146.775 122.137,142.291 126.297,136.654C130.477,131.019 133.035,124.348 133.673,117.385L190.123,122.64Z" style="fill:rgb(254,192,14);fill-rule:nonzero;"/>
        </g>
        <g transform="matrix(4.16667,0,0,4.16667,0,0)">
            <path d="M190.403,118.791C189.544,135.978 183.81,153.034 174.088,167.253C164.41,181.511 150.844,193.044 135.146,200.268L111.396,148.788C117.715,145.889 123.281,141.165 127.206,135.374C131.151,129.581 133.426,122.828 133.788,115.814L190.403,118.791Z" style="fill:rgb(255,193,13);fill-rule:nonzero;"/>
        </g>
        <g transform="matrix(4.16667,0,0,4.16667,0,0)">
            <path d="M190.529,114.941C190.423,123.514 189.159,132.144 186.734,140.438C184.317,148.737 180.751,156.695 176.197,164.012C167.099,178.66 154.007,190.719 138.629,198.574L112.801,148.106C119.004,144.944 124.381,139.997 128.062,134.06C131.761,128.118 133.756,121.295 133.84,114.232L190.529,114.941Z" style="fill:rgb(255,194,13);fill-rule:nonzero;"/>
        </g>
        <g transform="matrix(4.16667,0,0,4.16667,0,0)">
            <path d="M190.5,111.094C190.737,119.651 189.824,128.307 187.743,136.695C185.667,145.082 182.432,153.187 178.174,160.686C169.673,175.703 157.074,188.273 142.038,196.74L114.177,147.364C120.257,143.948 125.432,138.787 128.86,132.714C132.311,126.637 134.025,119.742 133.828,112.643L190.5,111.094Z" style="fill:rgb(255,194,12);fill-rule:nonzero;"/>
        </g>
        <g transform="matrix(4.16667,0,0,4.16667,0,0)">
            <path d="M190.317,107.245C190.896,115.806 190.33,124.442 188.599,132.914C186.868,141.376 183.966,149.61 180.016,157.28C172.125,172.64 160.04,185.707 145.37,194.771L115.525,146.568C121.472,142.903 126.429,137.534 129.604,131.339C132.801,125.147 134.232,118.158 133.752,111.066L190.317,107.245Z" style="fill:rgb(255,195,11);fill-rule:nonzero;"/>
        </g>
        <g transform="matrix(4.16667,0,0,4.16667,0,0)">
            <path d="M189.979,103.397C190.903,111.962 190.681,120.57 189.298,129.105C187.916,137.622 185.354,145.971 181.717,153.801C174.458,169.484 162.894,183.022 148.615,192.67L116.841,145.716C122.64,141.803 127.377,136.248 130.291,129.937C133.224,123.646 134.377,116.542 133.614,109.498L189.979,103.397Z" style="fill:rgb(255,196,11);fill-rule:nonzero;"/>
        </g>
        <g transform="matrix(4.16667,0,0,4.16667,0,0)">
            <path d="M189.485,99.561C190.758,108.108 190.875,116.711 189.841,125.274C188.809,133.83 186.592,142.279 183.276,150.253C176.66,166.228 165.643,180.231 151.771,190.439L118.123,144.81C123.768,140.661 128.268,134.925 130.918,128.508C132.252,125.299 133.14,121.922 133.558,118.454C133.981,114.993 133.931,111.376 133.415,107.944L189.485,99.561Z" style="fill:rgb(255,197,10);fill-rule:nonzero;"/>
        </g>
        <g transform="matrix(4.16667,0,0,4.16667,0,0)">
            <path d="M188.836,95.744C190.457,104.24 190.916,112.864 190.228,121.429C189.543,130.008 187.677,138.537 184.689,146.644C178.729,162.883 168.275,177.329 154.833,188.083L119.368,143.853C124.847,139.473 129.101,133.57 131.487,127.057C132.686,123.798 133.436,120.387 133.716,116.892C134,113.384 133.804,109.804 133.153,106.404L188.836,95.744Z" style="fill:rgb(255,197,9);fill-rule:nonzero;"/>
        </g>
        <g transform="matrix(4.16667,0,0,4.16667,0,0)">
            <path d="M188.029,91.954C190.001,100.368 190.803,109.023 190.459,117.578C190.12,126.159 188.609,134.754 185.955,142.978C180.667,159.454 170.79,174.322 157.799,185.606L120.575,142.844C125.875,138.241 129.882,132.187 131.995,125.584C133.06,122.28 133.669,118.838 133.811,115.317C133.952,111.771 133.62,108.256 132.828,104.878L188.029,91.954Z" style="fill:rgb(255,198,9);fill-rule:nonzero;"/>
        </g>
        <g transform="matrix(4.16667,0,0,4.16667,0,0)">
            <path d="M187.067,88.198C191.695,104.897 191.695,122.564 187.068,139.264C182.46,155.943 173.186,171.221 160.659,183.012L121.74,141.787C126.855,136.973 130.598,130.774 132.441,124.093C134.308,117.451 134.308,110.01 132.441,103.369L187.067,88.198Z" style="fill:rgb(255,199,8);fill-rule:nonzero;"/>
        </g>
        <g transform="matrix(4.16667,0,0,4.16667,0,0)">
            <path d="M185.954,84.483C188.608,92.706 190.12,101.301 190.459,109.882C190.803,118.437 190.001,127.092 188.029,135.507C184.111,152.359 175.453,168.02 163.413,180.306L122.863,140.685C127.777,135.663 131.258,129.34 132.828,122.583C133.62,119.206 133.952,115.692 133.811,112.145C133.669,108.624 133.06,105.181 131.995,101.877L185.954,84.483Z" style="fill:rgb(255,199,7);fill-rule:nonzero;"/>
        </g>
        <g transform="matrix(4.16667,0,0,4.16667,0,0)">
            <path d="M184.689,80.818C187.677,88.925 189.543,97.455 190.228,106.032C190.916,114.597 190.457,123.221 188.836,131.718C185.615,148.706 177.593,164.73 166.055,177.489L123.939,139.536C128.646,134.322 131.858,127.881 133.153,121.059C133.804,117.658 134,114.078 133.716,110.571C133.436,107.074 132.686,103.664 131.487,100.405L184.689,80.818Z" style="fill:rgb(255,200,6);fill-rule:nonzero;"/>
        </g>
        <g transform="matrix(4.16667,0,0,4.16667,0,0)">
            <path d="M183.275,77.208C186.591,85.182 188.808,93.631 189.84,102.187C190.875,110.749 190.758,119.352 189.485,127.9C186.964,144.989 179.603,161.355 168.582,174.57L124.968,138.348C129.461,132.949 132.395,126.402 133.415,119.518C133.931,116.086 133.981,112.469 133.558,109.008C133.139,105.539 132.251,102.163 130.917,98.954L183.275,77.208Z" style="fill:rgb(255,201,6);fill-rule:nonzero;"/>
        </g>
        <g transform="matrix(4.16667,0,0,4.16667,0,0)">
            <path d="M181.717,73.662C185.353,81.491 187.916,89.84 189.297,98.358C190.681,106.892 190.903,115.499 189.979,124.064C188.162,141.22 181.471,157.895 170.991,171.548L125.948,137.118C130.212,131.545 132.873,124.906 133.615,117.964C134.377,110.921 133.224,103.816 130.291,97.527L181.717,73.662Z" style="fill:rgb(255,202,5);fill-rule:nonzero;"/>
        </g>
        <g transform="matrix(4.16667,0,0,4.16667,0,0)">
            <path d="M180.015,70.18C183.966,77.852 186.867,86.085 188.599,94.547C190.33,103.019 190.896,111.655 190.317,120.216C189.202,137.403 183.203,154.361 173.274,168.431L126.875,135.852C130.907,130.116 133.29,123.393 133.752,116.397C134.231,109.304 132.801,102.316 129.604,96.124L180.015,70.18Z" style="fill:rgb(255,202,4);fill-rule:nonzero;"/>
        </g>
        <g transform="matrix(4.16667,0,0,4.16667,0,0)">
            <path d="M178.173,66.776C182.431,74.275 185.666,82.379 187.742,90.766C189.824,99.154 190.736,107.809 190.5,116.365C190.269,124.944 188.871,133.556 186.322,141.813C183.779,150.073 180.095,157.975 175.432,165.222L127.751,134.55C131.542,128.661 133.642,121.864 133.828,114.819C134.024,107.719 132.311,100.825 128.86,94.748L178.173,66.776Z" style="fill:rgb(255,203,3);fill-rule:nonzero;"/>
        </g>
        <g transform="matrix(4.16667,0,0,4.16667,0,0)">
            <path d="M176.196,63.449C180.75,70.767 184.316,78.724 186.733,87.023C189.158,95.317 190.422,103.946 190.529,112.519C190.637,121.079 189.598,129.732 187.387,138.085C185.187,146.442 181.826,154.492 177.458,161.926L128.572,133.216C132.114,127.186 133.932,120.321 133.84,113.23C133.756,106.167 131.76,99.344 128.061,93.402L176.196,63.449Z" style="fill:rgb(255,204,3);fill-rule:nonzero;"/>
        </g>
        <g transform="matrix(4.16667,0,0,4.16667,0,0)">
            <path d="M174.087,60.209C183.809,74.427 189.543,91.484 190.403,108.67C190.854,117.226 190.163,125.875 188.3,134.318C186.441,142.753 183.416,150.941 179.35,158.55L129.336,131.851C132.626,125.698 134.162,118.748 133.788,111.648C133.426,104.634 131.15,97.882 127.206,92.089L174.087,60.209Z" style="fill:rgb(255,205,2);fill-rule:nonzero;"/>
        </g>
        <g transform="matrix(4.16667,0,0,4.16667,0,0)">
            <path d="M171.849,57.057C182.128,70.867 188.565,87.65 190.123,104.821C190.919,113.387 190.568,122.002 189.058,130.519C187.545,139.018 184.857,147.325 181.104,155.098L130.044,130.458C133.076,124.202 134.33,117.144 133.673,110.077C133.035,103.114 130.476,96.444 126.297,90.809L171.849,57.057Z" style="fill:rgb(255,205,1);fill-rule:nonzero;"/>
        </g>
        <g transform="matrix(4.16667,0,0,4.16667,0,0)">
            <path d="M169.487,53.999C180.308,67.379 187.426,83.86 189.686,100.979C190.831,109.536 190.819,118.137 189.658,126.694C188.496,135.238 186.151,143.651 182.716,151.573L130.692,129.039C132.075,125.849 133.014,122.487 133.484,119.03C133.957,115.585 133.962,111.965 133.496,108.518C132.579,101.611 129.744,95.03 125.336,89.565L169.487,53.999Z" style="fill:rgb(255,206,1);fill-rule:nonzero;"/>
        </g>
        <g transform="matrix(4.16667,0,0,4.16667,0,0)">
            <path d="M167.002,51.041C178.352,63.97 186.131,80.123 189.094,97.153C190.588,105.672 190.917,114.285 190.103,122.852C189.29,131.424 187.294,139.926 184.184,147.986L131.283,127.596C132.532,124.356 133.334,120.957 133.665,117.471C134,113.981 133.859,110.382 133.257,106.972C132.063,100.126 128.955,93.644 124.325,88.361L167.002,51.041Z" style="fill:rgb(255,207,1);fill-rule:nonzero;"/>
        </g>
        <g transform="matrix(4.16667,0,0,4.16667,0,0)">
            <path d="M164.403,48.186C176.259,60.649 184.686,76.446 188.346,93.353C190.188,101.799 190.863,110.447 190.392,119.004C189.926,127.585 188.282,136.158 185.504,144.341L131.814,126.132C132.928,122.844 133.591,119.413 133.783,115.901C133.979,112.365 133.694,108.828 132.956,105.441C131.488,98.66 128.104,92.292 123.266,87.198L164.403,48.186Z" style="fill:rgb(255,207,1);fill-rule:nonzero;"/>
        </g>
        <g transform="matrix(4.16667,0,0,4.16667,0,0)">
            <path d="M161.689,45.438C174.038,57.415 183.087,72.837 187.441,89.583C191.811,106.34 191.558,124.006 186.673,140.645L132.283,124.648C134.25,118.045 134.356,110.607 132.592,103.926C130.849,97.217 127.202,90.97 122.16,86.078L161.689,45.438Z" style="fill:rgb(255,208,1);fill-rule:nonzero;"/>
        </g>
        <g transform="matrix(4.16667,0,0,4.16667,0,0)">
            <path d="M158.868,42.802C171.69,54.275 181.346,69.298 186.384,85.853C188.916,94.115 190.292,102.73 190.506,111.307C190.721,119.864 189.794,128.521 187.691,136.903L132.692,123.145C133.538,119.778 133.916,116.281 133.831,112.731C133.739,109.201 133.184,105.746 132.167,102.427C130.153,95.796 126.244,89.685 121.01,85.004L158.868,42.802Z" style="fill:rgb(255,209,1);fill-rule:nonzero;"/>
        </g>
        <g transform="matrix(4.16667,0,0,4.16667,0,0)">
            <path d="M155.942,40.281C169.218,51.235 179.463,65.837 185.175,82.168C188.04,90.32 189.774,98.876 190.332,107.456C190.89,116.016 190.309,124.655 188.555,133.123L133.04,121.624C133.744,118.232 133.988,114.677 133.758,111.152C133.529,107.646 132.831,104.223 131.682,100.947C129.397,94.401 125.231,88.442 119.819,83.977L155.942,40.281Z" style="fill:rgb(255,210,1);fill-rule:nonzero;"/>
        </g>
        <g transform="matrix(4.16667,0,0,4.16667,0,0)">
            <path d="M152.915,37.881C166.631,48.292 177.439,62.463 183.816,78.537C187.011,86.563 189.098,95.043 190.002,103.61C190.908,112.175 190.664,120.783 189.264,129.316L133.326,120.09C133.89,116.671 133.997,113.063 133.624,109.585C133.256,106.106 132.419,102.717 131.135,99.489C128.58,93.037 124.174,87.235 118.587,83.001L152.915,37.881Z" style="fill:rgb(255,210,1);fill-rule:nonzero;"/>
        </g>
        <g transform="matrix(4.16667,0,0,4.16667,0,0)">
            <path d="M149.793,35.604C163.924,45.461 175.287,59.174 182.31,74.966C185.83,82.851 188.265,91.239 189.517,99.773C190.771,108.322 190.866,116.924 189.815,125.486L133.548,118.541C133.977,115.082 133.938,111.464 133.427,108.03C132.921,104.581 131.946,101.228 130.529,98.052C127.713,91.7 123.063,86.076 117.319,82.076L149.793,35.604Z" style="fill:rgb(255,211,1);fill-rule:nonzero;"/>
        </g>
        <g transform="matrix(4.16667,0,0,4.16667,0,0)">
            <path d="M146.579,33.453C161.106,42.736 173.002,55.978 180.661,71.46C184.496,79.192 187.273,87.469 188.875,95.954C190.479,104.453 190.916,113.076 190.21,121.641L133.708,116.978C134.294,109.899 132.962,102.87 129.866,96.639C126.786,90.399 121.908,84.962 116.016,81.203L146.579,33.453Z" style="fill:rgb(255,212,0);fill-rule:nonzero;"/>
        </g>
        <g transform="matrix(4.16667,0,0,4.16667,0,0)">
            <path d="M143.279,31.435C158.183,40.125 170.593,52.881 178.871,68.027C183.016,75.591 186.128,83.745 188.078,92.162C190.029,100.581 190.814,109.235 190.45,117.79L133.807,115.404C134.109,108.302 132.5,101.375 129.143,95.254C125.806,89.135 120.711,83.895 114.679,80.386L143.279,31.435Z" style="fill:rgb(255,212,0);fill-rule:nonzero;"/>
        </g>
        <g transform="matrix(4.16667,0,0,4.16667,0,0)">
            <path d="M139.897,29.55C155.152,37.634 168.065,49.883 176.943,64.671C181.391,72.056 184.833,80.07 187.125,88.403C189.422,96.734 190.558,105.377 190.536,113.942L133.842,113.819C133.863,106.738 131.971,99.891 128.363,93.897C124.776,87.907 119.471,82.881 113.313,79.624L139.897,29.55Z" style="fill:rgb(255,213,0);fill-rule:nonzero;"/>
        </g>
        <g transform="matrix(4.16667,0,0,4.16667,0,0)">
            <path d="M136.442,27.804C152.025,35.264 165.417,46.994 174.884,61.398C179.621,68.595 183.389,76.454 186.019,84.688C188.657,92.917 190.146,101.515 190.468,110.095L133.814,112.233C133.555,105.199 131.382,98.422 127.529,92.57C123.692,86.725 118.196,81.917 111.918,78.92L136.442,27.804Z" style="fill:rgb(255,214,0);fill-rule:nonzero;"/>
        </g>
        <g transform="matrix(4.16667,0,0,4.16667,0,0)">
            <path d="M132.914,26.2C148.799,33.02 162.659,44.21 172.692,58.213C182.767,72.175 188.946,89.063 190.245,106.244L133.723,110.657C133.187,103.674 130.733,96.972 126.639,91.278C122.564,85.583 116.883,81.008 110.498,78.274L132.914,26.2Z" style="fill:rgb(255,214,0);fill-rule:nonzero;"/>
        </g>
        <g transform="matrix(4.16667,0,0,4.16667,0,0)">
            <path d="M129.323,24.74C145.481,30.909 159.792,41.54 170.375,55.12C180.998,68.661 187.866,85.257 189.866,102.399L133.568,109.093C132.755,102.165 130.021,95.55 125.697,90.021C121.391,84.488 115.537,80.157 109.054,77.687L129.323,24.74Z" style="fill:rgb(255,215,0);fill-rule:nonzero;"/>
        </g>
        <g transform="matrix(4.16667,0,0,4.16667,0,0)">
            <path d="M125.676,23.428C142.081,28.928 156.817,38.991 167.937,52.125C179.092,65.223 186.628,81.502 189.331,98.569L133.352,107.543C132.261,100.674 129.254,94.154 124.706,88.802C120.171,83.446 114.164,79.358 107.588,77.16L125.676,23.428Z" style="fill:rgb(255,216,0);fill-rule:nonzero;"/>
        </g>
        <g transform="matrix(4.16667,0,0,4.16667,0,0)">
            <path d="M121.975,22.267C138.594,27.091 153.746,36.555 165.379,49.231C177.05,61.868 185.238,77.801 188.641,94.758L133.074,106.006C131.708,99.201 128.427,92.788 123.663,87.624C118.915,82.449 112.759,78.623 106.102,76.694L121.975,22.267Z" style="fill:rgb(255,217,0);fill-rule:nonzero;"/>
        </g>
        <g transform="matrix(4.16667,0,0,4.16667,0,0)">
            <path d="M118.232,21.258C135.033,25.394 150.575,34.248 162.708,46.443C174.875,58.602 183.696,74.164 187.794,90.974L132.734,104.484C131.093,97.748 127.542,91.456 122.575,86.487C117.618,81.508 111.332,77.945 104.599,76.288L118.232,21.258Z" style="fill:rgb(255,217,0);fill-rule:nonzero;"/>
        </g>
        <g transform="matrix(4.16667,0,0,4.16667,0,0)">
            <path d="M114.452,20.402C131.401,23.842 147.312,32.068 159.925,43.765C172.575,55.425 182.006,70.6 186.793,87.229L132.331,102.98C130.416,96.32 126.606,90.156 121.441,85.396C116.286,80.623 109.881,77.324 103.078,75.944L114.452,20.402Z" style="fill:rgb(255,218,0);fill-rule:nonzero;"/>
        </g>
        <g transform="matrix(4.16667,0,0,4.16667,0,0)">
            <path d="M110.642,19.704C127.703,22.445 143.964,30.016 157.037,41.201C170.147,52.348 180.176,67.109 185.64,83.526L131.868,101.493C129.684,94.914 125.613,88.897 120.265,84.352C114.923,79.79 108.407,76.77 101.542,75.662L110.642,19.704Z" style="fill:rgb(255,219,0);fill-rule:nonzero;"/>
        </g>
        <g transform="matrix(4.16667,0,0,4.16667,0,0)">
            <path d="M106.811,19.161C123.95,21.199 140.529,28.104 154.047,38.755C167.602,49.371 178.205,63.702 184.337,79.875L131.345,100.027C128.89,93.538 124.57,87.677 119.048,83.356C113.528,79.02 106.917,76.272 99.991,75.443L106.811,19.161Z" style="fill:rgb(255,219,0);fill-rule:nonzero;"/>
        </g>
        <g transform="matrix(4.16667,0,0,4.16667,0,0)">
            <path d="M102.966,18.774C120.146,20.11 137.019,26.328 150.959,36.432C164.939,46.495 176.098,60.381 182.884,76.28L130.761,98.581C128.039,92.192 123.48,86.499 117.792,82.412C112.106,78.306 105.409,75.836 98.428,75.285L102.966,18.774Z" style="fill:rgb(255,220,0);fill-rule:nonzero;"/>
        </g>
        <g transform="matrix(4.16667,0,0,4.16667,0,0)">
            <path d="M99.115,18.542C116.3,19.182 133.435,24.693 147.779,34.234C162.162,43.732 173.864,57.149 181.288,72.75L130.118,97.16C127.136,90.876 122.34,85.369 116.502,81.52C110.661,77.652 103.885,75.464 96.854,75.191L99.115,18.542Z" style="fill:rgb(255,221,0);fill-rule:nonzero;"/>
        </g>
        <g transform="matrix(4.16667,0,0,4.16667,0,0)">
            <path d="M95.268,18.465C103.834,18.464 112.476,19.615 120.801,21.933C129.129,24.242 137.134,27.706 144.511,32.166C159.278,41.077 171.498,54.017 179.55,69.289L129.417,95.763C126.174,89.599 121.16,84.284 115.178,80.682C109.19,77.061 102.346,75.154 95.268,75.158L95.268,18.465Z" style="fill:rgb(255,221,0);fill-rule:nonzero;"/>
        </g>
        <g transform="matrix(4.16667,0,0,4.16667,0,0)">
            <path d="M176.808,96.746C176.785,95.061 176.809,1.974 176.809,1.031C176.809,0.73 176.674,0.446 176.44,0.256C176.208,0.066 175.899,-0.011 175.606,0.052L111.592,13.314C111.127,13.41 110.794,13.819 110.794,14.293L110.794,101.224C110.671,101.089 110.545,100.956 110.416,100.825C107.702,98.053 103.89,96.648 99.085,96.648L97.691,96.648C97.636,96.648 97.582,96.653 97.527,96.662C96.963,96.756 96.444,96.803 95.985,96.803C95.941,96.803 95.898,96.806 95.855,96.812C90.157,97.565 85.647,99.786 82.45,103.416C79.25,107.05 77.627,111.157 77.627,115.624C77.627,119.594 78.973,123.009 81.626,125.774C84.288,128.547 88.076,129.952 92.887,129.952L94.281,129.952C94.334,129.952 94.385,129.948 94.437,129.941C95.045,129.845 95.552,129.799 95.985,129.799C96.029,129.799 96.073,129.795 96.116,129.789C101.81,129.04 106.345,126.819 109.595,123.188C112.85,119.555 114.5,115.447 114.5,110.976L114.5,28.737L173.101,16.667L173.101,87.964C172.975,87.824 172.849,87.691 172.726,87.566C170.005,84.795 166.193,83.389 161.396,83.389L159.999,83.389C159.943,83.389 159.887,83.394 159.833,83.403C159.267,83.498 158.75,83.547 158.297,83.547C158.253,83.547 158.21,83.549 158.167,83.555C152.466,84.307 147.955,86.529 144.76,90.161C141.56,93.794 139.937,97.901 139.937,102.367C139.937,106.334 141.283,109.747 143.937,112.514C146.602,115.289 150.389,116.697 155.195,116.697L156.591,116.697C156.646,116.697 156.702,116.692 156.756,116.683C157.314,116.59 157.833,116.542 158.297,116.542C158.341,116.542 158.385,116.539 158.428,116.533C164.124,115.781 168.658,113.56 171.905,109.932C175.159,106.295 176.809,102.186 176.809,97.718L176.813,97.423C176.817,97.195 176.821,96.971 176.808,96.746Z" style="fill:rgb(35,31,32);fill-rule:nonzero;"/>
        </g>
        <g transform="matrix(4.16667,0,0,4.16667,0,0)">
            <path d="M267.242,80.316C270.169,80.316 272.364,79.877 274.023,78.316C275.194,77.194 275.925,75.682 275.925,73.974C275.925,68.267 270.901,67.486 266.462,67.486L258.657,67.486L258.657,80.316L267.242,80.316ZM258.657,57.095L258.657,64.071L265.828,64.071C269.974,64.071 274.267,63.34 274.267,58.705C274.267,53.583 270.364,53.095 265.974,53.095L262.413,53.095C259.974,53.095 258.657,54.266 258.657,57.095ZM280.023,73.389C280.023,76.56 278.95,79.682 276.413,81.487C273.876,83.487 270.267,83.779 267.242,83.779L254.754,83.779L254.754,56.754C254.754,51.144 258.265,49.632 262.9,49.632L267.047,49.632C270.754,49.632 274.267,50.461 276.462,53.144C277.682,54.608 278.414,56.461 278.414,58.315C278.414,61.633 276.511,64.608 273.194,65.486L273.194,65.633C277.047,66.559 280.023,69.486 280.023,73.389Z" style="fill:rgb(249,157,27);fill-rule:nonzero;"/>
        </g>
        <g transform="matrix(4.16667,0,0,4.16667,0,0)">
            <path d="M290.075,76.755C290.075,79.584 291.734,80.902 294.271,80.95C296.417,80.999 297.49,80.609 299.198,79.828L299.442,79.828L299.442,83.682C297.783,84.024 296.32,84.316 294.368,84.316C288.319,84.316 286.27,81.341 286.27,75.535L286.27,48.022L290.075,48.022L290.075,76.755Z" style="fill:rgb(249,157,27);fill-rule:nonzero;"/>
        </g>
        <g transform="matrix(4.16667,0,0,4.16667,0,0)">
            <path d="M319.004,70.12L311.003,71.389C307.881,71.828 305.784,73.389 305.784,76.316C305.784,79.389 307.248,80.853 310.76,80.95C313.98,81.048 316.76,79.779 319.004,78.316L319.004,70.12ZM319.004,66.755L319.004,65.779C319.004,62.266 314.078,60.998 311.248,60.998C308.028,61.047 305.93,61.876 304.37,62.754L304.125,62.754L304.125,58.754C306.272,58.169 308.955,57.681 311.492,57.681C316.76,57.681 322.809,59.437 322.809,65.974L322.809,83.779L319.249,83.779L319.249,81.389L319.004,81.389C316.614,83.341 313.541,84.316 310.37,84.316C305.394,84.316 301.735,81.292 301.735,76.364C301.735,71.779 304.565,69.145 308.663,68.316L319.004,66.755Z" style="fill:rgb(249,157,27);fill-rule:nonzero;"/>
        </g>
        <g transform="matrix(4.16667,0,0,4.16667,0,0)">
            <path d="M328.275,83.194L328.275,79.535L328.52,79.535C329.838,80.17 332.715,80.95 335.545,80.95C339.008,80.95 342.959,80.072 342.959,76.852C342.959,75.194 341.691,74.462 340.082,73.681C337.545,72.56 335.594,71.633 332.91,70.316C330.08,68.949 328.715,66.852 328.715,64.023C328.715,59.193 333.594,57.681 336.959,57.681C339.74,57.681 342.033,58.023 344.424,58.754L344.424,62.217L344.229,62.217C343.008,61.73 340.131,61.047 337.398,61.047C334.959,61.047 332.373,61.876 332.373,63.925C332.373,65.486 333.398,66.071 335.447,66.998C338.033,68.12 340.277,69.145 342.326,70.218C345.301,71.779 346.617,73.73 346.617,76.803C346.617,82.56 341.057,84.316 335.643,84.316C333.301,84.316 330.227,83.828 328.275,83.194Z" style="fill:rgb(249,157,27);fill-rule:nonzero;"/>
        </g>
        <g transform="matrix(4.16667,0,0,4.16667,0,0)">
            <path d="M366.572,83.779L366.572,67.681C366.572,64.803 366.035,61.096 362.084,61.096C360.133,61.096 357.4,62.754 356.133,64.315L356.133,83.779L352.326,83.779L352.326,58.217L355.938,58.217L355.938,60.754L356.133,60.754C358.133,58.656 360.377,57.681 362.377,57.681C365.498,57.681 367.742,58.901 369.254,61.486L369.547,61.486C371.449,59.437 373.791,57.681 376.621,57.681C381.84,57.681 384.475,61.925 384.475,66.803L384.475,83.779L380.67,83.779L380.67,67.681C380.67,64.755 380.084,61.096 376.182,61.096C373.693,61.096 371.596,63.194 370.328,64.803L370.328,83.779L366.572,83.779Z" style="fill:rgb(249,157,27);fill-rule:nonzero;"/>
        </g>
        <g transform="matrix(4.16667,0,0,4.16667,0,0)">
            <path d="M396.137,74.511C396.137,77.974 398.088,80.853 401.895,80.853C403.943,80.853 407.406,79.584 409.602,77.925L409.602,58.217L413.406,58.217L413.406,83.779L409.846,83.779L409.846,81.584L409.602,81.584C406.918,83.292 404.234,84.267 400.918,84.316C395.941,84.218 392.332,80.462 392.332,75.291L392.332,58.217L396.137,58.217L396.137,74.511Z" style="fill:rgb(249,157,27);fill-rule:nonzero;"/>
        </g>
        <g transform="matrix(4.16667,0,0,4.16667,0,0)">
            <path d="M419.166,83.194L419.166,79.535L419.41,79.535C420.727,80.17 423.605,80.95 426.434,80.95C429.898,80.95 433.85,80.072 433.85,76.852C433.85,75.194 432.58,74.462 430.971,73.681C428.434,72.56 426.482,71.633 423.801,70.316C420.971,68.949 419.605,66.852 419.605,64.023C419.605,59.193 424.482,57.681 427.85,57.681C430.629,57.681 432.922,58.023 435.313,58.754L435.313,62.217L435.117,62.217C433.898,61.73 431.02,61.047 428.287,61.047C425.85,61.047 423.264,61.876 423.264,63.925C423.264,65.486 424.287,66.071 426.336,66.998C428.922,68.12 431.166,69.145 433.215,70.218C436.191,71.779 437.508,73.73 437.508,76.803C437.508,82.56 431.947,84.316 426.531,84.316C424.189,84.316 421.117,83.828 419.166,83.194Z" style="fill:rgb(249,157,27);fill-rule:nonzero;"/>
        </g>
        <g transform="matrix(4.16667,0,0,4.16667,0,0)">
            <path d="M447.217,83.779L443.412,83.779L443.412,58.217L447.217,58.217L447.217,83.779ZM447.51,54.608L443.217,54.608L443.217,50.266L447.51,50.266L447.51,54.608Z" style="fill:rgb(249,157,27);fill-rule:nonzero;"/>
        </g>
        <g transform="matrix(4.16667,0,0,4.16667,0,0)">
            <path d="M459.707,83.779L455.9,83.779L455.9,48.022L459.707,48.022L459.707,68.852L471.805,58.217L477.072,58.217L466.34,67.437L478.195,83.779L473.609,83.779L463.609,69.828L459.707,73.194L459.707,83.779Z" style="fill:rgb(249,157,27);fill-rule:nonzero;"/>
        </g>
        <g transform="matrix(4.16667,0,0,4.16667,0,0)">
            <path d="M274.755,97.856L279.779,97.856L266.218,111.319L282.072,132.003L277.145,132.003L263.535,114.002L258.657,118.929L258.657,132.003L254.754,132.003L254.754,97.856L258.657,97.856L258.657,114.099L274.755,97.856Z" style="fill:rgb(35,31,32);fill-rule:nonzero;"/>
        </g>
        <g transform="matrix(4.16667,0,0,4.16667,0,0)">
            <path d="M300.076,109.563C296.759,109.416 293.247,110.636 290.856,112.246L290.856,132.003L287.051,132.003L287.051,106.441L290.661,106.441L290.661,108.782L290.856,108.782C293.247,107.319 296.759,106.051 300.028,105.953L300.076,105.953L300.076,109.563Z" style="fill:rgb(35,31,32);fill-rule:nonzero;"/>
        </g>
        <g transform="matrix(4.16667,0,0,4.16667,0,0)">
            <path d="M320.712,117.368C320.42,113.026 319.005,109.319 313.786,109.319C309.297,109.319 306.664,112.734 305.931,117.368L320.712,117.368ZM323.25,127.222L323.25,131.32C321.152,132.101 318.468,132.491 315.493,132.538C307.395,132.636 301.882,128.003 301.882,119.563C301.882,112.831 306.126,105.904 313.932,105.904C317.103,105.904 319.005,106.831 320.712,108.246C324.176,111.221 324.81,116.295 324.567,120.636L305.834,120.636C306.273,126.101 309.737,129.124 315.639,129.124C319.737,129.124 321.445,128.297 323.054,127.222L323.25,127.222Z" style="fill:rgb(35,31,32);fill-rule:nonzero;"/>
        </g>
        <g transform="matrix(4.16667,0,0,4.16667,0,0)">
            <path d="M335.301,132.003L331.496,132.003L331.496,106.441L335.301,106.441L335.301,132.003ZM335.594,102.831L331.301,102.831L331.301,98.489L335.594,98.489L335.594,102.831Z" style="fill:rgb(35,31,32);fill-rule:nonzero;"/>
        </g>
        <g transform="matrix(4.16667,0,0,4.16667,0,0)">
            <path d="M341.301,131.417L341.301,127.759L341.545,127.759C342.863,128.392 345.74,129.174 348.57,129.174C352.033,129.174 355.984,128.297 355.984,125.075C355.984,123.417 354.717,122.685 353.107,121.905C350.57,120.783 348.619,119.856 345.936,118.539C343.105,117.173 341.74,115.075 341.74,112.246C341.74,107.416 346.619,105.904 349.984,105.904C352.766,105.904 355.059,106.246 357.449,106.977L357.449,110.441L357.254,110.441C356.033,109.953 353.156,109.27 350.424,109.27C347.984,109.27 345.398,110.099 345.398,112.148C345.398,113.709 346.424,114.295 348.473,115.221C351.059,116.343 353.303,117.368 355.352,118.441C358.326,120.002 359.643,121.953 359.643,125.027C359.643,130.782 354.082,132.538 348.668,132.538C346.326,132.538 343.252,132.052 341.301,131.417Z" style="fill:rgb(35,31,32);fill-rule:nonzero;"/>
        </g>
        <g transform="matrix(4.16667,0,0,4.16667,0,0)">
            <path d="M376.232,130.297C375.646,131.71 374.719,132.394 373.256,132.394C371.891,132.345 370.719,131.759 370.184,130.297L361.695,106.441L365.793,106.441L373.354,128.101L373.598,128.101L381.158,106.441L384.867,106.441L376.232,130.297Z" style="fill:rgb(35,31,32);fill-rule:nonzero;"/>
        </g>
        <g transform="matrix(4.16667,0,0,4.16667,0,0)">
            <path d="M406.723,117.368C406.43,113.026 405.016,109.319 399.795,109.319C395.307,109.319 392.674,112.734 391.941,117.368L406.723,117.368ZM409.26,127.222L409.26,131.32C407.162,132.101 404.479,132.491 401.502,132.538C393.404,132.636 387.893,128.003 387.893,119.563C387.893,112.831 392.137,105.904 399.941,105.904C403.113,105.904 405.016,106.831 406.723,108.246C410.186,111.221 410.82,116.295 410.576,120.636L391.844,120.636C392.283,126.101 395.746,129.124 401.648,129.124C405.746,129.124 407.455,128.297 409.064,127.222L409.26,127.222Z" style="fill:rgb(35,31,32);fill-rule:nonzero;"/>
        </g>
        <g transform="matrix(4.16667,0,0,4.16667,0,0)">
            <path d="M430.336,109.563C427.018,109.416 423.506,110.636 421.115,112.246L421.115,132.003L417.311,132.003L417.311,106.441L420.92,106.441L420.92,108.782L421.115,108.782C423.506,107.319 427.018,106.051 430.287,105.953L430.336,105.953L430.336,109.563Z" style="fill:rgb(35,31,32);fill-rule:nonzero;"/>
        </g>
        <g transform="matrix(4.16667,0,0,4.16667,0,0)">
            <path d="M438.629,125.075C438.629,127.905 439.801,129.124 442.24,129.124L443.41,129.124C446.824,129.124 448.873,128.052 450.143,126.489C451.898,124.392 452.143,121.271 452.143,118.441C452.143,116.392 451.703,114.148 450.582,112.392C449.361,110.685 447.361,109.319 444.387,109.319C442.289,109.319 440.385,109.904 438.629,110.489L438.629,125.075ZM444.482,105.904C447.361,105.904 450.338,106.831 452.484,108.88C454.826,111.075 456.191,114.392 456.191,118.441C456.191,123.222 455.117,127.027 452.582,129.515C450.582,131.417 447.703,132.538 443.996,132.538L442.678,132.538C438.238,132.538 434.824,130.782 434.824,125.515L434.824,96.246L438.629,96.246L438.629,107.27C440.58,106.441 442.289,105.904 444.482,105.904Z" style="fill:rgb(35,31,32);fill-rule:nonzero;"/>
        </g>
        <g transform="matrix(4.16667,0,0,4.16667,0,0)">
            <path d="M477.902,118.343L469.902,119.612C466.779,120.051 464.682,121.612 464.682,124.538C464.682,127.613 466.146,129.075 469.658,129.174C472.879,129.271 475.658,128.003 477.902,126.538L477.902,118.343ZM477.902,114.978L477.902,114.002C477.902,110.489 472.977,109.221 470.146,109.221C466.926,109.27 464.828,110.099 463.268,110.977L463.023,110.977L463.023,106.977C465.17,106.392 467.854,105.904 470.391,105.904C475.658,105.904 481.707,107.66 481.707,114.197L481.707,132.003L478.146,132.003L478.146,129.613L477.902,129.613C475.512,131.564 472.439,132.538 469.268,132.538C464.293,132.538 460.633,129.515 460.633,124.587C460.633,120.002 463.463,117.368 467.561,116.539L477.902,114.978Z" style="fill:rgb(35,31,32);fill-rule:nonzero;"/>
        </g>
        <g transform="matrix(4.16667,0,0,4.16667,0,0)">
            <path d="M507.125,115.709C507.125,112.246 505.174,109.368 501.369,109.368C499.32,109.368 495.857,110.636 493.662,112.295L493.662,132.003L489.855,132.003L489.855,106.441L493.418,106.441L493.418,108.636L493.662,108.636C496.344,106.928 499.027,105.953 502.344,105.904C507.32,106.002 510.93,109.758 510.93,114.929L510.93,132.003L507.125,132.003L507.125,115.709Z" style="fill:rgb(35,31,32);fill-rule:nonzero;"/>
        </g>
        <g transform="matrix(4.16667,0,0,4.16667,0,0)">
            <path d="M534.787,110.489C533.031,109.904 531.129,109.319 529.031,109.319C526.057,109.319 524.057,110.685 522.836,112.392C521.715,114.148 521.275,116.392 521.275,118.441C521.275,121.271 521.52,124.392 523.275,126.489C524.543,128.052 526.592,129.124 530.008,129.124L531.178,129.124C533.617,129.124 534.787,127.905 534.787,125.075L534.787,110.489ZM534.787,96.246L538.594,96.246L538.594,125.515C538.594,130.782 535.178,132.538 530.738,132.538L529.422,132.538C525.715,132.538 522.836,131.417 520.836,129.515C518.299,127.027 517.227,123.222 517.227,118.441C517.227,114.392 518.591,111.075 520.934,108.88C523.08,106.831 526.057,105.904 528.934,105.904C531.129,105.904 532.836,106.441 534.787,107.27L534.787,96.246Z" style="fill:rgb(35,31,32);fill-rule:nonzero;"/>
        </g>
        <g transform="matrix(4.16667,0,0,4.16667,0,0)">
            <path d="M273.096,180.226L262.998,180.226C258.413,180.226 254.852,178.812 254.754,173.105L254.754,146.079L258.657,146.079L258.657,172.372C258.657,175.544 259.827,176.714 261.974,176.714L273.096,176.714L273.096,180.226Z" style="fill:rgb(35,31,32);fill-rule:nonzero;"/>
        </g>
        <g transform="matrix(4.16667,0,0,4.16667,0,0)">
            <path d="M281.343,170.958C281.343,174.421 283.294,177.3 287.099,177.3C289.148,177.3 292.612,176.03 294.807,174.372L294.807,154.665L298.612,154.665L298.612,180.226L295.05,180.226L295.05,178.03L294.807,178.03C292.124,179.738 289.441,180.714 286.124,180.763C281.148,180.665 277.538,176.909 277.538,171.738L277.538,154.665L281.343,154.665L281.343,170.958Z" style="fill:rgb(35,31,32);fill-rule:nonzero;"/>
        </g>
        <g transform="matrix(4.16667,0,0,4.16667,0,0)">
            <path d="M322.761,158.714C321.005,158.128 319.103,157.542 317.005,157.542C314.03,157.542 312.03,158.907 310.81,160.616C309.688,162.372 309.249,164.616 309.249,166.665C309.249,169.493 309.493,172.616 311.249,174.714C312.517,176.275 314.566,177.349 317.981,177.349L319.152,177.349C321.591,177.349 322.761,176.128 322.761,173.3L322.761,158.714ZM322.761,144.468L326.567,144.468L326.567,173.738C326.567,179.007 323.152,180.763 318.712,180.763L317.396,180.763C313.688,180.763 310.81,179.642 308.81,177.738C306.273,175.251 305.2,171.445 305.2,166.665C305.2,162.616 306.566,159.298 308.908,157.103C311.054,155.054 314.03,154.128 316.908,154.128C319.103,154.128 320.81,154.665 322.761,155.493L322.761,144.468Z" style="fill:rgb(35,31,32);fill-rule:nonzero;"/>
        </g>
        <g transform="matrix(4.16667,0,0,4.16667,0,0)">
            <path d="M359.742,178.519C359.352,179.933 358.133,180.568 356.668,180.568C355.254,180.568 353.986,179.933 353.547,178.519L349.303,162.519L349.205,162.519L344.863,178.421C344.473,179.835 343.254,180.616 341.84,180.616C340.424,180.616 339.107,179.786 338.766,178.519L331.547,154.665L335.449,154.665L341.938,176.323L342.131,176.323L348.035,154.665L350.814,154.665L356.668,176.323L356.863,176.323L363.4,154.665L367.156,154.665L359.742,178.519Z" style="fill:rgb(35,31,32);fill-rule:nonzero;"/>
        </g>
        <g transform="matrix(4.16667,0,0,4.16667,0,0)">
            <path d="M376.381,180.226L372.576,180.226L372.576,154.665L376.381,154.665L376.381,180.226ZM376.674,151.054L372.381,151.054L372.381,146.712L376.674,146.712L376.674,151.054Z" style="fill:rgb(35,31,32);fill-rule:nonzero;"/>
        </g>
        <g transform="matrix(4.16667,0,0,4.16667,0,0)">
            <path d="M400.773,161.64C400.773,158.714 399.506,157.591 397.115,157.591L395.895,157.591C392.529,157.591 390.48,158.665 389.164,160.226C387.406,162.372 387.211,165.396 387.211,168.226C387.211,170.275 387.65,172.616 388.773,174.372C390.041,176.079 391.943,177.349 394.92,177.349C397.115,177.349 398.92,176.909 400.773,176.323L400.773,161.64ZM402.139,187.056C400.09,190.032 396.822,191.935 392.627,191.935C390.383,191.935 387.992,191.495 385.504,190.568L385.504,186.812L385.699,186.812C387.846,187.886 389.895,188.519 392.334,188.519C398.432,188.519 401.018,183.884 400.92,179.398L400.773,179.398C398.969,180.226 396.92,180.763 394.871,180.763C391.504,180.763 388.773,179.544 386.871,177.786C384.529,175.591 383.162,172.177 383.162,168.226C383.064,163.542 384.285,159.64 386.871,157.2C388.822,155.2 391.748,154.128 395.408,154.128L396.383,154.128C401.066,154.128 404.578,155.884 404.578,161.152L404.578,178.909C404.578,181.982 403.701,184.909 402.139,187.056Z" style="fill:rgb(35,31,32);fill-rule:nonzero;"/>
        </g>
        <g transform="matrix(4.16667,0,0,4.16667,0,0)">
            <path d="M410.629,179.642L410.629,175.982L410.873,175.982C412.191,176.616 415.068,177.398 417.898,177.398C421.361,177.398 425.313,176.519 425.313,173.3C425.313,171.64 424.045,170.909 422.436,170.128C419.898,169.007 417.947,168.079 415.264,166.763C412.434,165.396 411.068,163.298 411.068,160.47C411.068,155.64 415.947,154.128 419.313,154.128C422.094,154.128 424.387,154.47 426.777,155.2L426.777,158.665L426.582,158.665C425.361,158.177 422.484,157.493 419.752,157.493C417.313,157.493 414.727,158.323 414.727,160.372C414.727,161.933 415.752,162.519 417.801,163.445C420.387,164.568 422.631,165.591 424.68,166.665C427.654,168.226 428.971,170.177 428.971,173.251C428.971,179.007 423.41,180.763 417.996,180.763C415.654,180.763 412.58,180.275 410.629,179.642Z" style="fill:rgb(35,31,32);fill-rule:nonzero;"/>
        </g>
        <g transform="matrix(4.16667,0,0,4.16667,0,0)">
            <path d="M438.242,173.3C438.242,176.128 439.412,177.349 441.852,177.349L443.021,177.349C446.438,177.349 448.486,176.275 449.754,174.714C451.51,172.616 451.754,169.493 451.754,166.665C451.754,164.616 451.316,162.372 450.193,160.616C448.975,158.907 446.975,157.542 443.998,157.542C441.9,157.542 439.998,158.128 438.242,158.714L438.242,173.3ZM444.096,154.128C446.975,154.128 449.949,155.054 452.096,157.103C454.438,159.298 455.803,162.616 455.803,166.665C455.803,171.445 454.73,175.251 452.193,177.738C450.193,179.642 447.314,180.763 443.607,180.763L442.291,180.763C437.852,180.763 434.438,179.007 434.438,173.738L434.438,144.468L438.242,144.468L438.242,155.493C440.193,154.665 441.9,154.128 444.096,154.128Z" style="fill:rgb(35,31,32);fill-rule:nonzero;"/>
        </g>
        <g transform="matrix(4.16667,0,0,4.16667,0,0)">
            <path d="M465.709,170.958C465.709,174.421 467.66,177.3 471.467,177.3C473.516,177.3 476.979,176.03 479.174,174.372L479.174,154.665L482.979,154.665L482.979,180.226L479.418,180.226L479.418,178.03L479.174,178.03C476.49,179.738 473.807,180.714 470.49,180.763C465.514,180.665 461.904,176.909 461.904,171.738L461.904,154.665L465.709,154.665L465.709,170.958Z" style="fill:rgb(35,31,32);fill-rule:nonzero;"/>
        </g>
        <g transform="matrix(4.16667,0,0,4.16667,0,0)">
            <path d="M504.445,157.786C501.129,157.64 497.617,158.861 495.227,160.47L495.227,180.226L491.42,180.226L491.42,154.665L495.031,154.665L495.031,157.005L495.227,157.005C497.617,155.542 501.129,154.275 504.396,154.177L504.445,154.177L504.445,157.786Z" style="fill:rgb(35,31,32);fill-rule:nonzero;"/>
        </g>
        <g transform="matrix(4.16667,0,0,4.16667,0,0)">
            <path d="M523.668,161.64C523.668,158.714 522.4,157.591 520.01,157.591L518.789,157.591C515.424,157.591 513.375,158.665 512.059,160.226C510.301,162.372 510.105,165.396 510.105,168.226C510.105,170.275 510.545,172.616 511.668,174.372C512.935,176.079 514.838,177.349 517.814,177.349C520.01,177.349 521.814,176.909 523.668,176.323L523.668,161.64ZM525.033,187.056C522.984,190.032 519.716,191.935 515.521,191.935C513.276,191.935 510.887,191.495 508.398,190.568L508.398,186.812L508.594,186.812C510.74,187.886 512.789,188.519 515.229,188.519C521.326,188.519 523.912,183.884 523.814,179.398L523.668,179.398C521.862,180.226 519.814,180.763 517.766,180.763C514.398,180.763 511.668,179.544 509.766,177.786C507.424,175.591 506.057,172.177 506.057,168.226C505.959,163.542 507.18,159.64 509.766,157.2C511.717,155.2 514.643,154.128 518.302,154.128L519.276,154.128C523.961,154.128 527.473,155.884 527.473,161.152L527.473,178.909C527.473,181.982 526.596,184.909 525.033,187.056Z" style="fill:rgb(35,31,32);fill-rule:nonzero;"/>
        </g>
        <g transform="matrix(4.16667,0,0,4.16667,0,0)">
            <path d="M568.795,165.591C568.502,161.249 567.088,157.542 561.867,157.542C557.379,157.542 554.746,160.958 554.014,165.591L568.795,165.591ZM571.332,175.447L571.332,179.544C569.234,180.323 566.551,180.714 563.574,180.763C555.477,180.861 549.965,176.226 549.965,167.786C549.965,161.054 554.209,154.128 562.014,154.128C565.186,154.128 567.088,155.054 568.795,156.47C572.258,159.445 572.893,164.519 572.648,168.861L553.916,168.861C554.355,174.323 557.818,177.349 563.721,177.349C567.818,177.349 569.527,176.519 571.137,175.447L571.332,175.447Z" style="fill:rgb(35,31,32);fill-rule:nonzero;"/>
        </g>
        <g transform="matrix(4.16667,0,0,4.16667,0,0)">
            <rect x="580.115" y="174.714" width="4.391" height="5.512" style="fill:rgb(35,31,32);fill-rule:nonzero;"/>
        </g>
        <g transform="matrix(4.16667,0,0,4.16667,0,0)">
            <path d="M607.922,178.226C607.434,179.642 606.361,180.616 604.801,180.616C603.287,180.616 601.922,179.691 601.385,178.226L590.215,146.079L594.41,146.079L604.801,176.275L604.947,176.275L615.387,146.079L619.094,146.079L607.922,178.226Z" style="fill:rgb(35,31,32);fill-rule:nonzero;"/>
        </g>
        <g transform="matrix(4.16667,0,0,4.16667,0,0)">
            <rect x="622.607" y="174.714" width="4.391" height="5.512" style="fill:rgb(35,31,32);fill-rule:nonzero;"/>
        </g>
        <g transform="matrix(4.16667,0,0,4.16667,0,0)">
            <path d="M26.698,120.134L14.863,109.346L14.701,102.04L27.063,113.865L44.063,99.96L44.222,107.14L30.97,117.644L33.501,119.982L44.502,119.738L44.628,125.406L15.234,126.058L15.109,120.391L26.656,120.134L26.698,120.134Z" style="fill:white;fill-rule:nonzero;"/>
        </g>
        <g transform="matrix(4.16667,0,0,4.16667,0,0)">
            <path d="M25.291,73.59L27.538,68.613L48.279,88.305C49.53,89.516 49.917,91.212 49.246,92.798C48.519,94.405 46.902,95.334 45.132,95.272L16.646,92.73L19.136,87.217L42.504,89.661L25.291,73.59Z" style="fill:white;fill-rule:nonzero;"/>
        </g>
        <g transform="matrix(4.16667,0,0,4.16667,0,0)">
            <path d="M34.776,60.478L38.855,56.542L54.779,73.038C55.274,73.55 56.135,73.597 56.649,73.101L63.779,66.218L67.337,69.904L59.361,77.604C57.064,79.82 53.383,79.755 51.196,77.489L34.776,60.478Z" style="fill:white;fill-rule:nonzero;"/>
        </g>
        <g transform="matrix(4.16667,0,0,4.16667,0,0)">
            <path d="M75.563,52.794C73.978,53.352 72.829,53.757 71.245,54.316C72.137,56.851 73.031,59.386 73.924,61.922C75.668,61.308 77.015,60.833 78.758,60.219C81.65,59.199 83.768,58.008 82.551,54.428C81.354,51.154 78.455,51.775 75.563,52.794ZM69.681,49.879L73.484,48.538C75.663,47.77 78.515,46.765 77.426,43.674C76.519,41.099 74.555,41.213 71.425,42.316L68.731,43.265C68.018,43.515 67.712,44.293 67.991,45.085L69.681,49.879ZM62.418,46.202C61.371,43.231 62.896,39.977 65.907,38.916C67.017,38.525 67.73,38.274 68.839,37.883C71.454,36.961 74.251,35.798 77.079,36.494C79.707,37.126 81.822,38.831 82.687,41.287C83.524,43.664 83.359,46.483 80.863,48.121C84.326,47.836 86.914,49.24 88.17,52.805C88.91,54.905 88.878,56.965 88.011,59.051C86.632,62.344 83.523,63.883 80.353,65.001C76.868,66.23 73.777,67.319 70.291,68.546L62.418,46.202Z" style="fill:white;fill-rule:nonzero;"/>
        </g>
    </g>
    <defs>
        <linearGradient id="_Linear1" x1="0" y1="0" x2="1" y2="0" gradientUnits="userSpaceOnUse" gradientTransform="matrix(76.7207,0,0,76.7207,166.764,62.5593)"><stop offset="0" style="stop-color:rgb(35,31,32);stop-opacity:1"/><stop offset="0.3" style="stop-color:rgb(35,31,32);stop-opacity:1"/><stop offset="0.4" style="stop-color:rgb(66,65,67);stop-opacity:1"/><stop offset="1" style="stop-color:white;stop-opacity:1"/></linearGradient>
        <linearGradient id="_Linear2" x1="0" y1="0" x2="1" y2="0" gradientUnits="userSpaceOnUse" gradientTransform="matrix(76.7207,0,0,76.7207,166.764,89.489)"><stop offset="0" style="stop-color:rgb(35,31,32);stop-opacity:1"/><stop offset="0.3" style="stop-color:rgb(35,31,32);stop-opacity:1"/><stop offset="0.4" style="stop-color:rgb(66,65,67);stop-opacity:1"/><stop offset="1" style="stop-color:white;stop-opacity:1"/></linearGradient>
        <linearGradient id="_Linear3" x1="0" y1="0" x2="1" y2="0" gradientUnits="userSpaceOnUse" gradientTransform="matrix(76.7207,0,0,76.7207,166.764,116.418)"><stop offset="0" style="stop-color:rgb(35,31,32);stop-opacity:1"/><stop offset="0.3" style="stop-color:rgb(35,31,32);stop-opacity:1"/><stop offset="0.4" style="stop-color:rgb(66,65,67);stop-opacity:1"/><stop offset="1" style="stop-color:white;stop-opacity:1"/></linearGradient>
        <linearGradient id="_Linear4" x1="0" y1="0" x2="1" y2="0" gradientUnits="userSpaceOnUse" gradientTransform="matrix(76.7207,0,0,76.7207,166.764,143.347)"><stop offset="0" style="stop-color:rgb(35,31,32);stop-opacity:1"/><stop offset="0.3" style="stop-color:rgb(35,31,32);stop-opacity:1"/><stop offset="0.4" style="stop-color:rgb(66,65,67);stop-opacity:1"/><stop offset="1" style="stop-color:white;stop-opacity:1"/></linearGradient>
        <linearGradient id="_Linear5" x1="0" y1="0" x2="1" y2="0" gradientUnits="userSpaceOnUse" gradientTransform="matrix(76.7207,0,0,76.7207,166.764,170.276)"><stop offset="0" style="stop-color:rgb(35,31,32);stop-opacity:1"/><stop offset="0.3" style="stop-color:rgb(35,31,32);stop-opacity:1"/><stop offset="0.4" style="stop-color:rgb(66,65,67);stop-opacity:1"/><stop offset="1" style="stop-color:white;stop-opacity:1"/></linearGradient>
    </defs>
</svg>
