<?xml version="1.0" encoding="UTF-8" standalone="no"?>
<!DOCTYPE svg PUBLIC "-//W3C//DTD SVG 1.1//EN" "http://www.w3.org/Graphics/SVG/1.1/DTD/svg11.dtd">
<svg width="100%" height="100%" viewBox="0 0 440 180" version="1.1" xmlns="http://www.w3.org/2000/svg" xmlns:xlink="http://www.w3.org/1999/xlink" xml:space="preserve" xmlns:serif="http://www.serif.com/" style="fill-rule:evenodd;clip-rule:evenodd;stroke-linejoin:round;stroke-miterlimit:2;">
    <g transform="matrix(1,0,0,1,-30,-160)">
        <clipPath id="_clip1">
            <rect x="50.667" y="182.667" width="107.333" height="134.667"/>
        </clipPath>
        <g clip-path="url(#_clip1)">
            <path d="M98.115,226.026C98.719,224.432 99.5,222.927 100.458,221.51C101.422,220.099 102.536,218.823 103.802,217.677C105.068,216.531 106.453,215.552 107.953,214.734C109.453,213.922 111.031,213.297 112.682,212.854C127.073,208.745 141.422,216.583 144.292,231.932C145.464,238.146 143.823,244.26 141.25,250.063C137.781,257.891 132.177,263.979 125.875,269.609C118.297,276.333 109.724,281.589 101.026,286.854C100.677,287.12 100.307,287.354 99.917,287.552C96.714,288.797 96.578,291.281 96.875,294.26C97.547,300.813 97.198,307.297 94.167,313.365C93.979,313.75 93.781,314.135 93.557,314.505C91.901,317.214 89.828,317.411 87.094,315.51C81.49,311.635 79.042,305.672 77.151,299.505C75.266,293.344 75.599,287.302 76.036,281.115C76.146,279.625 76.156,278.135 76.245,276.63C76.245,275.688 75.589,275.323 75.005,274.875C70.396,271.896 66.104,268.51 62.13,264.724C58.302,260.859 54.76,256.771 52.948,251.552C50.016,242.927 50.198,234.453 55.281,226.698C56.229,225.156 57.313,223.719 58.542,222.385C59.766,221.052 61.104,219.844 62.563,218.771C64.016,217.693 65.563,216.766 67.198,215.99C68.833,215.214 70.526,214.599 72.281,214.151C74.703,213.641 77.146,213.479 79.615,213.677C80.693,213.677 81.104,213.453 81.156,212.25C81.318,207.911 81.786,203.547 81.74,199.224C81.688,194.901 80.63,191.021 76.766,188.563C73.401,186.375 69.807,186.995 66.266,188.401C65.995,188.51 65.51,188.672 65.594,189.047C65.682,189.422 66.245,189.495 66.651,189.583C70.542,190.375 72.245,192.068 72.74,196.042C72.891,196.807 72.922,197.578 72.844,198.349C72.76,199.125 72.568,199.87 72.266,200.589C71.964,201.307 71.563,201.964 71.063,202.563C70.563,203.156 69.99,203.672 69.339,204.094C66.552,205.932 63.635,205.573 60.813,204.094C56.833,202.047 55.505,197.557 56.573,192.823C56.865,191.589 57.333,190.427 57.984,189.339C58.635,188.25 59.438,187.281 60.391,186.443C61.339,185.599 62.396,184.922 63.552,184.411C64.714,183.896 65.927,183.568 67.188,183.432C69.583,183.01 71.969,183.073 74.344,183.625C76.714,184.177 78.885,185.167 80.854,186.599C82.292,187.682 83.406,189.026 84.203,190.635C85.005,192.245 85.401,193.948 85.391,195.745C85.469,201.599 85.229,207.438 84.672,213.266C84.672,214.047 84.672,214.51 85.479,214.818C86.839,215.229 88.13,215.781 89.37,216.479C90.604,217.172 91.75,217.995 92.802,218.943C93.854,219.891 94.792,220.943 95.615,222.099C96.432,223.255 97.12,224.484 97.667,225.792C97.781,225.865 97.891,225.891 98.115,226.026ZM99.01,237.885C98.813,238.391 98.661,238.693 98.578,239C96.365,247.354 91.307,251.688 82.797,252.536C82.01,252.609 81.74,252.859 81.677,253.651C81.479,256.401 81.203,259.135 80.896,261.865C80.63,264.214 80.896,266.042 83.182,267.646C86.339,269.745 89.01,272.339 91.203,275.432C93.396,278.521 94.958,281.906 95.891,285.578C96.214,286.818 96.75,286.198 97.245,285.813C103.458,280.99 109.672,276.234 115.052,270.568C122.906,262.375 128.995,253.266 130.563,241.672C131.604,234.219 130.875,227.172 126.672,220.724C126.016,219.51 125.099,218.542 123.927,217.813C121.443,216.516 118.823,216.099 116.063,216.573C112.208,217.167 108.469,218.089 105.672,221.109C104.724,222.052 104.078,223.172 103.734,224.464C103.333,226.177 104.146,226.948 105.87,226.516C106.901,226.276 107.948,226.068 108.99,225.917C115.354,224.974 120.089,230.49 117.76,236.255C115.813,241.141 112.443,242.667 106.005,241.958C104.604,241.807 103.297,241.375 102.078,240.667C100.854,239.958 99.833,239.026 99.01,237.885ZM76.953,217.156C73.37,216.995 70.057,217.865 67.01,219.766C62.677,222.401 59.224,225.792 57.891,230.865C57.521,232.297 57.302,233.75 57.245,235.229C57.188,236.708 57.286,238.177 57.542,239.635C57.802,241.089 58.214,242.505 58.776,243.875C59.339,245.24 60.042,246.531 60.885,247.75C63.396,251.349 66.406,254.458 69.922,257.083C71.984,258.75 74.094,260.365 76.135,261.979C76.432,262.214 76.766,262.573 77.167,262.349C77.563,262.13 77.302,261.729 77.328,261.406C77.516,258.807 77.625,256.214 77.901,253.615C77.948,253.37 77.948,253.12 77.901,252.87C77.849,252.625 77.755,252.396 77.609,252.188C77.469,251.979 77.292,251.807 77.078,251.672C76.865,251.536 76.63,251.448 76.38,251.406C73.51,250.339 71.104,248.63 69.151,246.271C68.516,245.557 67.953,244.797 67.464,243.979C66.969,243.161 66.557,242.313 66.219,241.417C65.885,240.526 65.635,239.609 65.469,238.672C65.297,237.734 65.219,236.792 65.224,235.839C65.229,234.885 65.323,233.943 65.505,233.005C65.682,232.068 65.948,231.156 66.297,230.271C66.641,229.385 67.068,228.536 67.568,227.729C68.073,226.917 68.646,226.161 69.286,225.458C70.594,223.995 72.214,223.104 74.146,222.786C74.865,222.661 75.661,222.672 75.984,223.505C76.307,224.339 75.797,224.75 75.151,225.146C75.021,225.219 74.896,225.297 74.781,225.38C71.75,227.484 70.068,230.354 70.792,234.083C70.927,235.01 71.193,235.896 71.589,236.745C71.984,237.594 72.495,238.37 73.115,239.073C73.734,239.771 74.443,240.37 75.24,240.87C76.036,241.365 76.885,241.734 77.786,241.984C78.719,242.271 79.031,241.984 79.031,241.089C79.104,239.401 79.229,237.708 79.354,236.031C79.74,230.938 80.234,225.844 80.458,220.734C80.63,216.781 81.24,217.281 77.354,217.208C77.24,217.146 77.13,217.156 76.953,217.156ZM79.839,278.703C79.745,278.958 79.667,279.214 79.599,279.474C79.359,281.469 79.328,283.469 79.5,285.469C79.667,287.469 80.042,289.432 80.615,291.354C81.193,293.281 81.958,295.125 82.911,296.891C83.865,298.656 84.99,300.307 86.286,301.844C87.042,302.698 87.974,303.286 89.068,303.609C89.276,303.698 89.49,303.766 89.714,303.802C89.932,303.844 90.156,303.854 90.38,303.844C90.604,303.828 90.828,303.792 91.042,303.724C91.255,303.656 91.464,303.568 91.656,303.453C91.849,303.339 92.026,303.203 92.188,303.042C92.349,302.885 92.49,302.714 92.609,302.521C92.729,302.333 92.828,302.13 92.896,301.917C92.969,301.703 93.016,301.484 93.036,301.26C93.292,300.318 93.375,299.359 93.281,298.391C91.891,289.792 86.833,283.724 79.839,278.703ZM92.266,229.818C92.271,228.76 92.141,227.719 91.865,226.698C91.49,224.974 90.745,223.427 89.63,222.057C88.521,220.688 87.161,219.635 85.552,218.906C84.698,218.536 84.313,218.609 84.25,219.714C83.74,226.734 83.203,233.76 82.547,240.755C82.411,242.255 82.818,242.198 83.974,241.896C84.615,241.714 85.229,241.479 85.828,241.188C86.422,240.896 86.99,240.557 87.531,240.172C88.068,239.781 88.568,239.354 89.031,238.88C89.495,238.401 89.917,237.891 90.292,237.344C90.667,236.802 90.995,236.224 91.271,235.62C91.547,235.021 91.771,234.396 91.938,233.755C92.109,233.115 92.219,232.464 92.276,231.802C92.333,231.141 92.333,230.479 92.276,229.818L92.266,229.818ZM158.026,242.245C158.042,241.865 158.021,241.484 157.958,241.104C157.896,240.729 157.792,240.359 157.656,240.005C157.516,239.646 157.344,239.307 157.135,238.99C156.927,238.667 156.682,238.375 156.417,238.104C156.146,237.833 155.849,237.594 155.526,237.385C155.208,237.172 154.87,237 154.51,236.859C154.156,236.724 153.786,236.625 153.411,236.563C153.031,236.5 152.656,236.474 152.271,236.49C151.62,236.547 150.995,236.719 150.401,237C149.807,237.281 149.281,237.656 148.828,238.13C148.37,238.599 148.01,239.135 147.745,239.74C147.484,240.339 147.339,240.969 147.302,241.625C147.302,245.464 149.167,247.401 153.042,247.438C153.385,247.458 153.729,247.438 154.068,247.38C154.406,247.323 154.734,247.229 155.057,247.104C155.375,246.974 155.677,246.813 155.964,246.62C156.245,246.427 156.51,246.208 156.745,245.958C156.984,245.708 157.188,245.438 157.37,245.141C157.547,244.849 157.693,244.536 157.802,244.214C157.917,243.885 157.99,243.552 158.031,243.208C158.068,242.87 158.073,242.526 158.036,242.182L158.026,242.245ZM151.552,227.594C152.224,227.568 152.865,227.417 153.479,227.141C154.094,226.87 154.635,226.495 155.109,226.021C155.583,225.542 155.953,225 156.219,224.38C156.49,223.766 156.635,223.12 156.656,222.448C156.635,221.755 156.484,221.089 156.208,220.453C155.932,219.818 155.547,219.255 155.057,218.76C154.563,218.271 154,217.891 153.359,217.615C152.724,217.339 152.057,217.193 151.365,217.167C151.021,217.141 150.677,217.151 150.333,217.198C149.99,217.25 149.656,217.328 149.333,217.448C149.005,217.568 148.698,217.714 148.406,217.901C148.109,218.083 147.839,218.297 147.594,218.536C147.344,218.776 147.125,219.042 146.932,219.328C146.74,219.615 146.578,219.917 146.448,220.24C146.323,220.563 146.229,220.891 146.172,221.234C146.115,221.573 146.094,221.917 146.109,222.266C146.109,222.62 146.141,222.969 146.214,223.318C146.281,223.667 146.385,224 146.526,224.328C146.661,224.656 146.828,224.969 147.031,225.26C147.229,225.552 147.453,225.823 147.708,226.073C147.964,226.323 148.24,226.542 148.536,226.734C148.833,226.927 149.146,227.089 149.474,227.219C149.807,227.354 150.146,227.448 150.495,227.51C150.844,227.573 151.198,227.604 151.552,227.594Z" style="fill:rgb(242,149,3);fill-rule:nonzero;"/>
        </g>
    </g>
    <g transform="matrix(1,0,0,1,127.285,112.758)">
        <g>
            <g>
                <path d="M3.354,-33.646L12.875,-33.646L12.875,-7.542L28.938,-7.542L28.938,0L3.354,0L3.354,-33.646Z" style="fill:rgb(254,214,0);fill-rule:nonzero;"/>
            </g>
        </g>
    </g>
    <g transform="matrix(1,0,0,1,151.888,112.758)">
        <g>
            <g>
                <path d="M30.333,-26.042L30.333,0L21.625,0L21.625,-2.792C20.667,-1.734 19.51,-0.927 18.167,-0.375C16.818,0.167 15.396,0.438 13.896,0.438C10.521,0.438 7.833,-0.552 5.833,-2.542C3.833,-4.526 2.833,-7.505 2.833,-11.479L2.833,-26.042L11.958,-26.042L11.958,-12.979C11.958,-11.021 12.323,-9.589 13.063,-8.687C13.813,-7.797 14.885,-7.354 16.292,-7.354C17.734,-7.354 18.906,-7.854 19.813,-8.854C20.729,-9.865 21.188,-11.417 21.188,-13.5L21.188,-26.042L30.333,-26.042Z" style="fill:rgb(254,214,0);fill-rule:nonzero;"/>
            </g>
        </g>
    </g>
    <g transform="matrix(1,0,0,1,180.432,112.758)">
        <g>
            <g>
                <path d="M30.625,-35.667L30.625,0L21.917,0L21.917,-2.604C20.219,-0.573 17.672,0.438 14.271,0.438C11.896,0.438 9.729,-0.109 7.771,-1.208C5.823,-2.318 4.281,-3.901 3.146,-5.958C2.005,-8.01 1.438,-10.385 1.438,-13.083C1.438,-15.76 2.005,-18.115 3.146,-20.146C4.281,-22.187 5.823,-23.75 7.771,-24.833C9.729,-25.927 11.896,-26.479 14.271,-26.479C17.38,-26.479 19.781,-25.583 21.479,-23.792L21.479,-35.667L30.625,-35.667ZM16.188,-6.833C17.771,-6.833 19.068,-7.38 20.083,-8.479C21.109,-9.589 21.625,-11.125 21.625,-13.083C21.625,-15 21.115,-16.5 20.104,-17.583C19.104,-18.677 17.797,-19.229 16.188,-19.229C14.589,-19.229 13.276,-18.677 12.25,-17.583C11.219,-16.5 10.708,-15 10.708,-13.083C10.708,-11.125 11.219,-9.589 12.25,-8.479C13.276,-7.38 14.589,-6.833 16.188,-6.833Z" style="fill:rgb(254,214,0);fill-rule:nonzero;"/>
            </g>
        </g>
    </g>
    <g transform="matrix(1,0,0,1,209.264,112.758)">
        <g>
            <g>
                <path d="M46.083,-26.042L36.813,0L27.979,0L23.063,-14.187L17.979,0L9.125,0L-0.146,-26.042L8.5,-26.042L13.833,-10.292L19.375,-26.042L27.146,-26.042L32.542,-10.146L38.063,-26.042L46.083,-26.042Z" style="fill:rgb(254,214,0);fill-rule:nonzero;"/>
            </g>
        </g>
    </g>
    <g transform="matrix(1,0,0,1,250.493,112.758)">
        <g>
            <g>
                <path d="M2.938,-26.042L12.063,-26.042L12.063,0L2.938,0L2.938,-26.042ZM7.5,-28.937C5.833,-28.937 4.484,-29.401 3.458,-30.333C2.427,-31.26 1.917,-32.417 1.917,-33.792C1.917,-35.167 2.427,-36.318 3.458,-37.25C4.484,-38.177 5.833,-38.646 7.5,-38.646C9.167,-38.646 10.51,-38.198 11.542,-37.312C12.568,-36.437 13.083,-35.312 13.083,-33.937C13.083,-32.49 12.568,-31.297 11.542,-30.354C10.51,-29.406 9.167,-28.937 7.5,-28.937Z" style="fill:rgb(254,214,0);fill-rule:nonzero;"/>
            </g>
        </g>
    </g>
    <g transform="matrix(1,0,0,1,260.825,112.758)">
        <g>
            <g>
                <path d="M30.958,-26.042L30.958,-4.75C30.958,0.083 29.635,3.708 27,6.125C24.375,8.542 20.594,9.75 15.667,9.75C13.109,9.75 10.708,9.458 8.458,8.875C6.219,8.302 4.313,7.464 2.729,6.354L6.063,-0.042C7.115,0.818 8.448,1.49 10.063,1.979C11.688,2.479 13.281,2.729 14.854,2.729C17.255,2.729 19.01,2.198 20.125,1.146C21.25,0.089 21.813,-1.479 21.813,-3.562L21.813,-4.417C20.047,-2.375 17.469,-1.354 14.083,-1.354C11.776,-1.354 9.646,-1.875 7.688,-2.917C5.729,-3.958 4.172,-5.427 3.021,-7.333C1.865,-9.234 1.292,-11.437 1.292,-13.937C1.292,-16.406 1.865,-18.594 3.021,-20.5C4.172,-22.401 5.729,-23.875 7.688,-24.917C9.646,-25.958 11.776,-26.479 14.083,-26.479C17.802,-26.479 20.526,-25.276 22.25,-22.875L22.25,-26.042L30.958,-26.042ZM16.25,-8.604C17.875,-8.604 19.219,-9.094 20.292,-10.083C21.375,-11.083 21.917,-12.365 21.917,-13.937C21.917,-15.505 21.385,-16.776 20.333,-17.75C19.276,-18.734 17.917,-19.229 16.25,-19.229C14.583,-19.229 13.208,-18.734 12.125,-17.75C11.052,-16.776 10.521,-15.505 10.521,-13.937C10.521,-12.365 11.063,-11.083 12.146,-10.083C13.24,-9.094 14.609,-8.604 16.25,-8.604Z" style="fill:rgb(254,214,0);fill-rule:nonzero;"/>
            </g>
        </g>
    </g>
    <g transform="matrix(1,0,0,1,289.993,112.758)">
        <g>
            <g>
                <path d="M12.396,0.438C10.214,0.438 8.068,0.188 5.958,-0.312C3.844,-0.812 2.151,-1.458 0.875,-2.25L3.604,-8.5C4.781,-7.76 6.193,-7.177 7.833,-6.75C9.469,-6.318 11.089,-6.104 12.688,-6.104C14.156,-6.104 15.208,-6.255 15.833,-6.562C16.458,-6.865 16.771,-7.302 16.771,-7.875C16.771,-8.458 16.396,-8.865 15.646,-9.104C14.896,-9.339 13.698,-9.573 12.063,-9.812C9.979,-10.062 8.208,-10.396 6.75,-10.812C5.292,-11.229 4.031,-12 2.979,-13.125C1.922,-14.25 1.396,-15.818 1.396,-17.833C1.396,-19.5 1.885,-20.979 2.875,-22.271C3.875,-23.573 5.323,-24.604 7.229,-25.354C9.13,-26.104 11.417,-26.479 14.083,-26.479C15.969,-26.479 17.844,-26.281 19.708,-25.896C21.568,-25.521 23.125,-24.979 24.375,-24.271L21.625,-18.062C19.318,-19.354 16.818,-20 14.125,-20C12.677,-20 11.625,-19.823 10.958,-19.479C10.292,-19.146 9.958,-18.708 9.958,-18.167C9.958,-17.552 10.323,-17.13 11.063,-16.896C11.797,-16.656 13.01,-16.406 14.708,-16.146C16.859,-15.823 18.635,-15.458 20.042,-15.042C21.458,-14.625 22.677,-13.859 23.708,-12.75C24.75,-11.651 25.271,-10.109 25.271,-8.125C25.271,-6.484 24.771,-5.01 23.771,-3.708C22.781,-2.417 21.318,-1.401 19.375,-0.667C17.443,0.068 15.115,0.438 12.396,0.438Z" style="fill:rgb(254,214,0);fill-rule:nonzero;"/>
            </g>
        </g>
    </g>
    <g transform="matrix(1,0,0,1,311.569,112.758)">
        <g>
            <g>
                <path d="M19.313,-26.479C21.688,-26.479 23.839,-25.927 25.771,-24.833C27.714,-23.75 29.255,-22.187 30.396,-20.146C31.531,-18.115 32.104,-15.76 32.104,-13.083C32.104,-10.385 31.531,-8.01 30.396,-5.958C29.255,-3.901 27.714,-2.318 25.771,-1.208C23.839,-0.109 21.688,0.438 19.313,0.438C15.896,0.438 13.333,-0.573 11.625,-2.604L11.625,0L2.938,0L2.938,-35.667L12.063,-35.667L12.063,-23.792C13.823,-25.583 16.24,-26.479 19.313,-26.479ZM17.396,-6.833C18.99,-6.833 20.302,-7.38 21.333,-8.479C22.359,-9.589 22.875,-11.125 22.875,-13.083C22.875,-15 22.359,-16.5 21.333,-17.583C20.302,-18.677 18.99,-19.229 17.396,-19.229C15.797,-19.229 14.484,-18.677 13.458,-17.583C12.427,-16.5 11.917,-15 11.917,-13.083C11.917,-11.125 12.427,-9.589 13.458,-8.479C14.484,-7.38 15.797,-6.833 17.396,-6.833Z" style="fill:rgb(254,214,0);fill-rule:nonzero;"/>
            </g>
        </g>
    </g>
    <g transform="matrix(1,0,0,1,340.257,112.758)">
        <g>
            <g>
                <path d="M30.333,-26.042L30.333,0L21.625,0L21.625,-2.792C20.667,-1.734 19.51,-0.927 18.167,-0.375C16.818,0.167 15.396,0.438 13.896,0.438C10.521,0.438 7.833,-0.552 5.833,-2.542C3.833,-4.526 2.833,-7.505 2.833,-11.479L2.833,-26.042L11.958,-26.042L11.958,-12.979C11.958,-11.021 12.323,-9.589 13.063,-8.687C13.813,-7.797 14.885,-7.354 16.292,-7.354C17.734,-7.354 18.906,-7.854 19.813,-8.854C20.729,-9.865 21.188,-11.417 21.188,-13.5L21.188,-26.042L30.333,-26.042Z" style="fill:rgb(254,214,0);fill-rule:nonzero;"/>
            </g>
        </g>
    </g>
    <g transform="matrix(1,0,0,1,368.8,112.758)">
        <g>
            <g>
                <path d="M11.625,-22.917C12.552,-24.109 13.76,-25 15.25,-25.583C16.75,-26.177 18.458,-26.479 20.375,-26.479L20.375,-18.271C19.542,-18.365 18.854,-18.417 18.313,-18.417C16.354,-18.417 14.818,-17.88 13.708,-16.812C12.609,-15.755 12.063,-14.135 12.063,-11.958L12.063,0L2.938,0L2.938,-26.042L11.625,-26.042L11.625,-22.917Z" style="fill:rgb(254,214,0);fill-rule:nonzero;"/>
            </g>
        </g>
    </g>
    <g transform="matrix(1,0,0,1,385.378,112.758)">
        <g>
            <g>
                <path d="M30.958,-26.042L30.958,-4.75C30.958,0.083 29.635,3.708 27,6.125C24.375,8.542 20.594,9.75 15.667,9.75C13.109,9.75 10.708,9.458 8.458,8.875C6.219,8.302 4.313,7.464 2.729,6.354L6.063,-0.042C7.115,0.818 8.448,1.49 10.063,1.979C11.688,2.479 13.281,2.729 14.854,2.729C17.255,2.729 19.01,2.198 20.125,1.146C21.25,0.089 21.813,-1.479 21.813,-3.562L21.813,-4.417C20.047,-2.375 17.469,-1.354 14.083,-1.354C11.776,-1.354 9.646,-1.875 7.688,-2.917C5.729,-3.958 4.172,-5.427 3.021,-7.333C1.865,-9.234 1.292,-11.437 1.292,-13.937C1.292,-16.406 1.865,-18.594 3.021,-20.5C4.172,-22.401 5.729,-23.875 7.688,-24.917C9.646,-25.958 11.776,-26.479 14.083,-26.479C17.802,-26.479 20.526,-25.276 22.25,-22.875L22.25,-26.042L30.958,-26.042ZM16.25,-8.604C17.875,-8.604 19.219,-9.094 20.292,-10.083C21.375,-11.083 21.917,-12.365 21.917,-13.937C21.917,-15.505 21.385,-16.776 20.333,-17.75C19.276,-18.734 17.917,-19.229 16.25,-19.229C14.583,-19.229 13.208,-18.734 12.125,-17.75C11.052,-16.776 10.521,-15.505 10.521,-13.937C10.521,-12.365 11.063,-11.083 12.146,-10.083C13.24,-9.094 14.609,-8.604 16.25,-8.604Z" style="fill:rgb(254,214,0);fill-rule:nonzero;"/>
            </g>
        </g>
    </g>
    <g transform="matrix(1,0,0,1,127.285,78.4112)">
        <g>
            <g>
                <path d="M15.917,-15.812L9.042,-8.833L9.042,0L5.479,0L5.479,-33.646L9.042,-33.646L9.042,-13.312L28.792,-33.646L32.875,-33.646L18.313,-18.417L33.875,0L29.646,0L15.917,-15.812Z" style="fill-rule:nonzero;"/>
            </g>
        </g>
    </g>
    <g transform="matrix(1,0,0,1,156.742,78.4112)">
        <g>
            <g>
                <path d="M8.021,-20.333C8.823,-22.026 10.021,-23.302 11.604,-24.167C13.188,-25.042 15.151,-25.479 17.5,-25.479L17.5,-22.167L16.688,-22.208C14.021,-22.208 11.927,-21.385 10.417,-19.75C8.917,-18.125 8.167,-15.833 8.167,-12.875L8.167,0L4.75,0L4.75,-25.271L8.021,-25.271L8.021,-20.333Z" style="fill-rule:nonzero;"/>
            </g>
        </g>
    </g>
    <g transform="matrix(1,0,0,1,171.302,78.4112)">
        <g>
            <g>
                <path d="M26.771,-11.583L5.625,-11.583C5.818,-8.958 6.823,-6.833 8.646,-5.208C10.479,-3.594 12.781,-2.792 15.563,-2.792C17.146,-2.792 18.589,-3.068 19.896,-3.625C21.214,-4.193 22.354,-5.021 23.313,-6.104L25.229,-3.896C24.104,-2.547 22.698,-1.521 21.021,-0.812C19.339,-0.104 17.49,0.25 15.479,0.25C12.88,0.25 10.583,-0.302 8.583,-1.417C6.583,-2.526 5.021,-4.052 3.896,-6C2.771,-7.958 2.208,-10.172 2.208,-12.646C2.208,-15.104 2.74,-17.312 3.813,-19.271C4.896,-21.229 6.375,-22.75 8.25,-23.833C10.125,-24.927 12.229,-25.479 14.563,-25.479C16.896,-25.479 18.99,-24.927 20.854,-23.833C22.714,-22.75 24.172,-21.234 25.229,-19.292C26.281,-17.359 26.813,-15.146 26.813,-12.646L26.771,-11.583ZM14.563,-22.542C12.13,-22.542 10.089,-21.76 8.438,-20.208C6.781,-18.651 5.844,-16.625 5.625,-14.125L23.542,-14.125C23.318,-16.625 22.38,-18.651 20.729,-20.208C19.089,-21.76 17.031,-22.542 14.563,-22.542Z" style="fill-rule:nonzero;"/>
            </g>
        </g>
    </g>
    <g transform="matrix(1,0,0,1,195.617,78.4112)">
        <g>
            <g>
                <path d="M4.75,-25.271L8.167,-25.271L8.167,0L4.75,0L4.75,-25.271ZM6.5,-30.812C5.792,-30.812 5.193,-31.047 4.708,-31.521C4.234,-32.005 4,-32.583 4,-33.25C4,-33.901 4.234,-34.464 4.708,-34.937C5.193,-35.422 5.792,-35.667 6.5,-35.667C7.208,-35.667 7.797,-35.427 8.271,-34.958C8.755,-34.5 9,-33.948 9,-33.312C9,-32.604 8.755,-32.005 8.271,-31.521C7.797,-31.047 7.208,-30.812 6.5,-30.812Z" style="fill-rule:nonzero;"/>
            </g>
        </g>
    </g>
    <g transform="matrix(1,0,0,1,203.834,78.4112)">
        <g>
            <g>
                <path d="M11.542,0.25C9.484,0.25 7.521,-0.047 5.646,-0.646C3.771,-1.24 2.302,-1.984 1.25,-2.875L2.792,-5.583C3.844,-4.75 5.172,-4.062 6.771,-3.521C8.38,-2.99 10.047,-2.729 11.771,-2.729C14.073,-2.729 15.781,-3.089 16.896,-3.812C18.005,-4.531 18.563,-5.552 18.563,-6.875C18.563,-7.802 18.255,-8.531 17.646,-9.062C17.031,-9.589 16.26,-9.984 15.333,-10.25C14.401,-10.526 13.167,-10.797 11.625,-11.062C9.583,-11.437 7.938,-11.823 6.688,-12.229C5.438,-12.63 4.365,-13.312 3.479,-14.271C2.604,-15.229 2.167,-16.562 2.167,-18.271C2.167,-20.38 3.047,-22.109 4.813,-23.458C6.573,-24.802 9.026,-25.479 12.167,-25.479C13.792,-25.479 15.422,-25.255 17.063,-24.812C18.698,-24.38 20.047,-23.818 21.104,-23.125L19.604,-20.375C17.521,-21.818 15.042,-22.542 12.167,-22.542C9.984,-22.542 8.339,-22.151 7.229,-21.375C6.13,-20.609 5.583,-19.604 5.583,-18.354C5.583,-17.396 5.896,-16.625 6.521,-16.042C7.146,-15.469 7.917,-15.047 8.833,-14.771C9.76,-14.505 11.047,-14.229 12.688,-13.937C14.698,-13.547 16.318,-13.156 17.542,-12.771C18.76,-12.396 19.802,-11.74 20.667,-10.812C21.526,-9.88 21.958,-8.604 21.958,-6.979C21.958,-4.755 21.031,-2.99 19.188,-1.687C17.354,-0.396 14.802,0.25 11.542,0.25Z" style="fill-rule:nonzero;"/>
            </g>
        </g>
    </g>
    <g transform="matrix(1,0,0,1,222.622,78.4112)">
        <g>
            <g>
                <path d="M36.292,-25.479C39.458,-25.479 41.943,-24.562 43.75,-22.729C45.568,-20.906 46.479,-18.219 46.479,-14.667L46.479,0L43.063,0L43.063,-14.312C43.063,-16.948 42.427,-18.958 41.167,-20.333C39.901,-21.708 38.115,-22.396 35.813,-22.396C33.188,-22.396 31.115,-21.583 29.604,-19.958C28.104,-18.344 27.354,-16.115 27.354,-13.271L27.354,0L23.938,0L23.938,-14.312C23.938,-16.948 23.302,-18.958 22.042,-20.333C20.776,-21.708 18.969,-22.396 16.625,-22.396C14.026,-22.396 11.964,-21.583 10.438,-19.958C8.922,-18.344 8.167,-16.115 8.167,-13.271L8.167,0L4.75,0L4.75,-25.271L8.021,-25.271L8.021,-20.667C8.922,-22.208 10.172,-23.396 11.771,-24.229C13.38,-25.062 15.229,-25.479 17.313,-25.479C19.422,-25.479 21.255,-25.026 22.813,-24.125C24.365,-23.234 25.526,-21.906 26.292,-20.146C27.219,-21.812 28.552,-23.115 30.292,-24.062C32.042,-25.005 34.042,-25.479 36.292,-25.479Z" style="fill-rule:nonzero;"/>
            </g>
        </g>
    </g>
    <g transform="matrix(1,0,0,1,268.898,78.4112)">
        <g>
            <g>
                <path d="M27.542,-25.271L27.542,0L24.271,0L24.271,-4.604C23.365,-3.073 22.13,-1.88 20.563,-1.021C18.99,-0.172 17.198,0.25 15.188,0.25C11.88,0.25 9.276,-0.672 7.375,-2.521C5.469,-4.365 4.521,-7.068 4.521,-10.625L4.521,-25.271L7.938,-25.271L7.938,-10.958C7.938,-8.302 8.589,-6.281 9.896,-4.896C11.214,-3.521 13.089,-2.833 15.521,-2.833C18.188,-2.833 20.281,-3.635 21.813,-5.25C23.354,-6.875 24.125,-9.13 24.125,-12.021L24.125,-25.271L27.542,-25.271Z" style="fill-rule:nonzero;"/>
            </g>
        </g>
    </g>
    <g transform="matrix(1,0,0,1,296.528,78.4112)">
        <g>
            <g>
                <path d="M11.542,0.25C9.484,0.25 7.521,-0.047 5.646,-0.646C3.771,-1.24 2.302,-1.984 1.25,-2.875L2.792,-5.583C3.844,-4.75 5.172,-4.062 6.771,-3.521C8.38,-2.99 10.047,-2.729 11.771,-2.729C14.073,-2.729 15.781,-3.089 16.896,-3.812C18.005,-4.531 18.563,-5.552 18.563,-6.875C18.563,-7.802 18.255,-8.531 17.646,-9.062C17.031,-9.589 16.26,-9.984 15.333,-10.25C14.401,-10.526 13.167,-10.797 11.625,-11.062C9.583,-11.437 7.938,-11.823 6.688,-12.229C5.438,-12.63 4.365,-13.312 3.479,-14.271C2.604,-15.229 2.167,-16.562 2.167,-18.271C2.167,-20.38 3.047,-22.109 4.813,-23.458C6.573,-24.802 9.026,-25.479 12.167,-25.479C13.792,-25.479 15.422,-25.255 17.063,-24.812C18.698,-24.38 20.047,-23.818 21.104,-23.125L19.604,-20.375C17.521,-21.818 15.042,-22.542 12.167,-22.542C9.984,-22.542 8.339,-22.151 7.229,-21.375C6.13,-20.609 5.583,-19.604 5.583,-18.354C5.583,-17.396 5.896,-16.625 6.521,-16.042C7.146,-15.469 7.917,-15.047 8.833,-14.771C9.76,-14.505 11.047,-14.229 12.688,-13.937C14.698,-13.547 16.318,-13.156 17.542,-12.771C18.76,-12.396 19.802,-11.74 20.667,-10.812C21.526,-9.88 21.958,-8.604 21.958,-6.979C21.958,-4.755 21.031,-2.99 19.188,-1.687C17.354,-0.396 14.802,0.25 11.542,0.25Z" style="fill-rule:nonzero;"/>
            </g>
        </g>
    </g>
    <g transform="matrix(1,0,0,1,315.317,78.4112)">
        <g>
            <g>
                <path d="M4.75,-25.271L8.167,-25.271L8.167,0L4.75,0L4.75,-25.271ZM6.5,-30.812C5.792,-30.812 5.193,-31.047 4.708,-31.521C4.234,-32.005 4,-32.583 4,-33.25C4,-33.901 4.234,-34.464 4.708,-34.937C5.193,-35.422 5.792,-35.667 6.5,-35.667C7.208,-35.667 7.797,-35.427 8.271,-34.958C8.755,-34.5 9,-33.948 9,-33.312C9,-32.604 8.755,-32.005 8.271,-31.521C7.797,-31.047 7.208,-30.812 6.5,-30.812Z" style="fill-rule:nonzero;"/>
            </g>
        </g>
    </g>
    <g transform="matrix(1,0,0,1,323.534,78.4112)">
        <g>
            <g>
                <path d="M14.125,-12.687L8.167,-7.208L8.167,0L4.75,0L4.75,-35.667L8.167,-35.667L8.167,-11.479L23.271,-25.271L27.5,-25.271L16.688,-14.937L28.5,0L24.313,0L14.125,-12.687Z" style="fill-rule:nonzero;"/>
            </g>
        </g>
    </g>
    <g transform="matrix(1,0,0,1,347.705,78.4112)">
        <g>
            <g>
                <path d="M13.125,-33.021C11.651,-33.021 10.531,-32.615 9.771,-31.812C9.021,-31.021 8.646,-29.839 8.646,-28.271L8.646,-25.271L16.438,-25.271L16.438,-22.396L8.75,-22.396L8.75,0L5.333,0L5.333,-22.396L0.813,-22.396L0.813,-25.271L5.333,-25.271L5.333,-28.396C5.333,-30.714 6,-32.542 7.333,-33.875C8.667,-35.219 10.547,-35.896 12.979,-35.896C13.938,-35.896 14.859,-35.755 15.75,-35.479C16.651,-35.214 17.406,-34.823 18.021,-34.312L16.875,-31.771C15.875,-32.604 14.625,-33.021 13.125,-33.021Z" style="fill-rule:nonzero;"/>
            </g>
        </g>
    </g>
    <g transform="matrix(1,0,0,1,359.285,78.4112)">
        <g>
            <g>
                <path d="M26.771,-11.583L5.625,-11.583C5.818,-8.958 6.823,-6.833 8.646,-5.208C10.479,-3.594 12.781,-2.792 15.563,-2.792C17.146,-2.792 18.589,-3.068 19.896,-3.625C21.214,-4.193 22.354,-5.021 23.313,-6.104L25.229,-3.896C24.104,-2.547 22.698,-1.521 21.021,-0.812C19.339,-0.104 17.49,0.25 15.479,0.25C12.88,0.25 10.583,-0.302 8.583,-1.417C6.583,-2.526 5.021,-4.052 3.896,-6C2.771,-7.958 2.208,-10.172 2.208,-12.646C2.208,-15.104 2.74,-17.312 3.813,-19.271C4.896,-21.229 6.375,-22.75 8.25,-23.833C10.125,-24.927 12.229,-25.479 14.563,-25.479C16.896,-25.479 18.99,-24.927 20.854,-23.833C22.714,-22.75 24.172,-21.234 25.229,-19.292C26.281,-17.359 26.813,-15.146 26.813,-12.646L26.771,-11.583ZM14.563,-22.542C12.13,-22.542 10.089,-21.76 8.438,-20.208C6.781,-18.651 5.844,-16.625 5.625,-14.125L23.542,-14.125C23.318,-16.625 22.38,-18.651 20.729,-20.208C19.089,-21.76 17.031,-22.542 14.563,-22.542Z" style="fill-rule:nonzero;"/>
            </g>
        </g>
    </g>
    <g transform="matrix(1,0,0,1,383.6,78.4112)">
        <g>
            <g>
                <path d="M11.542,0.25C9.484,0.25 7.521,-0.047 5.646,-0.646C3.771,-1.24 2.302,-1.984 1.25,-2.875L2.792,-5.583C3.844,-4.75 5.172,-4.062 6.771,-3.521C8.38,-2.99 10.047,-2.729 11.771,-2.729C14.073,-2.729 15.781,-3.089 16.896,-3.812C18.005,-4.531 18.563,-5.552 18.563,-6.875C18.563,-7.802 18.255,-8.531 17.646,-9.062C17.031,-9.589 16.26,-9.984 15.333,-10.25C14.401,-10.526 13.167,-10.797 11.625,-11.062C9.583,-11.437 7.938,-11.823 6.688,-12.229C5.438,-12.63 4.365,-13.312 3.479,-14.271C2.604,-15.229 2.167,-16.562 2.167,-18.271C2.167,-20.38 3.047,-22.109 4.813,-23.458C6.573,-24.802 9.026,-25.479 12.167,-25.479C13.792,-25.479 15.422,-25.255 17.063,-24.812C18.698,-24.38 20.047,-23.818 21.104,-23.125L19.604,-20.375C17.521,-21.818 15.042,-22.542 12.167,-22.542C9.984,-22.542 8.339,-22.151 7.229,-21.375C6.13,-20.609 5.583,-19.604 5.583,-18.354C5.583,-17.396 5.896,-16.625 6.521,-16.042C7.146,-15.469 7.917,-15.047 8.833,-14.771C9.76,-14.505 11.047,-14.229 12.688,-13.937C14.698,-13.547 16.318,-13.156 17.542,-12.771C18.76,-12.396 19.802,-11.74 20.667,-10.812C21.526,-9.88 21.958,-8.604 21.958,-6.979C21.958,-4.755 21.031,-2.99 19.188,-1.687C17.354,-0.396 14.802,0.25 11.542,0.25Z" style="fill-rule:nonzero;"/>
            </g>
        </g>
    </g>
    <g transform="matrix(1,0,0,1,402.389,78.4112)">
        <g>
            <g>
                <path d="M18.063,-1.542C17.422,-0.958 16.63,-0.51 15.688,-0.208C14.74,0.094 13.755,0.25 12.729,0.25C10.365,0.25 8.542,-0.385 7.25,-1.667C5.969,-2.958 5.333,-4.771 5.333,-7.104L5.333,-22.396L0.813,-22.396L0.813,-25.271L5.333,-25.271L5.333,-30.812L8.75,-30.812L8.75,-25.271L16.438,-25.271L16.438,-22.396L8.75,-22.396L8.75,-7.312C8.75,-5.797 9.125,-4.646 9.875,-3.854C10.625,-3.073 11.708,-2.687 13.125,-2.687C13.833,-2.687 14.51,-2.797 15.167,-3.021C15.818,-3.24 16.385,-3.562 16.875,-3.979L18.063,-1.542Z" style="fill-rule:nonzero;"/>
            </g>
        </g>
    </g>
</svg>
