<svg xmlns="http://www.w3.org/2000/svg" xmlns:xlink="http://www.w3.org/1999/xlink" width="500" zoomAndPan="magnify" viewBox="0 0 375 374.999991" height="500" preserveAspectRatio="xMidYMid meet" version="1.0"><defs><g/><clipPath id="5dbb3c634b"><path d="M 38 137 L 118.5 137 L 118.5 238 L 38 238 Z M 38 137 " clip-rule="nonzero"/></clipPath></defs><g clip-path="url(#5dbb3c634b)"><path fill="#f29503" d="M 73.585938 169.519531 C 74.039062 168.324219 74.625 167.195312 75.34375 166.132812 C 76.066406 165.074219 76.902344 164.117188 77.851562 163.257812 C 78.800781 162.398438 79.839844 161.664062 80.964844 161.050781 C 82.089844 160.441406 83.273438 159.972656 84.511719 159.640625 C 95.304688 156.558594 106.066406 162.4375 108.21875 173.949219 C 109.097656 178.609375 107.867188 183.195312 105.9375 187.546875 C 103.335938 193.417969 99.132812 197.984375 94.40625 202.207031 C 88.722656 207.25 82.292969 211.191406 75.769531 215.140625 C 75.507812 215.339844 75.230469 215.515625 74.9375 215.664062 C 72.535156 216.597656 72.433594 218.460938 72.65625 220.695312 C 73.160156 225.609375 72.898438 230.472656 70.625 235.023438 C 70.484375 235.3125 70.335938 235.601562 70.167969 235.878906 C 68.925781 237.910156 67.371094 238.058594 65.320312 236.632812 C 61.117188 233.726562 59.28125 229.253906 57.863281 224.628906 C 56.449219 220.007812 56.699219 215.476562 57.027344 210.835938 C 57.109375 209.71875 57.117188 208.601562 57.183594 207.472656 C 57.183594 206.765625 56.691406 206.492188 56.253906 206.15625 C 52.796875 203.921875 49.578125 201.382812 46.597656 198.542969 C 43.726562 195.644531 41.070312 192.578125 39.710938 188.664062 C 37.511719 182.195312 37.648438 175.839844 41.460938 170.023438 C 42.171875 168.867188 42.984375 167.789062 43.90625 166.789062 C 44.824219 165.789062 45.828125 164.882812 46.921875 164.078125 C 48.011719 163.269531 49.171875 162.574219 50.398438 161.992188 C 51.625 161.410156 52.894531 160.949219 54.210938 160.613281 C 56.027344 160.230469 57.859375 160.109375 59.710938 160.257812 C 60.519531 160.257812 60.828125 160.089844 60.867188 159.1875 C 60.988281 155.933594 61.339844 152.660156 61.304688 149.417969 C 61.265625 146.175781 60.472656 143.265625 57.574219 141.421875 C 55.050781 139.78125 52.355469 140.246094 49.699219 141.300781 C 49.496094 141.382812 49.132812 141.503906 49.195312 141.785156 C 49.261719 142.066406 49.683594 142.121094 49.988281 142.1875 C 52.90625 142.78125 54.183594 144.050781 54.554688 147.03125 C 54.667969 147.605469 54.691406 148.183594 54.632812 148.761719 C 54.570312 149.34375 54.425781 149.902344 54.199219 150.441406 C 53.972656 150.980469 53.671875 151.472656 53.296875 151.921875 C 52.921875 152.367188 52.492188 152.753906 52.003906 153.070312 C 49.914062 154.449219 47.726562 154.179688 45.609375 153.070312 C 42.625 151.535156 41.628906 148.167969 42.429688 144.617188 C 42.648438 143.691406 43 142.820312 43.488281 142.003906 C 43.976562 141.1875 44.578125 140.460938 45.292969 139.832031 C 46.003906 139.199219 46.796875 138.691406 47.664062 138.308594 C 48.535156 137.921875 49.445312 137.675781 50.390625 137.574219 C 52.1875 137.257812 53.976562 137.304688 55.757812 137.71875 C 57.535156 138.132812 59.164062 138.875 60.640625 139.949219 C 61.71875 140.761719 62.554688 141.769531 63.152344 142.976562 C 63.753906 144.183594 64.050781 145.460938 64.042969 146.808594 C 64.101562 151.199219 63.921875 155.578125 63.503906 159.949219 C 63.503906 160.535156 63.503906 160.882812 64.109375 161.113281 C 65.128906 161.421875 66.097656 161.835938 67.027344 162.359375 C 67.953125 162.878906 68.8125 163.496094 69.601562 164.207031 C 70.390625 164.917969 71.09375 165.707031 71.710938 166.574219 C 72.324219 167.441406 72.839844 168.363281 73.25 169.34375 C 73.335938 169.398438 73.417969 169.417969 73.585938 169.519531 Z M 74.257812 178.414062 C 74.109375 178.792969 73.996094 179.019531 73.933594 179.25 C 72.273438 185.515625 68.480469 188.765625 62.097656 189.402344 C 61.507812 189.457031 61.304688 189.644531 61.257812 190.238281 C 61.109375 192.300781 60.902344 194.351562 60.671875 196.398438 C 60.472656 198.160156 60.671875 199.53125 62.386719 200.734375 C 64.753906 202.308594 66.757812 204.253906 68.402344 206.574219 C 70.046875 208.890625 71.21875 211.429688 71.917969 214.183594 C 72.160156 215.113281 72.5625 214.648438 72.933594 214.359375 C 77.59375 210.742188 82.253906 207.175781 86.289062 202.925781 C 92.179688 196.78125 96.746094 189.949219 97.921875 181.253906 C 98.703125 175.664062 98.15625 170.378906 95.003906 165.542969 C 94.511719 164.632812 93.824219 163.90625 92.945312 163.359375 C 91.082031 162.386719 89.117188 162.074219 87.046875 162.429688 C 84.15625 162.875 81.351562 163.566406 79.253906 165.832031 C 78.542969 166.539062 78.058594 167.378906 77.800781 168.347656 C 77.5 169.632812 78.109375 170.210938 79.402344 169.886719 C 80.175781 169.707031 80.960938 169.550781 81.742188 169.4375 C 86.515625 168.730469 90.066406 172.867188 88.320312 177.191406 C 86.859375 180.855469 84.332031 182 79.503906 181.46875 C 78.453125 181.355469 77.472656 181.03125 76.558594 180.5 C 75.640625 179.96875 74.875 179.269531 74.257812 178.414062 Z M 57.714844 162.867188 C 55.027344 162.746094 52.542969 163.398438 50.257812 164.824219 C 47.007812 166.800781 44.417969 169.34375 43.417969 173.148438 C 43.140625 174.222656 42.976562 175.3125 42.933594 176.421875 C 42.890625 177.53125 42.964844 178.632812 43.15625 179.726562 C 43.351562 180.816406 43.660156 181.878906 44.082031 182.90625 C 44.503906 183.929688 45.03125 184.898438 45.664062 185.8125 C 47.546875 188.511719 49.804688 190.84375 52.441406 192.8125 C 53.988281 194.0625 55.570312 195.273438 57.101562 196.484375 C 57.324219 196.660156 57.574219 196.929688 57.875 196.761719 C 58.171875 196.597656 57.976562 196.296875 57.996094 196.054688 C 58.136719 194.105469 58.21875 192.160156 58.425781 190.210938 C 58.460938 190.027344 58.460938 189.839844 58.425781 189.652344 C 58.386719 189.46875 58.316406 189.296875 58.207031 189.140625 C 58.101562 188.984375 57.96875 188.855469 57.808594 188.753906 C 57.648438 188.652344 57.472656 188.585938 57.285156 188.554688 C 55.132812 187.753906 53.328125 186.472656 51.863281 184.703125 C 51.386719 184.167969 50.964844 183.597656 50.597656 182.984375 C 50.226562 182.371094 49.917969 181.734375 49.664062 181.0625 C 49.414062 180.394531 49.226562 179.707031 49.101562 179.003906 C 48.972656 178.300781 48.914062 177.59375 48.917969 176.878906 C 48.921875 176.164062 48.992188 175.457031 49.128906 174.753906 C 49.261719 174.050781 49.460938 173.367188 49.722656 172.703125 C 49.980469 172.039062 50.300781 171.402344 50.675781 170.796875 C 51.054688 170.1875 51.484375 169.621094 51.964844 169.09375 C 52.945312 167.996094 54.160156 167.328125 55.609375 167.089844 C 56.148438 166.996094 56.746094 167.003906 56.988281 167.628906 C 57.230469 168.253906 56.847656 168.5625 56.363281 168.859375 C 56.265625 168.914062 56.171875 168.972656 56.085938 169.035156 C 53.8125 170.613281 52.550781 172.765625 53.09375 175.5625 C 53.195312 176.257812 53.394531 176.921875 53.691406 177.558594 C 53.988281 178.195312 54.371094 178.777344 54.835938 179.304688 C 55.300781 179.828125 55.832031 180.277344 56.429688 180.652344 C 57.027344 181.023438 57.664062 181.300781 58.339844 181.488281 C 59.039062 181.703125 59.273438 181.488281 59.273438 180.816406 C 59.328125 179.550781 59.421875 178.28125 59.515625 177.023438 C 59.804688 173.203125 60.175781 169.382812 60.34375 165.550781 C 60.472656 162.585938 60.929688 162.960938 58.015625 162.90625 C 57.929688 162.859375 57.847656 162.867188 57.714844 162.867188 Z M 59.878906 209.027344 C 59.808594 209.21875 59.75 209.410156 59.699219 209.605469 C 59.519531 211.101562 59.496094 212.601562 59.625 214.101562 C 59.75 215.601562 60.03125 217.074219 60.460938 218.515625 C 60.894531 219.960938 61.46875 221.34375 62.183594 222.667969 C 62.898438 223.992188 63.742188 225.230469 64.714844 226.382812 C 65.28125 227.023438 65.980469 227.464844 66.800781 227.707031 C 66.957031 227.773438 67.117188 227.824219 67.285156 227.851562 C 67.449219 227.882812 67.617188 227.890625 67.785156 227.882812 C 67.953125 227.871094 68.121094 227.84375 68.28125 227.792969 C 68.441406 227.742188 68.597656 227.675781 68.742188 227.589844 C 68.886719 227.503906 69.019531 227.402344 69.140625 227.28125 C 69.261719 227.164062 69.367188 227.035156 69.457031 226.890625 C 69.546875 226.75 69.621094 226.597656 69.671875 226.4375 C 69.726562 226.277344 69.761719 226.113281 69.777344 225.945312 C 69.96875 225.238281 70.03125 224.519531 69.960938 223.792969 C 68.917969 217.34375 65.125 212.792969 59.878906 209.027344 Z M 69.199219 172.363281 C 69.203125 171.570312 69.105469 170.789062 68.898438 170.023438 C 68.617188 168.730469 68.058594 167.570312 67.222656 166.542969 C 66.390625 165.515625 65.371094 164.726562 64.164062 164.179688 C 63.523438 163.902344 63.234375 163.957031 63.1875 164.785156 C 62.804688 170.050781 62.402344 175.320312 61.910156 180.566406 C 61.808594 181.691406 62.113281 181.648438 62.980469 181.421875 C 63.460938 181.285156 63.921875 181.109375 64.371094 180.890625 C 64.816406 180.671875 65.242188 180.417969 65.648438 180.128906 C 66.050781 179.835938 66.425781 179.515625 66.773438 179.160156 C 67.121094 178.800781 67.4375 178.417969 67.71875 178.007812 C 68 177.601562 68.246094 177.167969 68.453125 176.714844 C 68.660156 176.265625 68.828125 175.796875 68.953125 175.316406 C 69.082031 174.835938 69.164062 174.347656 69.207031 173.851562 C 69.25 173.355469 69.25 172.859375 69.207031 172.363281 Z M 118.519531 181.683594 C 118.53125 181.398438 118.515625 181.113281 118.46875 180.828125 C 118.421875 180.546875 118.34375 180.269531 118.242188 180.003906 C 118.136719 179.734375 118.007812 179.480469 117.851562 179.242188 C 117.695312 179 117.511719 178.78125 117.3125 178.578125 C 117.109375 178.375 116.886719 178.195312 116.644531 178.039062 C 116.40625 177.878906 116.152344 177.75 115.882812 177.644531 C 115.617188 177.542969 115.339844 177.46875 115.058594 177.421875 C 114.773438 177.375 114.492188 177.355469 114.203125 177.367188 C 113.714844 177.410156 113.246094 177.539062 112.800781 177.75 C 112.355469 177.960938 111.960938 178.242188 111.621094 178.597656 C 111.277344 178.949219 111.007812 179.351562 110.808594 179.804688 C 110.613281 180.253906 110.503906 180.726562 110.476562 181.21875 C 110.476562 184.097656 111.875 185.550781 114.78125 185.578125 C 115.039062 185.59375 115.296875 185.578125 115.550781 185.535156 C 115.804688 185.492188 116.050781 185.421875 116.292969 185.328125 C 116.53125 185.230469 116.757812 185.109375 116.972656 184.964844 C 117.183594 184.820312 117.382812 184.65625 117.558594 184.46875 C 117.738281 184.28125 117.890625 184.078125 118.027344 183.855469 C 118.160156 183.636719 118.269531 183.402344 118.351562 183.160156 C 118.4375 182.914062 118.492188 182.664062 118.523438 182.40625 C 118.550781 182.152344 118.554688 181.894531 118.527344 181.636719 Z M 113.664062 170.695312 C 114.167969 170.675781 114.648438 170.5625 115.109375 170.355469 C 115.570312 170.152344 115.976562 169.871094 116.332031 169.515625 C 116.6875 169.15625 116.964844 168.75 117.164062 168.285156 C 117.367188 167.824219 117.476562 167.339844 117.492188 166.835938 C 117.476562 166.316406 117.363281 165.816406 117.15625 165.339844 C 116.949219 164.863281 116.660156 164.441406 116.292969 164.070312 C 115.921875 163.703125 115.5 163.417969 115.019531 163.210938 C 114.542969 163.003906 114.042969 162.894531 113.523438 162.875 C 113.265625 162.855469 113.007812 162.863281 112.75 162.898438 C 112.492188 162.9375 112.242188 162.996094 112 163.085938 C 111.753906 163.175781 111.523438 163.285156 111.304688 163.425781 C 111.082031 163.5625 110.878906 163.722656 110.695312 163.902344 C 110.507812 164.082031 110.34375 164.28125 110.199219 164.496094 C 110.054688 164.710938 109.933594 164.9375 109.835938 165.179688 C 109.742188 165.421875 109.671875 165.667969 109.628906 165.925781 C 109.585938 166.179688 109.570312 166.4375 109.582031 166.699219 C 109.582031 166.964844 109.605469 167.226562 109.660156 167.488281 C 109.710938 167.75 109.789062 168 109.894531 168.246094 C 109.996094 168.492188 110.121094 168.726562 110.273438 168.945312 C 110.421875 169.164062 110.589844 169.367188 110.78125 169.554688 C 110.972656 169.742188 111.179688 169.90625 111.402344 170.050781 C 111.625 170.195312 111.859375 170.316406 112.105469 170.414062 C 112.355469 170.515625 112.609375 170.585938 112.871094 170.632812 C 113.132812 170.679688 113.398438 170.703125 113.664062 170.695312 Z M 113.664062 170.695312 " fill-opacity="1" fill-rule="nonzero"/></g><g fill="#fed600" fill-opacity="1"><g transform="translate(117.963798, 204.568557)"><g><path d="M 2.515625 -25.234375 L 9.65625 -25.234375 L 9.65625 -5.65625 L 21.703125 -5.65625 L 21.703125 0 L 2.515625 0 Z M 2.515625 -25.234375 "/></g></g></g><g fill="#fed600" fill-opacity="1"><g transform="translate(136.416191, 204.568557)"><g><path d="M 22.75 -19.53125 L 22.75 0 L 16.21875 0 L 16.21875 -2.09375 C 15.5 -1.300781 14.632812 -0.695312 13.625 -0.28125 C 12.613281 0.125 11.546875 0.328125 10.421875 0.328125 C 7.890625 0.328125 5.875 -0.414062 4.375 -1.90625 C 2.875 -3.394531 2.125 -5.628906 2.125 -8.609375 L 2.125 -19.53125 L 8.96875 -19.53125 L 8.96875 -9.734375 C 8.96875 -8.265625 9.242188 -7.191406 9.796875 -6.515625 C 10.359375 -5.847656 11.164062 -5.515625 12.21875 -5.515625 C 13.300781 -5.515625 14.179688 -5.890625 14.859375 -6.640625 C 15.546875 -7.398438 15.890625 -8.5625 15.890625 -10.125 L 15.890625 -19.53125 Z M 22.75 -19.53125 "/></g></g></g><g fill="#fed600" fill-opacity="1"><g transform="translate(157.823864, 204.568557)"><g><path d="M 22.96875 -26.75 L 22.96875 0 L 16.4375 0 L 16.4375 -1.953125 C 15.164062 -0.429688 13.253906 0.328125 10.703125 0.328125 C 8.921875 0.328125 7.296875 -0.0820312 5.828125 -0.90625 C 4.367188 -1.738281 3.210938 -2.925781 2.359375 -4.46875 C 1.503906 -6.007812 1.078125 -7.789062 1.078125 -9.8125 C 1.078125 -11.820312 1.503906 -13.585938 2.359375 -15.109375 C 3.210938 -16.640625 4.367188 -17.8125 5.828125 -18.625 C 7.296875 -19.445312 8.921875 -19.859375 10.703125 -19.859375 C 13.035156 -19.859375 14.835938 -19.1875 16.109375 -17.84375 L 16.109375 -26.75 Z M 12.140625 -5.125 C 13.328125 -5.125 14.300781 -5.535156 15.0625 -6.359375 C 15.832031 -7.191406 16.21875 -8.34375 16.21875 -9.8125 C 16.21875 -11.25 15.835938 -12.375 15.078125 -13.1875 C 14.328125 -14.007812 13.347656 -14.421875 12.140625 -14.421875 C 10.941406 -14.421875 9.957031 -14.007812 9.1875 -13.1875 C 8.414062 -12.375 8.03125 -11.25 8.03125 -9.8125 C 8.03125 -8.34375 8.414062 -7.191406 9.1875 -6.359375 C 9.957031 -5.535156 10.941406 -5.125 12.140625 -5.125 Z M 12.140625 -5.125 "/></g></g></g><g fill="#fed600" fill-opacity="1"><g transform="translate(179.447774, 204.568557)"><g><path d="M 34.5625 -19.53125 L 27.609375 0 L 20.984375 0 L 17.296875 -10.640625 L 13.484375 0 L 6.84375 0 L -0.109375 -19.53125 L 6.375 -19.53125 L 10.375 -7.71875 L 14.53125 -19.53125 L 20.359375 -19.53125 L 24.40625 -7.609375 L 28.546875 -19.53125 Z M 34.5625 -19.53125 "/></g></g></g><g fill="#fed600" fill-opacity="1"><g transform="translate(210.369977, 204.568557)"><g><path d="M 2.203125 -19.53125 L 9.046875 -19.53125 L 9.046875 0 L 2.203125 0 Z M 5.625 -21.703125 C 4.375 -21.703125 3.363281 -22.050781 2.59375 -22.75 C 1.820312 -23.445312 1.4375 -24.3125 1.4375 -25.34375 C 1.4375 -26.375 1.820312 -27.238281 2.59375 -27.9375 C 3.363281 -28.632812 4.375 -28.984375 5.625 -28.984375 C 6.875 -28.984375 7.882812 -28.648438 8.65625 -27.984375 C 9.425781 -27.328125 9.8125 -26.484375 9.8125 -25.453125 C 9.8125 -24.367188 9.425781 -23.472656 8.65625 -22.765625 C 7.882812 -22.054688 6.875 -21.703125 5.625 -21.703125 Z M 5.625 -21.703125 "/></g></g></g><g fill="#fed600" fill-opacity="1"><g transform="translate(218.118541, 204.568557)"><g><path d="M 23.21875 -19.53125 L 23.21875 -3.5625 C 23.21875 0.0625 22.226562 2.78125 20.25 4.59375 C 18.28125 6.40625 15.445312 7.3125 11.75 7.3125 C 9.832031 7.3125 8.03125 7.09375 6.34375 6.65625 C 4.664062 6.226562 3.234375 5.597656 2.046875 4.765625 L 4.546875 -0.03125 C 5.335938 0.613281 6.335938 1.117188 7.546875 1.484375 C 8.765625 1.859375 9.960938 2.046875 11.140625 2.046875 C 12.941406 2.046875 14.257812 1.648438 15.09375 0.859375 C 15.9375 0.0664062 16.359375 -1.109375 16.359375 -2.671875 L 16.359375 -3.3125 C 15.035156 -1.78125 13.101562 -1.015625 10.5625 -1.015625 C 8.832031 -1.015625 7.234375 -1.40625 5.765625 -2.1875 C 4.296875 -2.96875 3.128906 -4.070312 2.265625 -5.5 C 1.398438 -6.925781 0.96875 -8.578125 0.96875 -10.453125 C 0.96875 -12.304688 1.398438 -13.945312 2.265625 -15.375 C 3.128906 -16.800781 4.296875 -17.90625 5.765625 -18.6875 C 7.234375 -19.46875 8.832031 -19.859375 10.5625 -19.859375 C 13.351562 -19.859375 15.394531 -18.957031 16.6875 -17.15625 L 16.6875 -19.53125 Z M 12.1875 -6.453125 C 13.40625 -6.453125 14.414062 -6.820312 15.21875 -7.5625 C 16.03125 -8.3125 16.4375 -9.273438 16.4375 -10.453125 C 16.4375 -11.628906 16.039062 -12.582031 15.25 -13.3125 C 14.457031 -14.050781 13.4375 -14.421875 12.1875 -14.421875 C 10.9375 -14.421875 9.90625 -14.050781 9.09375 -13.3125 C 8.289062 -12.582031 7.890625 -11.628906 7.890625 -10.453125 C 7.890625 -9.273438 8.296875 -8.3125 9.109375 -7.5625 C 9.929688 -6.820312 10.957031 -6.453125 12.1875 -6.453125 Z M 12.1875 -6.453125 "/></g></g></g><g fill="#fed600" fill-opacity="1"><g transform="translate(239.994733, 204.568557)"><g><path d="M 9.296875 0.328125 C 7.660156 0.328125 6.050781 0.140625 4.46875 -0.234375 C 2.882812 -0.609375 1.613281 -1.09375 0.65625 -1.6875 L 2.703125 -6.375 C 3.585938 -5.820312 4.644531 -5.382812 5.875 -5.0625 C 7.101562 -4.738281 8.316406 -4.578125 9.515625 -4.578125 C 10.617188 -4.578125 11.40625 -4.691406 11.875 -4.921875 C 12.34375 -5.148438 12.578125 -5.476562 12.578125 -5.90625 C 12.578125 -6.34375 12.296875 -6.648438 11.734375 -6.828125 C 11.171875 -7.003906 10.273438 -7.179688 9.046875 -7.359375 C 7.484375 -7.546875 6.15625 -7.796875 5.0625 -8.109375 C 3.96875 -8.421875 3.023438 -9 2.234375 -9.84375 C 1.441406 -10.6875 1.046875 -11.863281 1.046875 -13.375 C 1.046875 -14.625 1.414062 -15.734375 2.15625 -16.703125 C 2.90625 -17.679688 3.992188 -18.453125 5.421875 -19.015625 C 6.847656 -19.578125 8.5625 -19.859375 10.5625 -19.859375 C 11.976562 -19.859375 13.382812 -19.710938 14.78125 -19.421875 C 16.175781 -19.140625 17.34375 -18.734375 18.28125 -18.203125 L 16.21875 -13.546875 C 14.488281 -14.515625 12.613281 -15 10.59375 -15 C 9.507812 -15 8.71875 -14.867188 8.21875 -14.609375 C 7.71875 -14.359375 7.46875 -14.03125 7.46875 -13.625 C 7.46875 -13.164062 7.742188 -12.847656 8.296875 -12.671875 C 8.847656 -12.492188 9.757812 -12.304688 11.03125 -12.109375 C 12.644531 -11.867188 13.976562 -11.59375 15.03125 -11.28125 C 16.09375 -10.96875 17.007812 -10.394531 17.78125 -9.5625 C 18.5625 -8.738281 18.953125 -7.582031 18.953125 -6.09375 C 18.953125 -4.863281 18.578125 -3.757812 17.828125 -2.78125 C 17.085938 -1.8125 15.988281 -1.050781 14.53125 -0.5 C 13.082031 0.0507812 11.335938 0.328125 9.296875 0.328125 Z M 9.296875 0.328125 "/></g></g></g><g fill="#fed600" fill-opacity="1"><g transform="translate(256.176622, 204.568557)"><g><path d="M 14.484375 -19.859375 C 16.265625 -19.859375 17.878906 -19.445312 19.328125 -18.625 C 20.785156 -17.8125 21.941406 -16.640625 22.796875 -15.109375 C 23.648438 -13.585938 24.078125 -11.820312 24.078125 -9.8125 C 24.078125 -7.789062 23.648438 -6.007812 22.796875 -4.46875 C 21.941406 -2.925781 20.785156 -1.738281 19.328125 -0.90625 C 17.878906 -0.0820312 16.265625 0.328125 14.484375 0.328125 C 11.921875 0.328125 10 -0.429688 8.71875 -1.953125 L 8.71875 0 L 2.203125 0 L 2.203125 -26.75 L 9.046875 -26.75 L 9.046875 -17.84375 C 10.367188 -19.1875 12.179688 -19.859375 14.484375 -19.859375 Z M 13.046875 -5.125 C 14.242188 -5.125 15.226562 -5.535156 16 -6.359375 C 16.769531 -7.191406 17.15625 -8.34375 17.15625 -9.8125 C 17.15625 -11.25 16.769531 -12.375 16 -13.1875 C 15.226562 -14.007812 14.242188 -14.421875 13.046875 -14.421875 C 11.847656 -14.421875 10.863281 -14.007812 10.09375 -13.1875 C 9.320312 -12.375 8.9375 -11.25 8.9375 -9.8125 C 8.9375 -8.34375 9.320312 -7.191406 10.09375 -6.359375 C 10.863281 -5.535156 11.847656 -5.125 13.046875 -5.125 Z M 13.046875 -5.125 "/></g></g></g><g fill="#fed600" fill-opacity="1"><g transform="translate(277.692405, 204.568557)"><g><path d="M 22.75 -19.53125 L 22.75 0 L 16.21875 0 L 16.21875 -2.09375 C 15.5 -1.300781 14.632812 -0.695312 13.625 -0.28125 C 12.613281 0.125 11.546875 0.328125 10.421875 0.328125 C 7.890625 0.328125 5.875 -0.414062 4.375 -1.90625 C 2.875 -3.394531 2.125 -5.628906 2.125 -8.609375 L 2.125 -19.53125 L 8.96875 -19.53125 L 8.96875 -9.734375 C 8.96875 -8.265625 9.242188 -7.191406 9.796875 -6.515625 C 10.359375 -5.847656 11.164062 -5.515625 12.21875 -5.515625 C 13.300781 -5.515625 14.179688 -5.890625 14.859375 -6.640625 C 15.546875 -7.398438 15.890625 -8.5625 15.890625 -10.125 L 15.890625 -19.53125 Z M 22.75 -19.53125 "/></g></g></g><g fill="#fed600" fill-opacity="1"><g transform="translate(299.100083, 204.568557)"><g><path d="M 8.71875 -17.1875 C 9.414062 -18.082031 10.320312 -18.75 11.4375 -19.1875 C 12.5625 -19.632812 13.84375 -19.859375 15.28125 -19.859375 L 15.28125 -13.703125 C 14.65625 -13.773438 14.140625 -13.8125 13.734375 -13.8125 C 12.265625 -13.8125 11.113281 -13.410156 10.28125 -12.609375 C 9.457031 -11.816406 9.046875 -10.601562 9.046875 -8.96875 L 9.046875 0 L 2.203125 0 L 2.203125 -19.53125 L 8.71875 -19.53125 Z M 8.71875 -17.1875 "/></g></g></g><g fill="#fed600" fill-opacity="1"><g transform="translate(311.533823, 204.568557)"><g><path d="M 23.21875 -19.53125 L 23.21875 -3.5625 C 23.21875 0.0625 22.226562 2.78125 20.25 4.59375 C 18.28125 6.40625 15.445312 7.3125 11.75 7.3125 C 9.832031 7.3125 8.03125 7.09375 6.34375 6.65625 C 4.664062 6.226562 3.234375 5.597656 2.046875 4.765625 L 4.546875 -0.03125 C 5.335938 0.613281 6.335938 1.117188 7.546875 1.484375 C 8.765625 1.859375 9.960938 2.046875 11.140625 2.046875 C 12.941406 2.046875 14.257812 1.648438 15.09375 0.859375 C 15.9375 0.0664062 16.359375 -1.109375 16.359375 -2.671875 L 16.359375 -3.3125 C 15.035156 -1.78125 13.101562 -1.015625 10.5625 -1.015625 C 8.832031 -1.015625 7.234375 -1.40625 5.765625 -2.1875 C 4.296875 -2.96875 3.128906 -4.070312 2.265625 -5.5 C 1.398438 -6.925781 0.96875 -8.578125 0.96875 -10.453125 C 0.96875 -12.304688 1.398438 -13.945312 2.265625 -15.375 C 3.128906 -16.800781 4.296875 -17.90625 5.765625 -18.6875 C 7.234375 -19.46875 8.832031 -19.859375 10.5625 -19.859375 C 13.351562 -19.859375 15.394531 -18.957031 16.6875 -17.15625 L 16.6875 -19.53125 Z M 12.1875 -6.453125 C 13.40625 -6.453125 14.414062 -6.820312 15.21875 -7.5625 C 16.03125 -8.3125 16.4375 -9.273438 16.4375 -10.453125 C 16.4375 -11.628906 16.039062 -12.582031 15.25 -13.3125 C 14.457031 -14.050781 13.4375 -14.421875 12.1875 -14.421875 C 10.9375 -14.421875 9.90625 -14.050781 9.09375 -13.3125 C 8.289062 -12.582031 7.890625 -11.628906 7.890625 -10.453125 C 7.890625 -9.273438 8.296875 -8.3125 9.109375 -7.5625 C 9.929688 -6.820312 10.957031 -6.453125 12.1875 -6.453125 Z M 12.1875 -6.453125 "/></g></g></g><g fill="#000000" fill-opacity="1"><g transform="translate(117.963798, 178.808418)"><g><path d="M 11.9375 -11.859375 L 6.78125 -6.625 L 6.78125 0 L 4.109375 0 L 4.109375 -25.234375 L 6.78125 -25.234375 L 6.78125 -9.984375 L 21.59375 -25.234375 L 24.65625 -25.234375 L 13.734375 -13.8125 L 25.40625 0 L 22.234375 0 Z M 11.9375 -11.859375 "/></g></g></g><g fill="#000000" fill-opacity="1"><g transform="translate(140.056221, 178.808418)"><g><path d="M 6.015625 -15.25 C 6.617188 -16.519531 7.515625 -17.476562 8.703125 -18.125 C 9.890625 -18.78125 11.363281 -19.109375 13.125 -19.109375 L 13.125 -16.625 L 12.515625 -16.65625 C 10.515625 -16.65625 8.945312 -16.039062 7.8125 -14.8125 C 6.6875 -13.59375 6.125 -11.875 6.125 -9.65625 L 6.125 0 L 3.5625 0 L 3.5625 -18.953125 L 6.015625 -18.953125 Z M 6.015625 -15.25 "/></g></g></g><g fill="#000000" fill-opacity="1"><g transform="translate(150.976297, 178.808418)"><g><path d="M 20.078125 -8.6875 L 4.21875 -8.6875 C 4.363281 -6.71875 5.117188 -5.125 6.484375 -3.90625 C 7.859375 -2.695312 9.585938 -2.09375 11.671875 -2.09375 C 12.859375 -2.09375 13.941406 -2.300781 14.921875 -2.71875 C 15.910156 -3.144531 16.765625 -3.765625 17.484375 -4.578125 L 18.921875 -2.921875 C 18.078125 -1.910156 17.023438 -1.140625 15.765625 -0.609375 C 14.503906 -0.078125 13.117188 0.1875 11.609375 0.1875 C 9.660156 0.1875 7.9375 -0.226562 6.4375 -1.0625 C 4.9375 -1.894531 3.765625 -3.039062 2.921875 -4.5 C 2.078125 -5.96875 1.65625 -7.628906 1.65625 -9.484375 C 1.65625 -11.328125 2.054688 -12.984375 2.859375 -14.453125 C 3.671875 -15.921875 4.78125 -17.0625 6.1875 -17.875 C 7.59375 -18.695312 9.171875 -19.109375 10.921875 -19.109375 C 12.671875 -19.109375 14.242188 -18.695312 15.640625 -17.875 C 17.035156 -17.0625 18.128906 -15.925781 18.921875 -14.46875 C 19.710938 -13.019531 20.109375 -11.359375 20.109375 -9.484375 Z M 10.921875 -16.90625 C 9.097656 -16.90625 7.566406 -16.320312 6.328125 -15.15625 C 5.085938 -13.988281 4.382812 -12.46875 4.21875 -10.59375 L 17.65625 -10.59375 C 17.488281 -12.46875 16.785156 -13.988281 15.546875 -15.15625 C 14.316406 -16.320312 12.773438 -16.90625 10.921875 -16.90625 Z M 10.921875 -16.90625 "/></g></g></g><g fill="#000000" fill-opacity="1"><g transform="translate(169.212455, 178.808418)"><g><path d="M 3.5625 -18.953125 L 6.125 -18.953125 L 6.125 0 L 3.5625 0 Z M 4.875 -23.109375 C 4.34375 -23.109375 3.894531 -23.285156 3.53125 -23.640625 C 3.175781 -24.003906 3 -24.4375 3 -24.9375 C 3 -25.425781 3.175781 -25.847656 3.53125 -26.203125 C 3.894531 -26.566406 4.34375 -26.75 4.875 -26.75 C 5.40625 -26.75 5.847656 -26.570312 6.203125 -26.21875 C 6.566406 -25.875 6.75 -25.460938 6.75 -24.984375 C 6.75 -24.453125 6.566406 -24.003906 6.203125 -23.640625 C 5.847656 -23.285156 5.40625 -23.109375 4.875 -23.109375 Z M 4.875 -23.109375 "/></g></g></g><g fill="#000000" fill-opacity="1"><g transform="translate(175.375255, 178.808418)"><g><path d="M 8.65625 0.1875 C 7.113281 0.1875 5.640625 -0.0351562 4.234375 -0.484375 C 2.828125 -0.929688 1.726562 -1.488281 0.9375 -2.15625 L 2.09375 -4.1875 C 2.882812 -3.5625 3.878906 -3.046875 5.078125 -2.640625 C 6.285156 -2.242188 7.535156 -2.046875 8.828125 -2.046875 C 10.554688 -2.046875 11.835938 -2.316406 12.671875 -2.859375 C 13.503906 -3.398438 13.921875 -4.164062 13.921875 -5.15625 C 13.921875 -5.851562 13.691406 -6.398438 13.234375 -6.796875 C 12.773438 -7.191406 12.195312 -7.488281 11.5 -7.6875 C 10.800781 -7.894531 9.875 -8.097656 8.71875 -8.296875 C 7.1875 -8.578125 5.953125 -8.867188 5.015625 -9.171875 C 4.078125 -9.472656 3.273438 -9.984375 2.609375 -10.703125 C 1.953125 -11.421875 1.625 -12.421875 1.625 -13.703125 C 1.625 -15.285156 2.285156 -16.582031 3.609375 -17.59375 C 4.929688 -18.601562 6.769531 -19.109375 9.125 -19.109375 C 10.34375 -19.109375 11.566406 -18.941406 12.796875 -18.609375 C 14.023438 -18.285156 15.035156 -17.863281 15.828125 -17.34375 L 14.703125 -15.28125 C 13.140625 -16.363281 11.28125 -16.90625 9.125 -16.90625 C 7.488281 -16.90625 6.253906 -16.613281 5.421875 -16.03125 C 4.597656 -15.457031 4.1875 -14.703125 4.1875 -13.765625 C 4.1875 -13.046875 4.421875 -12.46875 4.890625 -12.03125 C 5.359375 -11.601562 5.9375 -11.285156 6.625 -11.078125 C 7.320312 -10.878906 8.285156 -10.671875 9.515625 -10.453125 C 11.023438 -10.160156 12.238281 -9.867188 13.15625 -9.578125 C 14.070312 -9.296875 14.851562 -8.804688 15.5 -8.109375 C 16.144531 -7.410156 16.46875 -6.453125 16.46875 -5.234375 C 16.46875 -3.566406 15.773438 -2.242188 14.390625 -1.265625 C 13.015625 -0.296875 11.101562 0.1875 8.65625 0.1875 Z M 8.65625 0.1875 "/></g></g></g><g fill="#000000" fill-opacity="1"><g transform="translate(189.466823, 178.808418)"><g><path d="M 27.21875 -19.109375 C 29.59375 -19.109375 31.457031 -18.421875 32.8125 -17.046875 C 34.175781 -15.679688 34.859375 -13.664062 34.859375 -11 L 34.859375 0 L 32.296875 0 L 32.296875 -10.734375 C 32.296875 -12.710938 31.820312 -14.21875 30.875 -15.25 C 29.925781 -16.28125 28.585938 -16.796875 26.859375 -16.796875 C 24.890625 -16.796875 23.335938 -16.1875 22.203125 -14.96875 C 21.078125 -13.757812 20.515625 -12.085938 20.515625 -9.953125 L 20.515625 0 L 17.953125 0 L 17.953125 -10.734375 C 17.953125 -12.710938 17.476562 -14.21875 16.53125 -15.25 C 15.582031 -16.28125 14.226562 -16.796875 12.46875 -16.796875 C 10.519531 -16.796875 8.972656 -16.1875 7.828125 -14.96875 C 6.691406 -13.757812 6.125 -12.085938 6.125 -9.953125 L 6.125 0 L 3.5625 0 L 3.5625 -18.953125 L 6.015625 -18.953125 L 6.015625 -15.5 C 6.691406 -16.65625 7.628906 -17.546875 8.828125 -18.171875 C 10.035156 -18.796875 11.421875 -19.109375 12.984375 -19.109375 C 14.566406 -19.109375 15.941406 -18.769531 17.109375 -18.09375 C 18.273438 -17.425781 19.144531 -16.429688 19.71875 -15.109375 C 20.414062 -16.359375 21.414062 -17.335938 22.71875 -18.046875 C 24.03125 -18.753906 25.53125 -19.109375 27.21875 -19.109375 Z M 27.21875 -19.109375 "/></g></g></g><g fill="#000000" fill-opacity="1"><g transform="translate(224.173206, 178.808418)"><g><path d="M 20.65625 -18.953125 L 20.65625 0 L 18.203125 0 L 18.203125 -3.453125 C 17.523438 -2.304688 16.597656 -1.410156 15.421875 -0.765625 C 14.242188 -0.128906 12.898438 0.1875 11.390625 0.1875 C 8.910156 0.1875 6.957031 -0.503906 5.53125 -1.890625 C 4.101562 -3.273438 3.390625 -5.300781 3.390625 -7.96875 L 3.390625 -18.953125 L 5.953125 -18.953125 L 5.953125 -8.21875 C 5.953125 -6.226562 6.441406 -4.710938 7.421875 -3.671875 C 8.410156 -2.640625 9.816406 -2.125 11.640625 -2.125 C 13.640625 -2.125 15.210938 -2.726562 16.359375 -3.9375 C 17.515625 -5.15625 18.09375 -6.847656 18.09375 -9.015625 L 18.09375 -18.953125 Z M 20.65625 -18.953125 "/></g></g></g><g fill="#000000" fill-opacity="1"><g transform="translate(244.89611, 178.808418)"><g><path d="M 8.65625 0.1875 C 7.113281 0.1875 5.640625 -0.0351562 4.234375 -0.484375 C 2.828125 -0.929688 1.726562 -1.488281 0.9375 -2.15625 L 2.09375 -4.1875 C 2.882812 -3.5625 3.878906 -3.046875 5.078125 -2.640625 C 6.285156 -2.242188 7.535156 -2.046875 8.828125 -2.046875 C 10.554688 -2.046875 11.835938 -2.316406 12.671875 -2.859375 C 13.503906 -3.398438 13.921875 -4.164062 13.921875 -5.15625 C 13.921875 -5.851562 13.691406 -6.398438 13.234375 -6.796875 C 12.773438 -7.191406 12.195312 -7.488281 11.5 -7.6875 C 10.800781 -7.894531 9.875 -8.097656 8.71875 -8.296875 C 7.1875 -8.578125 5.953125 -8.867188 5.015625 -9.171875 C 4.078125 -9.472656 3.273438 -9.984375 2.609375 -10.703125 C 1.953125 -11.421875 1.625 -12.421875 1.625 -13.703125 C 1.625 -15.285156 2.285156 -16.582031 3.609375 -17.59375 C 4.929688 -18.601562 6.769531 -19.109375 9.125 -19.109375 C 10.34375 -19.109375 11.566406 -18.941406 12.796875 -18.609375 C 14.023438 -18.285156 15.035156 -17.863281 15.828125 -17.34375 L 14.703125 -15.28125 C 13.140625 -16.363281 11.28125 -16.90625 9.125 -16.90625 C 7.488281 -16.90625 6.253906 -16.613281 5.421875 -16.03125 C 4.597656 -15.457031 4.1875 -14.703125 4.1875 -13.765625 C 4.1875 -13.046875 4.421875 -12.46875 4.890625 -12.03125 C 5.359375 -11.601562 5.9375 -11.285156 6.625 -11.078125 C 7.320312 -10.878906 8.285156 -10.671875 9.515625 -10.453125 C 11.023438 -10.160156 12.238281 -9.867188 13.15625 -9.578125 C 14.070312 -9.296875 14.851562 -8.804688 15.5 -8.109375 C 16.144531 -7.410156 16.46875 -6.453125 16.46875 -5.234375 C 16.46875 -3.566406 15.773438 -2.242188 14.390625 -1.265625 C 13.015625 -0.296875 11.101562 0.1875 8.65625 0.1875 Z M 8.65625 0.1875 "/></g></g></g><g fill="#000000" fill-opacity="1"><g transform="translate(258.987684, 178.808418)"><g><path d="M 3.5625 -18.953125 L 6.125 -18.953125 L 6.125 0 L 3.5625 0 Z M 4.875 -23.109375 C 4.34375 -23.109375 3.894531 -23.285156 3.53125 -23.640625 C 3.175781 -24.003906 3 -24.4375 3 -24.9375 C 3 -25.425781 3.175781 -25.847656 3.53125 -26.203125 C 3.894531 -26.566406 4.34375 -26.75 4.875 -26.75 C 5.40625 -26.75 5.847656 -26.570312 6.203125 -26.21875 C 6.566406 -25.875 6.75 -25.460938 6.75 -24.984375 C 6.75 -24.453125 6.566406 -24.003906 6.203125 -23.640625 C 5.847656 -23.285156 5.40625 -23.109375 4.875 -23.109375 Z M 4.875 -23.109375 "/></g></g></g><g fill="#000000" fill-opacity="1"><g transform="translate(265.150489, 178.808418)"><g><path d="M 10.59375 -9.515625 L 6.125 -5.40625 L 6.125 0 L 3.5625 0 L 3.5625 -26.75 L 6.125 -26.75 L 6.125 -8.609375 L 17.453125 -18.953125 L 20.625 -18.953125 L 12.515625 -11.203125 L 21.375 0 L 18.234375 0 Z M 10.59375 -9.515625 "/></g></g></g><g fill="#000000" fill-opacity="1"><g transform="translate(283.278521, 178.808418)"><g><path d="M 9.84375 -24.765625 C 8.738281 -24.765625 7.898438 -24.460938 7.328125 -23.859375 C 6.765625 -23.265625 6.484375 -22.378906 6.484375 -21.203125 L 6.484375 -18.953125 L 12.328125 -18.953125 L 12.328125 -16.796875 L 6.5625 -16.796875 L 6.5625 0 L 4 0 L 4 -16.796875 L 0.609375 -16.796875 L 0.609375 -18.953125 L 4 -18.953125 L 4 -21.296875 C 4 -23.035156 4.5 -24.40625 5.5 -25.40625 C 6.5 -26.414062 7.910156 -26.921875 9.734375 -26.921875 C 10.453125 -26.921875 11.144531 -26.816406 11.8125 -26.609375 C 12.488281 -26.410156 13.054688 -26.117188 13.515625 -25.734375 L 12.65625 -23.828125 C 11.90625 -24.453125 10.96875 -24.765625 9.84375 -24.765625 Z M 9.84375 -24.765625 "/></g></g></g><g fill="#000000" fill-opacity="1"><g transform="translate(291.964113, 178.808418)"><g><path d="M 20.078125 -8.6875 L 4.21875 -8.6875 C 4.363281 -6.71875 5.117188 -5.125 6.484375 -3.90625 C 7.859375 -2.695312 9.585938 -2.09375 11.671875 -2.09375 C 12.859375 -2.09375 13.941406 -2.300781 14.921875 -2.71875 C 15.910156 -3.144531 16.765625 -3.765625 17.484375 -4.578125 L 18.921875 -2.921875 C 18.078125 -1.910156 17.023438 -1.140625 15.765625 -0.609375 C 14.503906 -0.078125 13.117188 0.1875 11.609375 0.1875 C 9.660156 0.1875 7.9375 -0.226562 6.4375 -1.0625 C 4.9375 -1.894531 3.765625 -3.039062 2.921875 -4.5 C 2.078125 -5.96875 1.65625 -7.628906 1.65625 -9.484375 C 1.65625 -11.328125 2.054688 -12.984375 2.859375 -14.453125 C 3.671875 -15.921875 4.78125 -17.0625 6.1875 -17.875 C 7.59375 -18.695312 9.171875 -19.109375 10.921875 -19.109375 C 12.671875 -19.109375 14.242188 -18.695312 15.640625 -17.875 C 17.035156 -17.0625 18.128906 -15.925781 18.921875 -14.46875 C 19.710938 -13.019531 20.109375 -11.359375 20.109375 -9.484375 Z M 10.921875 -16.90625 C 9.097656 -16.90625 7.566406 -16.320312 6.328125 -15.15625 C 5.085938 -13.988281 4.382812 -12.46875 4.21875 -10.59375 L 17.65625 -10.59375 C 17.488281 -12.46875 16.785156 -13.988281 15.546875 -15.15625 C 14.316406 -16.320312 12.773438 -16.90625 10.921875 -16.90625 Z M 10.921875 -16.90625 "/></g></g></g><g fill="#000000" fill-opacity="1"><g transform="translate(310.200275, 178.808418)"><g><path d="M 8.65625 0.1875 C 7.113281 0.1875 5.640625 -0.0351562 4.234375 -0.484375 C 2.828125 -0.929688 1.726562 -1.488281 0.9375 -2.15625 L 2.09375 -4.1875 C 2.882812 -3.5625 3.878906 -3.046875 5.078125 -2.640625 C 6.285156 -2.242188 7.535156 -2.046875 8.828125 -2.046875 C 10.554688 -2.046875 11.835938 -2.316406 12.671875 -2.859375 C 13.503906 -3.398438 13.921875 -4.164062 13.921875 -5.15625 C 13.921875 -5.851562 13.691406 -6.398438 13.234375 -6.796875 C 12.773438 -7.191406 12.195312 -7.488281 11.5 -7.6875 C 10.800781 -7.894531 9.875 -8.097656 8.71875 -8.296875 C 7.1875 -8.578125 5.953125 -8.867188 5.015625 -9.171875 C 4.078125 -9.472656 3.273438 -9.984375 2.609375 -10.703125 C 1.953125 -11.421875 1.625 -12.421875 1.625 -13.703125 C 1.625 -15.285156 2.285156 -16.582031 3.609375 -17.59375 C 4.929688 -18.601562 6.769531 -19.109375 9.125 -19.109375 C 10.34375 -19.109375 11.566406 -18.941406 12.796875 -18.609375 C 14.023438 -18.285156 15.035156 -17.863281 15.828125 -17.34375 L 14.703125 -15.28125 C 13.140625 -16.363281 11.28125 -16.90625 9.125 -16.90625 C 7.488281 -16.90625 6.253906 -16.613281 5.421875 -16.03125 C 4.597656 -15.457031 4.1875 -14.703125 4.1875 -13.765625 C 4.1875 -13.046875 4.421875 -12.46875 4.890625 -12.03125 C 5.359375 -11.601562 5.9375 -11.285156 6.625 -11.078125 C 7.320312 -10.878906 8.285156 -10.671875 9.515625 -10.453125 C 11.023438 -10.160156 12.238281 -9.867188 13.15625 -9.578125 C 14.070312 -9.296875 14.851562 -8.804688 15.5 -8.109375 C 16.144531 -7.410156 16.46875 -6.453125 16.46875 -5.234375 C 16.46875 -3.566406 15.773438 -2.242188 14.390625 -1.265625 C 13.015625 -0.296875 11.101562 0.1875 8.65625 0.1875 Z M 8.65625 0.1875 "/></g></g></g><g fill="#000000" fill-opacity="1"><g transform="translate(324.291836, 178.808418)"><g><path d="M 13.546875 -1.15625 C 13.066406 -0.71875 12.472656 -0.382812 11.765625 -0.15625 C 11.054688 0.0703125 10.316406 0.1875 9.546875 0.1875 C 7.773438 0.1875 6.40625 -0.289062 5.4375 -1.25 C 4.476562 -2.21875 4 -3.578125 4 -5.328125 L 4 -16.796875 L 0.609375 -16.796875 L 0.609375 -18.953125 L 4 -18.953125 L 4 -23.109375 L 6.5625 -23.109375 L 6.5625 -18.953125 L 12.328125 -18.953125 L 12.328125 -16.796875 L 6.5625 -16.796875 L 6.5625 -5.484375 C 6.5625 -4.347656 6.84375 -3.484375 7.40625 -2.890625 C 7.96875 -2.304688 8.78125 -2.015625 9.84375 -2.015625 C 10.375 -2.015625 10.882812 -2.097656 11.375 -2.265625 C 11.863281 -2.429688 12.289062 -2.671875 12.65625 -2.984375 Z M 13.546875 -1.15625 "/></g></g></g></svg>