<?xml version="1.0" encoding="UTF-8" standalone="no"?>
<!DOCTYPE svg PUBLIC "-//W3C//DTD SVG 1.1//EN" "http://www.w3.org/Graphics/SVG/1.1/DTD/svg11.dtd">
<svg width="100%" height="100%" viewBox="0 0 1080 880" version="1.1" xmlns="http://www.w3.org/2000/svg" xmlns:xlink="http://www.w3.org/1999/xlink" xml:space="preserve" xmlns:serif="http://www.serif.com/" style="fill-rule:evenodd;clip-rule:evenodd;stroke-linejoin:round;stroke-miterlimit:2;">
    <g transform="matrix(6.37761,0,0,6.37761,-934.126,-12031.1)">
        <g transform="matrix(1.63277,0,0,1.63277,57.8751,1826.64)">
            <path d="M66.025,44.062C66.394,46.237 67.835,58.585 67.831,60.809C67.822,64.047 67.492,65.443 66.009,67.171C65.114,68.216 64.349,68.26 64.156,70.183C64.092,70.829 64.055,71.288 64.034,71.609L64.04,71.609L64.031,71.683C64.003,72.141 63.428,77.772 63.674,81.414C64.12,88.029 68.931,116.156 62.506,116.578L62.496,116.579L62.484,116.578C55.842,115.521 60.959,88.029 61.405,81.414C61.651,77.772 61.143,72.305 61.143,72.305C61.147,72.282 61.169,71.865 61.001,70.183C60.807,68.26 59.896,68.187 59.147,67.171C57.606,65.082 57.326,62.274 57.326,60.809C57.326,58.585 58.763,46.237 59.132,44.062L59.909,44.062L59.223,60.845L60.156,60.838L61.232,44.062L61.91,44.062L62.114,60.847L63.05,60.847L63.247,44.062L63.925,44.062L65.001,60.838L65.934,60.845L65.248,44.062L66.025,44.062Z" style="fill:rgb(28,2,36);"/>
        </g>
        <g transform="matrix(1.63277,0,0,1.63277,57.8751,1826.64)">
            <path d="M153.334,43.994C153.842,43.994 154.254,44.427 154.254,44.968L154.254,82.035C154.254,88.541 159.186,116.165 152.76,116.578L152.749,116.579L152.738,116.578C146.512,115.607 150.617,91.853 151.523,83.537C151.427,79.923 146.229,78.287 146.229,71.467C146.229,54.704 152.108,43.994 153.334,43.994Z" style="fill:rgb(28,2,36);"/>
        </g>
        <g transform="matrix(1.63277,0,0,1.63277,57.8751,1826.64)">
            <path d="M105.668,53.544C91.558,53.544 80.078,65.023 80.078,79.132C80.078,93.243 91.558,104.721 105.668,104.721C119.776,104.721 131.256,93.243 131.256,79.132C131.256,65.023 119.776,53.544 105.668,53.544Z" style="fill:rgb(242,149,3);fill-rule:nonzero;"/>
        </g>
        <g transform="matrix(1.63277,0,0,1.63277,57.8751,1826.64)">
            <path d="M105.668,105.741C90.994,105.741 79.057,93.806 79.057,79.132C79.057,64.461 90.994,52.521 105.668,52.521C120.34,52.521 132.277,64.461 132.277,79.132C132.277,93.806 120.34,105.741 105.668,105.741ZM105.668,41.685C84.985,41.685 68.22,58.452 68.22,79.132C68.22,99.814 84.985,116.579 105.668,116.579C126.349,116.579 143.114,99.814 143.114,79.132C143.114,58.452 126.349,41.685 105.668,41.685Z" style="fill:rgb(28,2,36);fill-rule:nonzero;"/>
        </g>
    </g>
</svg>
