<?xml version="1.0" encoding="UTF-8" standalone="no"?>
<!DOCTYPE svg PUBLIC "-//W3C//DTD SVG 1.1//EN" "http://www.w3.org/Graphics/SVG/1.1/DTD/svg11.dtd">
<svg width="100%" height="100%" viewBox="0 0 1080 880" version="1.1" xmlns="http://www.w3.org/2000/svg" xmlns:xlink="http://www.w3.org/1999/xlink" xml:space="preserve" xmlns:serif="http://www.serif.com/" style="fill-rule:evenodd;clip-rule:evenodd;stroke-linejoin:round;stroke-miterlimit:2;">
    <g transform="matrix(5.15966,0,0,5.15966,-7029.35,-9702.76)">
        <g transform="matrix(0.65,0,0,0.65,1497.38,2047.08)">
            <path d="M-30.284,-214.518C-30.274,-214.318 -30.312,-214.233 -30.411,-214.135C-31.254,-213.313 -33.945,-211.177 -35.194,-210.355C-36.743,-209.33 -37.052,-209.041 -37.052,-208.646C-37.052,-208.326 -35.878,-206.052 -35.493,-205.635C-35.248,-205.379 -35.098,-205.304 -34.96,-205.358C-34.458,-205.539 -29.717,-208.379 -29.055,-208.892C-28.757,-209.108 -28.695,-209.15 -28.619,-209.047L-30.284,-214.518Z" style="fill:rgb(242,149,3);"/>
        </g>
        <g transform="matrix(1,0,0,1,785.248,13.9048)">
            <g transform="matrix(0.65,0,0,0.65,712.44,2033.36)">
                <path d="M-28.619,-209.047C-28.605,-209.029 -28.591,-209.005 -28.574,-208.977C-27.699,-207.493 -26.887,-206.575 -25.905,-205.934C-25.136,-205.432 -25.114,-205.379 -24.346,-203.201C-24.1,-202.496 -23.545,-201.033 -23.107,-199.944C-22.103,-197.392 -21.847,-196.495 -21.516,-194.274C-20.865,-189.917 -20.053,-187.226 -18.099,-182.891C-17.33,-181.183 -17.202,-180.841 -17.288,-180.617C-17.619,-179.784 -17.95,-177.723 -18.099,-175.588C-18.185,-174.413 -18.11,-174.189 -17.437,-173.527C-16.914,-173.014 -15.291,-171.861 -13.956,-171.049C-12.504,-170.174 -11.831,-169.555 -11.404,-168.679C-11.052,-167.974 -11.052,-167.964 -11.094,-166.682C-11.212,-163.404 -11.19,-163.158 -10.539,-160.436C-10.208,-159.058 -9.866,-157.328 -9.77,-156.592C-9.567,-154.99 -9.407,-154.296 -8.98,-152.993C-8.361,-151.146 -7.005,-148.391 -6.065,-147.077C-4.164,-144.397 -3.267,-143.244 -2.958,-143.105C-2.766,-143.02 -2.146,-142.892 -1.58,-142.828C-1.004,-142.764 -0.299,-142.657 -0.011,-142.593C0.619,-142.465 0.651,-142.401 0.908,-140.735C1.057,-139.838 1.068,-139.443 0.972,-138.258C0.908,-137.489 0.758,-136.485 0.641,-136.026C0.374,-135.001 0.374,-134.755 0.63,-134.339L0.844,-133.997L0.267,-132.331C-0.053,-131.402 -0.534,-129.769 -0.801,-128.701C-1.078,-127.622 -1.644,-125.423 -2.082,-123.81C-2.509,-122.198 -3.086,-120.009 -3.364,-118.952C-3.63,-117.895 -4.367,-115.279 -4.987,-113.132C-6.823,-106.779 -6.93,-106.245 -7.635,-100.586C-7.902,-98.418 -8.425,-94.788 -8.809,-92.524C-9.696,-87.206 -9.824,-86 -9.898,-82.647C-9.941,-80.437 -9.92,-79.604 -9.781,-78.589C-9.375,-75.525 -8.062,-70.933 -6.118,-65.733C-4.378,-61.067 -2.872,-57.522 2.104,-46.342C6.097,-37.372 8.115,-32.226 8.542,-29.866C8.606,-29.503 8.82,-27.816 9.012,-26.107C9.258,-23.993 9.429,-22.925 9.546,-22.744C9.706,-22.509 10.699,-22.05 11.073,-22.05C11.212,-22.05 11.233,-21.943 11.19,-21.324C11.126,-20.427 10.87,-19.85 10.112,-18.9C9.781,-18.494 9.023,-17.533 8.425,-16.764C7.165,-15.152 5.392,-13.379 4.335,-12.674C3.289,-11.98 2.232,-11.66 -0.694,-11.158C-5.211,-10.389 -5.713,-10.251 -6.311,-9.588C-6.759,-9.119 -6.941,-8.66 -6.941,-8.03C-6.941,-7.25 -6.578,-6.118 -6.183,-5.67C-5.531,-4.922 -3.054,-4.164 -0.513,-3.951C0.246,-3.886 0.31,-3.865 0.427,-3.587C0.587,-3.182 1.559,-2.253 2.093,-1.986C2.381,-1.836 3.31,-1.623 4.762,-1.388C10.261,-0.47 15.472,-0.288 18.847,-0.897C19.498,-1.014 20.672,-1.228 21.463,-1.377C23.63,-1.772 26.086,-2.21 26.257,-2.221C26.353,-2.242 26.449,-2.018 26.545,-1.559C26.716,-0.736 26.898,-0.523 27.474,-0.416C27.72,-0.384 28.115,-0.277 28.339,-0.192C29.129,0.075 30.571,0.15 33.347,0.054C37.17,-0.085 39.199,-0.395 40.715,-1.057C41.366,-1.356 41.58,-1.623 41.494,-2.061C41.42,-2.381 41.121,-5.552 41.046,-6.727C41.025,-7.143 40.95,-8.329 40.896,-9.386C40.694,-13.048 39.903,-16.017 37.949,-20.469C37.522,-21.441 37.106,-22.477 37.02,-22.765L36.86,-23.288L37.287,-23.641C37.522,-23.833 37.746,-24.11 37.8,-24.249C37.907,-24.527 37.576,-26.353 37.106,-28.104C36.956,-28.649 36.743,-29.599 36.636,-30.208C36.433,-31.307 36.23,-31.809 35.472,-33.165C35.034,-33.945 34.831,-34.767 34.052,-39.06C32.525,-47.442 29.524,-57.458 26.011,-65.829C24.581,-69.267 23.545,-71.2 21.89,-73.571C20.171,-76.048 19.412,-77.404 18.644,-79.411C18.259,-80.405 18.249,-80.447 18.419,-80.714C18.516,-80.864 18.622,-81.259 18.654,-81.6C18.708,-82.166 18.676,-82.262 18.377,-82.668L18.046,-83.127L18.27,-84.11C18.387,-84.654 18.601,-85.295 18.729,-85.53C19.167,-86.256 19.263,-86.822 19.071,-87.345C18.9,-87.783 18.9,-87.804 19.252,-88.744C19.455,-89.267 20.01,-90.538 20.48,-91.563C21.463,-93.699 22.723,-96.646 24.581,-101.12C26.898,-106.726 27.154,-107.27 29.375,-111.744C32.322,-117.66 32.44,-117.831 35.397,-120.564C36.999,-122.038 38.462,-124.077 38.964,-125.551C39.156,-126.106 39.935,-129.331 40.085,-130.228L40.16,-130.623L41.356,-130.698C42.733,-130.783 43.203,-130.943 43.31,-131.328C43.427,-131.797 43.15,-137.788 42.936,-139.4C42.818,-140.254 42.552,-142.005 42.349,-143.297C42.135,-144.59 41.911,-146.127 41.847,-146.714C41.687,-148.113 41.783,-151.37 42.071,-153.922C42.188,-155.011 42.317,-156.858 42.349,-158.033L42.413,-160.169L41.815,-164.333C41.046,-169.821 41.025,-169.982 40.309,-179.709C39.85,-185.838 38.9,-191.85 37.736,-195.854C36.465,-200.243 34.949,-204.386 33.144,-208.39C30.582,-214.081 29.386,-215.918 26.855,-217.979C24.314,-220.061 21.666,-221.289 18.996,-221.631L18.078,-221.748L18.003,-222.464C17.971,-222.848 17.907,-223.991 17.864,-224.994L17.8,-226.82L18.697,-227.301C19.263,-227.61 19.647,-227.888 19.733,-228.059C19.808,-228.208 19.914,-228.934 19.957,-229.65C20.021,-230.547 20.192,-231.551 20.48,-232.779C21.057,-235.17 21.142,-235.758 21.142,-237.156C21.142,-238.502 20.961,-239.399 20.491,-240.381C20.096,-241.203 19.039,-242.367 18.377,-242.709C17.565,-243.125 17.138,-243.67 16.497,-245.079C15.793,-246.681 15.515,-247.119 14.81,-247.802C13.326,-249.223 10.785,-250.376 7.838,-250.974C6.001,-251.347 1.153,-251.711 0,-251.561C-2.776,-251.209 -4.645,-250.547 -6.759,-249.18C-7.528,-248.678 -7.912,-248.496 -8.371,-248.422C-9.546,-248.229 -9.792,-247.952 -10.101,-246.489C-10.422,-244.973 -10.144,-243.019 -9.503,-242.196L-9.29,-241.93L-10.091,-239.783C-10.827,-237.786 -11.319,-235.971 -11.319,-235.192C-11.319,-235.01 -11.244,-234.647 -11.148,-234.37C-10.998,-233.91 -10.998,-233.814 -11.158,-233.174C-11.255,-232.779 -11.554,-231.892 -11.81,-231.177C-12.696,-228.838 -12.653,-228.326 -11.596,-227.931C-11.265,-227.803 -10.924,-227.707 -10.849,-227.707C-10.753,-227.707 -10.689,-227.429 -10.635,-226.724C-10.571,-225.806 -10.539,-225.71 -10.261,-225.443C-10.005,-225.219 -9.802,-225.154 -9.14,-225.09C-8.692,-225.048 -8.361,-224.973 -8.393,-224.92C-8.425,-224.866 -8.735,-224.631 -9.087,-224.396C-9.621,-224.023 -9.717,-223.916 -9.717,-223.638C-9.717,-223.286 -9.578,-222.966 -9.29,-222.635C-9.13,-222.453 -9.108,-222.336 -9.183,-221.887C-9.236,-221.599 -9.279,-220.841 -9.279,-220.221C-9.29,-219.132 -9.279,-219.079 -8.959,-218.598C-8.361,-217.691 -7.581,-217.349 -6.14,-217.349C-5.35,-217.349 -2.819,-217.744 -2.274,-217.958C-2.125,-218.022 -2.136,-217.968 -2.328,-217.733C-2.605,-217.381 -2.616,-217.114 -2.413,-216.537C-2.21,-215.961 -0.481,-213.099 -0.085,-212.693L0.235,-212.352L-0.085,-211.999C-0.747,-211.23 -2.637,-208.486 -3.171,-207.525C-3.908,-206.18 -4.357,-204.834 -5.232,-201.439C-5.627,-199.88 -6.193,-197.702 -6.492,-196.58C-7.101,-194.295 -7.688,-191.743 -7.688,-191.359C-7.688,-190.718 -7.944,-190.611 -8.628,-190.964C-9.482,-191.402 -10.881,-193.185 -11.799,-195.021C-12.184,-195.801 -12.952,-197.712 -13.582,-199.517C-13.764,-200.019 -14.447,-201.578 -15.109,-202.987C-16.679,-206.34 -17.085,-207.269 -17.085,-207.557C-17.085,-207.685 -16.86,-208.486 -16.594,-209.34C-16.049,-211.092 -15.91,-212.149 -16.028,-213.718C-16.07,-214.274 -16.102,-215.042 -16.102,-215.427L-16.11,-215.963L-19.015,-222.156L-19.072,-222.37L-19.188,-222.271L-19.498,-222.592C-20.299,-223.425 -21.014,-223.553 -22.231,-223.062C-22.947,-222.773 -23.481,-222.314 -23.726,-221.78C-23.801,-221.609 -23.961,-221.513 -24.228,-221.471C-24.976,-221.353 -25.947,-220.381 -25.947,-219.762C-25.947,-219.677 -26.129,-219.549 -26.342,-219.485C-27.069,-219.26 -27.485,-218.897 -27.848,-218.225C-28.136,-217.68 -28.264,-217.562 -28.713,-217.36C-29.001,-217.242 -29.29,-217.135 -29.343,-217.135C-29.483,-217.135 -29.914,-216.641 -30.159,-216.244L-30.3,-214.688C-30.292,-214.623 -30.286,-214.567 -30.284,-214.518L-28.619,-209.047Z" style="fill:rgb(28,2,36);"/>
            </g>
            <g transform="matrix(0.65,0,0,0.65,658.517,2033.23)">
                <path d="M26.323,-199.73C26.297,-199.659 26.254,-199.569 26.193,-199.453C25.638,-198.364 25.446,-197.616 25.168,-195.524C24.944,-193.719 24.495,-191.178 24.314,-190.569C24.282,-190.473 24.132,-190.377 23.972,-190.356C23.438,-190.291 22.071,-187.974 21.548,-186.266C21.26,-185.305 19.904,-182.497 19.626,-182.262C19.455,-182.123 18.281,-181.909 17.811,-181.931C16.145,-182.027 15.782,-181.995 15.152,-181.696C14.81,-181.536 14.458,-181.407 14.383,-181.407C14.127,-181.407 12.707,-182.902 12.13,-183.778C11.415,-184.846 11.255,-185.422 11.126,-187.216C11.073,-188.028 11.009,-188.732 10.977,-188.775C10.945,-188.829 10.977,-189.298 11.041,-189.832C11.148,-190.622 11.148,-190.825 11.03,-190.964C10.806,-191.242 10.197,-191.509 9.247,-191.765C8.756,-191.893 8.361,-192.043 8.361,-192.085C8.361,-192.299 9.365,-195.054 9.632,-195.588C10.187,-196.688 10.924,-197.862 11.223,-198.118C11.831,-198.663 12.13,-198.727 14.607,-198.887C18.046,-199.101 19.284,-199.496 19.904,-200.574C20.256,-201.194 20.299,-201.77 20.042,-202.603C19.776,-203.511 19.722,-204.728 19.946,-205.209C20.203,-205.774 20.096,-206.095 19.498,-206.65L19.007,-207.12L19.412,-207.622C19.904,-208.209 19.957,-208.657 19.594,-209.117C19.263,-209.533 19.295,-209.747 19.711,-209.896C19.893,-209.96 20.235,-210.163 20.459,-210.355C21.228,-210.996 21.014,-211.466 19.028,-213.505C18.281,-214.274 17.64,-215.022 17.608,-215.16C17.48,-215.694 17.725,-217.744 17.982,-218.406C18.217,-218.983 18.238,-219.207 18.238,-220.766L18.238,-222.485L17.373,-224.237C16.465,-226.073 15.793,-227.024 15.12,-227.44C14.437,-227.867 12.301,-228.817 11.639,-228.988C11.297,-229.074 10.924,-229.116 10.817,-229.084C10.71,-229.052 10.593,-229.074 10.55,-229.127C10.411,-229.362 8.67,-230.216 7.613,-230.569C4.773,-231.519 3.129,-231.594 0,-230.953C-2.691,-230.398 -5.339,-229.469 -6.909,-228.518C-8.318,-227.675 -8.863,-227.258 -9.642,-226.447C-12.226,-223.799 -12.931,-222.261 -13.678,-217.68C-14.276,-214.093 -14.383,-213.035 -14.383,-211.007C-14.383,-208.113 -14.501,-207.515 -16.316,-201.429C-18.281,-194.819 -18.718,-193.708 -20.865,-189.736C-22.701,-186.341 -23.812,-183.5 -24.687,-179.966C-25.157,-178.065 -25.307,-176.965 -25.648,-173.132C-25.798,-171.434 -25.99,-169.267 -26.076,-168.327C-26.161,-167.387 -26.236,-166.352 -26.236,-166.031C-26.236,-164.739 -25.809,-164.077 -24.89,-163.96L-24.367,-163.885L-24.367,-160.5C-24.367,-156.25 -24.346,-156.154 -22.755,-153.485L-22.178,-152.524L-22.285,-151.402C-22.338,-150.783 -22.381,-149.854 -22.392,-149.342C-22.392,-148.434 -22.402,-148.381 -22.744,-147.953C-23.758,-146.683 -26.407,-142.572 -26.887,-141.515C-28.008,-139.059 -28.884,-134.392 -29.215,-129.086C-29.439,-125.647 -29.589,-120.266 -29.759,-109.865C-29.834,-105.22 -29.888,-103.971 -30.069,-102.604C-30.315,-100.768 -30.582,-97.831 -30.678,-95.909C-30.742,-94.863 -30.72,-94.585 -30.582,-94.308C-30.304,-93.784 -29.065,-92.727 -28.179,-92.268C-27.432,-91.873 -23.993,-90.645 -23.662,-90.645C-23.577,-90.645 -23.342,-90.592 -23.128,-90.538L-22.744,-90.431L-22.68,-89.332C-22.605,-87.922 -21.868,-82.615 -21.26,-79.006C-20.683,-75.675 -20.566,-74.019 -20.833,-73.123C-21.142,-72.023 -21.751,-71.307 -25.755,-67.314C-29.674,-63.395 -31.265,-61.654 -32.792,-59.572C-35.259,-56.241 -36.999,-52.717 -38.537,-47.933C-39.754,-44.121 -40.736,-41.238 -41.58,-38.964C-42.05,-37.704 -42.594,-36.188 -42.786,-35.6C-42.979,-35.013 -43.171,-34.5 -43.203,-34.458C-43.246,-34.415 -43.566,-34.586 -43.908,-34.853C-44.26,-35.12 -44.719,-35.387 -44.943,-35.451C-45.285,-35.558 -45.381,-35.547 -45.702,-35.344C-46.15,-35.066 -46.929,-34.127 -48.147,-32.397C-48.638,-31.692 -49.535,-30.464 -50.133,-29.674C-51.777,-27.517 -52.503,-25.894 -52.995,-23.289C-53.144,-22.531 -53.155,-21.965 -53.101,-20.181C-53.048,-18.227 -53.069,-17.811 -53.315,-16.017C-53.486,-14.746 -53.774,-13.305 -54.105,-12.002C-54.682,-9.77 -54.799,-9.098 -54.692,-8.756C-54.65,-8.607 -54.287,-8.372 -53.625,-8.051C-53.069,-7.784 -52.546,-7.571 -52.471,-7.571C-52.247,-7.571 -52.119,-7.774 -51.98,-8.372C-51.905,-8.671 -51.703,-9.375 -51.532,-9.941C-51.35,-10.507 -51.094,-11.49 -50.955,-12.13C-50.72,-13.241 -50.709,-13.262 -50.699,-12.696C-50.699,-12.376 -50.763,-11.511 -50.848,-10.774C-51.254,-7.325 -50.902,-5.179 -49.716,-3.887C-49.086,-3.214 -48.745,-3.022 -46.075,-1.965C-40.982,0.053 -36.625,0.641 -34.319,-0.385C-32.621,-1.143 -32.941,-2.136 -35.579,-4.325C-36.882,-5.392 -38.056,-6.61 -38.152,-6.994C-38.27,-7.464 -38.12,-10.059 -37.832,-12.322C-37.682,-13.497 -37.512,-15.152 -37.447,-16.006C-37.277,-18.281 -36.422,-21.441 -35.045,-24.976C-33.742,-28.286 -33.7,-28.414 -33.732,-28.702C-33.753,-28.916 -33.892,-29.044 -34.319,-29.247L-34.863,-29.514L-34.255,-30.582C-33.913,-31.169 -33.102,-32.632 -32.429,-33.838C-29.695,-38.793 -28.617,-40.331 -22.659,-47.784C-17.651,-54.041 -17.256,-54.511 -11.767,-60.544C-8.35,-64.292 -7.421,-65.37 -6.204,-66.94C-4.741,-68.841 -3.748,-70.378 -3.385,-71.329C-2.936,-72.493 -2.349,-74.671 -2.157,-75.856C-1.773,-78.227 -1.463,-83.726 -1.463,-88.04L-1.463,-90.827L0.064,-90.944C0.94,-91.019 1.591,-91.029 1.612,-90.976C1.773,-90.506 3.737,-86.694 4.955,-84.484C7.581,-79.732 7.934,-78.867 8.158,-76.507C8.372,-74.436 8.126,-72.685 6.674,-65.605C5.232,-58.622 5.254,-54.799 6.759,-47.293C7.709,-42.552 8.254,-39.37 8.478,-37.309C8.596,-36.198 8.788,-34.661 8.905,-33.913C9.034,-33.155 9.108,-32.525 9.087,-32.493C9.055,-32.472 8.585,-32.365 8.04,-32.247C7.453,-32.13 6.983,-31.97 6.919,-31.874C6.845,-31.778 6.759,-31.233 6.727,-30.667C6.62,-28.895 5.884,-25.51 5.104,-23.214C3.801,-19.349 3.47,-16.476 4.079,-14.319C4.207,-13.903 4.613,-12.75 4.987,-11.756C5.617,-10.123 5.99,-8.895 6.161,-7.88C6.204,-7.667 6.279,-6.364 6.332,-4.997C6.428,-2.573 6.524,-1.783 6.738,-1.57C6.887,-1.42 7.795,-1.58 8.073,-1.805C8.307,-1.997 8.307,-2.029 8.297,-4.923C8.286,-7.026 8.233,-8.211 8.105,-9.162C8.008,-9.888 7.944,-10.507 7.976,-10.529C8.062,-10.614 8.969,-9.941 9.696,-9.258C10.443,-8.564 11.041,-7.71 13.113,-4.367C14.639,-1.911 15.056,-1.346 15.803,-0.737C16.561,-0.107 17.095,0.032 19.135,0.085C21.196,0.149 22.413,0.032 24.965,-0.481C28.04,-1.111 30.016,-1.879 30.582,-2.68C31.244,-3.609 30.347,-4.901 28.457,-5.702C26.898,-6.375 25.52,-7.101 24.922,-7.571C23.534,-8.671 22.018,-12.023 21.345,-15.472C20.683,-18.879 20.619,-19.765 20.576,-25.67C20.544,-29.001 20.491,-31.276 20.416,-31.521C20.331,-31.842 20.245,-31.938 19.989,-31.991C19.765,-32.034 19.69,-32.098 19.733,-32.226C19.893,-32.739 20.875,-36.978 21.11,-38.163C21.409,-39.658 22.36,-45.061 22.552,-46.278C22.701,-47.293 23.075,-50.742 23.844,-58.184C24.196,-61.622 24.613,-65.37 24.751,-66.513C25.435,-71.948 25.841,-75.867 26.033,-78.899C26.118,-80.245 25.926,-83.907 25.702,-85.242C25.616,-85.765 25.232,-87.111 24.858,-88.232C24.324,-89.812 23.844,-91.478 23.844,-91.745C23.844,-91.756 24.356,-91.756 24.986,-91.734C26.503,-91.681 28.136,-91.99 28.318,-92.343C28.371,-92.439 28.339,-92.973 28.264,-93.528C28.19,-94.083 28.03,-95.386 27.901,-96.411C27.634,-98.621 27.271,-100.522 26.887,-101.697C26.738,-102.167 26.043,-103.704 25.339,-105.114C24.645,-106.523 23.513,-109.075 22.829,-110.773C20.886,-115.578 20.427,-116.678 19.199,-119.369C16.775,-124.708 14.607,-130.057 12.91,-134.916C12.29,-136.699 12.087,-137.169 11.618,-137.895C11.415,-138.215 11.244,-138.503 11.244,-138.536C11.244,-138.568 11.714,-138.418 12.29,-138.205C13.636,-137.713 18.334,-136.528 19.84,-136.293C21.815,-135.984 22.755,-136.208 24.282,-137.361C25.467,-138.247 26.513,-139.368 26.93,-140.223C27.111,-140.586 27.528,-141.611 27.859,-142.486C28.67,-144.675 29.845,-147.035 30.891,-148.626C31.564,-149.641 32.066,-150.239 32.984,-151.135C33.646,-151.787 34.244,-152.449 34.298,-152.609C34.564,-153.324 34.298,-154.285 33.571,-155.182C33.39,-155.407 33.24,-155.663 33.24,-155.748C33.24,-156.133 33.849,-157.072 34.607,-157.841C35.504,-158.76 36.668,-159.699 37.992,-160.585C38.996,-161.269 40.576,-162.753 41.025,-163.458C41.687,-164.504 41.804,-165.081 41.9,-168.007C41.954,-169.48 42.039,-171.135 42.092,-171.691C42.285,-173.548 42.359,-177.585 42.221,-178.023C41.943,-178.845 41.473,-178.962 40.928,-178.343C40.448,-177.798 39.882,-176.581 39.797,-175.898C39.765,-175.577 39.701,-175.321 39.658,-175.321C39.615,-175.321 39.53,-175.727 39.455,-176.207C39.273,-177.457 39.049,-178.161 38.686,-178.556C38.419,-178.855 38.312,-178.898 37.843,-178.898C37.394,-178.898 37.255,-178.845 37.01,-178.599C36.732,-178.321 36.711,-178.257 36.721,-177.425C36.732,-176.698 37.042,-174.2 37.245,-173.185C37.277,-173.036 37.074,-173.346 36.796,-173.879C36.166,-175.065 35.493,-175.791 34.863,-175.962C34.244,-176.122 33.881,-175.994 33.635,-175.524C33.39,-175.065 33.454,-174.595 33.892,-173.613L34.223,-172.876L33.956,-172.31C33.539,-171.434 33.347,-170.281 33.347,-168.669L33.347,-167.238L32.739,-166.287C32.408,-165.764 31.735,-164.675 31.244,-163.853C30.752,-163.041 30.005,-161.877 29.589,-161.269C28.969,-160.383 28.798,-160.19 28.681,-160.286C28.595,-160.351 28.254,-160.778 27.901,-161.237L27.271,-162.08L27.816,-163.223C28.318,-164.28 29.375,-167.27 29.77,-168.754C29.909,-169.235 29.973,-170.206 30.037,-172.598C30.101,-174.702 30.187,-176.036 30.283,-176.496C30.389,-176.933 30.795,-177.884 31.393,-179.058C32.653,-181.525 32.867,-182.208 32.781,-183.5C32.728,-184.237 32.76,-184.632 32.877,-185.049C33.123,-185.881 33.016,-186.223 32.386,-186.682L31.852,-187.067L32.504,-187.964C33.134,-188.829 34.65,-190.377 37.17,-192.705L38.366,-193.804L38.557,-193.69L40.652,-198.623L40.448,-198.802L40.48,-199.282C40.544,-200.083 40.096,-200.927 39.284,-201.525C38.75,-201.909 38.59,-202.112 38.483,-202.443C38.291,-203.073 37.821,-203.553 37.116,-203.82C36.647,-203.991 36.422,-204.162 36.177,-204.493C35.675,-205.176 35.387,-205.337 34.564,-205.401C33.956,-205.454 33.764,-205.518 33.486,-205.764C33.123,-206.073 32.237,-206.394 31.756,-206.394C31.607,-206.394 31.244,-206.255 30.955,-206.084L30.777,-205.978L26.323,-199.73Z" style="fill:rgb(28,2,36);"/>
            </g>
        </g>
        <g transform="matrix(0.65,0,0,0.65,1497.38,2047.08)">
            <path d="M-30.159,-216.244C-30.231,-216.13 -30.286,-216.023 -30.315,-215.939C-30.4,-215.672 -30.411,-215.374 -30.336,-214.936C-30.321,-214.841 -30.309,-214.759 -30.3,-214.688L-30.159,-216.244Z" style="fill:rgb(28,2,36);"/>
        </g>
        <g transform="matrix(0.65,0,0,0.65,1497.38,2047.08)">
            <path d="M-16.11,-215.963L-16.113,-216.121L-15.259,-216.527C-14.522,-216.879 -14.33,-217.039 -13.935,-217.573C-13.251,-218.502 -12.995,-219.239 -12.984,-220.339C-12.984,-221.043 -13.027,-221.353 -13.198,-221.727C-13.486,-222.357 -14.116,-222.966 -14.821,-223.297C-15.334,-223.542 -15.494,-223.563 -16.369,-223.521C-17.437,-223.467 -18.11,-223.222 -18.825,-222.581L-19.072,-222.37L-19.015,-222.156L-16.11,-215.963Z" style="fill:rgb(242,149,3);"/>
        </g>
        <g transform="matrix(0.65,0,0,0.65,1443.45,2046.95)">
            <path d="M40.652,-198.623L38.557,-193.69L40.352,-192.619C41.452,-191.957 43.053,-190.953 43.908,-190.388C44.762,-189.811 46.075,-188.967 46.833,-188.519L48.189,-187.686L48.723,-188.135C49.428,-188.732 50.026,-189.405 50.325,-189.992C50.539,-190.388 50.56,-190.494 50.443,-190.633C50.368,-190.729 49.054,-191.776 47.527,-192.961C44.698,-195.161 43.395,-196.228 41.505,-197.873L40.652,-198.623Z" style="fill:rgb(242,149,3);"/>
        </g>
        <g transform="matrix(0.65,0,0,0.65,1443.45,2046.95)">
            <path d="M26.323,-199.73L30.777,-205.978L30.432,-205.774L29.717,-206.137C28.147,-206.928 26.759,-207.024 25.499,-206.404C23.961,-205.646 23.321,-203.799 24.036,-202.197C24.218,-201.792 25.851,-200.094 26.054,-200.094C26.108,-200.094 26.204,-200.051 26.278,-199.998C26.358,-199.947 26.379,-199.881 26.323,-199.73Z" style="fill:rgb(242,149,3);"/>
        </g>
    </g>
</svg>
