<?xml version="1.0" encoding="UTF-8" standalone="no"?>
<!DOCTYPE svg PUBLIC "-//W3C//DTD SVG 1.1//EN" "http://www.w3.org/Graphics/SVG/1.1/DTD/svg11.dtd">
<svg width="100%" height="100%" viewBox="0 0 1080 700" version="1.1" xmlns="http://www.w3.org/2000/svg" xmlns:xlink="http://www.w3.org/1999/xlink" xml:space="preserve" xmlns:serif="http://www.serif.com/" style="fill-rule:evenodd;clip-rule:evenodd;stroke-linejoin:round;stroke-miterlimit:2;">
    <g transform="matrix(4.06628,0,0,4.06628,-2420.94,-8883.39)">
        <g transform="matrix(1.05907,0,0,1.05907,609.7,2280.57)">
            <path d="M0,-67.937L2.57,-68.937L9.135,-71.363C15.416,-73.836 20.338,-76.095 23.907,-78.142C27.475,-80.187 30.924,-82.731 34.255,-85.778L52.381,-85.778C51.429,-82.92 50.953,-80.108 50.953,-77.347L50.953,17.841L25.263,17.841L25.263,-61.372L21.268,-58.66L17.271,-56.091L12.561,-52.952L7.85,-49.953L0,-67.937Z" style="fill:rgb(32,41,79);fill-rule:nonzero;"/>
        </g>
        <g transform="matrix(1.05907,0,0,1.05907,704.623,2213.17)">
            <path d="M0,60.087C1.998,63.228 4.852,64.797 8.563,64.797C10.275,64.797 11.75,64.322 12.988,63.37C15.936,61.183 18.269,55.947 19.981,47.67C21.312,41.2 21.98,35.303 21.98,29.972C21.98,24.359 21.359,18.603 20.124,12.702C18.411,4.616 16.031,-0.571 12.988,-2.854C11.75,-3.805 10.275,-4.282 8.563,-4.282C5.041,-4.282 2.188,-2.712 0,0.427C-1.713,2.807 -3.047,7.185 -3.996,13.56C-4.949,19.935 -5.424,25.404 -5.424,29.972C-5.424,33.779 -4.76,39.392 -3.426,46.815C-2.094,54.235 -0.952,58.66 0,60.087M-31.829,26.118C-31.829,11.274 -29.406,-0.047 -24.562,-7.851C-20.098,-15.08 -13.261,-19.601 -4.045,-21.41C1.462,-22.455 6.399,-22.979 10.771,-22.979C23.402,-22.979 32.829,-18.863 39.05,-10.634C45.271,-2.402 48.383,10.276 48.383,27.403L48.383,30.258L47.955,42.532C47.955,55.947 44.648,66.06 38.037,72.86C31.422,79.665 21.838,83.066 9.277,83.066C-5.092,83.066 -15.414,79.498 -21.695,72.36C-28.451,64.654 -31.829,51.573 -31.829,33.111L-31.829,26.118Z" style="fill:rgb(32,41,79);fill-rule:nonzero;"/>
        </g>
        <g transform="matrix(1.05907,0,0,1.05907,793.525,2213.91)">
            <path d="M0,60.087C1.998,63.227 4.852,64.796 8.563,64.796C10.275,64.796 11.75,64.321 12.988,63.37C15.937,61.183 18.268,55.948 19.982,47.67C21.312,41.2 21.979,35.302 21.979,29.972C21.979,24.359 21.359,18.603 20.124,12.702C18.411,4.616 16.032,-0.572 12.988,-2.854C11.75,-3.806 10.275,-4.282 8.563,-4.282C5.041,-4.282 2.188,-2.712 0,0.428C-1.713,2.807 -3.047,7.185 -3.996,13.559C-4.949,19.935 -5.424,25.404 -5.424,29.972C-5.424,33.778 -4.76,39.392 -3.427,46.814C-2.094,54.234 -0.953,58.659 0,60.087M-31.828,26.118C-31.828,11.274 -29.406,-0.047 -24.562,-7.851C-20.098,-15.08 -13.261,-19.601 -4.045,-21.41C1.463,-22.455 6.4,-22.979 10.771,-22.979C23.402,-22.979 32.828,-18.863 39.051,-10.634C45.273,-2.402 48.383,10.276 48.383,27.402L48.383,30.258L47.955,42.532C47.955,55.948 44.648,66.06 38.036,72.86C31.422,79.665 21.836,83.066 9.276,83.066C-5.092,83.066 -15.414,79.498 -21.695,72.36C-28.452,64.654 -31.828,51.572 -31.828,33.111L-31.828,26.118Z" style="fill:rgb(32,41,79);fill-rule:nonzero;"/>
        </g>
        <g transform="matrix(1.05907,0,0,1.05907,804.259,2314.6)">
            <path d="M0,10.825L5.371,10.825L5.371,12.708L-4.266,12.708L2.924,5.063C3.463,4.471 3.732,3.823 3.732,3.114C3.732,2.279 3.447,1.555 2.879,0.942C2.311,0.329 1.643,0.022 0.873,0.022C0.238,0.022 -0.357,0.226 -0.915,0.632C-1.474,1.039 -1.837,1.667 -2.006,2.515L-3.867,2.515C-3.683,1.127 -3.135,0.047 -2.223,-0.726C-1.311,-1.497 -0.238,-1.883 0.996,-1.883C2.229,-1.883 3.305,-1.396 4.219,-0.425C5.135,0.547 5.593,1.697 5.593,3.026C5.593,3.67 5.478,4.26 5.245,4.795C5.014,5.331 4.602,5.912 4.014,6.542L0,10.825Z" style="fill:rgb(32,41,79);fill-rule:nonzero;"/>
        </g>
        <g transform="matrix(1.05907,0,0,1.05907,821.833,2320.63)">
            <path d="M0,-0.089C0,-1.685 -0.312,-2.995 -0.94,-4.023C-1.568,-5.048 -2.359,-5.562 -3.312,-5.562C-4.293,-5.562 -5.096,-5.053 -5.716,-4.038C-6.336,-3.023 -6.646,-1.685 -6.646,-0.023C-6.646,1.625 -6.332,2.948 -5.705,3.949C-5.078,4.95 -4.264,5.45 -3.268,5.45C-2.308,5.45 -1.522,4.938 -0.913,3.915C-0.303,2.892 0,1.558 0,-0.089M-3.223,-7.578C-1.673,-7.578 -0.411,-6.882 0.56,-5.49C1.531,-4.099 2.018,-2.29 2.018,-0.067C2.018,2.237 1.494,4.073 0.449,5.438C-0.596,6.806 -1.85,7.489 -3.312,7.489C-4.834,7.489 -6.099,6.788 -7.105,5.39C-8.114,3.99 -8.619,2.208 -8.619,0.044C-8.619,-2.357 -8.1,-4.227 -7.061,-5.568C-6.023,-6.907 -4.781,-7.578 -3.334,-7.578L-3.223,-7.578Z" style="fill:rgb(32,41,79);fill-rule:nonzero;"/>
        </g>
        <g transform="matrix(1.05907,0,0,1.05907,830.775,2314.6)">
            <path d="M0,10.825L5.372,10.825L5.372,12.708L-4.266,12.708L2.924,5.063C3.464,4.471 3.732,3.823 3.732,3.114C3.732,2.279 3.447,1.555 2.879,0.942C2.311,0.329 1.643,0.022 0.875,0.022C0.238,0.022 -0.357,0.226 -0.915,0.632C-1.473,1.039 -1.836,1.667 -2.006,2.515L-3.867,2.515C-3.683,1.127 -3.133,0.047 -2.221,-0.726C-1.31,-1.497 -0.237,-1.883 0.996,-1.883C2.23,-1.883 3.305,-1.396 4.221,-0.425C5.135,0.547 5.594,1.697 5.594,3.026C5.594,3.67 5.478,4.26 5.246,4.795C5.014,5.331 4.604,5.912 4.014,6.542L0,10.825Z" style="fill:rgb(32,41,79);fill-rule:nonzero;"/>
        </g>
        <g transform="matrix(1.05907,0,0,1.05907,842.965,2328.53)">
            <path d="M0,-14.58L6.358,-14.58L6.358,-12.675L1.485,-12.675L0.726,-9.972C1.288,-10.029 1.612,-10.06 1.701,-10.06C2.943,-10.06 4.026,-9.565 4.95,-8.576C5.874,-7.588 6.337,-6.43 6.337,-5.101C6.337,-3.679 5.81,-2.471 4.759,-1.482C3.705,-0.494 2.422,0 0.907,0C-1.02,0 -2.579,-0.839 -3.768,-2.515L-2.039,-3.612C-1.189,-2.548 -0.181,-2.017 0.985,-2.017C1.946,-2.017 2.741,-2.318 3.372,-2.918C4.005,-3.519 4.321,-4.276 4.321,-5.191C4.321,-6.075 3.993,-6.822 3.339,-7.431C2.685,-8.037 1.882,-8.342 0.929,-8.342C0.36,-8.342 -0.134,-8.241 -0.555,-8.037C-0.976,-7.836 -1.44,-7.512 -1.95,-7.068L0,-14.58Z" style="fill:rgb(32,41,79);fill-rule:nonzero;"/>
        </g>
        <g transform="matrix(1.05907,0,0,1.05907,607.677,2328.12)">
            <path d="M0,-14.07L3.668,-14.07L3.668,0L1.762,0L1.762,-12.208L-0.643,-12.208L0,-14.07Z" style="fill:rgb(32,41,79);fill-rule:nonzero;"/>
        </g>
        <g transform="matrix(1.05907,0,0,1.05907,627.083,2323.39)">
            <path d="M0,-4.975C0,-5.846 -0.307,-6.593 -0.92,-7.218C-1.533,-7.842 -2.265,-8.153 -3.113,-8.153C-4.014,-8.153 -4.768,-7.846 -5.373,-7.23C-5.979,-6.612 -6.281,-5.846 -6.281,-4.93C-6.281,-4.088 -5.961,-3.368 -5.318,-2.764C-4.676,-2.162 -3.9,-1.862 -2.991,-1.862C-2.156,-1.862 -1.449,-2.162 -0.869,-2.764C-0.29,-3.368 0,-4.102 0,-4.975M-3.944,5.195L-5.452,4.143L-2.34,-0.366C-2.775,-0.306 -3.107,-0.277 -3.337,-0.277C-4.732,-0.277 -5.902,-0.747 -6.848,-1.69C-7.793,-2.631 -8.266,-3.791 -8.266,-5.174C-8.266,-6.51 -7.75,-7.677 -6.72,-8.674C-5.689,-9.672 -4.486,-10.17 -3.113,-10.17C-1.754,-10.17 -0.563,-9.662 0.46,-8.647C1.482,-7.631 1.994,-6.452 1.994,-5.108C1.994,-4.022 1.646,-2.973 0.953,-1.961L-3.944,5.195Z" style="fill:rgb(32,41,79);fill-rule:nonzero;"/>
        </g>
        <g transform="matrix(1.05907,0,0,1.05907,636.189,2314.66)">
            <path d="M0,10.824L5.372,10.824L5.372,12.707L-4.266,12.707L2.924,5.063C3.463,4.472 3.732,3.822 3.732,3.112C3.732,2.279 3.448,1.555 2.879,0.941C2.311,0.328 1.643,0.022 0.874,0.022C0.238,0.022 -0.357,0.224 -0.915,0.633C-1.473,1.038 -1.836,1.666 -2.006,2.515L-3.867,2.515C-3.683,1.126 -3.135,0.047 -2.223,-0.725C-1.31,-1.497 -0.236,-1.883 0.996,-1.883C2.23,-1.883 3.305,-1.397 4.221,-0.426C5.136,0.546 5.594,1.697 5.594,3.027C5.594,3.67 5.478,4.259 5.246,4.795C5.014,5.33 4.603,5.912 4.014,6.539L0,10.824Z" style="fill:rgb(32,41,79);fill-rule:nonzero;"/>
        </g>
        <g transform="matrix(1.05907,0,0,1.05907,648.379,2328.59)">
            <path d="M0,-14.58L6.359,-14.58L6.359,-12.674L1.486,-12.674L0.727,-9.972C1.289,-10.029 1.613,-10.059 1.702,-10.059C2.943,-10.059 4.027,-9.564 4.951,-8.576C5.875,-7.588 6.337,-6.43 6.337,-5.101C6.337,-3.678 5.811,-2.471 4.759,-1.483C3.705,-0.495 2.422,0 0.908,0C-1.02,0 -2.578,-0.838 -3.767,-2.516L-2.037,-3.611C-1.189,-2.548 -0.182,-2.016 0.986,-2.016C1.946,-2.016 2.742,-2.316 3.373,-2.918C4.006,-3.517 4.32,-4.277 4.32,-5.191C4.32,-6.075 3.994,-6.821 3.34,-7.43C2.687,-8.039 1.883,-8.342 0.93,-8.342C0.361,-8.342 -0.133,-8.241 -0.554,-8.037C-0.975,-7.834 -1.439,-7.512 -1.949,-7.068L0,-14.58Z" style="fill:rgb(32,41,79);fill-rule:nonzero;"/>
        </g>
        <g transform="matrix(-1.05907,0,0,1.05907,945.272,1866.66)">
            <rect x="86.578" y="415.789" width="237.162" height="3" style="fill:rgb(119,158,211);"/>
        </g>
        <g transform="matrix(-1.05907,0,0,1.05907,945.272,1914.28)">
            <rect x="86.578" y="393.307" width="237.162" height="3" style="fill:rgb(119,158,211);"/>
        </g>
        <g transform="matrix(1.05907,0,0,1.05907,774.087,2295.77)">
            <path d="M0,39.33C-15.08,49.643 -34.275,55.49 -54.424,55.49C-66.745,55.49 -78.637,53.266 -87.907,49.227C-97.986,44.836 -104.277,38.744 -106.1,31.609C-107.492,26.164 -106.095,20.375 -102.06,14.865C-97.959,9.267 -91.229,3.537 -81.633,-1.363C-78.571,-2.925 -72.32,-5.789 -69.205,-7.24C-56.529,-13.149 -42.023,-16.16 -27.352,-16.16C-16.982,-16.16 -7.246,-14.584 0.803,-11.602C9.36,-8.43 15.51,-3.825 18.587,1.713C20.98,6.021 22.949,13.186 17.178,21.853C13.781,26.953 9.238,33.013 0,39.33" style="fill:white;fill-rule:nonzero;"/>
        </g>
        <g transform="matrix(1.05907,0,0,1.05907,693.04,2331.69)">
            <path d="M0,-28.902L7.418,-28.902L12.842,-11.591L18.272,-28.902L25.422,-28.902L29.094,0L23.184,0L20.643,-20.334L14.262,0L11.426,0L4.907,-20.513L2.487,0L-3.547,0L0,-28.902Z" style="fill:rgb(32,41,79);fill-rule:nonzero;"/>
        </g>
        <g transform="matrix(1.05907,0,0,1.05907,689.34,2373.78)">
            <path d="M0,-71.837C-39.777,-35.768 20.902,-12.211 78.099,-36.85C25.241,0 -66.404,-35.526 0,-71.837" style="fill:rgb(32,41,79);fill-rule:nonzero;"/>
        </g>
        <g transform="matrix(1.05907,0,0,1.05907,789.258,2270.85)">
            <path d="M0,43.842C17.183,16.228 -39.492,0 -82.127,19.577C-31.228,7.298 0.504,20.445 0,43.842" style="fill:rgb(120,159,212);fill-rule:nonzero;"/>
        </g>
        <g transform="matrix(1.05907,0,0,1.05907,726.145,2331.69)">
            <path d="M0,-28.902L6.306,-28.902L13.595,-9.693L20.868,-28.902L27.235,-28.902L16.284,0L10.92,0L0,-28.902Z" style="fill:rgb(32,41,79);fill-rule:nonzero;"/>
        </g>
        <g transform="matrix(1.05907,0,0,1.05907,776.183,2328.94)">
            <path d="M0,-23.7L-3.881,-19.448C-5.928,-20.65 -7.41,-21.252 -8.313,-21.252C-9.012,-21.252 -9.608,-20.99 -10.119,-20.471C-10.62,-19.955 -10.869,-19.332 -10.869,-18.625C-10.869,-17.199 -9.578,-15.969 -6.991,-14.915C-5.098,-14.105 -3.664,-13.367 -2.688,-12.717C-1.707,-12.06 -0.888,-11.16 -0.227,-9.994C0.433,-8.843 0.762,-7.582 0.762,-6.23C0.762,-3.746 -0.24,-1.587 -2.25,0.248C-4.257,2.088 -6.63,3.006 -9.365,3.006C-12.373,3.006 -15.332,1.594 -18.264,-1.234L-14.166,-6.01C-12.318,-4.12 -10.598,-3.173 -8.982,-3.173C-8.23,-3.173 -7.51,-3.504 -6.819,-4.164C-6.118,-4.818 -5.774,-5.512 -5.774,-6.234C-5.774,-7.727 -7.37,-9.062 -10.553,-10.235C-12.373,-10.91 -13.666,-11.542 -14.438,-12.119C-15.213,-12.701 -15.863,-13.55 -16.395,-14.655C-16.92,-15.767 -17.178,-16.894 -17.178,-18.058C-17.178,-20.627 -16.338,-22.711 -14.665,-24.31C-12.988,-25.91 -10.794,-26.706 -8.08,-26.706C-4.871,-26.706 -2.183,-25.709 0,-23.7" style="fill:rgb(32,41,79);fill-rule:nonzero;"/>
        </g>
        <g transform="matrix(1.05907,0,0,1.05907,639.862,2256.92)">
            <path d="M0,7.502C0.152,7.436 1.788,6.723 1.788,6.723C2.299,6.511 2.781,6.298 3.243,6.083C3.523,5.148 3.818,4.171 4.127,3.159C3.371,3.481 2.611,3.795 1.849,4.102L1.729,4.145C1.573,4.192 1.291,4.29 0.789,4.487C0.789,4.487 0.037,7.366 0,7.502M-7.664,28.461C-8.416,28.452 -9.165,28.135 -9.893,27.518C-10.554,26.884 -10.903,26.253 -11.033,25.52C-11.213,24.485 -11.388,23.481 -10.024,17.886C-10.115,17.888 -10.205,17.89 -10.293,17.889C-12.177,17.867 -13.486,16.86 -13.796,15.194C-13.997,14.064 -13.723,13.007 -13.005,12.125C-12.369,11.356 -11.617,10.902 -10.763,10.772C-10.528,10.731 -10.167,10.686 -9.694,10.666C-9.066,10.655 -8.553,10.612 -8.09,10.535C-7.752,9.322 -7.374,8.016 -6.949,6.589C-6.967,6.588 -6.984,6.588 -7.001,6.588C-8.889,6.566 -10.188,5.571 -10.477,3.926C-10.689,2.83 -10.421,1.764 -9.691,0.872C-9.113,0.149 -8.353,-0.326 -7.501,-0.49C-7.223,-0.54 -6.846,-0.566 -6.384,-0.586C-5.769,-0.598 -5.248,-0.643 -4.805,-0.721L-4.607,-0.761C-2.912,-5.971 -2.342,-7.568 -0.94,-11.109C0.95,-15.888 1.337,-16.804 1.466,-17.071C2.038,-18.18 2.774,-18.811 3.676,-18.983C3.884,-19.024 4.104,-19.045 4.323,-19.042C5.152,-19.033 5.944,-18.708 6.676,-18.078C7.314,-17.485 7.694,-16.768 7.821,-15.961C7.972,-15.15 7.833,-14.202 7.38,-13.017L6.985,-11.984L6.843,-11.984C5.518,-8.765 4.45,-6.094 3.621,-3.913C4.162,-4.15 4.646,-4.364 5.072,-4.561C5.072,-4.561 6.515,-5.182 6.847,-5.329C8.171,-9.23 8.492,-10.051 9.445,-12.489L9.653,-13.022C10.436,-15.023 11.79,-18.463 12.08,-19.025C12.771,-20.375 13.689,-20.794 14.338,-20.905C14.493,-20.939 14.713,-20.961 14.932,-20.959C15.726,-20.95 16.5,-20.627 17.231,-19.998C17.883,-19.389 18.265,-18.686 18.417,-17.865C18.565,-17.091 18.428,-16.136 17.992,-14.954C17.89,-14.702 17.329,-13.268 16.296,-10.598C15.42,-8.474 14.94,-7.4 14.62,-6.703C16.519,-6.102 17.083,-4.733 17.244,-3.837C17.404,-3.063 17.287,-2.252 16.896,-1.531C16.257,-0.432 15.415,-0.081 14.817,0.027C14.557,0.065 14.27,0.088 13.901,0.084C13.66,0.081 13.376,0.067 13.052,0.036C12.744,0.036 12.436,0.058 12.131,0.102C11.784,1.221 11.373,2.683 10.9,4.47C13.127,4.969 13.76,6.462 13.932,7.413C14.074,8.186 13.968,8.945 13.614,9.665L13.561,9.766C12.95,10.812 12.112,11.166 11.517,11.278C11.216,11.321 10.896,11.343 10.476,11.338C10.253,11.336 9.998,11.326 9.712,11.307C9.61,11.297 9.553,11.295 9.494,11.294C9.329,11.292 9.149,11.306 8.982,11.325C8.509,12.926 8.004,14.624 7.455,16.433C7.153,17.429 6.984,17.94 6.872,18.283C6.675,18.879 6.675,18.879 6.29,20.702L6.263,20.827L6.06,22.862L6.035,22.967C5.622,24.696 5.388,25.119 5.3,25.279L5.236,25.385C4.844,25.981 4.203,26.377 3.435,26.5C3.318,26.526 3.122,26.546 2.924,26.543C2.16,26.535 1.408,26.213 0.687,25.585L0.596,25.499C0.022,24.912 -0.312,24.295 -0.429,23.61C-0.642,22.487 -0.67,20.939 0.979,14.355C0.25,14.663 -0.579,15.003 -1.471,15.356C-1.611,15.411 -2.209,15.663 -2.326,15.713L-3.142,18.356C-3.651,20.036 -3.682,20.218 -3.785,20.816C-3.857,21.241 -3.961,21.846 -4.239,23.13L-4.545,24.802C-4.936,26.398 -5.14,26.893 -5.274,27.155L-5.312,27.229L-5.356,27.297C-5.75,27.9 -6.395,28.3 -7.171,28.42C-7.279,28.444 -7.473,28.463 -7.664,28.461" style="fill:white;fill-rule:nonzero;"/>
        </g>
        <g transform="matrix(1.05907,0,0,1.05907,644.688,2257.21)">
            <path d="M0,6.94C-0.68,7.266 -1.39,7.59 -2.129,7.897C-3.122,8.336 -4.737,9.024 -6.972,10.017C-6.605,8.709 -6.277,7.516 -5.98,6.422C-5.572,4.859 -5.285,3.746 -5.1,3.042C-4.263,2.698 -3.663,2.469 -3.3,2.356C-1.637,1.689 -0.08,1.021 1.358,0.371L2.117,0.006C1.334,2.506 0.632,4.831 0,6.94M10.945,-2.56C11.156,-2.95 11.221,-3.379 11.127,-3.831C10.905,-5.068 9.795,-5.708 7.796,-5.693C8.361,-7.254 8.408,-6.956 10.261,-11.445C11.303,-14.135 11.866,-15.581 11.947,-15.776C12.271,-16.655 12.396,-17.359 12.303,-17.849C12.212,-18.34 12,-18.735 11.641,-19.072C11.107,-19.529 10.581,-19.732 10.05,-19.619C9.628,-19.545 9.25,-19.197 8.931,-18.573C8.771,-18.262 7.976,-16.312 6.572,-12.721C5.391,-9.695 5.169,-9.171 3.569,-4.446C3.045,-4.197 2.238,-3.854 1.175,-3.395C0.131,-2.916 -1.247,-2.326 -2.972,-1.58L-3.7,-1.236C-2.789,-3.891 -1.274,-7.774 0.822,-12.866C1.871,-15.558 1.281,-13.664 1.342,-13.856C1.686,-14.754 1.8,-15.439 1.699,-15.989C1.625,-16.46 1.404,-16.854 1.084,-17.153C0.531,-17.629 -0.026,-17.812 -0.584,-17.702C-0.978,-17.626 -1.345,-17.278 -1.666,-16.655C-1.827,-16.323 -2.612,-14.372 -4.025,-10.801C-5.477,-7.133 -6.002,-5.651 -7.942,0.324C-8.442,0.436 -8.826,0.51 -9.09,0.566C-9.621,0.659 -10.221,0.71 -10.876,0.722C-11.249,0.738 -11.553,0.754 -11.759,0.791C-12.24,0.883 -12.664,1.153 -13.022,1.6C-13.45,2.124 -13.604,2.71 -13.474,3.378C-13.271,4.537 -12.217,4.961 -10.332,4.609C-10.225,4.59 -9.88,4.515 -9.271,4.386C-10.075,7.023 -10.779,9.425 -11.371,11.594C-11.854,11.707 -12.178,11.781 -12.363,11.818C-12.903,11.911 -13.502,11.962 -14.188,11.975C-14.57,11.99 -14.863,12.025 -15.08,12.063C-15.553,12.135 -15.967,12.406 -16.334,12.851C-16.762,13.376 -16.914,13.962 -16.795,14.63C-16.572,15.828 -15.54,16.252 -13.684,15.92C-13.281,15.845 -12.868,15.772 -12.455,15.66C-14.423,23.223 -14.178,24.106 -14.03,24.968C-13.958,25.381 -13.754,25.717 -13.424,26.035C-12.91,26.47 -12.423,26.672 -11.971,26.58C-11.616,26.524 -11.382,26.371 -11.241,26.156C-11.11,25.902 -10.917,25.278 -10.661,24.242L-10.346,22.519C-9.642,19.274 -10.091,20.507 -9.215,17.617C-8.838,16.386 -8.491,15.274 -8.176,14.256C-7.468,13.971 -6.947,13.742 -6.612,13.608C-4.976,12.96 -3.717,12.425 -2.83,12.024C-2.161,11.738 -1.63,11.509 -1.226,11.317C-3.64,20.384 -3.61,22.086 -3.424,23.07C-3.36,23.443 -3.159,23.778 -2.829,24.116C-2.306,24.572 -1.816,24.753 -1.374,24.661C-1.031,24.605 -0.784,24.451 -0.645,24.239C-0.516,24.004 -0.312,23.36 -0.064,22.324L0.137,20.309C0.799,17.18 0.466,18.725 1.381,15.697C2.032,13.55 2.623,11.557 3.173,9.701C3.488,9.606 3.704,9.57 3.841,9.532C4.312,9.459 4.805,9.407 5.263,9.451C5.93,9.497 6.4,9.482 6.664,9.447C7.058,9.373 7.384,9.121 7.634,8.693C7.835,8.283 7.898,7.873 7.815,7.42C7.584,6.144 6.425,5.544 4.337,5.617C5.167,2.373 5.841,-0.031 6.358,-1.573C6.624,-1.609 6.84,-1.645 6.996,-1.683C7.575,-1.793 8.106,-1.828 8.576,-1.823C9.241,-1.756 9.713,-1.769 9.978,-1.807C10.38,-1.879 10.695,-2.13 10.945,-2.56" style="fill:rgb(120,159,212);fill-rule:nonzero;"/>
        </g>
        <g transform="matrix(1.05907,0,0,1.05907,661.397,2234.15)">
            <path d="M0,37.999C0.087,38.047 0.157,38.079 0.21,38.102C0.357,38.163 0.463,38.187 0.572,38.189C0.626,38.189 0.679,38.185 0.731,38.177C2.414,37.868 4.162,35.661 5.757,31.798C6.603,29.835 7.182,28.011 7.536,26.199C7.896,24.244 7.856,23.411 7.799,23.088C7.312,23.213 6.355,23.738 4.932,25.735C3.6,27.561 2.392,30.12 1.333,33.36C0.795,35.03 0.374,36.49 0.05,37.816L0,37.999ZM-4.521,47.437C-5.342,47.427 -6.128,47.086 -6.857,46.423C-7.507,45.812 -7.876,45.154 -8.007,44.394C-8.108,43.843 -8.27,42.978 -5.445,31.639C-2.888,21.45 0.417,11.002 4.377,0.58C5.963,-3.649 6.979,-6.222 7.397,-7.058C7.621,-7.533 8.354,-9.09 9.854,-9.379C10.069,-9.42 10.285,-9.439 10.5,-9.437C11.364,-9.427 12.205,-9.07 12.932,-8.404C13.539,-7.882 13.945,-7.155 14.104,-6.273C14.258,-5.439 14.119,-4.464 13.667,-3.207C13.615,-3.076 13.539,-2.88 13.412,-2.552C13.134,-1.832 12.622,-0.512 11.874,1.385C9.491,7.099 7.605,12.119 6.233,16.393C6.993,15.989 7.756,15.723 8.526,15.59C8.852,15.531 9.193,15.501 9.523,15.505C10.743,15.519 11.86,15.969 12.846,16.843C13.914,17.78 14.596,18.991 14.868,20.438C15.282,22.78 15.053,25.58 14.17,29.016C13.202,32.729 11.466,36.373 9.009,39.85C6.824,42.955 4.418,44.766 1.857,45.227C1.384,45.314 0.911,45.357 0.461,45.353C-0.086,45.346 -0.616,45.27 -1.117,45.125C-1.311,45.08 -1.504,45.023 -1.696,44.956C-1.9,45.646 -2.032,45.942 -2.144,46.143C-2.429,46.621 -2.95,47.182 -3.96,47.389C-4.204,47.428 -4.362,47.438 -4.521,47.437" style="fill:white;fill-rule:nonzero;"/>
        </g>
        <g transform="matrix(1.05907,0,0,1.05907,671.025,2246.3)">
            <path d="M0,15.031C-0.375,16.949 -0.995,18.903 -1.87,20.93C-3.714,25.398 -5.79,27.844 -8.105,28.268C-8.559,28.342 -9.009,28.298 -9.478,28.096C-9.925,27.915 -10.413,27.595 -10.897,27.139L-10.58,25.968C-10.231,24.541 -9.793,23.036 -9.264,21.395C-8.146,17.978 -6.883,15.306 -5.449,13.344C-4.035,11.36 -2.71,10.259 -1.482,10.037C-0.981,9.946 -0.591,10.009 -0.299,10.207C-0.017,10.427 0.175,10.801 0.267,11.33C0.405,12.096 0.313,13.331 0,15.031M2.703,6.556C1.81,5.763 0.813,5.477 -0.296,5.68C-2.113,5.993 -3.97,7.324 -5.878,9.635C-4.545,4.417 -2.155,-2.358 1.31,-10.668C2.418,-13.478 3.005,-15.02 3.085,-15.215C3.429,-16.171 3.556,-16.915 3.455,-17.463C3.362,-17.975 3.14,-18.391 2.771,-18.707C2.229,-19.203 1.643,-19.406 1.062,-19.294C0.582,-19.202 0.146,-18.717 -0.276,-17.821C-0.657,-17.06 -1.646,-14.563 -3.232,-10.328C-7.172,0.036 -10.433,10.329 -12.999,20.55C-14.824,27.881 -15.675,31.907 -15.536,32.654C-15.462,33.086 -15.241,33.442 -14.882,33.779C-14.358,34.255 -13.861,34.437 -13.369,34.364C-13.006,34.29 -12.76,34.135 -12.619,33.901C-12.479,33.648 -12.275,32.984 -12.01,31.929C-11.97,31.812 -11.888,31.557 -11.737,31.148C-11.125,31.645 -10.471,31.966 -9.768,32.131C-9.064,32.335 -8.309,32.343 -7.515,32.196C-5.364,31.808 -3.317,30.224 -1.375,27.464C0.974,24.138 2.623,20.686 3.545,17.15C4.362,13.965 4.588,11.341 4.22,9.259C4.018,8.178 3.517,7.27 2.703,6.556" style="fill:rgb(120,159,212);fill-rule:nonzero;"/>
        </g>
        <g transform="matrix(1.05907,0,0,1.05907,688.902,2269.56)">
            <path d="M0,-15.533C-0.351,-15.239 -0.972,-14.61 -1.898,-13.281C-3.526,-10.923 -4.687,-8.571 -5.346,-6.301C-6.107,-3.736 -6.359,-1.71 -6.101,-0.269C-6.064,-0.064 -6.002,-0.002 -5.972,0.027C-5.924,0.073 -5.887,0.089 -5.887,0.089C-5.194,-0.054 -4.298,-1.069 -3.475,-2.697C-3.033,-3.49 -2.71,-4.294 -2.481,-5.144C-2.457,-5.239 -2.433,-5.329 -2.411,-5.413C-2.904,-5.804 -3.285,-6.277 -3.402,-6.899C-3.528,-7.634 -3.256,-8.354 -2.244,-10.01C-0.48,-12.887 -0.014,-14.566 0,-15.533M-7.277,8.073C-8.935,8.055 -10.382,7.279 -11.463,5.831C-12.102,5.004 -12.552,3.941 -12.782,2.691C-13.438,-0.969 -12.907,-5.183 -11.21,-9.844C-9.621,-14.133 -7.437,-17.689 -4.713,-20.426C-2.983,-22.148 -1.229,-23.182 0.505,-23.501C0.903,-23.575 1.298,-23.611 1.67,-23.607C3.097,-23.591 5.601,-22.948 6.339,-18.825C7.028,-15.025 6.169,-9.929 3.786,-3.681C1.052,3.462 -2.198,7.276 -6.152,7.976C-6.531,8.045 -6.911,8.078 -7.276,8.073L-7.277,8.073Z" style="fill:white;fill-rule:nonzero;"/>
        </g>
        <g transform="matrix(1.05907,0,0,1.05907,688.242,2259.49)">
            <path d="M0,3.375C0.021,3.394 -0.084,3.863 -0.328,4.781C-0.574,5.7 -0.937,6.638 -1.437,7.532C-2.541,9.716 -3.741,10.917 -5.017,11.157C-5.546,11.25 -6.023,11.087 -6.462,10.671C-6.763,10.374 -6.953,9.998 -7.037,9.527C-7.341,7.838 -7.08,5.588 -6.244,2.773C-5.531,0.313 -4.307,-2.162 -2.575,-4.672C-1.221,-6.616 -0.129,-7.662 0.725,-7.829C1.187,-7.901 1.537,-7.762 1.838,-7.403C2.002,-7.207 2.108,-7.009 2.144,-6.794C2.449,-5.144 1.639,-2.78 -0.27,0.333C-0.947,1.442 -1.26,2.105 -1.224,2.322C-1.167,2.616 -0.759,2.955 0,3.375M5.402,-9.03C4.924,-11.701 3.594,-12.833 1.414,-12.427C0.01,-12.169 -1.45,-11.303 -2.968,-9.792C-5.535,-7.213 -7.58,-3.885 -9.099,0.214C-10.705,4.625 -11.209,8.519 -10.602,11.918C-10.417,12.92 -10.074,13.747 -9.57,14.399C-8.597,15.704 -7.338,16.208 -5.806,15.932C-2.476,15.341 0.435,11.788 2.929,5.269C5.222,-0.741 6.04,-5.515 5.402,-9.03" style="fill:rgb(120,159,212);fill-rule:nonzero;"/>
        </g>
        <g transform="matrix(1.05907,0,0,1.05907,733.642,2265.08)">
            <path d="M0,-45.001C-0.84,-44.089 -2.218,-42.228 -4.25,-38.445C-5.497,-36.111 -6.744,-33.424 -7.981,-30.411C-6.427,-32.445 -4.962,-34.637 -3.598,-36.975C-2.122,-39.522 -1.055,-41.789 -0.336,-43.901C-0.192,-44.334 -0.082,-44.697 0,-45.001M18.339,-26.703C18.229,-26.704 18.11,-26.691 17.979,-26.668C16.786,-26.455 15.458,-25.657 14.042,-24.297C13.295,-23.591 12.77,-22.897 12.462,-22.206C12.652,-22.467 12.886,-22.713 13.162,-22.937L13.228,-22.989L13.297,-23.034C13.661,-23.27 15.039,-23.869 16.131,-24.33C16.83,-24.613 17.424,-25.072 17.968,-25.743C18.143,-25.956 18.416,-26.342 18.36,-26.647C18.356,-26.667 18.353,-26.686 18.349,-26.703L18.339,-26.703ZM7.037,-10.655C7.052,-10.237 7.094,-9.847 7.164,-9.468C7.32,-8.579 7.739,-7.935 8.485,-7.425C8.952,-7.117 9.418,-6.957 9.891,-6.952C10.039,-6.95 10.19,-6.964 10.343,-6.993C11.088,-7.126 11.356,-7.448 11.51,-7.712C11.688,-8.033 11.734,-8.459 11.642,-8.998C11.563,-9.43 11.167,-10.423 9.405,-12.117C8.856,-12.654 8.359,-13.185 7.915,-13.711C7.845,-12.918 7.56,-11.928 7.037,-10.655M-28.569,-10.399C-29.293,-9.143 -29.983,-7.655 -30.636,-5.943C-32.108,-1.985 -32.19,0.088 -31.999,1.128C-31.955,1.39 -31.87,1.548 -31.691,1.713C-31.42,1.967 -31.214,2.003 -31.049,2.005C-30.973,2.006 -30.894,1.999 -30.812,1.985C-29.962,1.834 -28.503,1.087 -26.433,-1.611C-24.909,-3.6 -23.637,-5.61 -22.65,-7.583C-22.33,-8.282 -21.973,-8.847 -21.576,-9.276L-21.398,-9.962C-21.236,-10.58 -21.072,-11.193 -20.906,-11.801C-21.103,-11.292 -21.336,-10.779 -21.603,-10.261C-22.745,-8.09 -23.979,-6.909 -25.382,-6.641C-25.611,-6.602 -25.806,-6.586 -25.987,-6.588C-27.026,-6.6 -28.252,-7.236 -28.575,-8.982C-28.668,-9.486 -28.666,-9.959 -28.569,-10.399M-32.19,9.125C-33.976,9.106 -35.524,8.487 -36.796,7.286C-37.973,6.145 -38.726,4.694 -39.049,2.955C-39.607,-0.157 -39.028,-3.788 -37.279,-8.156C-35.623,-12.199 -33.456,-15.655 -30.834,-18.443C-29.083,-20.249 -27.447,-21.255 -25.816,-21.538C-25.406,-21.614 -24.994,-21.652 -24.606,-21.647C-22.301,-21.621 -20.711,-20.121 -20.243,-17.53C-20.047,-16.44 -20.049,-15.315 -20.245,-14.161C-17.443,-23.917 -14.106,-32.509 -10.304,-39.752C-7.985,-44.265 -5.681,-47.775 -3.463,-50.17C-1.319,-52.485 0.527,-53.761 2.184,-54.068C2.415,-54.112 2.653,-54.133 2.889,-54.13C3.666,-54.122 4.41,-53.861 5.099,-53.358C6.089,-52.665 6.75,-51.626 6.981,-50.373C7.452,-47.754 6.771,-44.404 4.898,-40.123C3.063,-35.968 -0.292,-30.861 -5.357,-24.51C-4.211,-25.21 -3.295,-25.623 -2.564,-25.773C-2.318,-25.813 -2.146,-25.826 -1.978,-25.824C-1.4,-25.818 -0.856,-25.643 -0.359,-25.304C0.308,-24.903 0.771,-24.225 0.911,-23.386C1.079,-22.49 1.013,-20.751 -1.392,-19.534C-2.998,-18.727 -4.652,-17.543 -6.318,-16.005C-7.144,-11.883 -7.387,-8.804 -7.04,-6.851C-6.892,-6.059 -6.629,-5.43 -6.264,-4.999C-5.89,-4.573 -5.645,-4.57 -5.564,-4.569C-5.514,-4.569 -5.461,-4.574 -5.406,-4.584C-4.456,-4.749 -2.912,-5.585 -0.82,-8.659C-0.302,-9.397 0.181,-10.144 0.625,-10.898C0.76,-11.988 1.06,-13.006 1.519,-13.93C2.253,-15.414 3.25,-16.289 4.481,-16.534C4.617,-16.591 4.776,-16.647 4.964,-16.681C5.171,-16.718 5.365,-16.733 5.545,-16.732C5.675,-16.73 5.803,-16.719 5.925,-16.7C5.526,-17.523 5.258,-18.341 5.113,-19.163C4.541,-22.328 5.713,-25.434 8.598,-28.387C11.315,-31.107 14.423,-32.787 17.847,-33.392C18.671,-33.539 19.404,-33.608 20.084,-33.6C21.068,-33.589 21.938,-33.409 22.668,-33.064C23.641,-32.598 24.873,-31.601 25.267,-29.468C25.607,-27.546 25.237,-25.569 24.167,-23.581C23.18,-21.772 21.507,-20.138 19.191,-18.719C17.884,-17.951 16.719,-17.474 15.702,-17.289C15.398,-17.234 15.106,-17.208 14.834,-17.21C14.398,-17.216 13.999,-17.294 13.644,-17.439C13.963,-17.043 14.349,-16.609 14.813,-16.134C17.024,-13.936 18.277,-11.925 18.628,-9.999C19.153,-7.112 18.275,-4.588 16.02,-2.501C14.667,-1.238 13.016,-0.418 11.117,-0.073C10.416,0.054 9.732,0.114 9.081,0.106C6.893,0.082 4.989,-0.689 3.427,-2.186C3.206,-2.404 2.997,-2.632 2.801,-2.873C0.394,0.451 -2.286,2.401 -5.189,2.937C-5.65,3.021 -6.1,3.059 -6.532,3.054C-7.985,3.039 -10.058,2.501 -11.675,0.037C-12.697,-1.479 -13.384,-3.182 -13.704,-5.008C-13.745,-5.233 -13.781,-5.474 -13.813,-5.731C-14.688,-3.907 -15.67,-1.639 -16.755,1.061C-17.067,1.873 -18.042,4.409 -20.1,4.753C-20.271,4.785 -20.456,4.799 -20.639,4.798C-21.315,4.791 -21.964,4.539 -22.514,4.07C-22.616,3.979 -22.712,3.888 -22.801,3.794C-25.323,6.794 -27.877,8.5 -30.551,8.984C-31.116,9.084 -31.665,9.132 -32.19,9.125" style="fill:white;fill-rule:nonzero;"/>
        </g>
        <g transform="matrix(1.05907,0,0,1.05907,727.663,2259.09)">
            <path d="M0,-33.544C2.804,-38.765 4.961,-41.504 6.442,-41.783C7.003,-41.874 7.334,-41.635 7.455,-41.025C7.555,-40.418 7.338,-39.322 6.81,-37.74C6.039,-35.476 4.895,-33.077 3.416,-30.525C0.438,-25.425 -2.954,-21.054 -6.788,-17.392C-4.577,-23.815 -2.322,-29.2 0,-33.544M27.637,-25.981C26.701,-26.423 25.419,-26.477 23.768,-26.181C20.637,-25.627 17.835,-24.091 15.376,-21.63C12.859,-19.053 11.84,-16.437 12.319,-13.786C12.669,-11.802 13.959,-9.749 16.149,-7.608C17.739,-6.08 18.646,-4.737 18.848,-3.618C19.005,-2.715 18.897,-1.933 18.527,-1.27C18.066,-0.471 17.318,0.03 16.287,0.214C15.227,0.418 14.2,0.172 13.236,-0.467C12.158,-1.204 11.483,-2.211 11.252,-3.527C11.138,-4.143 11.095,-4.732 11.093,-5.307C11.793,-6.959 12.086,-8.104 11.97,-8.732C11.858,-9.341 11.5,-9.581 10.891,-9.47C10.784,-9.451 10.685,-9.395 10.582,-9.345C10.548,-9.34 10.521,-9.345 10.485,-9.337C9.739,-9.209 9.104,-8.628 8.583,-7.574C8.146,-6.695 7.899,-5.75 7.81,-4.742C7.309,-3.871 6.753,-2.995 6.135,-2.115C4.201,0.726 2.34,2.31 0.532,2.623C-0.351,2.79 -1.132,2.468 -1.828,1.676C-2.38,1.023 -2.752,0.156 -2.955,-0.923C-3.353,-3.162 -3.077,-6.569 -2.124,-11.165C-0.252,-12.947 1.626,-14.337 3.538,-15.296C4.672,-15.87 5.159,-16.59 4.994,-17.475C4.928,-17.867 4.726,-18.144 4.395,-18.344C4.075,-18.563 3.753,-18.626 3.398,-18.57C2.771,-18.44 1.783,-17.962 0.463,-17.095C-1.493,-15.783 -3.016,-14.586 -4.115,-13.52C-5.812,-11.795 -7.991,-8.859 -10.664,-4.677C-9.673,-8.311 -9.07,-10.519 -8.854,-11.241C-6.499,-13.371 -3.91,-16.184 -1.117,-19.64C3.872,-25.875 7.283,-31.012 9.093,-35.107C10.823,-39.067 11.475,-42.176 11.068,-44.434C10.912,-45.28 10.49,-45.951 9.809,-46.428C9.264,-46.827 8.698,-46.969 8.117,-46.859C6.822,-46.619 5.23,-45.48 3.345,-43.443C1.262,-41.193 -0.952,-37.848 -3.256,-33.365C-7.562,-25.162 -11.221,-15.325 -14.22,-3.912C-14.32,-3.526 -14.417,-3.152 -14.511,-2.785C-14.87,-2.51 -15.232,-1.996 -15.588,-1.223C-16.601,0.804 -17.908,2.887 -19.53,5.005C-21.438,7.492 -23.229,8.902 -24.899,9.197C-25.752,9.344 -26.485,9.12 -27.125,8.525C-27.553,8.128 -27.812,7.655 -27.912,7.066C-28.244,5.259 -27.764,2.618 -26.471,-0.856C-25.207,-4.173 -23.798,-6.706 -22.25,-8.434C-21.267,-9.538 -20.485,-10.118 -19.936,-10.211C-19.455,-10.303 -19.182,-10.123 -19.098,-9.71C-19.034,-9.338 -19.128,-8.829 -19.352,-8.146C-19.694,-7.15 -20.067,-6.389 -20.465,-5.844C-20.933,-5.243 -21.192,-4.872 -21.252,-4.757C-21.413,-4.444 -21.455,-4.072 -21.372,-3.62C-21.216,-2.775 -20.769,-2.419 -20.032,-2.547C-19.158,-2.714 -18.266,-3.626 -17.364,-5.34C-16.202,-7.58 -15.808,-9.653 -16.157,-11.598C-16.554,-13.797 -17.808,-14.713 -19.899,-14.326C-21.175,-14.105 -22.548,-13.239 -24.034,-11.707C-26.534,-9.049 -28.579,-5.78 -30.163,-1.917C-31.787,2.142 -32.344,5.546 -31.847,8.315C-31.586,9.71 -31.004,10.872 -30.062,11.784C-28.783,12.993 -27.15,13.425 -25.187,13.075C-22.229,12.54 -19.306,10.095 -16.403,5.806C-16.515,6.607 -16.544,7.173 -16.486,7.488C-16.422,7.862 -16.199,8.198 -15.841,8.515C-15.491,8.812 -15.12,8.915 -14.716,8.842C-13.941,8.712 -13.226,7.801 -12.579,6.121C-10.078,-0.103 -8.104,-4.079 -6.634,-5.826C-6.792,-3.045 -6.746,-0.986 -6.498,0.369C-6.212,1.999 -5.61,3.476 -4.705,4.818C-3.5,6.654 -1.873,7.398 0.168,7.029C3.195,6.471 5.976,4.061 8.5,-0.198C8.9,0.756 9.444,1.605 10.168,2.32C11.826,3.908 13.926,4.479 16.479,4.019C18.099,3.725 19.469,3.033 20.589,1.987C22.431,0.283 23.14,-1.727 22.715,-4.065C22.429,-5.636 21.303,-7.411 19.326,-9.375C17.541,-11.198 16.522,-12.798 16.271,-14.171C15.924,-16.115 16.687,-17.989 18.59,-19.79C20.226,-21.358 21.813,-22.303 23.354,-22.578C23.993,-22.69 24.492,-22.645 24.862,-22.425C25.224,-22.225 25.464,-21.849 25.564,-21.28C25.693,-20.572 25.451,-19.831 24.844,-19.094C24.148,-18.236 23.337,-17.602 22.392,-17.22C20.808,-16.551 19.951,-16.148 19.804,-16.054C19.229,-15.589 18.998,-15.023 19.126,-14.356C19.302,-13.374 19.944,-12.994 21.064,-13.197C21.878,-13.345 22.863,-13.745 24.008,-14.418C26.08,-15.689 27.557,-17.103 28.417,-18.68C29.318,-20.356 29.629,-21.979 29.354,-23.529C29.133,-24.73 28.562,-25.537 27.637,-25.981" style="fill:rgb(120,159,212);fill-rule:nonzero;"/>
        </g>
        <g transform="matrix(1.05907,0,0,1.05907,836.033,2249.75)">
            <path d="M0,-48.338C-0.833,-47.435 -2.205,-45.576 -4.263,-41.753C-5.511,-39.406 -6.759,-36.717 -7.994,-33.714C-6.435,-35.753 -4.97,-37.946 -3.61,-40.282C-2.189,-42.717 -1.092,-45.051 -0.346,-47.221C-0.195,-47.662 -0.083,-48.03 0,-48.338M-47.225,-17.487C-48.64,-17.228 -50.22,-15.255 -51.663,-11.933C-53.423,-7.869 -54.098,-4.596 -53.666,-2.206C-53.629,-2.004 -53.588,-1.867 -53.553,-1.777C-53.211,-1.937 -52.291,-2.632 -51.085,-5.63C-50.419,-7.239 -49.651,-9.609 -48.797,-12.686C-48.179,-14.828 -47.707,-16.241 -47.351,-17.022C-47.286,-17.171 -47.208,-17.324 -47.113,-17.485C-47.14,-17.492 -47.153,-17.492 -47.162,-17.492C-47.183,-17.492 -47.203,-17.49 -47.225,-17.487M-67.454,9.101C-68.923,9.084 -70.28,8.493 -71.489,7.342C-72.477,6.346 -73.094,5.016 -73.41,3.241C-74.027,-0.183 -73.767,-4.354 -72.631,-9.152C-72.424,-10.072 -71.898,-11.976 -71.036,-14.932C-71.523,-14.951 -71.994,-15.046 -72.437,-15.217C-73.975,-15.882 -74.43,-16.93 -74.55,-17.696C-74.685,-18.353 -74.692,-19.755 -73.091,-20.99C-72.769,-21.256 -72.283,-21.47 -69.769,-22.305C-69.47,-22.408 -68.903,-22.641 -67.904,-23.158C-67.219,-25.042 -66.153,-27.468 -64.732,-30.385C-63.786,-32.308 -63.167,-33.483 -62.781,-34.088C-62.001,-35.263 -61.181,-35.907 -60.257,-36.089C-60.056,-36.122 -59.908,-36.133 -59.758,-36.132C-59.133,-36.125 -58.503,-35.898 -57.887,-35.458C-57.141,-34.874 -56.722,-34.227 -56.585,-33.491C-56.446,-32.684 -56.547,-31.494 -58.156,-28.148C-57.056,-28.568 -56.152,-28.843 -55.428,-28.982C-55.036,-29.05 -54.683,-29.081 -54.356,-29.078C-52.59,-29.058 -51.351,-28.005 -51.039,-26.261C-50.83,-25.103 -51.202,-24.047 -52.089,-23.294C-52.381,-23.032 -52.945,-22.673 -54.694,-22.192L-54.811,-22.16L-54.931,-22.145C-54.977,-22.128 -55.844,-21.856 -60.147,-19.701C-60.881,-19.321 -61.618,-18.936 -62.349,-18.549C-63.458,-15.796 -64.42,-12.739 -65.208,-9.449C-66.697,-3.38 -66.695,-0.376 -66.432,1.078C-66.388,1.322 -66.333,1.461 -66.293,1.536C-66.256,1.535 -66.227,1.531 -66.196,1.526C-66.023,1.495 -64.935,1.141 -63.216,-2.245C-62.315,-3.961 -61.552,-5.653 -60.934,-7.294C-60.656,-8.083 -60.269,-8.711 -59.78,-9.158C-59.665,-9.593 -59.541,-10.035 -59.401,-10.483C-57.975,-15.023 -55.883,-18.757 -53.184,-21.584C-51.307,-23.538 -49.285,-24.729 -47.17,-25.125C-46.759,-25.2 -46.354,-25.236 -45.963,-25.232C-44.91,-25.219 -43.929,-24.925 -43.046,-24.356C-41.957,-23.659 -41.254,-22.646 -41.019,-21.428C-40.902,-20.784 -40.929,-19.999 -41.098,-19.036C-40.727,-18.543 -40.492,-18.048 -40.388,-17.537C-40.224,-16.617 -40.445,-15.414 -41.079,-13.714C-41.579,-12.361 -42.016,-10.571 -42.376,-8.399C-42.849,-5.607 -42.77,-4.043 -42.621,-3.22C-42.558,-2.86 -42.453,-2.554 -42.303,-2.291C-42.134,-3.364 -41.906,-4.632 -41.618,-6.114C-40.331,-12.603 -38.738,-17.604 -36.751,-21.408C-35.297,-24.216 -33.882,-25.658 -32.302,-25.94C-32.087,-25.975 -31.896,-25.989 -31.705,-25.987C-31.224,-25.982 -30.756,-25.87 -30.314,-25.656C-29.197,-25.029 -28.856,-24.196 -28.75,-23.598C-28.734,-23.511 -28.722,-23.421 -28.715,-23.33C-28.478,-23.601 -28.237,-23.872 -27.995,-24.143C-26.919,-25.354 -25.755,-26.507 -24.442,-27.666C-23.481,-28.444 -23.013,-28.767 -22.458,-28.866C-22.324,-28.892 -22.167,-28.906 -22.008,-28.904C-21.227,-28.896 -20.476,-28.526 -19.713,-27.772C-19.192,-27.277 -18.863,-26.714 -18.756,-26.118C-18.508,-24.814 -19.441,-23.537 -20.283,-22.572C-21.605,-21.052 -22.307,-20.025 -22.678,-19.358C-21.953,-19.821 -20.841,-20.688 -19.184,-22.315C-18.997,-22.495 -18.814,-22.648 -18.633,-22.782C-16.19,-30.376 -13.397,-37.196 -10.325,-43.06C-7.962,-47.623 -5.65,-51.134 -3.461,-53.487C-1.347,-55.795 0.498,-57.071 2.171,-57.382C2.423,-57.425 2.647,-57.443 2.87,-57.441C3.671,-57.432 4.422,-57.163 5.104,-56.642C6.063,-55.995 6.734,-54.951 6.97,-53.677C7.437,-51.075 6.756,-47.729 4.888,-43.44C3.063,-39.285 -0.288,-34.177 -5.356,-27.825C-4.188,-28.533 -3.294,-28.934 -2.566,-29.083C-2.325,-29.123 -2.154,-29.136 -1.986,-29.134C-1.408,-29.127 -0.863,-28.951 -0.366,-28.61C0.279,-28.223 0.743,-27.547 0.902,-26.708C1.067,-25.771 0.984,-24.047 -1.394,-22.842C-3.011,-22.032 -4.668,-20.845 -6.329,-19.313C-7.157,-15.191 -7.396,-12.115 -7.043,-10.167C-6.9,-9.365 -6.642,-8.744 -6.273,-8.315C-5.899,-7.884 -5.654,-7.88 -5.573,-7.879L-5.571,-7.879C-5.522,-7.878 -5.472,-7.882 -5.42,-7.893C-4.462,-8.058 -2.914,-8.895 -0.837,-11.963C0.414,-13.741 1.399,-15.466 2.11,-17.116C2.375,-17.74 3.191,-19.668 4.949,-19.988C5.157,-20.027 5.354,-20.042 5.534,-20.041C6.745,-20.027 7.642,-19.236 7.871,-17.976C8.057,-16.973 7.883,-15.245 5.181,-10.069C2.132,-4.247 -1.263,-1.075 -5.198,-0.371C-5.651,-0.288 -6.103,-0.249 -6.535,-0.254L-6.536,-0.254C-7.992,-0.27 -10.068,-0.806 -11.688,-3.27C-12.7,-4.789 -13.384,-6.487 -13.715,-8.307C-13.755,-8.534 -13.79,-8.776 -13.82,-9.034C-14.63,-7.347 -15.6,-5.139 -16.755,-2.25C-17.327,-0.81 -18.3,1.143 -20.113,1.445C-20.271,1.475 -20.461,1.491 -20.648,1.489C-21.327,1.482 -21.977,1.23 -22.525,0.761C-23.168,0.193 -23.555,-0.448 -23.697,-1.162C-23.863,-2.122 -23.74,-4.172 -21.682,-12.219C-22.562,-11.78 -23.45,-11.477 -24.348,-11.312C-24.741,-11.243 -25.124,-11.212 -25.502,-11.216C-26.23,-11.224 -26.957,-11.363 -27.663,-11.63C-28.223,-11.845 -28.881,-12.261 -29.367,-13.07C-30.378,-11.581 -31.45,-9.769 -32.577,-7.646C-33.748,-5.276 -34.863,-2.291 -35.87,1.186C-36.097,1.962 -36.417,2.619 -36.825,3.147L-37.021,3.429C-38.272,5.014 -40.043,5.268 -40.799,5.376L-40.957,5.4C-41.338,5.468 -41.732,5.502 -42.118,5.497C-43.614,5.481 -45.024,4.908 -46.31,3.793C-47.064,3.144 -47.663,2.362 -48.1,1.454C-49.627,4.236 -51.477,5.835 -53.601,6.214C-53.957,6.28 -54.318,6.311 -54.669,6.307C-56.217,6.288 -57.642,5.581 -58.785,4.259C-59.043,3.949 -59.274,3.619 -59.479,3.269C-61.632,6.675 -63.907,8.561 -66.386,9.011C-66.747,9.076 -67.104,9.105 -67.454,9.101" style="fill:white;fill-rule:nonzero;"/>
        </g>
        <g transform="matrix(1.05907,0,0,1.05907,787.412,2216)">
            <path d="M0,15.506C-0.312,16.19 -0.769,17.555 -1.361,19.607C-2.239,22.772 -3.021,25.174 -3.706,26.831C-4.916,29.837 -6.168,31.449 -7.436,31.691C-7.946,31.781 -8.355,31.68 -8.666,31.381C-8.986,31.084 -9.197,30.592 -9.316,29.945C-9.806,27.233 -9.1,23.673 -7.207,19.305C-5.488,15.346 -3.61,13.191 -1.588,12.821C-1.165,12.748 -0.744,12.813 -0.326,13.032C0.104,13.233 0.521,13.61 0.945,14.123C0.47,14.688 0.16,15.135 0,15.506M40.252,-10.635C43.064,-15.861 45.214,-18.6 46.694,-18.877C47.255,-18.97 47.586,-18.731 47.695,-18.112C47.807,-17.504 47.6,-16.409 47.062,-14.836C46.283,-12.571 45.157,-10.168 43.668,-7.617C40.699,-2.515 37.299,1.856 33.455,5.517C35.675,-0.906 37.939,-6.29 40.252,-10.635M52.221,14.177C52.11,13.569 51.751,13.328 51.143,13.44C50.534,13.551 49.979,14.19 49.475,15.381C48.709,17.155 47.669,18.967 46.385,20.793C44.461,23.634 42.591,25.22 40.784,25.533C39.912,25.699 39.12,25.377 38.433,24.586C37.873,23.932 37.5,23.066 37.307,21.985C36.901,19.746 37.175,16.339 38.128,11.744C40.001,9.961 41.888,8.572 43.799,7.613C44.934,7.039 45.41,6.338 45.254,5.454C45.18,5.06 44.979,4.766 44.646,4.566C44.326,4.346 44.006,4.283 43.659,4.338C43.021,4.468 42.048,4.947 40.713,5.814C38.759,7.125 37.236,8.322 36.136,9.39C34.44,11.114 32.261,14.049 29.588,18.233C30.589,14.599 31.183,12.391 31.405,11.668C33.763,9.538 36.341,6.726 39.145,3.267C44.135,-2.966 47.544,-8.103 49.345,-12.203C51.064,-16.153 51.727,-19.263 51.32,-21.52C51.164,-22.364 50.74,-23.046 50.051,-23.515C49.516,-23.923 48.958,-24.055 48.37,-23.955C47.074,-23.715 45.475,-22.576 43.608,-20.539C41.516,-18.29 39.312,-14.942 36.987,-10.456C33.849,-4.463 31.059,2.412 28.607,10.128C28.372,10.237 28.118,10.414 27.836,10.684C25.387,13.088 23.589,14.379 22.45,14.583C21.762,14.713 21.363,14.473 21.252,13.843C21.059,12.764 22.118,10.914 24.432,8.256C25.296,7.265 25.688,6.526 25.595,6.033C25.549,5.777 25.374,5.502 25.084,5.225C24.581,4.728 24.121,4.487 23.729,4.563C23.532,4.598 23.137,4.889 22.516,5.391C21.287,6.476 20.147,7.599 19.095,8.782C16.178,12.043 13.671,15.307 11.576,18.575C11.927,16.913 12.575,15.196 13.477,13.423C14.479,11.533 15.029,10.522 15.109,10.364C15.511,9.546 15.673,8.94 15.599,8.547C15.526,8.135 15.293,7.858 14.904,7.639C14.572,7.478 14.229,7.433 13.886,7.489C12.855,7.673 11.743,8.916 10.563,11.194C8.647,14.859 7.084,19.82 5.847,26.057C5.326,28.733 5.004,30.729 4.875,32.066C3.987,31.838 3.432,31.647 3.218,31.496C2.423,30.88 1.923,30.031 1.729,28.932C1.479,27.556 1.56,25.637 1.97,23.21C2.35,20.921 2.812,19.046 3.346,17.602C3.862,16.215 4.07,15.218 3.969,14.649C3.885,14.236 3.604,13.782 3.102,13.286C3.358,12.172 3.438,11.31 3.336,10.741C3.187,9.975 2.754,9.323 2.005,8.845C1.138,8.286 0.143,8.099 -0.97,8.302C-2.746,8.635 -4.472,9.653 -6.129,11.38C-8.666,14.036 -10.617,17.523 -11.979,21.858C-12.169,22.468 -12.33,23.063 -12.477,23.65C-12.909,23.873 -13.267,24.353 -13.542,25.133C-14.188,26.851 -14.973,28.586 -15.894,30.341C-17.327,33.165 -18.707,34.719 -20.033,34.958C-20.593,35.05 -21.042,34.947 -21.382,34.668C-21.722,34.37 -21.963,33.898 -22.081,33.229C-22.505,30.894 -22.092,27.152 -20.839,22.051C-19.982,18.475 -18.938,15.194 -17.689,12.189C-16.79,11.71 -15.874,11.231 -14.947,10.751C-11.577,9.064 -9.665,8.204 -9.206,8.151C-8.114,7.849 -7.444,7.582 -7.206,7.368C-6.752,6.982 -6.58,6.494 -6.689,5.885C-6.91,4.648 -7.76,4.186 -9.223,4.445C-10.489,4.685 -12.536,5.465 -15.335,6.787C-15,5.889 -14.468,4.68 -13.735,3.159C-12.61,0.839 -12.115,-0.644 -12.233,-1.332C-12.299,-1.685 -12.52,-2.002 -12.899,-2.3C-13.317,-2.598 -13.697,-2.721 -14.043,-2.665C-14.514,-2.573 -15.019,-2.146 -15.536,-1.369C-15.895,-0.805 -16.517,0.384 -17.398,2.177C-18.985,5.433 -20.08,7.986 -20.709,9.823C-21.854,10.438 -22.75,10.859 -23.359,11.068C-25.072,11.636 -26.025,11.978 -26.214,12.133C-26.915,12.674 -27.207,13.277 -27.076,13.927C-26.986,14.495 -26.606,14.892 -25.955,15.174C-25.486,15.356 -24.968,15.4 -24.407,15.309C-24.034,15.235 -23.514,15.045 -22.822,14.719C-24.137,19.153 -24.924,21.946 -25.18,23.082C-26.271,27.695 -26.521,31.612 -25.94,34.832C-25.682,36.284 -25.195,37.349 -24.487,38.063C-23.362,39.134 -22.114,39.561 -20.76,39.32C-18.215,38.86 -15.775,36.3 -13.43,31.661C-13.327,31.457 -13.238,31.273 -13.141,31.075C-13.104,31.43 -13.057,31.777 -12.996,32.117C-12.776,33.315 -12.335,34.3 -11.679,35.091C-10.633,36.299 -9.394,36.783 -7.971,36.525C-6.321,36.23 -4.845,34.893 -3.545,32.498C-2.895,31.289 -2.261,29.848 -1.662,28.13C-1.548,29.384 -1.44,30.268 -1.34,30.799C-1.064,32.369 -0.4,33.571 0.638,34.466C1.898,35.558 3.247,35.967 4.682,35.707C5.211,35.615 6.683,35.535 7.64,34.323C7.664,34.291 7.659,34.269 7.662,34.243C8.02,33.863 8.309,33.328 8.517,32.614C9.546,29.059 10.679,26.014 11.933,23.48C14.114,19.368 16.119,16.353 17.952,14.493C17.55,15.449 17.405,16.251 17.522,16.919C17.699,17.86 18.122,18.493 18.807,18.757C19.605,19.059 20.43,19.147 21.274,18.999C23.199,18.645 25.085,17.537 26.944,15.684C26.636,16.777 26.328,17.872 26.032,18.997C24.331,25.544 23.583,29.338 23.766,30.398C23.84,30.77 24.052,31.106 24.412,31.424C24.761,31.722 25.144,31.824 25.535,31.75C26.31,31.621 27.016,30.708 27.683,29.03C30.173,22.806 32.159,18.83 33.617,17.083C33.471,19.864 33.515,21.924 33.753,23.278C34.049,24.907 34.65,26.386 35.546,27.729C36.752,29.564 38.388,30.309 40.432,29.94C43.829,29.331 46.91,26.367 49.686,21.067C51.558,17.481 52.406,15.178 52.221,14.177" style="fill:rgb(120,159,212);fill-rule:nonzero;"/>
        </g>
    </g>
</svg>
