<?xml version="1.0" encoding="UTF-8" standalone="no"?>
<!DOCTYPE svg PUBLIC "-//W3C//DTD SVG 1.1//EN" "http://www.w3.org/Graphics/SVG/1.1/DTD/svg11.dtd">
<svg width="100%" height="100%" viewBox="0 0 1080 600" version="1.1" xmlns="http://www.w3.org/2000/svg" xmlns:xlink="http://www.w3.org/1999/xlink" xml:space="preserve" xmlns:serif="http://www.serif.com/" style="fill-rule:evenodd;clip-rule:evenodd;stroke-linejoin:round;stroke-miterlimit:2;">
    <g transform="matrix(-3.14749,-1.47566,1.47566,-3.14749,2029.68,5233.12)">
        <g transform="matrix(0.565699,0,0,0.565699,496.637,982.566)">
            <path d="M877.435,162.173C892.268,171.167 895.483,180.846 890.977,197.684C886.347,214.98 879.518,231.451 873.514,248.23C869.239,259.543 865.395,271.043 860.567,282.114C855.906,292.804 847.859,300.063 836.603,304.388C818.788,311.233 797.501,295.191 801.134,275.545C803.827,260.981 805.819,246.313 811.086,232.446C818.291,213.475 824.762,194.229 833.789,175.936C841.548,160.214 862.482,153.107 877.435,162.173ZM837.801,153.366C833.382,155.729 829.944,159.051 827.736,163.806C816.166,188.719 806.715,214.474 797.318,240.239C792.314,253.962 790.4,268.363 789.649,282.935C789.352,288.719 790.916,293.873 794.197,298.417C811.496,322.373 846.602,324.434 866.512,294.624C874.998,281.917 878.421,266.964 884.047,252.996C887.736,243.233 891.815,233.594 895.004,223.67C898.179,213.787 900.84,203.699 903.033,193.55C905.691,181.248 905.026,168.675 895.439,159.747C880.401,145.742 855.911,143.68 837.801,153.366Z" style="fill:rgb(28,2,36);fill-rule:nonzero;"/>
        </g>
        <g transform="matrix(0.565699,0,0,0.565699,496.637,982.566)">
            <path d="M912.135,154.532C926.428,168.588 936.27,186.399 940.691,205.952C944.865,224.406 944.304,243.218 937.077,261.829C916.243,315.486 868.606,329.275 834.993,331.935C807.357,334.122 779.752,324.392 760.838,304.124C759.081,302.241 757.394,300.268 755.787,298.192C742.599,281.171 734.65,262.11 733.292,240.097C732.192,222.269 733.787,205.663 740.608,188.741C749.43,166.854 764.347,150.786 782.622,137.373C782.622,137.373 821.934,110.111 865.912,125.429C886.196,132.494 901.516,144.089 912.135,154.532ZM1066.9,86.163C1059.9,91.824 1052.81,97.383 1045.34,102.415C1029.71,112.943 1007.41,130.871 988.762,133.621C980.436,134.849 972.049,135.246 963.673,135.016C960.137,134.612 956.602,134.063 953.064,133.179C929.628,127.322 907.292,118.018 884.454,110.315C852.897,99.671 821.631,94.066 790.082,108.997C770.307,118.356 752.89,131.149 739.896,149.072C730.162,162.5 724.491,178.093 718.476,193.343C705.164,227.093 692.741,261.195 679.322,294.902C677.129,300.411 675.969,307.55 670.351,310.812C667.965,310.053 665.512,309.659 662.988,310.118C659.419,310.766 656.487,313.039 654.529,316.028C653.009,318.348 651.443,320.868 650.663,323.543C650.095,325.491 649.843,327.46 649.944,329.412C649.921,330.038 649.982,330.661 650.162,331.274C650.352,332.297 650.63,333.312 651.075,334.311C652.452,337.402 654.976,339.941 657.653,341.935C662.026,345.189 666.817,348.085 671.536,350.805C674.502,352.514 677.662,354.628 681.005,355.514C684.673,356.487 687.951,356.149 690.848,354.481C691.579,354.115 692.286,353.686 692.933,353.121C692.914,353.104 692.896,353.087 692.878,353.07C693.022,352.946 693.158,352.791 693.3,352.66C694.049,352.076 694.739,351.417 695.284,350.635C696.431,348.992 697.229,346.976 698.149,345.188C698.986,343.563 699.975,341.948 700.652,340.249C703.308,333.6 699.185,327.38 694.375,322.382C694.625,321.131 695.087,319.891 695.591,318.556C703.161,298.498 710.302,278.267 718.374,258.414L723.114,247.137C723.437,269.277 730.565,281.303 742.514,298.825C757.654,321.029 777.511,334.537 800.72,341.099C824.366,347.785 849.56,346.216 872.484,337.365C896.008,328.283 925.021,310.421 940.265,283.735C950.852,265.202 954.012,248.469 953.741,227.452C953.366,198.346 944.75,171.454 926.141,146.886C937.884,153.269 953.046,155.252 961.801,165.397C967.599,172.117 972.215,180.988 975.602,189.173C980.314,200.556 982.071,209.237 985.978,217.566C992.858,232.233 997.1,243.452 1000.63,263.398C1001.99,271.053 1005.98,289.374 1015.59,286.868C1019.74,285.787 1024.96,275.171 1026.83,271.563C1029.23,266.938 1031.33,262.135 1033.37,257.342C1041.16,239.009 1047.05,219.953 1052.99,200.961C1058.99,181.773 1065.33,162.722 1072.58,143.962C1076.11,134.806 1084.92,114.727 1088.67,105.659C1090.29,101.74 1091.85,97.785 1093.05,93.713C1094.61,88.445 1096.89,81.407 1091.6,77.398C1083.57,71.325 1072.9,81.31 1066.9,86.163Z" style="fill:rgb(28,2,36);fill-rule:nonzero;"/>
        </g>
        <g transform="matrix(0.565699,0,0,0.565699,496.637,982.566)">
            <path d="M886.356,150.317C894.399,155.934 901.602,161.88 907.531,169.735C912.989,176.966 917.452,184.99 920.652,193.47C925.698,206.843 927.098,222.982 925.264,237.099C923.827,248.145 920.22,259.106 915.304,269.083C911.112,277.588 904.558,284.838 898.387,291.963C894.152,296.851 889.511,301.43 883.969,304.833C876.546,309.391 868.052,312.225 859.775,314.83C844.502,319.361 828.338,318.806 812.774,316.125C807.503,315.218 803.328,314.298 798.29,312.853C794.791,311.849 791.024,311.127 787.918,309.201C771.772,299.192 778.934,273.609 782.444,259.054C787.43,238.386 794.711,218.386 802.563,198.657C806.733,188.178 810.964,177.712 815.298,167.299C819.062,158.255 823.46,148.804 831.466,142.728C847.853,130.292 871.715,140.092 886.356,150.317ZM842.09,126.516C817.128,130.353 808.268,154.48 799.879,175.038C790.999,196.8 782.06,218.598 775.507,241.2C772.173,252.701 769.144,264.519 767.418,276.381C766.014,286.025 766.231,296.863 770.485,305.824C774.754,314.816 782.233,320.115 791.646,322.655C790.745,322.412 793.185,323.157 793.542,323.262C795.54,323.85 797.555,324.381 799.577,324.875C815.431,328.745 831.932,330.723 848.216,328.802C852.901,328.249 857.51,327.299 862.025,325.936C862.254,325.867 862.468,325.774 862.685,325.687C862.93,325.634 863.174,325.586 863.414,325.511C879.193,320.563 893.183,314.301 904.549,302.03C910.469,295.639 916.538,288.767 921.255,281.442C927.207,272.201 931.323,261.552 934.038,250.934C943.1,215.497 932.773,173.411 904.041,149.479C886.764,135.088 865.387,122.934 842.09,126.516Z" style="fill:rgb(28,2,36);fill-rule:nonzero;"/>
        </g>
        <g transform="matrix(0.565699,0,0,0.565699,496.637,982.566)">
            <path d="M780.996,215.981C780.995,216.26 781.018,216.523 781.059,216.745C781.083,216.92 781.137,217.11 781.213,217.288C781.764,219.531 783.021,221.336 784.559,223.065C786.193,224.903 788.009,226.573 790.513,227.025C795.409,227.908 799.564,224.229 800.977,219.785C802.411,215.271 801.617,210.036 798.3,206.539C795.191,203.262 789.783,202.349 785.797,204.519C781.922,206.628 780.638,211.815 780.996,215.981Z" style="fill:rgb(28,2,36);fill-rule:nonzero;"/>
        </g>
        <g transform="matrix(0.565699,0,0,0.565699,496.637,982.566)">
            <path d="M805.374,174.8C804.376,174.538 803.374,174.23 802.372,173.992C799.985,173.425 797.584,175.25 796.283,176.872C795.447,177.914 794.916,179.198 794.31,180.374C794.292,180.407 794.284,180.45 794.268,180.484C793.136,182.39 792.987,184.931 793.277,187.084C793.539,189.034 794.163,191.165 795.56,192.721C797.183,194.529 799.72,195.517 802.088,195.921C804.363,196.311 806.715,195.447 808.492,193.968C810.268,192.491 811.349,191.115 811.973,188.988C812.714,186.465 813.177,183.756 812.649,181.098C812.193,178.801 810.772,177.066 808.591,175.967C807.568,175.452 806.478,175.091 805.374,174.8Z" style="fill:rgb(28,2,36);fill-rule:nonzero;"/>
        </g>
        <g transform="matrix(0.565699,0,0,0.565699,496.637,982.566)">
            <path d="M774.143,236.827C775.624,235.583 777.546,234.771 779.657,234.583C781.356,234.431 783.153,234.666 784.456,235.269C788.876,237.312 791.283,242.348 790.352,246.289C789.721,248.962 787.67,250.528 785.231,251.734C783.257,252.711 780.853,253.898 778.363,253.618C775.314,253.152 772.652,251.055 771.598,248.544C769.793,244.249 770.951,239.507 774.143,236.827Z" style="fill:rgb(28,2,36);fill-rule:nonzero;"/>
        </g>
        <g transform="matrix(0.565699,0,0,0.565699,496.637,982.566)">
            <path d="M846.055,270.841C855.837,275.788 865.437,281.125 874.704,286.984C882.264,291.764 889.91,297.408 888.339,307.433C887.625,311.983 885.761,317.08 883.54,321.119C881.057,325.634 876.547,326.667 871.7,326.562C863.216,326.379 854.25,323.882 847.471,318.655C844.205,316.137 841.51,312.865 839.959,309.021C837.8,303.667 840.2,298.984 841.503,293.799C843.505,285.826 841.101,278.439 835.502,272.519C828.753,265.383 819.604,260.802 810.813,256.714C805.308,254.153 799.679,251.861 793.986,249.75C791.324,248.763 788.647,247.816 785.957,246.908C785.947,246.904 783.485,246.07 783.497,246.117C783.282,245.285 784.019,244.802 784.42,244.91C805.466,252.288 826.145,260.773 846.055,270.841ZM786.08,237.621C782.202,236.896 778.662,238.09 776.919,242.057C775.164,246.047 775.94,250.689 780.06,252.805C785.265,255.478 791.5,256.828 796.961,258.999C802.778,261.312 808.525,263.833 814.091,266.704C821.807,270.682 833.433,276.807 834.667,286.509C835.384,292.137 831.845,297.343 831.442,302.895C831.051,308.306 833.214,313.54 836.286,317.892C842.254,326.345 852.276,330.993 862.153,333.024C871.697,334.988 883.951,335.256 889.578,325.74C894.644,317.17 898.839,304.561 894.044,295.08C889.056,285.213 877.506,279.637 868.369,274.364C842.595,259.487 815.152,247.664 787.095,237.829C786.743,237.705 786.407,237.648 786.08,237.621Z" style="fill:rgb(242,149,3);fill-rule:nonzero;"/>
        </g>
        <g transform="matrix(0.565699,0,0,0.565699,496.637,982.566)">
            <path d="M881.216,247.486C882.063,250.974 878.54,251.98 875.737,251.593C872.693,251.173 869.658,249.474 866.867,248.266C863.648,246.874 860.43,245.48 857.211,244.088C844.505,238.589 831.799,233.09 819.093,227.592C811.845,224.456 804.56,221.394 797.346,218.181C796.618,217.857 794.314,217.285 793.926,216.622C793.401,215.729 794.24,214.607 795.281,214.951C808.641,219.461 822.001,223.973 835.36,228.484C848.4,232.887 861.87,236.686 874.64,241.818C877.23,242.859 880.487,244.484 881.216,247.486ZM858.075,228.169C838.036,221.402 817.996,214.636 797.957,207.869C792.842,206.182 788.255,208.367 786.653,213.605C784.788,219.706 789.09,222.748 793.953,224.936C809.944,232.131 826.149,238.885 842.242,245.849C850.857,249.578 859.423,253.46 868.102,257.036C874.042,259.483 881.99,260.919 886.646,255.174C891.345,249.379 888.151,241.289 882.571,237.447C879.497,235.33 875.89,234.186 872.39,233.002C867.619,231.39 862.847,229.78 858.075,228.169Z" style="fill:rgb(242,149,3);fill-rule:nonzero;"/>
        </g>
        <g transform="matrix(0.565699,0,0,0.565699,496.637,982.566)">
            <path d="M929.456,177.328C939.394,188.23 944.701,202.423 940.197,217.014C938,224.133 933.925,230.936 926.45,233.249C919.216,235.487 911.615,233.723 904.801,230.956C896.127,227.434 887.936,222.65 879.507,218.587C870.841,214.41 862.081,210.43 853.267,206.579C844.221,202.627 835.117,198.81 825.99,195.047C821.428,193.166 816.858,191.299 812.287,189.436C810.434,188.68 808.543,187.979 806.717,187.159C806.458,187.042 806.19,186.888 805.923,186.76C805.984,186.61 806.046,186.459 806.105,186.305C806.684,186.515 807.458,186.733 807.524,186.757C809.288,187.405 811.053,188.053 812.816,188.702C819.35,191.104 825.881,193.51 832.411,195.917C846.01,200.929 859.602,205.958 873.212,210.938C879.912,213.389 888.496,217.389 895.798,216.559C901.655,215.894 906.504,210.364 904.454,204.412C902.263,198.052 895.617,196.42 889.602,196.404C882.793,196.386 875.231,195.213 871.799,188.442C868.708,182.347 871.444,174.856 874.471,169.293C877.898,162.992 882.663,157.187 890.094,155.923C905.341,153.33 920.011,166.967 929.456,177.328ZM874.517,156.25C865.366,165.895 857.643,183.931 867.518,195.615C872.515,201.527 880.062,203.938 887.586,203.956C890.16,203.962 895.803,203.252 897.102,206.365C899.077,211.102 887.976,207.867 886.67,207.495C877.837,204.976 869.251,201.423 860.635,198.251C851.919,195.042 843.204,191.828 834.489,188.616C826.224,185.569 817.958,182.524 809.688,179.489C806.788,178.424 803.819,177.245 801.259,179.728C799.773,181.169 799.152,183.306 798.385,185.174C798.14,185.771 798.06,186.333 798.095,186.854C797.601,193.23 806.385,195.2 810.983,197.076C819.895,200.711 828.8,204.365 837.667,208.112C855.599,215.69 873.347,223.687 890.678,232.563C904.414,239.599 921.69,246.941 935.987,236.895C948.825,227.874 951.727,207.676 947.652,193.57C943.16,178.022 930.023,165.48 917.085,156.462C904.266,147.527 886.432,143.691 874.517,156.25Z" style="fill:rgb(242,149,3);fill-rule:nonzero;"/>
        </g>
        <g transform="matrix(0.565699,0,0,0.565699,496.637,982.566)">
            <path d="M767.577,242.945C768.583,242.628 769.537,241.956 769.962,240.833C770.086,240.505 770.134,240.138 770.146,239.762C770.258,238.917 770.052,238.04 769.45,237.255C769.084,236.692 768.576,236.242 767.952,235.972C765.158,234.098 762.254,232.548 759.261,230.953C756.689,229.583 754.118,228.213 751.547,226.843C748.824,225.392 746.045,223.511 743.054,222.683C740.224,221.9 737.111,222.14 734.819,223.875C732.484,225.644 732.095,228.731 733.216,231.347C735.417,236.485 741.983,238.9 747.129,240.137C752.947,241.536 761.565,242.641 765.081,242.915L767.577,242.945Z" style="fill:rgb(242,149,3);fill-rule:nonzero;"/>
        </g>
        <g transform="matrix(0.565699,0,0,0.565699,496.637,982.566)">
            <path d="M778.984,212.219C780.118,211.862 781.194,211.104 781.672,209.839C781.811,209.47 781.866,209.056 781.88,208.632C782.006,207.68 781.773,206.691 781.096,205.808C780.684,205.173 780.11,204.666 779.407,204.361C776.26,202.25 772.986,200.503 769.614,198.707C766.717,197.163 763.819,195.619 760.922,194.075C757.854,192.44 754.723,190.32 751.352,189.388C748.163,188.505 744.656,188.775 742.073,190.731C739.443,192.723 739.004,196.203 740.267,199.15C742.747,204.939 750.146,207.661 755.944,209.055C762.501,210.63 772.211,211.875 776.172,212.185L778.984,212.219Z" style="fill:rgb(242,149,3);fill-rule:nonzero;"/>
        </g>
        <g transform="matrix(0.565699,0,0,0.565699,496.637,982.566)">
            <path d="M790.714,181.618C791.741,181.294 792.717,180.607 793.15,179.459C793.276,179.125 793.326,178.75 793.339,178.365C793.452,177.502 793.242,176.605 792.628,175.805C792.254,175.229 791.734,174.77 791.097,174.493C788.243,172.579 785.275,170.996 782.218,169.366C779.591,167.967 776.965,166.567 774.337,165.167C771.556,163.686 768.717,161.763 765.661,160.917C762.77,160.118 759.591,160.362 757.249,162.136C754.864,163.942 754.466,167.097 755.61,169.769C757.859,175.018 764.568,177.485 769.825,178.749C775.768,180.177 784.572,181.306 788.164,181.586L790.714,181.618Z" style="fill:rgb(242,149,3);fill-rule:nonzero;"/>
        </g>
    </g>
</svg>
