<?xml version="1.0" encoding="UTF-8" standalone="no"?>
<!DOCTYPE svg PUBLIC "-//W3C//DTD SVG 1.1//EN" "http://www.w3.org/Graphics/SVG/1.1/DTD/svg11.dtd">
<svg width="100%" height="100%" viewBox="0 0 1080 1080" version="1.1" xmlns="http://www.w3.org/2000/svg" xmlns:xlink="http://www.w3.org/1999/xlink" xml:space="preserve" xmlns:serif="http://www.serif.com/" style="fill-rule:evenodd;clip-rule:evenodd;stroke-linejoin:round;stroke-miterlimit:2;">
    <g transform="matrix(5.0615,0,0,5.0615,-645.461,-7572.01)">
        <g transform="matrix(0.425673,0,0,0.425673,67.1034,1445.26)">
            <path d="M170.873,470.181L175.42,468.03L175.42,516.802L170.873,517.523L170.873,470.181ZM177.633,466.983L182.087,464.876L182.087,515.534L183.41,515.534L177.633,516.45L177.633,466.983ZM184.299,463.829L188.539,461.823L188.539,514.643L189.025,514.643L184.299,515.393L184.299,463.829ZM190.751,460.777L194.684,458.917L194.684,513.745L190.751,514.37L190.751,460.777ZM197.111,457.769L200.613,456.112L200.613,512.805L197.111,513.36L197.111,457.769ZM203.348,454.818L207.034,453.074L207.034,511.786L203.348,512.37L203.348,454.818ZM217.081,513.998L217.081,468.743L219.846,468.743L219.846,447.083L207.034,447.083L167.678,468.098L167.678,471.692L168.661,471.227L168.661,518.79L217.081,513.998Z" style="fill:rgb(28,2,36);fill-rule:nonzero;"/>
        </g>
        <g transform="matrix(0.425673,0,0,0.425673,67.1034,1445.26)">
            <path d="M173.946,463.858L202.794,448.097L202.794,431.414L172.655,454.088L172.655,459.434L174.038,459.434L173.946,463.858Z" style="fill:rgb(28,2,36);fill-rule:nonzero;"/>
        </g>
        <g transform="matrix(0.425673,0,0,0.425673,67.1034,1445.26)">
            <rect x="204.177" y="431.414" width="15.669" height="13.872" style="fill:rgb(28,2,36);fill-rule:nonzero;"/>
        </g>
        <g transform="matrix(0.425673,0,0,0.425673,67.1034,1445.26)">
            <path d="M359.021,476.301L358.467,462.291L268.695,478.144L268.695,489.02L280.308,487.384L280.308,480.356L301.876,477.038L301.876,484.347L311.461,482.998L311.461,475.166L336.347,471.338L336.347,479.493L359.021,476.301Z" style="fill:rgb(28,2,36);fill-rule:nonzero;"/>
        </g>
        <g transform="matrix(0.425673,0,0,0.425673,67.1034,1445.26)">
            <path d="M548.151,423.088C548.151,405.102 535.606,390.522 520.13,390.522C505.344,390.522 493.241,403.839 492.194,420.716C496.728,409.829 506.323,402.32 517.427,402.32C532.903,402.32 545.447,416.9 545.447,434.886C545.447,435.685 545.414,436.474 545.365,437.259C547.15,432.974 548.151,428.167 548.151,423.088Z" style="fill:rgb(28,2,36);fill-rule:nonzero;"/>
        </g>
        <g transform="matrix(0.425673,0,0,0.425673,67.1034,1445.26)">
            <path d="M611.747,519.251C611.747,532.892 605.111,534.49 605.111,534.49L566.585,534.49L566.712,534.531L457.847,534.851L446.765,534.851L443.078,540.45L430.574,540.45C418.981,539.226 405.105,535.3 405.105,523.492L405.105,495.005L421.051,493.26L611.747,493.26L611.747,519.251ZM597.359,582.56L578.565,610.751L464.353,586.897L464.714,539.344L469.93,539.427L471.343,584.446L480.56,585.329L480.007,540.02L484.805,586.354L488.979,587.071L494.472,587.62L490.135,540.152L500.284,589.011L511.676,590.967L504.11,539.188L516.629,591.817L527.057,593.607L517.12,539.67L532.745,594.584L542.367,596.236L528.687,539.429L546.564,596.956L557.966,598.913L541.699,539.188L562.642,599.716L572.282,601.371L554.228,539.67L577.17,601.087L583.593,592.868L564.589,538.706L586.071,589.697L591.969,582.15L573.55,537.768L575.673,537.743L597.359,582.56ZM405.105,464.503L461.855,464.503C468.932,475.456 478.782,484.001 490.256,488.836L421.051,488.836L405.105,490.652L405.105,464.503ZM513.495,361.301C530.462,361.301 545.601,370.055 555.539,383.749C556.345,390.065 559.041,415.767 552.532,434.757C553.449,431.271 553.95,427.584 553.95,423.765C553.95,402.351 538.479,384.992 519.393,384.992C500.309,384.992 484.838,402.351 484.838,423.765C484.838,439.871 493.593,453.681 506.052,459.538C491.463,458.401 475.6,452.87 462.24,441.862C460.344,435.667 459.3,429.027 459.3,422.11C459.3,388.526 483.564,361.301 513.495,361.301ZM488.021,318.585C479.82,323.461 477.587,330.551 477.587,330.551L477.587,361.364L472.204,363.476L472.204,315.172C479.458,315.904 485.189,317.608 488.021,318.585ZM443.877,315.374C468.21,299.398 489.839,315.865 489.839,315.865L489.839,317.604C489.782,317.633 489.724,317.66 489.668,317.689C469.075,309.505 443.877,315.374 443.877,315.374ZM468.701,364.85L461.881,367.527L461.881,314.919C464.238,314.79 466.521,314.799 468.701,314.909L468.701,364.85ZM455.245,370.13L451.361,371.654L451.189,316.48C452.551,316.146 453.904,315.873 455.245,315.648L455.245,370.13ZM442.464,235.679C442.464,235.679 448.06,233.479 455.982,232.489L455.982,249.448C451.63,249.79 447.069,250.437 442.464,251.532L442.464,235.679ZM467.78,251.5L467.78,306.007C465.54,305.768 463.162,305.67 460.652,305.74L460.652,251.655C460.652,251.655 463.436,251.415 467.78,251.5ZM460.222,232.109C468.468,231.65 478.328,232.824 486.951,238.628L486.951,251.532C486.951,251.532 475.34,248.651 460.222,249.203L460.222,232.109ZM479.7,260.38L479.7,308.721C479.009,308.472 478.299,308.229 477.552,307.998L477.587,307.998L477.587,252.2C480.512,252.563 483.636,253.09 486.828,253.866C486.828,253.866 484.37,258.414 479.7,260.38ZM497.803,323.69C501.91,324.349 510.177,327.123 510.177,338.785C510.177,347.075 506.87,351.616 503.325,354.068C500.806,352.844 498.344,350.972 496.632,348.097C496.865,348.132 497.094,348.186 497.335,348.186C500.661,348.186 503.357,344.802 503.357,340.628C503.357,336.454 500.661,333.07 497.335,333.07C496.373,333.07 495.476,333.38 494.67,333.883C495.213,329.787 496.382,326.412 497.803,323.69ZM502.56,317.133C506.588,318.304 519.393,323.249 519.393,338.785C519.393,346.36 516.965,351.223 514.104,354.328C514.077,354.327 514.047,354.327 514.02,354.326C516.287,349.517 524.273,329.293 504.366,318.139L502.415,317.287C502.463,317.239 502.513,317.18 502.56,317.133ZM520.216,456.767C503.518,456.767 489.981,441.578 489.981,422.841C489.981,404.104 503.518,388.915 520.216,388.915C536.916,388.915 550.453,404.104 550.453,422.841C550.453,441.578 536.916,456.767 520.216,456.767ZM579.119,464.503L579.119,488.836L533.785,488.836C545.26,484.001 555.109,475.456 562.187,464.503L579.119,464.503ZM374.024,583.743C365.166,583.743 357.984,566.711 357.984,545.7C357.984,529.926 362.033,516.396 367.8,510.63C368.151,512.612 368.506,514.487 368.863,516.232C363.369,519.972 359.354,531.739 359.354,545.7C359.354,562.67 365.281,576.426 372.592,576.426C379.904,576.426 385.831,562.67 385.831,545.7C385.831,543.371 385.71,541.11 385.498,538.929C386.989,539.827 388.492,540.674 389.961,541.459C390.026,542.852 390.062,544.266 390.062,545.7C390.062,566.711 382.881,583.743 374.024,583.743ZM371.371,525.703C372.914,529.53 376.962,533.23 381.658,536.463C382.062,539.354 382.293,542.455 382.293,545.7C382.293,560.914 377.464,573.248 371.508,573.248C365.552,573.248 360.723,560.914 360.723,545.7C360.723,532.339 364.449,521.206 369.391,518.691C370.055,521.653 370.721,524.089 371.371,525.703ZM337.376,579C329.622,579 323.336,564.091 323.336,545.7C323.336,527.31 329.622,512.402 337.376,512.402C345.129,512.402 351.415,527.31 351.415,545.7C351.415,564.091 345.129,579 337.376,579ZM322.039,529.62C323.109,524.743 326.197,514.336 333.6,510.274C328.504,513.737 324.43,522.162 322.601,532.923C322.438,531.769 322.25,530.668 322.039,529.62ZM305.302,572.1C298.508,572.1 293,559.035 293,542.92C293,526.804 298.508,513.74 305.302,513.74C312.097,513.74 317.605,526.804 317.605,542.92C317.605,559.035 312.097,572.1 305.302,572.1ZM291.837,530.348C292.843,525.068 296.029,513.018 304.393,510.706C298.661,512.464 293.968,521.157 292.198,532.72C292.092,531.901 291.971,531.11 291.837,530.348ZM267.119,542.647C267.106,542.184 267.092,541.721 267.092,541.25C267.092,530.628 270.463,522.018 274.621,522.018C278.779,522.018 282.15,530.628 282.15,541.25C282.15,551.871 278.779,560.481 274.621,560.481C271.533,560.481 268.881,555.726 267.72,548.93L268.142,548.93L267.119,542.647ZM276.377,567.808C271.319,567.808 267.049,559.851 265.66,548.93L266.756,548.93C268.089,556.978 271.441,562.7 275.378,562.7C280.482,562.7 284.62,553.096 284.62,541.25C284.62,529.403 280.482,519.799 275.378,519.799C270.31,519.799 266.199,529.271 266.141,541.003L265.185,541.003C265.241,526.45 270.228,514.693 276.377,514.693C282.561,514.693 287.574,526.582 287.574,541.25C287.574,555.917 282.561,567.808 276.377,567.808ZM346.815,510.373L346.816,510.375C346.815,510.374 346.814,510.374 346.813,510.373L346.815,510.373ZM435.521,364.667L413.769,373.545L413.769,354.822C413.769,354.822 425.013,351.504 435.521,362.011L435.521,364.667ZM435.521,377.87L391.648,395.084L391.648,387.947L435.521,371.849L435.521,377.87ZM388.146,396.459L381.325,399.135L381.325,344.597C383.683,344.469 385.966,344.478 388.146,344.588L388.146,396.459ZM374.689,401.739L370.812,403.26L370.634,346.158C371.996,345.824 373.348,345.552 374.689,345.326L374.689,401.739ZM409.283,348.935L409.283,352.217C400.333,354.321 394.966,359.431 394.966,359.431L394.966,381.22L391.648,382.574L391.648,344.85C401.357,345.831 408.335,348.55 409.283,348.935ZM409.283,345.544L409.283,347.432C388.659,339.149 363.322,345.052 363.322,345.052C387.654,329.076 409.283,345.544 409.283,345.544ZM314.503,423.672L314.503,421.491L321.504,421.491L314.503,423.672ZM311.738,424.041L300.033,428.188L300.033,421.491L311.738,421.491L311.738,424.041ZM294.257,430.093L273.426,436.729L273.426,421.491L294.257,421.491L294.257,430.093ZM269.678,445.286L253.211,445.286L253.211,421.491L269.678,421.491L269.678,445.286ZM616.356,519.068L616.356,488.836L586.124,488.836L586.124,455.286L567.215,455.286C571.517,445.823 573.958,435.117 573.958,423.765C573.958,387.004 548.515,356.93 516.313,354.454C519.065,351.397 521.237,346.537 521.237,338.785C521.237,317.586 506.368,314.084 506.368,314.084C500.147,314.084 495.217,315.234 491.313,316.919L491.313,314.882C491.313,314.882 487.862,312.011 481.666,309.476L481.666,261.117C485.722,261.117 488.917,253.866 488.917,253.866L488.917,238.137C488.917,238.137 483.018,228.305 463.11,228.305C443.201,228.305 435.582,235.925 435.582,235.925L435.582,253.129C435.582,257.553 441.481,261.732 441.481,261.732L441.481,310.085C436.76,312.747 435.766,315.62 435.766,315.62L435.766,359.896C433.283,357.052 427.023,351.32 416.903,351.32C414.712,351.32 412.669,351.55 410.758,351.91L410.758,344.561C410.758,344.561 398.469,334.238 378.314,335.467C358.16,336.696 355.211,345.298 355.211,345.298L355.211,409.382L335.397,417.157L330.387,419.123L330.387,417.313C330.387,417.313 310.065,414.392 296.458,413.42C275.692,411.937 244.609,414.855 244.609,414.855L244.609,487.084L249.033,487.084C249.033,475.256 251.49,473.351 251.49,473.351L265.746,471.692C265.746,452.582 275.577,442.382 275.577,442.382L299.076,433.388L471.69,371.045C469.689,372.974 467.792,375.032 466.026,377.229L279.141,445.286L276.437,449.713L457.738,390.289C452.863,400.219 450.083,411.626 450.083,423.765C450.083,425.059 450.121,426.344 450.183,427.621L268.326,468.681L268.326,475.563L452.558,443.204C453.648,447.411 455.083,451.45 456.827,455.286L405.105,455.286L396.072,456.767L396.072,524.229C396.072,524.229 398.057,535.074 409.083,540.45L404.736,540.45C404.736,540.45 401.419,538.932 397.051,536.736C394.591,535.499 391.802,534.048 389.073,532.526C387.246,531.506 385.452,530.456 383.805,529.42C382,528.283 380.373,527.163 379.09,526.119C377.731,525.012 376.753,523.99 376.348,523.122C376.097,522.583 375.82,521.552 375.527,520.151C375.256,518.859 374.972,517.255 374.678,515.393C374.322,513.143 373.954,510.519 373.581,507.686C373.41,506.377 373.237,505.032 373.065,503.641C370.815,485.479 368.606,461.461 368.606,461.461L361.381,462.536C361.381,462.536 364.048,488.157 367.234,507.323C362.337,512.312 358.556,521.531 356.887,532.784C356.71,531.708 356.517,530.669 356.303,529.679C357.142,525.185 359.485,514.41 363.506,508.928L362.566,502.796L246.575,506.04L246.575,513.74L259.478,513.74L262.551,531.971L263.758,531.971C263.758,531.971 266.046,514.469 274.621,512.282L274.635,512.284C268.458,515.112 263.818,526.875 263.764,541.003L253.579,541.003L253.579,517.039L244.731,517.039L244.731,508.744L241.966,508.928L241.966,518.883L245.1,518.883L245.1,548.93L264.241,548.93C265.813,561.56 271.146,570.872 277.502,570.872L283.901,570.872C283.901,570.872 289.932,566.567 292.022,551.883C293.829,565.497 299.642,575.466 306.539,575.466L313.569,575.466C313.569,575.466 319.766,571.043 322.252,556.163C324.349,571.58 330.956,582.842 338.787,582.842L346.809,582.842C346.809,582.842 354.329,577.476 356.97,559.191C359.586,576.009 366.951,588.132 375.636,588.132L384.801,588.132C384.801,588.132 397.446,579.136 397.446,545.7C397.446,545.508 397.439,545.326 397.438,545.135C400.688,546.608 402.893,547.455 402.893,547.455L456.73,547.455L455.49,561.445L402.524,559.375L401.172,566.995L413.872,568.286C415.967,572.06 420.934,579.161 428.7,579.161C435.501,579.161 440.304,574.539 442.873,571.237L454.518,572.422L452.787,591.957L581.456,617.257L603.142,581.837L582.273,537.743L606.586,537.743C617.83,537.743 616.356,519.068 616.356,519.068Z" style="fill:rgb(28,2,36);fill-rule:nonzero;"/>
        </g>
        <g transform="matrix(0.425673,0,0,0.425673,67.1034,1445.26)">
            <path d="M243.748,407.235L215.975,426.406L215.975,428.742L243.257,412.397C243.257,412.397 273.426,409.57 293.39,410.062C312.33,410.528 335.396,417.157 335.396,417.157L335.397,410.097C335.397,410.097 292.044,400.108 243.748,407.235Z" style="fill:rgb(28,2,36);fill-rule:nonzero;"/>
        </g>
        <g transform="matrix(0.425673,0,0,0.425673,67.1034,1445.26)">
            <rect x="427.963" y="501.371" width="178.438" height="14.009" style="fill:rgb(28,2,36);fill-rule:nonzero;"/>
        </g>
        <g transform="matrix(0.425673,0,0,0.425673,67.1034,1445.26)">
            <path d="M179.248,547.827C177.135,547.827 175.422,543.451 175.422,538.053C175.422,532.656 177.135,528.28 179.248,528.28C181.361,528.28 183.074,532.656 183.074,538.053C183.074,543.451 181.361,547.827 179.248,547.827ZM179.633,527.152C177.039,527.152 174.936,532.033 174.936,538.053C174.936,544.074 177.039,548.955 179.633,548.955C182.227,548.955 184.33,544.074 184.33,538.053C184.33,532.033 182.227,527.152 179.633,527.152Z" style="fill:rgb(28,2,36);fill-rule:nonzero;"/>
        </g>
        <g transform="matrix(0.425673,0,0,0.425673,67.1034,1445.26)">
            <path d="M179.248,537.978C179.248,540.049 179.791,541.727 180.462,541.727C181.132,541.727 181.676,540.049 181.676,537.978C181.676,535.908 181.132,534.23 180.462,534.23C179.791,534.23 179.248,535.908 179.248,537.978Z" style="fill:rgb(28,2,36);fill-rule:nonzero;"/>
        </g>
        <g transform="matrix(0.425673,0,0,0.425673,67.1034,1445.26)">
            <path d="M194.297,549.641C191.975,549.641 190.093,544.833 190.093,538.902C190.093,532.971 191.975,528.164 194.297,528.164C196.619,528.164 198.501,532.971 198.501,538.902C198.501,544.833 196.619,549.641 194.297,549.641ZM194.72,526.925C191.87,526.925 189.559,532.287 189.559,538.902C189.559,545.517 191.87,550.88 194.72,550.88C197.57,550.88 199.88,545.517 199.88,538.902C199.88,532.287 197.57,526.925 194.72,526.925Z" style="fill:rgb(28,2,36);fill-rule:nonzero;"/>
        </g>
        <g transform="matrix(0.425673,0,0,0.425673,67.1034,1445.26)">
            <path d="M194.297,538.819C194.297,541.094 194.894,542.938 195.631,542.938C196.368,542.938 196.965,541.094 196.965,538.819C196.965,536.545 196.368,534.701 195.631,534.701C194.894,534.701 194.297,536.545 194.297,538.819Z" style="fill:rgb(28,2,36);fill-rule:nonzero;"/>
        </g>
        <g transform="matrix(0.425673,0,0,0.425673,67.1034,1445.26)">
            <path d="M210.459,552.57C207.809,552.57 205.661,547.083 205.661,540.315C205.661,533.547 207.809,528.061 210.459,528.061C213.108,528.061 215.256,533.547 215.256,540.315C215.256,547.083 213.108,552.57 210.459,552.57ZM210.941,526.647C207.689,526.647 205.052,532.767 205.052,540.315C205.052,547.864 207.689,553.984 210.941,553.984C214.193,553.984 216.83,547.864 216.83,540.315C216.83,532.767 214.193,526.647 210.941,526.647Z" style="fill:rgb(28,2,36);fill-rule:nonzero;"/>
        </g>
        <g transform="matrix(0.425673,0,0,0.425673,67.1034,1445.26)">
            <path d="M210.459,540.221C210.459,542.817 211.14,544.921 211.981,544.921C212.821,544.921 213.503,542.817 213.503,540.221C213.503,537.625 212.821,535.521 211.981,535.521C211.14,535.521 210.459,537.625 210.459,540.221Z" style="fill:rgb(28,2,36);fill-rule:nonzero;"/>
        </g>
        <g transform="matrix(0.425673,0,0,0.425673,67.1034,1445.26)">
            <path d="M229.143,554.315C226.116,554.315 223.661,548.047 223.661,540.315C223.661,532.584 226.116,526.316 229.143,526.316C232.169,526.316 234.623,532.584 234.623,540.315C234.623,548.047 232.169,554.315 229.143,554.315ZM229.693,524.7C225.978,524.7 222.966,531.692 222.966,540.315C222.966,548.939 225.978,555.93 229.693,555.93C233.409,555.93 236.421,548.939 236.421,540.315C236.421,531.692 233.409,524.7 229.693,524.7Z" style="fill:rgb(28,2,36);fill-rule:nonzero;"/>
        </g>
        <g transform="matrix(0.425673,0,0,0.425673,67.1034,1445.26)">
            <path d="M229.143,540.208C229.143,543.173 229.921,545.577 230.881,545.577C231.842,545.577 232.62,543.173 232.62,540.208C232.62,537.242 231.842,534.838 230.881,534.838C229.921,534.838 229.143,537.242 229.143,540.208Z" style="fill:rgb(28,2,36);fill-rule:nonzero;"/>
        </g>
        <g transform="matrix(0.425673,0,0,0.425673,67.1034,1445.26)">
            <path d="M277.01,548.478C278.329,548.478 279.398,545.175 279.398,541.102C279.398,537.028 278.329,533.726 277.01,533.726C275.69,533.726 274.621,537.028 274.621,541.102C274.621,545.175 275.69,548.478 277.01,548.478Z" style="fill:rgb(28,2,36);fill-rule:nonzero;"/>
        </g>
        <g transform="matrix(0.425673,0,0,0.425673,67.1034,1445.26)">
            <path d="M303.373,564.05C298.805,564.05 295.101,554.589 295.101,542.92C295.101,531.25 298.805,521.79 303.373,521.79C307.942,521.79 311.646,531.25 311.646,542.92C311.646,554.589 307.942,564.05 303.373,564.05ZM304.205,519.351C298.596,519.351 294.05,529.903 294.05,542.92C294.05,555.936 298.596,566.488 304.205,566.488C309.813,566.488 314.359,555.936 314.359,542.92C314.359,529.903 309.813,519.351 304.205,519.351Z" style="fill:rgb(28,2,36);fill-rule:nonzero;"/>
        </g>
        <g transform="matrix(0.425673,0,0,0.425673,67.1034,1445.26)">
            <path d="M303.373,542.757C303.373,547.233 304.548,550.861 305.998,550.861C307.447,550.861 308.622,547.233 308.622,542.757C308.622,538.281 307.447,534.653 305.998,534.653C304.548,534.653 303.373,538.281 303.373,542.757Z" style="fill:rgb(28,2,36);fill-rule:nonzero;"/>
        </g>
        <g transform="matrix(0.425673,0,0,0.425673,67.1034,1445.26)">
            <path d="M335.174,569.813C329.961,569.813 325.734,559.018 325.734,545.7C325.734,532.383 329.961,521.588 335.174,521.588C340.388,521.588 344.614,532.383 344.614,545.7C344.614,559.018 340.388,569.813 335.174,569.813ZM336.123,518.805C329.723,518.805 324.535,530.847 324.535,545.7C324.535,560.554 329.723,572.596 336.123,572.596C342.523,572.596 347.711,560.554 347.711,545.7C347.711,530.847 342.523,518.805 336.123,518.805Z" style="fill:rgb(28,2,36);fill-rule:nonzero;"/>
        </g>
        <g transform="matrix(0.425673,0,0,0.425673,67.1034,1445.26)">
            <path d="M335.174,545.515C335.174,550.622 336.515,554.763 338.169,554.763C339.823,554.763 341.164,550.622 341.164,545.515C341.164,540.407 339.823,536.267 338.169,536.267C336.515,536.267 335.174,540.407 335.174,545.515Z" style="fill:rgb(28,2,36);fill-rule:nonzero;"/>
        </g>
        <g transform="matrix(0.425673,0,0,0.425673,67.1034,1445.26)">
            <path d="M374.93,556.054C376.82,556.054 378.351,551.324 378.351,545.488C378.351,539.653 376.82,534.923 374.93,534.923C373.04,534.923 371.508,539.653 371.508,545.488C371.508,551.324 373.04,556.054 374.93,556.054Z" style="fill:rgb(28,2,36);fill-rule:nonzero;"/>
        </g>
        <g transform="matrix(0.425673,0,0,0.425673,67.1034,1445.26)">
            <path d="M230.421,559.649C225.919,559.649 222.27,550.993 222.27,540.315C222.27,529.638 225.919,520.982 230.421,520.982C234.922,520.982 238.572,529.638 238.572,540.315C238.572,550.993 234.922,559.649 230.421,559.649ZM222.119,453.074L222.119,430.32L237.358,421.491L237.358,446.542L222.119,453.074ZM211.577,557.239C207.637,557.239 204.443,549.662 204.443,540.315C204.443,530.969 207.637,523.393 211.577,523.393C215.518,523.393 218.712,530.969 218.712,540.315C218.712,549.662 215.518,557.239 211.577,557.239ZM198.731,522.521L210.331,521.933C207.422,523.371 205.072,527.928 204.069,533.888C202.996,526.175 199.633,523.188 198.731,522.521ZM195.278,553.732C191.825,553.732 189.025,547.092 189.025,538.902C189.025,530.712 191.825,524.073 195.278,524.073C198.731,524.073 201.53,530.712 201.53,538.902C201.53,547.092 198.731,553.732 195.278,553.732ZM183.472,523.294L194.271,522.747C191.288,524.143 188.955,529.271 188.374,535.753C187.85,527.537 184.605,524.212 183.472,523.294ZM180.14,551.55C176.998,551.55 174.45,545.508 174.45,538.053C174.45,530.599 176.998,524.557 180.14,524.557C183.283,524.557 185.831,530.599 185.831,538.053C185.831,545.508 183.283,551.55 180.14,551.55ZM235.038,519.049L239.478,518.79L239.478,505.185L362.093,499.404L361.11,493.505L239.478,502.245L239.478,500.77L360.864,490.31L359.389,478.021L239.478,494.489L239.478,417.313L220.683,428.737L220.645,428.742L220.645,468.681L234.285,464.093L222.887,468.681L229.063,468.681L229.063,512.195L217.818,513.076L217.818,520.05L228.827,519.41C225.328,521.281 222.562,527.104 221.605,534.566C220.4,525.955 216.693,522.514 215.579,521.669L215.975,521.648L215.975,515.75L172.701,519.233L172.701,523.839L178.909,523.524C175.927,525.24 173.727,531.086 173.727,538.053C173.727,546.368 176.855,553.108 180.712,553.108L183.964,553.108C183.964,553.108 187.604,550.488 188.319,541.272C188.854,549.281 192.042,555.443 195.906,555.443L199.479,555.443C199.479,555.443 202.631,553.182 203.892,545.603C204.953,553.451 208.31,559.191 212.295,559.191L216.372,559.191C216.372,559.191 220.409,556.283 221.637,546.329C222.845,555.309 226.683,561.879 231.24,561.879L235.898,561.879C235.898,561.879 242.324,557.308 242.324,540.315C242.324,525.682 236.624,520.272 235.038,519.049Z" style="fill:rgb(28,2,36);fill-rule:nonzero;"/>
        </g>
        <g transform="matrix(0.425673,0,0,0.425673,67.1034,1445.26)">
            <path d="M516.076,374.343C517.728,374.343 519.068,372.528 519.068,370.288C519.068,368.048 517.728,366.233 516.076,366.233C514.424,366.233 513.084,368.048 513.084,370.288C513.084,372.528 514.424,374.343 516.076,374.343Z" style="fill:rgb(28,2,36);fill-rule:nonzero;"/>
        </g>
        <g transform="matrix(0.425673,0,0,0.425673,67.1034,1445.26)">
            <path d="M549.257,392.971C550.909,392.971 552.249,391.155 552.249,388.915C552.249,386.676 550.909,384.86 549.257,384.86C547.604,384.86 546.265,386.676 546.265,388.915C546.265,391.155 547.604,392.971 549.257,392.971Z" style="fill:rgb(28,2,36);fill-rule:nonzero;"/>
        </g>
        <g transform="matrix(0.425673,0,0,0.425673,67.1034,1445.26)">
            <path d="M468.701,426.897C470.354,426.897 471.694,425.081 471.694,422.841C471.694,420.601 470.354,418.786 468.701,418.786C467.049,418.786 465.709,420.601 465.709,422.841C465.709,425.081 467.049,426.897 468.701,426.897Z" style="fill:rgb(28,2,36);fill-rule:nonzero;"/>
        </g>
        <g transform="matrix(0.425673,0,0,0.425673,67.1034,1445.26)">
            <path d="M483.105,391.577C484.757,391.577 486.097,389.762 486.097,387.522C486.097,385.282 484.757,383.467 483.105,383.467C481.452,383.467 480.112,385.282 480.112,387.522C480.112,389.762 481.452,391.577 483.105,391.577Z" style="fill:rgb(28,2,36);fill-rule:nonzero;"/>
        </g>
        <g transform="matrix(0.425673,0,0,0.425673,67.1034,1445.26)">
            <path d="M493.805,188.7C493.871,187.995 493.994,187.24 494.031,186.43C494.04,185.618 494.049,184.755 494.059,183.843C494.005,180.214 493.605,175.74 491.957,170.927C490.357,166.132 487.718,160.92 483.557,156.271C479.418,151.647 473.819,147.568 467.264,145.005C460.614,142.464 453.006,141.523 445.429,142.761C444.762,142.865 444.102,143.014 443.441,143.158C443.926,144.259 444.358,145.352 444.696,146.419C445.897,150.079 446.156,153.464 446.162,156.201C446.155,157.578 446.1,158.803 445.924,159.86C445.805,160.922 445.686,161.821 445.489,162.533C445.161,163.967 444.987,164.732 444.987,164.732C444.987,164.732 444.746,165.479 444.296,166.88C444.103,167.592 443.747,168.426 443.307,169.4C443.123,169.873 442.89,170.367 442.629,170.88C442.603,170.859 442.58,170.838 442.554,170.818C442.817,170.318 443.054,169.834 443.241,169.372C443.694,168.408 444.062,167.579 444.266,166.87C444.736,165.476 444.987,164.732 444.987,164.732C444.987,164.732 445.15,163.965 445.457,162.527C445.644,161.813 445.75,160.913 445.853,159.852C446.013,158.796 446.05,157.573 446.038,156.201C445.992,153.475 445.686,150.114 444.441,146.501C443.232,142.903 441.249,138.988 438.105,135.517C434.987,132.063 430.767,129.024 425.863,127.133C420.863,125.249 415.18,124.578 409.524,125.529C403.877,126.497 398.377,129.096 393.873,133.014C392.372,134.349 391.023,135.853 389.798,137.458C392.48,139.079 394.746,141.057 396.543,143.207C398.998,146.217 400.621,149.431 401.561,152.419C402.537,155.408 402.743,158.171 402.745,160.404C402.737,161.528 402.69,162.527 402.546,163.389C402.448,164.255 402.349,164.988 402.187,165.568C401.918,166.738 401.775,167.362 401.775,167.362C401.775,167.362 401.58,167.971 401.214,169.114C401.189,169.208 401.141,169.322 401.108,169.421C402.804,168.227 404.581,167.172 406.448,166.336C409.253,165.179 412.138,164.302 415.06,163.944C417.219,163.66 419.376,163.612 421.483,163.766C419.975,163.804 418.457,163.943 416.94,164.198C411.097,165.204 405.408,167.896 400.748,171.95C398.44,174.004 396.454,176.42 394.77,179.038C393.134,181.711 391.985,184.524 391.069,187.601C390.293,190.625 389.832,193.734 389.878,196.854C389.99,199.965 390.465,203.057 391.402,206.002C393.342,211.865 396.851,217.091 401.37,220.936C403.646,222.802 406.109,224.487 408.707,225.604C409.945,226.263 411.374,226.674 412.714,227.162C414.009,227.553 415.403,227.874 416.735,228.142C422.151,229.061 427.478,228.58 432.093,227.157C434.733,226.344 437.103,225.196 439.213,223.89C439.468,223.979 439.725,224.069 439.977,224.159C441.668,224.66 443.457,225.061 445.181,225.399C452.177,226.548 459.038,225.89 464.969,224.027C470.92,222.152 475.847,219.013 479.671,215.707C483.545,212.409 486.172,208.765 488.07,205.672C488.527,204.883 488.959,204.136 489.366,203.433C489.748,202.717 490.027,202.006 490.33,201.366C490.929,200.081 491.417,198.978 491.686,198.034C492.309,196.179 492.64,195.19 492.64,195.19C492.64,195.19 492.86,194.17 493.271,192.257C493.522,191.308 493.665,190.111 493.805,188.7Z" style="fill:rgb(242,149,3);fill-rule:nonzero;"/>
        </g>
        <g transform="matrix(0.425673,0,0,0.425673,67.1034,1445.26)">
            <path d="M402.475,163.381C402.604,162.52 402.632,161.522 402.62,160.404C402.579,158.182 402.325,155.443 401.306,152.501C400.316,149.572 398.698,146.381 396.124,143.569C393.575,140.769 390.126,138.31 386.145,136.795C382.068,135.279 377.459,134.758 372.878,135.549C368.305,136.356 363.864,138.477 360.224,141.648C358.819,142.902 357.613,144.362 356.508,145.9C361.786,148.379 366.165,151.827 369.438,155.696C372.942,159.919 375.239,164.468 376.581,168.688C376.701,169.052 376.771,169.399 376.875,169.759C379.201,169.56 381.607,169.563 384.066,169.887C385.425,170.11 386.768,170.36 388.172,170.731C389.494,171.158 390.836,171.485 392.178,172.12C393.482,172.625 394.729,173.256 395.941,173.968C396.808,173.012 397.714,172.096 398.686,171.257C399.452,170.622 400.247,170.029 401.055,169.458C401.095,169.343 401.152,169.212 401.184,169.104C401.569,167.968 401.775,167.362 401.775,167.362C401.775,167.362 401.907,166.736 402.155,165.562C402.307,164.98 402.392,164.246 402.475,163.381Z" style="fill:rgb(242,149,3);fill-rule:nonzero;"/>
        </g>
        <g transform="matrix(0.425673,0,0,0.425673,67.1034,1445.26)">
            <path d="M393.449,213.732C391.688,211.252 390.33,208.465 389.282,205.543C388.295,202.593 387.765,199.482 387.609,196.336C387.515,193.181 387.931,190.023 388.678,186.945C389.57,183.993 390.861,180.974 392.548,178.321C393.276,177.223 394.07,176.173 394.905,175.162C393.847,174.501 392.765,173.902 391.651,173.424C390.453,172.788 389.075,172.391 387.78,171.921C386.527,171.543 385.182,171.235 383.895,170.977C378.662,170.092 373.517,170.559 369.061,171.936C364.586,173.318 360.884,175.677 358.007,178.152C355.445,180.326 353.615,182.697 352.237,184.817C352.189,184.806 352.142,184.793 352.094,184.781C353.451,182.623 355.265,180.195 357.832,177.953C360.693,175.398 364.416,173.029 368.888,171.419C371.27,170.586 373.881,170.027 376.615,169.772C376.512,169.435 376.444,169.111 376.327,168.77C374.934,164.609 372.641,160.083 369.02,156.058C365.421,152.054 360.552,148.525 354.871,146.318C349.095,144.125 342.506,143.326 335.946,144.413C329.393,145.515 323.002,148.518 317.77,153.064C315.177,155.365 312.944,158.074 311.051,161.01C309.203,164.033 307.927,167.12 306.866,170.679C306.858,170.712 306.852,170.746 306.843,170.778C310.662,170.977 314.339,171.833 317.587,173.2C322.542,175.322 326.554,178.488 329.525,182.02C330.556,183.272 331.456,184.557 332.248,185.851C332.121,185.897 331.989,185.937 331.863,185.984C331.065,184.752 330.157,183.54 329.107,182.382C326.078,179.031 321.98,176.083 317.221,174.252C312.368,172.426 306.854,171.779 301.368,172.704C295.89,173.647 290.557,176.171 286.19,179.97C284.026,181.896 282.164,184.161 280.586,186.615C279.052,189.12 277.975,191.757 277.116,194.641C276.393,197.461 275.963,200.359 276.001,203.267C276.824,203.069 277.648,202.869 278.479,202.772C282.699,202.242 286.898,202.916 290.435,204.354C287.037,203.36 283.331,203.092 279.645,203.739C275.4,204.498 271.284,206.487 267.937,209.451C266.283,210.959 264.85,212.705 263.623,214.593C262.426,216.556 261.626,218.471 260.911,220.847C260.394,222.912 260.036,225.254 260.084,227.483C260.178,229.732 260.512,231.966 261.165,234.107C261.676,235.693 262.392,237.187 263.2,238.622C263.65,238.381 264.086,238.11 264.551,237.908C266.349,237.191 268.192,236.656 270.052,236.451C273.752,236.007 277.435,236.655 280.463,237.975C280.969,238.199 281.43,238.464 281.902,238.719C281.422,238.492 280.944,238.261 280.44,238.075C277.565,237.038 274.357,236.714 271.174,237.294C267.999,237.888 264.936,239.395 262.445,241.615C261.217,242.747 260.152,244.051 259.238,245.458C258.346,246.932 257.765,248.323 257.22,250.137C256.84,251.65 256.565,253.414 256.599,255.07C256.67,256.746 256.911,258.413 257.392,260.013C258.402,263.193 260.263,266.058 262.694,268.187C263.917,269.219 265.259,270.163 266.655,270.786C267.314,271.152 268.114,271.396 268.853,271.675C269.542,271.894 270.317,272.084 271.041,272.24C274.006,272.785 276.943,272.562 279.503,271.809C282.073,271.057 284.212,269.728 285.883,268.325C287.582,266.931 288.718,265.35 289.539,264.014C290.363,262.669 290.831,261.509 291.106,260.713C291.376,259.911 291.521,259.483 291.521,259.483L291.522,259.475C292.351,259.932 293.2,260.359 294.106,260.699C297.508,261.946 301.331,262.356 305.127,261.684C308.915,260.999 312.583,259.219 315.567,256.573C317.039,255.226 318.316,253.668 319.41,251.985C320.478,250.232 321.187,248.534 321.827,246.404C322.287,244.57 322.608,242.477 322.566,240.491C322.482,238.486 322.186,236.493 321.606,234.583C320.389,230.784 318.147,227.376 315.235,224.855C313.77,223.633 312.17,222.519 310.497,221.783C309.705,221.35 308.761,221.069 307.884,220.742C307.42,220.597 306.928,220.468 306.433,220.347C306.342,220.045 306.273,219.75 306.163,219.443C306.124,219.328 306.067,219.208 306.025,219.093C306.763,219.216 307.499,219.353 308.277,219.552C308.653,219.67 309.032,219.78 309.412,219.896C311.362,220.636 313.132,221.171 314.848,222.45C316.557,223.75 318.054,225.363 319.398,227.127C320.7,228.93 321.711,230.96 322.495,233.094C323.934,237.214 324.082,241.699 323.058,246.096C325.618,248.029 328.486,249.723 331.66,250.951C337.189,253.042 343.486,253.796 349.753,252.75C356.012,251.688 362.113,248.814 367.108,244.471C369.583,242.272 371.714,239.684 373.52,236.88C375.285,233.99 376.496,231.054 377.514,227.642C378.305,224.523 378.825,221.101 378.764,217.784C378.642,214.45 378.13,211.137 377.123,207.982C375.043,201.699 371.271,196.106 366.425,192C365.468,191.219 364.473,190.485 363.459,189.789C364.87,190.624 366.235,191.564 367.568,192.578C370.138,194.569 372.378,197.032 374.385,199.714C376.326,202.455 377.825,205.532 378.978,208.759C380.066,212.015 380.649,215.451 380.818,218.922C380.912,222.431 380.476,225.829 379.614,229.345C379.237,230.594 378.761,231.883 378.233,233.167C380.042,233.184 381.871,233.064 383.697,232.756C389.345,231.789 394.845,229.189 399.349,225.272C400.445,224.296 401.465,223.234 402.414,222.108C401.47,221.507 400.541,220.871 399.633,220.183C397.304,218.385 395.271,216.158 393.449,213.732Z" style="fill:rgb(242,149,3);fill-rule:nonzero;"/>
        </g>
    </g>
</svg>
