<?xml version="1.0" encoding="UTF-8" standalone="no"?>
<!DOCTYPE svg PUBLIC "-//W3C//DTD SVG 1.1//EN" "http://www.w3.org/Graphics/SVG/1.1/DTD/svg11.dtd">
<svg width="100%" height="100%" viewBox="0 0 639 108" version="1.1" xmlns="http://www.w3.org/2000/svg" xmlns:xlink="http://www.w3.org/1999/xlink" xml:space="preserve" xmlns:serif="http://www.serif.com/" style="fill-rule:evenodd;clip-rule:evenodd;stroke-linejoin:round;stroke-miterlimit:2;">
    <g transform="matrix(1.01254,0,-4.99625e-17,1.01254,-1718.77,-2577.21)">
        <g transform="matrix(1.74979,0,0,1.74979,1647.85,2480.82)">
            <path d="M45.163,44.152L45.163,37.327L33.227,37.327L33.227,44.152L45.163,44.152ZM45.163,71.454L45.163,45.68L33.227,45.68L33.227,70.07C33.227,72.981 32.793,74.031 29.277,74.031L28.366,74.031L28.366,81.143L34.355,81.143C42.211,81.143 45.163,77.038 45.163,71.454Z" style="fill:rgb(30,28,26);fill-rule:nonzero;"/>
        </g>
        <g transform="matrix(1.74979,0,0,1.74979,1647.85,2480.82)">
            <path d="M76.894,71.072L76.894,64.628C75.635,64.628 75.288,64.103 75.288,63.053L75.288,56.037C75.288,50.309 71.208,45.25 62.137,45.25C56.712,45.25 53.413,45.918 48.682,48.162L50.418,54.319C53.283,53.412 55.583,52.982 58.448,52.982C61.876,52.982 63.439,53.937 63.439,56.276L63.439,57.039C54.672,54.701 46.859,57.517 46.859,63.912L46.859,64.056C46.859,68.542 50.809,71.358 56.278,71.358C60.401,71.358 62.962,69.688 65.305,66.776C67.085,70.117 69.038,71.072 74.073,71.072L76.894,71.072ZM63.439,61.621C63.439,63.626 62.484,65.058 60.314,65.058C58.882,65.058 58.1,64.342 58.1,63.053L58.1,62.862C58.1,61.144 60.054,59.951 63.439,61.431L63.439,61.621Z" style="fill:rgb(30,28,26);fill-rule:nonzero;"/>
        </g>
        <g transform="matrix(1.74979,0,0,1.74979,1647.85,2480.82)">
            <path d="M103.807,47.78L103.807,45.68L77.635,45.68L77.635,53.651L88.399,53.651L77.288,68.781L77.288,70.929L103.503,70.929L103.503,62.624L92.74,62.624L103.807,47.78Z" style="fill:rgb(30,28,26);fill-rule:nonzero;"/>
        </g>
        <g transform="matrix(1.74979,0,0,1.74979,1647.85,2480.82)">
            <path d="M130.59,47.78L130.59,45.68L104.418,45.68L104.418,53.651L115.182,53.651L104.071,68.781L104.071,70.929L130.287,70.929L130.287,62.624L119.523,62.624L130.59,47.78Z" style="fill:rgb(30,28,26);fill-rule:nonzero;"/>
        </g>
        <g transform="matrix(1.74979,0,0,1.74979,1647.85,2480.82)">
            <path d="M163.02,54.796L163.02,47.111L157.334,47.111L157.334,46.825C157.334,45.107 158.245,44.295 160.806,44.295L161.717,44.295L161.717,37.136L158.94,37.136C149.651,37.136 145.789,40.429 145.789,46.825L145.789,47.111L141.014,47.111L141.014,54.796L145.528,54.796L145.528,70.929L157.464,70.929L157.464,54.796L163.02,54.796Z" style="fill:rgb(30,28,26);fill-rule:nonzero;"/>
        </g>
        <g transform="matrix(1.74979,0,0,1.74979,1647.85,2480.82)">
            <path d="M192.58,70.929L192.58,45.68L180.645,45.68L180.645,59.855C180.645,61.956 179.733,63.483 177.954,63.483C176.478,63.483 175.914,62.385 175.914,60.476L175.914,45.68L163.978,45.68L163.978,62.337C163.978,67.158 166.278,71.358 172.138,71.358C175.957,71.358 178.518,69.306 181.079,65.583L181.469,70.929L192.58,70.929ZM186.504,43.484L186.504,36.85L179.126,36.85L179.126,43.484L186.504,43.484ZM177.52,43.484L177.52,36.85L170.141,36.85L170.141,43.484L177.52,43.484Z" style="fill:rgb(30,28,26);fill-rule:nonzero;"/>
        </g>
        <g transform="matrix(1.74979,0,0,1.74979,1647.85,2480.82)">
            <path d="M216.412,56.801L217.324,45.918C211.551,43.866 208.079,46.586 206.777,51.789L206.299,45.68L195.188,45.68L195.188,70.929L207.167,70.929L207.167,60.38C207.167,56.467 209.685,54.51 216.412,56.801Z" style="fill:rgb(30,28,26);fill-rule:nonzero;"/>
        </g>
        <g transform="matrix(1.74979,0,0,1.74979,1647.85,2480.82)">
            <path d="M259.084,70.929L251.576,56.228L258.433,45.68L246.237,45.68L240.942,55.655L240.942,37.947L229.006,37.947L229.006,70.929L240.942,70.929L240.942,67.492L243.329,63.483L246.324,70.929L259.084,70.929Z" style="fill:rgb(30,28,26);fill-rule:nonzero;"/>
        </g>
        <g transform="matrix(1.74979,0,0,1.74979,1647.85,2480.82)">
            <path d="M272.022,44.152L272.022,37.327L260.086,37.327L260.086,44.152L272.022,44.152ZM272.022,70.929L272.022,45.68L260.086,45.68L260.086,70.929L272.022,70.929Z" style="fill:rgb(30,28,26);fill-rule:nonzero;"/>
        </g>
        <g transform="matrix(1.74979,0,0,1.74979,1647.85,2480.82)">
            <path d="M303.406,70.929L303.406,54.223C303.406,49.403 301.106,45.25 295.246,45.25C291.47,45.25 288.692,47.493 286.305,51.025L285.915,45.68L274.803,45.68L274.803,70.929L286.739,70.929L286.739,56.705C286.739,54.653 287.651,53.125 289.387,53.125C290.906,53.125 291.47,54.176 291.47,56.132L291.47,70.929L303.406,70.929Z" style="fill:rgb(30,28,26);fill-rule:nonzero;"/>
        </g>
        <g transform="matrix(1.74979,0,0,1.74979,1647.85,2480.82)">
            <path d="M333.661,70.929L333.661,37.947L321.725,37.947L321.725,47.589C320.12,46.061 318.47,45.25 315.649,45.25C309.616,45.25 305.102,50.834 305.102,57.946L305.102,58.185C305.102,65.44 309.052,71.358 316.864,71.358C320.076,71.358 322.55,69.783 324.156,67.683L324.503,70.929L333.661,70.929ZM321.856,59.187C321.856,62.576 320.944,64.151 319.469,64.151C317.993,64.151 317.081,62.576 317.081,59.187L317.081,57.66C317.081,54.271 317.993,52.648 319.469,52.648C320.944,52.648 321.856,54.271 321.856,57.66L321.856,59.187Z" style="fill:rgb(30,28,26);fill-rule:nonzero;"/>
        </g>
        <g transform="matrix(1.74979,0,0,1.74979,1647.85,2480.82)">
            <path d="M362.224,67.445L359.012,62.337C356.668,63.101 354.542,63.626 351.764,63.626C349.116,63.626 347.467,62.815 347.467,60.524L347.467,60.094L363.526,60.094L363.526,57.755C363.526,50.93 359.186,45.25 349.724,45.25C340.262,45.25 335.314,50.93 335.314,58.185L335.314,58.471C335.314,65.726 340.262,71.358 349.724,71.358C355.453,71.358 359.229,69.736 362.224,67.445ZM352.024,56.753L347.467,56.753L347.467,56.61C347.467,54.844 348.031,52.935 349.724,52.935C351.46,52.935 352.024,54.844 352.024,56.61L352.024,56.753Z" style="fill:rgb(30,28,26);fill-rule:nonzero;"/>
        </g>
        <g transform="matrix(1.74979,0,0,1.74979,1647.85,2480.82)">
            <path d="M386.403,56.801L387.314,45.918C381.542,43.866 378.07,46.586 376.768,51.789L376.29,45.68L365.179,45.68L365.179,70.929L377.158,70.929L377.158,60.38C377.158,56.467 379.675,54.51 386.403,56.801Z" style="fill:rgb(30,28,26);fill-rule:nonzero;"/>
        </g>
        <g transform="matrix(1.74979,0,0,1.74979,1647.85,2480.82)">
            <path d="M46.508,45.489L46.508,38.663L34.572,38.663L34.572,45.489L46.508,45.489ZM46.508,72.79L46.508,47.016L34.572,47.016L34.572,71.406C34.572,74.318 34.138,75.368 30.623,75.368L29.711,75.368L29.711,82.479L35.701,82.479C43.557,82.479 46.508,78.375 46.508,72.79Z" style="fill:rgb(208,32,39);fill-rule:nonzero;"/>
        </g>
        <g transform="matrix(1.74979,0,0,1.74979,1647.85,2480.82)">
            <path d="M78.239,72.408L78.239,65.965C76.981,65.965 76.633,65.44 76.633,64.39L76.633,57.373C76.633,51.646 72.554,46.586 63.482,46.586C58.057,46.586 54.758,47.255 50.027,49.498L51.764,55.655C54.628,54.748 56.929,54.319 59.793,54.319C63.222,54.319 64.784,55.273 64.784,57.612L64.784,58.376C56.017,56.037 48.205,58.853 48.205,65.249L48.205,65.392C48.205,69.879 52.154,72.695 57.623,72.695C61.746,72.695 64.307,71.024 66.651,68.113C68.43,71.454 70.383,72.408 75.418,72.408L78.239,72.408ZM64.784,62.958C64.784,64.963 63.83,66.394 61.659,66.394C60.227,66.394 59.446,65.678 59.446,64.39L59.446,64.199C59.446,62.481 61.399,61.287 64.784,62.767L64.784,62.958Z" style="fill:rgb(208,32,39);fill-rule:nonzero;"/>
        </g>
        <g transform="matrix(1.74979,0,0,1.74979,1647.85,2480.82)">
            <path d="M105.153,49.116L105.153,47.016L78.981,47.016L78.981,54.987L89.745,54.987L78.634,70.117L78.634,72.265L104.849,72.265L104.849,63.96L94.085,63.96L105.153,49.116Z" style="fill:rgb(208,32,39);fill-rule:nonzero;"/>
        </g>
        <g transform="matrix(1.74979,0,0,1.74979,1647.85,2480.82)">
            <path d="M131.936,49.116L131.936,47.016L105.764,47.016L105.764,54.987L116.528,54.987L105.417,70.117L105.417,72.265L131.632,72.265L131.632,63.96L120.868,63.96L131.936,49.116Z" style="fill:rgb(208,32,39);fill-rule:nonzero;"/>
        </g>
        <g transform="matrix(1.74979,0,0,1.74979,1647.85,2480.82)">
            <path d="M164.365,56.132L164.365,48.448L158.679,48.448L158.679,48.162C158.679,46.443 159.591,45.632 162.151,45.632L163.063,45.632L163.063,38.472L160.285,38.472C150.997,38.472 147.134,41.766 147.134,48.162L147.134,48.448L142.36,48.448L142.36,56.132L146.874,56.132L146.874,72.265L158.809,72.265L158.809,56.132L164.365,56.132Z" style="fill:rgb(208,32,39);fill-rule:nonzero;"/>
        </g>
        <g transform="matrix(1.74979,0,0,1.74979,1647.85,2480.82)">
            <path d="M193.926,72.265L193.926,47.016L181.99,47.016L181.99,61.192C181.99,63.292 181.079,64.819 179.299,64.819C177.823,64.819 177.259,63.722 177.259,61.812L177.259,47.016L165.323,47.016L165.323,63.674C165.323,68.495 167.624,72.695 173.483,72.695C177.303,72.695 179.863,70.642 182.424,66.919L182.815,72.265L193.926,72.265ZM187.85,44.82L187.85,38.186L180.471,38.186L180.471,44.82L187.85,44.82ZM178.865,44.82L178.865,38.186L171.487,38.186L171.487,44.82L178.865,44.82Z" style="fill:rgb(208,32,39);fill-rule:nonzero;"/>
        </g>
        <g transform="matrix(1.74979,0,0,1.74979,1647.85,2480.82)">
            <path d="M217.758,58.137L218.669,47.255C212.897,45.202 209.424,47.923 208.122,53.125L207.645,47.016L196.534,47.016L196.534,72.265L208.513,72.265L208.513,61.717C208.513,57.803 211.03,55.846 217.758,58.137Z" style="fill:rgb(208,32,39);fill-rule:nonzero;"/>
        </g>
        <g transform="matrix(1.74979,0,0,1.74979,1647.85,2480.82)">
            <path d="M260.43,72.265L252.921,57.564L259.779,47.016L247.583,47.016L242.287,56.992L242.287,39.284L230.352,39.284L230.352,72.265L242.287,72.265L242.287,68.829L244.675,64.819L247.669,72.265L260.43,72.265Z" style="fill:rgb(208,32,39);fill-rule:nonzero;"/>
        </g>
        <g transform="matrix(1.74979,0,0,1.74979,1647.85,2480.82)">
            <path d="M273.368,45.489L273.368,38.663L261.432,38.663L261.432,45.489L273.368,45.489ZM273.368,72.265L273.368,47.016L261.432,47.016L261.432,72.265L273.368,72.265Z" style="fill:rgb(208,32,39);fill-rule:nonzero;"/>
        </g>
        <g transform="matrix(1.74979,0,0,1.74979,1647.85,2480.82)">
            <path d="M304.751,72.265L304.751,55.56C304.751,50.739 302.451,46.586 296.592,46.586C292.816,46.586 290.038,48.83 287.651,52.362L287.26,47.016L276.149,47.016L276.149,72.265L288.085,72.265L288.085,58.042C288.085,55.989 288.996,54.462 290.732,54.462C292.251,54.462 292.816,55.512 292.816,57.469L292.816,72.265L304.751,72.265Z" style="fill:rgb(208,32,39);fill-rule:nonzero;"/>
        </g>
        <g transform="matrix(1.74979,0,0,1.74979,1647.85,2480.82)">
            <path d="M335.007,72.265L335.007,39.284L323.071,39.284L323.071,48.925C321.465,47.398 319.816,46.586 316.995,46.586C310.962,46.586 306.448,52.171 306.448,59.283L306.448,59.521C306.448,66.776 310.397,72.695 318.21,72.695C321.422,72.695 323.896,71.12 325.502,69.02L325.849,72.265L335.007,72.265ZM323.201,60.524C323.201,63.912 322.29,65.488 320.814,65.488C319.338,65.488 318.427,63.912 318.427,60.524L318.427,58.996C318.427,55.607 319.338,53.985 320.814,53.985C322.29,53.985 323.201,55.607 323.201,58.996L323.201,60.524Z" style="fill:rgb(208,32,39);fill-rule:nonzero;"/>
        </g>
        <g transform="matrix(1.74979,0,0,1.74979,1647.85,2480.82)">
            <path d="M363.569,68.781L360.358,63.674C358.014,64.438 355.887,64.963 353.109,64.963C350.462,64.963 348.812,64.151 348.812,61.86L348.812,61.431L364.872,61.431L364.872,59.092C364.872,52.266 360.531,46.586 351.069,46.586C341.608,46.586 336.66,52.266 336.66,59.521L336.66,59.808C336.66,67.063 341.608,72.695 351.069,72.695C356.799,72.695 360.575,71.072 363.569,68.781ZM353.37,58.089L348.812,58.089L348.812,57.946C348.812,56.18 349.377,54.271 351.069,54.271C352.806,54.271 353.37,56.18 353.37,57.946L353.37,58.089Z" style="fill:rgb(208,32,39);fill-rule:nonzero;"/>
        </g>
        <g transform="matrix(1.74979,0,0,1.74979,1647.85,2480.82)">
            <path d="M387.748,58.137L388.66,47.255C382.887,45.202 379.415,47.923 378.113,53.125L377.636,47.016L366.524,47.016L366.524,72.265L378.504,72.265L378.504,61.717C378.504,57.803 381.021,55.846 387.748,58.137Z" style="fill:rgb(208,32,39);fill-rule:nonzero;"/>
        </g>
        <g transform="matrix(5.53999,0,0,5.53999,213.54,2458.03)">
            <rect x="357.547" y="28.913" width="5.903" height="5.953" style="fill:rgb(30,28,26);"/>
        </g>
        <g transform="matrix(5.53999,0,0,5.53999,2274.1,2651.19)">
            <path d="M0,-5.953L-6.998,0L-0.516,0L6.482,-5.953L0,-5.953ZM-6.251,-5.953L-3.487,-4.133L-2.444,-5.018L-3.878,-5.953L-6.251,-5.953ZM2.116,-1.088L3.758,0L6.138,0L3.154,-1.983L2.116,-1.088Z" style="fill:rgb(30,28,26);fill-rule:nonzero;"/>
        </g>
        <g transform="matrix(5.53999,0,0,5.53999,213.54,2458.03)">
            <path d="M345.288,28.913L351.191,28.913L351.191,34.866L345.288,34.866L345.288,28.913ZM353.436,31.172C354.123,30.958 354.581,30.572 354.581,30.131C354.581,29.458 353.515,28.913 352.2,28.913L352.2,34.866C354.252,34.866 355.916,34.015 355.916,32.965C355.916,32.136 354.881,31.432 353.436,31.172" style="fill:rgb(30,28,26);fill-rule:nonzero;"/>
        </g>
        <g transform="matrix(5.53999,0,0,5.53999,1917.59,2623.73)">
            <path d="M0,3.959L0,1.556C0,1.009 -0.282,0.585 -0.732,0.585C-1.042,0.585 -1.289,0.77 -1.431,1.061L-1.431,-0.997L-2.216,-0.997L-2.216,4.885L-1.616,4.885L-1.537,4.471C-1.395,4.815 -1.112,4.956 -0.812,4.956C-0.3,4.956 0,4.542 0,3.959M-0.767,3.862C-0.767,4.127 -0.9,4.277 -1.103,4.277C-1.28,4.277 -1.431,4.127 -1.431,3.871L-1.431,1.688C-1.431,1.441 -1.298,1.282 -1.095,1.282C-0.891,1.282 -0.767,1.432 -0.767,1.706L-0.767,3.862ZM2.658,3.764L2.658,3.358L1.953,3.358L1.953,3.879C1.953,4.109 1.856,4.268 1.617,4.268C1.396,4.268 1.281,4.109 1.281,3.879L1.281,2.872L2.658,2.872L2.658,1.786C2.658,1.07 2.253,0.585 1.608,0.585C0.972,0.585 0.513,1.07 0.513,1.786L0.513,3.756C0.513,4.48 0.972,4.956 1.608,4.956C2.253,4.956 2.658,4.48 2.658,3.764M1.944,2.422L1.281,2.422L1.281,1.671C1.281,1.432 1.404,1.273 1.617,1.273C1.838,1.273 1.944,1.432 1.944,1.671L1.944,2.422ZM5.511,4.885L4.76,2.493L5.44,0.637L4.681,0.637L3.983,2.643L3.983,-0.997L3.189,-0.997L3.189,4.885L3.983,4.885L3.983,3.756L4.248,3.155L4.734,4.885L5.511,4.885ZM8.09,4.956L8.09,4.365C7.966,4.356 7.913,4.286 7.913,4.153L7.913,1.733C7.913,1.061 7.587,0.585 6.898,0.585C6.209,0.585 5.865,1.044 5.865,1.671L5.865,2.006L6.58,2.006L6.58,1.635C6.58,1.406 6.651,1.282 6.863,1.282C7.066,1.282 7.155,1.406 7.155,1.618L7.155,2.271C6.341,2.572 5.742,2.943 5.742,3.72L5.742,3.924C5.742,4.577 6.077,4.956 6.571,4.956C6.898,4.956 7.172,4.797 7.331,4.498C7.419,4.815 7.631,4.956 7.904,4.956L8.09,4.956ZM7.155,3.897C7.155,4.127 6.996,4.312 6.783,4.312C6.589,4.312 6.491,4.153 6.491,3.941L6.491,3.606C6.491,3.27 6.712,3.022 7.155,2.872L7.155,3.897ZM10.775,4.886L10.775,1.512C10.775,0.956 10.502,0.585 10.025,0.585C9.707,0.585 9.424,0.788 9.283,1.203L9.239,0.647L8.541,0.647L8.541,4.886L9.327,4.886L9.327,1.751C9.327,1.547 9.468,1.274 9.689,1.274C9.866,1.274 9.989,1.424 9.989,1.645L9.989,4.886L10.775,4.886ZM13.601,4.886L13.601,1.512C13.601,0.956 13.328,0.585 12.851,0.585C12.533,0.585 12.25,0.788 12.109,1.203L12.065,0.647L11.367,0.647L11.367,4.886L12.153,4.886L12.153,1.751C12.153,1.547 12.294,1.274 12.515,1.274C12.692,1.274 12.815,1.424 12.815,1.645L12.815,4.886L13.601,4.886ZM15.615,1.361L15.615,0.674L15.155,0.674L15.155,-0.245L14.406,-0.024L14.406,0.674L13.973,0.674L13.973,1.361L14.362,1.361L14.362,3.658C14.362,4.224 14.414,4.568 14.538,4.885L15.323,4.885C15.191,4.533 15.155,4.153 15.155,3.658L15.155,1.361L15.615,1.361ZM19.368,4.956L19.368,4.365C19.244,4.356 19.191,4.286 19.191,4.153L19.191,1.733C19.191,1.061 18.865,0.585 18.176,0.585C17.487,0.585 17.143,1.044 17.143,1.671L17.143,2.006L17.858,2.006L17.858,1.635C17.858,1.406 17.929,1.282 18.141,1.282C18.344,1.282 18.433,1.406 18.433,1.618L18.433,2.271C17.62,2.572 17.02,2.943 17.02,3.72L17.02,3.924C17.02,4.577 17.355,4.956 17.849,4.956C18.176,4.956 18.451,4.797 18.609,4.498C18.697,4.815 18.909,4.956 19.183,4.956L19.368,4.956ZM18.433,3.897C18.433,4.127 18.274,4.312 18.061,4.312C17.867,4.312 17.769,4.153 17.769,3.941L17.769,3.606C17.769,3.27 17.991,3.022 18.433,2.872L18.433,3.897ZM22.044,4.885L22.044,0.646L21.259,0.646L21.259,3.8C21.259,4.003 21.126,4.277 20.905,4.277C20.728,4.277 20.596,4.127 20.596,3.906L20.596,0.646L19.811,0.646L19.811,4.03C19.811,4.586 20.084,4.956 20.569,4.956C20.888,4.956 21.179,4.762 21.321,4.374L21.365,4.885L22.044,4.885ZM24.685,3.818C24.685,3.164 24.314,2.793 23.864,2.448C23.475,2.112 23.307,1.918 23.307,1.609C23.307,1.406 23.422,1.273 23.634,1.273C23.873,1.273 23.997,1.414 23.997,1.635L23.997,1.962L24.65,1.962L24.65,1.697C24.65,1.044 24.297,0.585 23.617,0.585C23.016,0.585 22.575,1 22.575,1.697C22.575,2.263 22.893,2.651 23.307,2.961C23.767,3.385 23.962,3.535 23.962,3.924C23.962,4.171 23.829,4.295 23.59,4.295C23.351,4.295 23.219,4.162 23.219,3.871L23.219,3.553L22.54,3.553L22.54,3.809C22.54,4.515 22.928,4.956 23.625,4.956C24.323,4.956 24.685,4.445 24.685,3.818M28.482,4.885L28.482,-0.997L27.697,-0.997L27.697,0.956C27.529,0.709 27.335,0.585 27.034,0.585C26.593,0.585 26.267,1 26.267,1.582L26.267,3.959C26.267,4.542 26.567,4.956 27.087,4.956C27.388,4.956 27.662,4.815 27.803,4.471L27.856,4.885L28.482,4.885ZM27.697,3.871C27.697,4.127 27.547,4.277 27.37,4.277C27.167,4.277 27.034,4.127 27.034,3.862L27.034,1.697C27.034,1.423 27.167,1.273 27.37,1.273C27.565,1.273 27.697,1.432 27.697,1.68L27.697,3.871ZM31.185,3.764L31.185,3.358L30.479,3.358L30.479,3.879C30.479,4.109 30.382,4.268 30.143,4.268C29.922,4.268 29.807,4.109 29.807,3.879L29.807,2.872L31.185,2.872L31.185,1.786C31.185,1.07 30.779,0.585 30.134,0.585C29.499,0.585 29.04,1.07 29.04,1.786L29.04,3.756C29.04,4.48 29.499,4.956 30.134,4.956C30.779,4.956 31.185,4.48 31.185,3.764M30.471,2.422L29.807,2.422L29.807,1.671C29.807,1.432 29.931,1.273 30.143,1.273C30.364,1.273 30.471,1.432 30.471,1.671L30.471,2.422ZM35.221,4.885L35.221,1.512C35.221,0.938 34.956,0.585 34.507,0.585C34.188,0.585 33.932,0.77 33.799,1.176C33.702,0.823 33.491,0.585 33.164,0.585C32.846,0.585 32.598,0.788 32.474,1.194L32.413,0.647L31.716,0.647L31.716,4.885L32.501,4.885L32.501,1.75C32.501,1.547 32.607,1.273 32.819,1.273C32.97,1.273 33.076,1.414 33.076,1.618L33.076,4.885L33.87,4.885L33.87,1.777C33.87,1.573 33.958,1.3 34.171,1.3C34.339,1.3 34.436,1.441 34.436,1.644L34.436,4.885L35.221,4.885Z" style="fill:rgb(30,28,26);fill-rule:nonzero;"/>
        </g>
    </g>
</svg>
